<?xml version="1.0" standalone="no"?><!-- Generator: Gravit.io --><svg xmlns="http://www.w3.org/2000/svg" xmlns:xlink="http://www.w3.org/1999/xlink" style="isolation:isolate" viewBox="0 0 400 300" width="400" height="300"><defs><clipPath id="_clipPath_WukuTgd1WDs1MOFUB58QEVeaKvLTKCgt"><rect width="400" height="300"/></clipPath></defs><g clip-path="url(#_clipPath_WukuTgd1WDs1MOFUB58QEVeaKvLTKCgt)"><clipPath id="_clipPath_y45VDaB3c8cARCWGbzlzFIryPOeLkCGq"><rect x="0" y="0" width="400" height="300" transform="matrix(1,0,0,1,0,0)" fill="rgb(255,255,255)"/></clipPath><g clip-path="url(#_clipPath_y45VDaB3c8cARCWGbzlzFIryPOeLkCGq)"><g id="Group"><g opacity="0"><rect x="0" y="0" width="400" height="300" transform="matrix(1,0,0,1,0,0)" fill="rgb(248,248,248)"/></g><g id="Group"><g transform="matrix(0.499,0,0,0.499,117.434,76.773)"><text transform="matrix(1,0,0,1,0,78.317)" style="font-family:&quot;Palatino Linotype&quot;;font-weight:400;font-size:107px;font-style:normal;fill:#DC4405;stroke:none;">geography</text></g></g><g id="Group"><g transform="matrix(0.499,0,0,0.499,26.808,122.753)"><text transform="matrix(1,0,0,1,0,57.091)" style="font-family:&quot;Palatino Linotype&quot;;font-weight:400;font-size:78px;font-style:normal;fill:#F4BA38;stroke:none;">geospatial</text></g></g><g id="Group"><g transform="matrix(0,0.499,-0.499,0,121.481,31.283)"><text transform="matrix(1,0,0,1,0,46.844)" style="font-family:&quot;Palatino Linotype&quot;;font-weight:400;font-size:64px;font-style:normal;fill:#FF753A;stroke:none;">science</text></g></g><g id="Group"><g transform="matrix(0,0.499,-0.499,0,263.836,116.854)"><text transform="matrix(1,0,0,1,0,45.38)" style="font-family:&quot;Palatino Linotype&quot;;font-weight:400;font-size:62px;font-style:normal;fill:#EAA000;stroke:none;">technologies</text></g></g><g id="Group"><g transform="matrix(0,0.499,-0.499,0,94.328,15.1)"><text transform="matrix(1,0,0,1,0,45.38)" style="font-family:&quot;Palatino Linotype&quot;;font-weight:400;font-size:62px;font-style:normal;fill:#DC4405;stroke:none;">students</text></g></g><g id="Group"><g transform="matrix(0.499,0,0,0.499,120.524,56.301)"><text transform="matrix(1,0,0,1,0,45.38)" style="font-family:&quot;Palatino Linotype&quot;;font-weight:400;font-size:62px;font-style:normal;fill:#FFAE00;stroke:none;">graduate</text></g></g><g id="Group"><g transform="matrix(0,0.499,-0.499,0,220.874,134.117)"><text transform="matrix(1,0,0,1,0,32.205)" style="font-family:&quot;Palatino Linotype&quot;;font-weight:400;font-size:44px;font-style:normal;fill:#FF753A;stroke:none;">human</text></g></g><g id="Group"><g transform="matrix(0,0.499,-0.499,0,239.089,128.28)"><text transform="matrix(1,0,0,1,0,30.741)" style="font-family:&quot;Palatino Linotype&quot;;font-weight:400;font-size:42px;font-style:normal;fill:#B6F23A;stroke:none;">change</text></g></g><g id="Group"><g transform="matrix(0,0.499,-0.499,0,282.962,117.3)"><text transform="matrix(1,0,0,1,0,30.741)" style="font-family:&quot;Palatino Linotype&quot;;font-weight:400;font-size:42px;font-style:normal;fill:#FF00A4;stroke:none;">osu</text></g></g><g id="Group"><g transform="matrix(0.499,0,0,0.499,120.323,176.005)"><text transform="matrix(1,0,0,1,0,29.277)" style="font-family:&quot;Palatino Linotype&quot;;font-weight:400;font-size:40px;font-style:normal;fill:#FF753A;stroke:none;">area</text></g></g><g id="Group"><g transform="matrix(0,0.499,-0.499,0,186.011,152.035)"><text transform="matrix(1,0,0,1,0,29.277)" style="font-family:&quot;Palatino Linotype&quot;;font-weight:400;font-size:40px;font-style:normal;fill:#226F34;stroke:none;">analysis</text></g></g><g id="Group"><g transform="matrix(0,0.499,-0.499,0,277.745,10.646)"><text transform="matrix(1,0,0,1,0,29.277)" style="font-family:&quot;Palatino Linotype&quot;;font-weight:400;font-size:40px;font-style:normal;fill:#EAA000;stroke:none;">research</text></g></g><g id="Group"><g transform="matrix(0.499,0,0,0.499,279.401,131.136)"><text transform="matrix(1,0,0,1,0,29.277)" style="font-family:&quot;Palatino Linotype&quot;;font-weight:400;font-size:40px;font-style:normal;fill:#6D2B9D;stroke:none;">study</text></g></g><g id="Group"><g transform="matrix(0,0.499,-0.499,0,202.597,153.426)"><text transform="matrix(1,0,0,1,0,28.545)" style="font-family:&quot;Palatino Linotype&quot;;font-weight:400;font-size:39px;font-style:normal;fill:#808221;stroke:none;">obtain</text></g></g><g id="Group"><g transform="matrix(0,0.499,-0.499,0,119.472,164.812)"><text transform="matrix(1,0,0,1,0,27.813)" style="font-family:&quot;Palatino Linotype&quot;;font-weight:400;font-size:38px;font-style:normal;fill:#6F4C0A;stroke:none;">spatial</text></g></g><g id="Group"><g transform="matrix(0.499,0,0,0.499,156.085,40.63)"><text transform="matrix(1,0,0,1,0,27.813)" style="font-family:&quot;Palatino Linotype&quot;;font-weight:400;font-size:38px;font-style:normal;fill:#7773A5;stroke:none;">natural</text></g></g><g id="Group"><g transform="matrix(0.499,0,0,0.499,131.571,158.802)"><text transform="matrix(1,0,0,1,0,8.783)" style="font-family:&quot;Palatino Linotype&quot;;font-weight:400;font-size:12px;font-style:normal;fill:#3DB1A9;stroke:none;">advising</text></g></g><g id="Group"><g transform="matrix(0.499,0,0,0.499,259.435,163.289)"><text transform="matrix(1,0,0,1,0,8.783)" style="font-family:&quot;Palatino Linotype&quot;;font-weight:400;font-size:12px;font-style:normal;fill:#CA8773;stroke:none;">analyze</text></g></g><g id="Group"><g transform="matrix(0.499,0,0,0.499,216.661,198.687)"><text transform="matrix(1,0,0,1,0,8.783)" style="font-family:&quot;Palatino Linotype&quot;;font-weight:400;font-size:12px;font-style:normal;fill:#C2A9CC;stroke:none;">applied</text></g></g><g id="Group"><g transform="matrix(0,0.499,-0.499,0,203.214,204.912)"><text transform="matrix(1,0,0,1,0,8.783)" style="font-family:&quot;Palatino Linotype&quot;;font-weight:400;font-size:12px;font-style:normal;fill:#B5D4E4;stroke:none;">apply</text></g></g><g id="Group"><g transform="matrix(0,0.499,-0.499,0,240.605,164.284)"><text transform="matrix(1,0,0,1,0,8.783)" style="font-family:&quot;Palatino Linotype&quot;;font-weight:400;font-size:12px;font-style:normal;fill:#B6C5AE;stroke:none;">areas</text></g></g><g id="Group"><g transform="matrix(0.499,0,0,0.499,149.631,152.82)"><text transform="matrix(1,0,0,1,0,8.783)" style="font-family:&quot;Palatino Linotype&quot;;font-weight:400;font-size:12px;font-style:normal;fill:#FFC5C5;stroke:none;">careers</text></g></g><g id="Group"><g transform="matrix(0,0.499,-0.499,0,285.475,56.287)"><text transform="matrix(1,0,0,1,0,8.783)" style="font-family:&quot;Palatino Linotype&quot;;font-weight:400;font-size:12px;font-style:normal;fill:#E4C87C;stroke:none;">cartography</text></g></g><g id="Group"><g transform="matrix(0,0.499,-0.499,0,265.533,125.367)"><text transform="matrix(1,0,0,1,0,8.783)" style="font-family:&quot;Palatino Linotype&quot;;font-weight:400;font-size:12px;font-style:normal;fill:#C5B39F;stroke:none;">certificate</text></g></g><g id="Group"><g transform="matrix(0,0.499,-0.499,0,169.811,164.536)"><text transform="matrix(1,0,0,1,0,8.783)" style="font-family:&quot;Palatino Linotype&quot;;font-weight:400;font-size:12px;font-style:normal;fill:#0000FF;stroke:none;">climate</text></g></g><g id="Group"><g transform="matrix(0,0.499,-0.499,0,163.828,161.86)"><text transform="matrix(1,0,0,1,0,8.783)" style="font-family:&quot;Palatino Linotype&quot;;font-weight:400;font-size:12px;font-style:normal;fill:#33C533;stroke:none;">information</text></g></g><g id="Group"><g transform="matrix(0,0.499,-0.499,0,221.66,142.382)"><text transform="matrix(1,0,0,1,0,8.783)" style="font-family:&quot;Palatino Linotype&quot;;font-weight:400;font-size:12px;font-style:normal;fill:#FF00FF;stroke:none;">cultural</text></g></g><g id="Group"><g transform="matrix(0,0.499,-0.499,0,233.127,39.325)"><text transform="matrix(1,0,0,1,0,8.783)" style="font-family:&quot;Palatino Linotype&quot;;font-weight:400;font-size:12px;font-style:normal;fill:#7933FF;stroke:none;">develop</text></g></g><g id="Group"><g transform="matrix(0,0.499,-0.499,0,126.437,151.9)"><text transform="matrix(1,0,0,1,0,8.783)" style="font-family:&quot;Palatino Linotype&quot;;font-weight:400;font-size:12px;font-style:normal;fill:#1CFFFF;stroke:none;">diversity</text></g></g><g id="Group"><g transform="matrix(0.499,0,0,0.499,131.185,164.785)"><text transform="matrix(1,0,0,1,0,8.783)" style="font-family:&quot;Palatino Linotype&quot;;font-weight:400;font-size:12px;font-style:normal;fill:#FFAE00;stroke:none;">earth</text></g></g><g id="Group"><g transform="matrix(0,0.499,-0.499,0,291.957,148.933)"><text transform="matrix(1,0,0,1,0,8.783)" style="font-family:&quot;Palatino Linotype&quot;;font-weight:400;font-size:12px;font-style:normal;fill:#1EB1FF;stroke:none;">engaged</text></g></g><g id="Group"><g transform="matrix(0,0.499,-0.499,0,155.353,25.949)"><text transform="matrix(1,0,0,1,0,8.783)" style="font-family:&quot;Palatino Linotype&quot;;font-weight:400;font-size:12px;font-style:normal;fill:#B6F23A;stroke:none;">environment</text></g></g><g id="Group"><g transform="matrix(0,0.499,-0.499,0,299.435,149.717)"><text transform="matrix(1,0,0,1,0,8.783)" style="font-family:&quot;Palatino Linotype&quot;;font-weight:400;font-size:12px;font-style:normal;fill:#FF00A4;stroke:none;">environmental</text></g></g><g id="Group"><g transform="matrix(0.499,0,0,0.499,228.021,84.518)"><text transform="matrix(1,0,0,1,0,8.783)" style="font-family:&quot;Palatino Linotype&quot;;font-weight:400;font-size:12px;font-style:normal;fill:#336699;stroke:none;">evaluate</text></g></g><g id="Group"><g transform="matrix(0,0.499,-0.499,0,216.675,206.604)"><text transform="matrix(1,0,0,1,0,8.783)" style="font-family:&quot;Palatino Linotype&quot;;font-weight:400;font-size:12px;font-style:normal;fill:#226F34;stroke:none;">excellence</text></g></g><g id="Group"><g transform="matrix(0,0.499,-0.499,0,263.539,172.495)"><text transform="matrix(1,0,0,1,0,8.783)" style="font-family:&quot;Palatino Linotype&quot;;font-weight:400;font-size:12px;font-style:normal;fill:#9B1468;stroke:none;">faculty</text></g></g><g id="Group"><g transform="matrix(0.499,0,0,0.499,188.326,81.526)"><text transform="matrix(1,0,0,1,0,8.783)" style="font-family:&quot;Palatino Linotype&quot;;font-weight:400;font-size:12px;font-style:normal;fill:#6D2B9D;stroke:none;">geographers</text></g></g><g id="Group"><g transform="matrix(0,0.499,-0.499,0,96.523,82.564)"><text transform="matrix(1,0,0,1,0,8.783)" style="font-family:&quot;Palatino Linotype&quot;;font-weight:400;font-size:12px;font-style:normal;fill:#808221;stroke:none;">geographic</text></g></g><g id="Group"><g transform="matrix(0.499,0,0,0.499,266.266,189.713)"><text transform="matrix(1,0,0,1,0,8.783)" style="font-family:&quot;Palatino Linotype&quot;;font-weight:400;font-size:12px;font-style:normal;fill:#6F4C0A;stroke:none;">geovisualization</text></g></g><g id="Group"><g transform="matrix(0.499,0,0,0.499,155.149,93.99)"><text transform="matrix(1,0,0,1,0,8.783)" style="font-family:&quot;Palatino Linotype&quot;;font-weight:400;font-size:12px;font-style:normal;fill:#7773A5;stroke:none;">gis</text></g></g><g id="Group"><g transform="matrix(0.499,0,0,0.499,268.165,176.252)"><text transform="matrix(1,0,0,1,0,8.783)" style="font-family:&quot;Palatino Linotype&quot;;font-weight:400;font-size:12px;font-style:normal;fill:#3DB1A9;stroke:none;">giscience</text></g></g><g id="Group"><g transform="matrix(0,0.499,-0.499,0,296.444,54.676)"><text transform="matrix(1,0,0,1,0,8.783)" style="font-family:&quot;Palatino Linotype&quot;;font-weight:400;font-size:12px;font-style:normal;fill:#CA8773;stroke:none;">globalization</text></g></g><g id="Group"><g transform="matrix(0.499,0,0,0.499,161.763,116.425)"><text transform="matrix(1,0,0,1,0,8.783)" style="font-family:&quot;Palatino Linotype&quot;;font-weight:400;font-size:12px;font-style:normal;fill:#C2A9CC;stroke:none;">government</text></g></g><g id="Group"><g transform="matrix(0,0.499,-0.499,0,148.872,38.508)"><text transform="matrix(1,0,0,1,0,8.783)" style="font-family:&quot;Palatino Linotype&quot;;font-weight:400;font-size:12px;font-style:normal;fill:#B5D4E4;stroke:none;">hazards</text></g></g><g id="Group"><g transform="matrix(0,0.499,-0.499,0,154.356,167.808)"><text transform="matrix(1,0,0,1,0,8.783)" style="font-family:&quot;Palatino Linotype&quot;;font-weight:400;font-size:12px;font-style:normal;fill:#B6C5AE;stroke:none;">help</text></g></g><g id="Group"><g transform="matrix(0.499,0,0,0.499,171.783,123.904)"><text transform="matrix(1,0,0,1,0,8.783)" style="font-family:&quot;Palatino Linotype&quot;;font-weight:400;font-size:12px;font-style:normal;fill:#FFC5C5;stroke:none;">helps</text></g></g><g id="Group"><g transform="matrix(0,0.499,-0.499,0,142.39,24.903)"><text transform="matrix(1,0,0,1,0,8.783)" style="font-family:&quot;Palatino Linotype&quot;;font-weight:400;font-size:12px;font-style:normal;fill:#E4C87C;stroke:none;">identification</text></g></g><g id="Group"><g transform="matrix(0,0.499,-0.499,0,223.655,39.139)"><text transform="matrix(1,0,0,1,0,8.783)" style="font-family:&quot;Palatino Linotype&quot;;font-weight:400;font-size:12px;font-style:normal;fill:#C5B39F;stroke:none;">include</text></g></g><g id="Group"><g transform="matrix(0.499,0,0,0.499,146.124,196.194)"><text transform="matrix(1,0,0,1,0,8.783)" style="font-family:&quot;Palatino Linotype&quot;;font-weight:400;font-size:12px;font-style:normal;fill:#0000FF;stroke:none;">industry</text></g></g><g id="Group"><g transform="matrix(0.499,0,0,0.499,131.9,205.666)"><text transform="matrix(1,0,0,1,0,8.783)" style="font-family:&quot;Palatino Linotype&quot;;font-weight:400;font-size:12px;font-style:normal;fill:#33C533;stroke:none;">concentration</text></g></g></g></g></g></svg>