<?xml version="1.0" standalone="no"?><!-- Generator: Gravit.io --><svg xmlns="http://www.w3.org/2000/svg" xmlns:xlink="http://www.w3.org/1999/xlink" style="isolation:isolate" viewBox="0 0 400 300" width="400" height="300"><defs><clipPath id="_clipPath_GUfYVaXHD5Y2dTRt8N781CNVJjDOF0wn"><rect width="400" height="300"/></clipPath></defs><g clip-path="url(#_clipPath_GUfYVaXHD5Y2dTRt8N781CNVJjDOF0wn)"><rect width="400" height="300" style="fill:rgb(248,248,248)"/><path d=" M 84 70 L 136 97.098 L 136 97.098 L 136 97.098" fill="none" vector-effect="non-scaling-stroke" stroke-width="2" stroke="rgb(255,117,58)" stroke-linejoin="miter" stroke-linecap="square" stroke-miterlimit="3"/><path d=" M 353 141 L 262 70 L 220.902 154.196" fill="none" vector-effect="non-scaling-stroke" stroke-width="2" stroke="rgb(255,117,58)" stroke-linejoin="miter" stroke-linecap="square" stroke-miterlimit="3"/><path d=" M 341 75 L 262 70 L 262 72 L 262 72" fill="none" vector-effect="non-scaling-stroke" stroke-width="2" stroke="rgb(255,117,58)" stroke-linejoin="miter" stroke-linecap="square" stroke-miterlimit="3"/><path d=" M 91.098 108.098 Q 125.098 113.098 140 97.098 Q 184.509 143.468 222 154.196 Q 231.174 156.821 222 154.196 L 237.098 251.098" fill="none" vector-effect="non-scaling-stroke" stroke-width="2" stroke="rgb(255,117,58)" stroke-linejoin="miter" stroke-linecap="square" stroke-miterlimit="3"/><path d=" M 138.902 225 L 220.902 154.098 L 220.902 154.098" fill="rgb(255,117,58)" vector-effect="non-scaling-stroke" stroke-width="2" stroke="rgb(255,117,58)" stroke-linejoin="miter" stroke-linecap="square" stroke-miterlimit="3"/><path d=" M 76 69.098 C 76 64.077 80.077 60 85.098 60 C 90.119 60 94.196 64.077 94.196 69.098 C 94.196 74.119 90.119 78.196 85.098 78.196 C 80.077 78.196 76 74.119 76 69.098 Z " fill="rgb(255,199,80)"/><path d=" M 127 97.098 C 127 92.077 131.077 88 136.098 88 C 141.119 88 145.196 92.077 145.196 97.098 C 145.196 102.119 141.119 106.196 136.098 106.196 C 131.077 106.196 127 102.119 127 97.098 Z " fill="rgb(255,117,58)"/><path d=" M 254 69.098 C 254 64.077 258.077 60 263.098 60 C 268.119 60 272.196 64.077 272.196 69.098 C 272.196 74.119 268.119 78.196 263.098 78.196 C 258.077 78.196 254 74.119 254 69.098 Z " fill="rgb(234,160,0)"/><path d=" M 129.804 224.098 C 129.804 219.077 133.881 215 138.902 215 C 143.923 215 148 219.077 148 224.098 C 148 229.119 143.923 233.196 138.902 233.196 C 133.881 233.196 129.804 229.119 129.804 224.098 Z " fill="rgb(234,160,0)"/><path d=" M 341.098 140.902 C 341.098 135.881 345.175 131.804 350.196 131.804 C 355.217 131.804 359.294 135.881 359.294 140.902 C 359.294 145.923 355.217 150 350.196 150 C 345.175 150 341.098 145.923 341.098 140.902 Z " fill="rgb(244,186,56)"/><path d=" M 210 154.098 C 210 149.077 214.077 145 219.098 145 C 224.119 145 228.196 149.077 228.196 154.098 C 228.196 159.119 224.119 163.196 219.098 163.196 C 214.077 163.196 210 159.119 210 154.098 Z " fill="rgb(220,68,5)"/><path d=" M 82 109.098 C 82 104.077 86.077 100 91.098 100 C 96.119 100 100.196 104.077 100.196 109.098 C 100.196 114.119 96.119 118.196 91.098 118.196 C 86.077 118.196 82 114.119 82 109.098 Z " fill="rgb(255,199,80)"/><path d=" M 224 252.098 C 224 247.077 228.077 243 233.098 243 C 238.119 243 242.196 247.077 242.196 252.098 C 242.196 257.119 238.119 261.196 233.098 261.196 C 228.077 261.196 224 257.119 224 252.098 Z " fill="rgb(220,68,5)"/><path d=" M 332 74 C 332 68.979 336.077 64.902 341.098 64.902 C 346.119 64.902 350.196 68.979 350.196 74 C 350.196 79.021 346.119 83.098 341.098 83.098 C 336.077 83.098 332 79.021 332 74 Z " fill="rgb(234,160,0)"/></g></svg>