<?xml version="1.0" standalone="no"?><!-- Generator: Gravit.io --><svg xmlns="http://www.w3.org/2000/svg" xmlns:xlink="http://www.w3.org/1999/xlink" style="isolation:isolate" viewBox="0 0 400 300" width="400" height="300"><defs><clipPath id="_clipPath_Yj57VSrrnBQvIiB2msw1CWcqJTonvntM"><rect width="400" height="300"/></clipPath></defs><g clip-path="url(#_clipPath_Yj57VSrrnBQvIiB2msw1CWcqJTonvntM)"><rect width="400" height="300" style="fill:rgb(248,248,248)"/><rect x="300.356" y="176.992" width="51.327" height="77" transform="matrix(1,0,0,1,0,0)" fill="rgb(242,220,172)" vector-effect="non-scaling-stroke" stroke-width="1" stroke="rgb(220,68,5)" stroke-opacity="0.5" stroke-linejoin="round" stroke-linecap="butt" stroke-miterlimit="1.414"/><rect x="300.356" y="119.992" width="51.327" height="57" transform="matrix(1,0,0,1,0,0)" fill="rgb(251,206,109)" vector-effect="non-scaling-stroke" stroke-width="1" stroke="rgb(220,68,5)" stroke-opacity="0.5" stroke-linejoin="round" stroke-linecap="butt" stroke-miterlimit="1.414"/><rect x="192.318" y="215.492" width="37" height="38.5" transform="matrix(1,0,0,1,0,0)" fill="rgb(244,151,110)" vector-effect="non-scaling-stroke" stroke-width="1" stroke="rgb(220,68,5)" stroke-opacity="0.5" stroke-linejoin="round" stroke-linecap="butt" stroke-miterlimit="1.414"/><rect x="192.318" y="168.992" width="37" height="46.5" transform="matrix(1,0,0,1,0,0)" fill="rgb(244,125,73)" vector-effect="non-scaling-stroke" stroke-width="1" stroke="rgb(220,68,5)" stroke-opacity="0.5" stroke-linejoin="round" stroke-linecap="butt" stroke-miterlimit="1.414"/><rect x="229.318" y="46.008" width="122.365" height="73.984" transform="matrix(1,0,0,1,0,0)" fill="rgb(244,125,56)" vector-effect="non-scaling-stroke" stroke-width="1" stroke="rgb(220,68,5)" stroke-opacity="0.5" stroke-linejoin="round" stroke-linecap="butt" stroke-miterlimit="1.414"/><rect x="229.318" y="119.992" width="71.038" height="134" transform="matrix(1,0,0,1,0,0)" fill="rgb(244,156,56)" vector-effect="non-scaling-stroke" stroke-width="1" stroke="rgb(220,68,5)" stroke-opacity="0.5" stroke-linejoin="round" stroke-linecap="butt" stroke-miterlimit="1.414"/><rect x="48.318" y="46.008" width="181" height="122.984" transform="matrix(1,0,0,1,0,0)" fill="rgb(220,68,5)" vector-effect="non-scaling-stroke" stroke-width="1" stroke="rgb(220,68,5)" stroke-opacity="0.5" stroke-linejoin="round" stroke-linecap="butt" stroke-miterlimit="1.414"/><rect x="48.318" y="168.992" width="144" height="85" transform="matrix(1,0,0,1,0,0)" fill="rgb(238,87,22)" vector-effect="non-scaling-stroke" stroke-width="1" stroke="rgb(220,68,5)" stroke-opacity="0.5" stroke-linejoin="round" stroke-linecap="butt" stroke-miterlimit="1.414"/><g transform="matrix(1,0,0,1,131.125,94.613)"><text transform="matrix(1,0,0,1,0,19.36)" style="font-family:&quot;Magra&quot;;font-weight:400;font-size:20px;font-style:normal;fill:#ddbfb2;stroke:none;">A</text></g><g transform="matrix(1,0,0,1,277.5,70.85)"><text transform="matrix(1,0,0,1,0,19.36)" style="font-family:&quot;Magra&quot;;font-weight:400;font-size:20px;font-style:normal;fill:#ddbfb2;stroke:none;">F</text></g><g transform="matrix(1,0,0,1,318.519,138.992)"><text transform="matrix(1,0,0,1,0,19.36)" style="font-family:&quot;Magra&quot;;font-weight:400;font-size:20px;font-style:normal;fill:#ddbfb2;stroke:none;">G</text></g><g transform="matrix(1,0,0,1,322.318,203.342)"><text transform="matrix(1,0,0,1,0,19.36)" style="font-family:&quot;Magra&quot;;font-weight:400;font-size:20px;font-style:normal;fill:#ddbfb2;stroke:none;">H</text></g><g transform="matrix(1,0,0,1,124.318,198.992)"><text transform="matrix(1,0,0,1,0,19.36)" style="font-family:&quot;Magra&quot;;font-weight:400;font-size:20px;font-style:normal;fill:#ddbfb2;stroke:none;">B</text></g><g transform="matrix(1,0,0,1,204.318,176.992)"><text transform="matrix(1,0,0,1,0,19.36)" style="font-family:&quot;Magra&quot;;font-weight:400;font-size:20px;font-style:normal;fill:#ddbfb2;stroke:none;">C</text></g><g transform="matrix(1,0,0,1,202.318,223.642)"><text transform="matrix(1,0,0,1,0,19.36)" style="font-family:&quot;Magra&quot;;font-weight:400;font-size:20px;font-style:normal;fill:#ddbfb2;stroke:none;">D</text></g><g transform="matrix(1,0,0,1,258.837,168.992)"><text transform="matrix(1,0,0,1,0,19.36)" style="font-family:&quot;Magra&quot;;font-weight:400;font-size:20px;font-style:normal;fill:#ddbfb2;stroke:none;">E</text></g></g></svg>