<?xml version="1.0" standalone="no"?><!-- Generator: Gravit.io --><svg xmlns="http://www.w3.org/2000/svg" xmlns:xlink="http://www.w3.org/1999/xlink" style="isolation:isolate" viewBox="0 0 400 400" width="400" height="400"><defs><clipPath id="_clipPath_Pvq8KoD5Fn6aeIskvQhGJFckIKHfSBQ1"><rect width="400" height="400"/></clipPath></defs><g clip-path="url(#_clipPath_Pvq8KoD5Fn6aeIskvQhGJFckIKHfSBQ1)"><clipPath id="_clipPath_T9zkKufp5PHY5mSm2k3HowY98Yfdcndl"><rect x="0" y="0" width="400" height="400" transform="matrix(1,0,0,1,0,0)" fill="rgb(255,255,255)"/></clipPath><g clip-path="url(#_clipPath_T9zkKufp5PHY5mSm2k3HowY98Yfdcndl)"><g id="Group"><clipPath id="_clipPath_nJEATv2LX6Ut4T7ZA9QWDtsB1PrmS7ha"><rect x="0" y="50" width="400" height="300" transform="matrix(1,0,0,1,0,0)" fill="rgb(255,255,255)"/></clipPath><g clip-path="url(#_clipPath_nJEATv2LX6Ut4T7ZA9QWDtsB1PrmS7ha)"><g id="Group"><g id="Group"><clipPath id="_clipPath_npesbg3qHAHGu6E03veZfgv4raBevCkT"><rect x="0" y="50" width="400" height="300" transform="matrix(1,0,0,1,0,0)" fill="rgb(255,255,255)"/></clipPath><g clip-path="url(#_clipPath_npesbg3qHAHGu6E03veZfgv4raBevCkT)"><g id="Group"><g id="Group"><g id="Group"><g id="Group"><g id="Group"><g opacity="0"><rect x="0" y="50" width="400" height="300" transform="matrix(1,0,0,1,0,0)" fill="rgb(248,248,248)"/></g></g></g><g id="Group"><g id="Group"><g id="Group"><g transform="matrix(1,0,0,1,12.5,216.454)"><text transform="matrix(1,0,0,1,0,19.36)" style="font-family:&quot;Magra&quot;;font-weight:400;font-size:20px;font-style:normal;fill:#DC4405;stroke:none;">200</text></g></g></g></g><g id="Group"><g id="Group"><g id="Group"><g transform="matrix(1,0,0,1,85.807,304.621)"><text transform="matrix(1,0,0,1,0,19.36)" style="font-family:&quot;Magra&quot;;font-weight:400;font-size:20px;font-style:normal;fill:#DC4405;stroke:none;">A</text></g></g></g></g><g id="Group"><g id="Group"><g id="Group"><g transform="matrix(1,0,0,1,143.422,303.621)"><text transform="matrix(1,0,0,1,0,19.36)" style="font-family:&quot;Magra&quot;;font-weight:400;font-size:20px;font-style:normal;fill:#DC4405;stroke:none;">B</text></g></g></g></g><g id="Group"><g id="Group"><g id="Group"><g transform="matrix(1,0,0,1,203.461,304.621)"><text transform="matrix(1,0,0,1,0,19.36)" style="font-family:&quot;Magra&quot;;font-weight:400;font-size:20px;font-style:normal;fill:#DC4405;stroke:none;">C</text></g></g></g></g><g id="Group"><g id="Group"><g id="Group"><g transform="matrix(1,0,0,1,261.287,304.621)"><text transform="matrix(1,0,0,1,0,19.36)" style="font-family:&quot;Magra&quot;;font-weight:400;font-size:20px;font-style:normal;fill:#DC4405;stroke:none;">D</text></g></g></g></g><g id="Group"><g id="Group"><g id="Group"><g transform="matrix(1,0,0,1,322.614,304.621)"><text transform="matrix(1,0,0,1,0,19.36)" style="font-family:&quot;Magra&quot;;font-weight:400;font-size:20px;font-style:normal;fill:#DC4405;stroke:none;">E</text></g></g></g></g><rect x="80.807" y="214.379" width="23" height="60.725" transform="matrix(1,0,0,1,0,0)" fill="rgb(255,199,80)" vector-effect="non-scaling-stroke" stroke-width="1" stroke="rgb(220,68,5)" stroke-opacity="500000" stroke-linejoin="round" stroke-linecap="butt" stroke-miterlimit="1.414"/><rect x="138.922" y="158.379" width="23" height="116.725" transform="matrix(1,0,0,1,0,0)" fill="rgb(244,186,56)" vector-effect="non-scaling-stroke" stroke-width="1" stroke="rgb(220,68,5)" stroke-opacity="500000" stroke-linejoin="round" stroke-linecap="butt" stroke-miterlimit="1.414"/><rect x="198.461" y="95.379" width="23" height="179.725" transform="matrix(1,0,0,1,0,0)" fill="rgb(234,160,0)" vector-effect="non-scaling-stroke" stroke-width="1" stroke="rgb(220,68,5)" stroke-opacity="500000" stroke-linejoin="round" stroke-linecap="butt" stroke-miterlimit="1.414"/><rect x="257.287" y="137.48" width="23" height="137.624" transform="matrix(1,0,0,1,0,0)" fill="rgb(255,117,58)" vector-effect="non-scaling-stroke" stroke-width="1" stroke="rgb(220,68,5)" stroke-opacity="500000" stroke-linejoin="round" stroke-linecap="butt" stroke-miterlimit="1.414"/><rect x="317.114" y="222.379" width="23" height="52.725" transform="matrix(1,0,0,1,0,0)" fill="rgb(220,68,5)" vector-effect="non-scaling-stroke" stroke-width="1" stroke="rgb(220,68,5)" stroke-opacity="500000" stroke-linejoin="round" stroke-linecap="butt" stroke-miterlimit="1.414"/><line x1="54.5" y1="290.621" x2="388.5" y2="290.621" vector-effect="non-scaling-stroke" stroke-width="1" stroke="rgb(149,45,0)" stroke-opacity="1000000" stroke-linejoin="miter" stroke-linecap="square" stroke-miterlimit="3"/><g id="Group"><g id="Group"><g id="Group"><g transform="matrix(1,0,0,1,11.5,167.995)"><text transform="matrix(1,0,0,1,0,19.36)" style="font-family:&quot;Magra&quot;;font-weight:400;font-size:20px;font-style:normal;fill:#DC4405;stroke:none;">400</text></g></g></g></g><g id="Group"><g id="Group"><g id="Group"><g transform="matrix(1,0,0,1,11.5,71.079)"><text transform="matrix(1,0,0,1,0,19.36)" style="font-family:&quot;Magra&quot;;font-weight:400;font-size:20px;font-style:normal;fill:#DC4405;stroke:none;">800</text></g></g></g></g><g id="Group"><g id="Group"><g id="Group"><g transform="matrix(1,0,0,1,11.5,119.537)"><text transform="matrix(1,0,0,1,0,19.36)" style="font-family:&quot;Magra&quot;;font-weight:400;font-size:20px;font-style:normal;fill:#DC4405;stroke:none;">600</text></g></g></g></g><line x1="62" y1="85.621" x2="49" y2="85.621" vector-effect="non-scaling-stroke" stroke-width="1.01" stroke="rgb(149,45,0)" stroke-opacity="1000000" stroke-linejoin="miter" stroke-linecap="square" stroke-miterlimit="3"/><line x1="61.5" y1="134.288" x2="48.5" y2="134.288" vector-effect="non-scaling-stroke" stroke-width="1.01" stroke="rgb(149,45,0)" stroke-opacity="1000000" stroke-linejoin="miter" stroke-linecap="square" stroke-miterlimit="3"/><line x1="61.5" y1="182.954" x2="48.5" y2="182.954" vector-effect="non-scaling-stroke" stroke-width="1.01" stroke="rgb(149,45,0)" stroke-opacity="1000000" stroke-linejoin="miter" stroke-linecap="square" stroke-miterlimit="3"/><line x1="61.5" y1="231.621" x2="48.5" y2="231.621" vector-effect="non-scaling-stroke" stroke-width="1.01" stroke="rgb(149,45,0)" stroke-opacity="1000000" stroke-linejoin="miter" stroke-linecap="square" stroke-miterlimit="3"/><line x1="92.307" y1="299.621" x2="92.307" y2="285.621" vector-effect="non-scaling-stroke" stroke-width="1" stroke="rgb(149,45,0)" stroke-opacity="1000000" stroke-linejoin="miter" stroke-linecap="square" stroke-miterlimit="3"/><line x1="150.422" y1="299.621" x2="150.422" y2="285.621" vector-effect="non-scaling-stroke" stroke-width="1" stroke="rgb(149,45,0)" stroke-opacity="1000000" stroke-linejoin="miter" stroke-linecap="square" stroke-miterlimit="3"/><line x1="209.961" y1="299.621" x2="209.961" y2="285.621" vector-effect="non-scaling-stroke" stroke-width="1" stroke="rgb(149,45,0)" stroke-opacity="1000000" stroke-linejoin="miter" stroke-linecap="square" stroke-miterlimit="3"/><line x1="268.787" y1="299.621" x2="268.787" y2="285.621" vector-effect="non-scaling-stroke" stroke-width="1" stroke="rgb(149,45,0)" stroke-opacity="1000000" stroke-linejoin="miter" stroke-linecap="square" stroke-miterlimit="3"/><line x1="328.614" y1="299.621" x2="328.614" y2="285.621" vector-effect="non-scaling-stroke" stroke-width="1" stroke="rgb(149,45,0)" stroke-opacity="1000000" stroke-linejoin="miter" stroke-linecap="square" stroke-miterlimit="3"/></g></g></g></g></g></g></g></g></g></g></svg>