<?xml version="1.0" standalone="no"?><!-- Generator: Gravit.io --><svg xmlns="http://www.w3.org/2000/svg" xmlns:xlink="http://www.w3.org/1999/xlink" style="isolation:isolate" viewBox="0 0 400 300" width="400" height="300"><defs><clipPath id="_clipPath_VcbQ0rUBgvcfqyVZpgT4UwIAzSUXwRJI"><rect width="400" height="300"/></clipPath></defs><g clip-path="url(#_clipPath_VcbQ0rUBgvcfqyVZpgT4UwIAzSUXwRJI)"><rect width="400" height="300" style="fill:rgb(248,248,248)"/><g transform="matrix(1,0,0,1,12.5,166.454)"><text transform="matrix(1,0,0,1,0,19.36)" style="font-family:&quot;Magra&quot;;font-weight:400;font-size:20px;font-style:normal;fill:#dc4405;stroke:none;">200</text></g><g transform="matrix(1,0,0,1,85.807,254.621)"><text transform="matrix(1,0,0,1,0,19.36)" style="font-family:&quot;Magra&quot;;font-weight:400;font-size:20px;font-style:normal;fill:#dc4405;stroke:none;">A</text></g><g transform="matrix(1,0,0,1,143.422,253.621)"><text transform="matrix(1,0,0,1,0,19.36)" style="font-family:&quot;Magra&quot;;font-weight:400;font-size:20px;font-style:normal;fill:#dc4405;stroke:none;">B</text></g><g transform="matrix(1,0,0,1,203.461,254.621)"><text transform="matrix(1,0,0,1,0,19.36)" style="font-family:&quot;Magra&quot;;font-weight:400;font-size:20px;font-style:normal;fill:#dc4405;stroke:none;">C</text></g><g transform="matrix(1,0,0,1,261.287,254.621)"><text transform="matrix(1,0,0,1,0,19.36)" style="font-family:&quot;Magra&quot;;font-weight:400;font-size:20px;font-style:normal;fill:#dc4405;stroke:none;">D</text></g><g transform="matrix(1,0,0,1,322.614,254.621)"><text transform="matrix(1,0,0,1,0,19.36)" style="font-family:&quot;Magra&quot;;font-weight:400;font-size:20px;font-style:normal;fill:#dc4405;stroke:none;">E</text></g><rect x="80.807" y="164.379" width="23" height="60.725" transform="matrix(1,0,0,1,0,0)" fill="rgb(255,199,80)" vector-effect="non-scaling-stroke" stroke-width="1" stroke="rgb(220,68,5)" stroke-opacity="0.5" stroke-linejoin="round" stroke-linecap="butt" stroke-miterlimit="1.414"/><rect x="138.922" y="108.379" width="23" height="116.725" transform="matrix(1,0,0,1,0,0)" fill="rgb(244,186,56)" vector-effect="non-scaling-stroke" stroke-width="1" stroke="rgb(220,68,5)" stroke-opacity="0.5" stroke-linejoin="round" stroke-linecap="butt" stroke-miterlimit="1.414"/><rect x="198.461" y="45.379" width="23" height="179.725" transform="matrix(1,0,0,1,0,0)" fill="rgb(234,160,0)" vector-effect="non-scaling-stroke" stroke-width="1" stroke="rgb(220,68,5)" stroke-opacity="0.5" stroke-linejoin="round" stroke-linecap="butt" stroke-miterlimit="1.414"/><rect x="257.287" y="87.48" width="23" height="137.624" transform="matrix(1,0,0,1,0,0)" fill="rgb(255,117,58)" vector-effect="non-scaling-stroke" stroke-width="1" stroke="rgb(220,68,5)" stroke-opacity="0.5" stroke-linejoin="round" stroke-linecap="butt" stroke-miterlimit="1.414"/><rect x="317.114" y="172.379" width="23" height="52.725" transform="matrix(1,0,0,1,0,0)" fill="rgb(220,68,5)" vector-effect="non-scaling-stroke" stroke-width="1" stroke="rgb(220,68,5)" stroke-opacity="0.5" stroke-linejoin="round" stroke-linecap="butt" stroke-miterlimit="1.414"/><line x1="54.5" y1="240.621" x2="388.5" y2="240.621" vector-effect="non-scaling-stroke" stroke-width="1" stroke="rgb(149,45,0)" stroke-linejoin="miter" stroke-linecap="square" stroke-miterlimit="3"/><g transform="matrix(1,0,0,1,11.5,117.995)"><text transform="matrix(1,0,0,1,0,19.36)" style="font-family:&quot;Magra&quot;;font-weight:400;font-size:20px;font-style:normal;fill:#dc4405;stroke:none;">400</text></g><g transform="matrix(1,0,0,1,11.5,21.079)"><text transform="matrix(1,0,0,1,0,19.36)" style="font-family:&quot;Magra&quot;;font-weight:400;font-size:20px;font-style:normal;fill:#dc4405;stroke:none;">800</text></g><g transform="matrix(1,0,0,1,11.5,69.537)"><text transform="matrix(1,0,0,1,0,19.36)" style="font-family:&quot;Magra&quot;;font-weight:400;font-size:20px;font-style:normal;fill:#dc4405;stroke:none;">600</text></g><line x1="62" y1="35.621" x2="49" y2="35.621" vector-effect="non-scaling-stroke" stroke-width="1.01" stroke="rgb(149,45,0)" stroke-linejoin="miter" stroke-linecap="square" stroke-miterlimit="3"/><line x1="61.5" y1="84.288" x2="48.5" y2="84.288" vector-effect="non-scaling-stroke" stroke-width="1.01" stroke="rgb(149,45,0)" stroke-linejoin="miter" stroke-linecap="square" stroke-miterlimit="3"/><line x1="61.5" y1="132.954" x2="48.5" y2="132.954" vector-effect="non-scaling-stroke" stroke-width="1.01" stroke="rgb(149,45,0)" stroke-linejoin="miter" stroke-linecap="square" stroke-miterlimit="3"/><line x1="61.5" y1="181.621" x2="48.5" y2="181.621" vector-effect="non-scaling-stroke" stroke-width="1.01" stroke="rgb(149,45,0)" stroke-linejoin="miter" stroke-linecap="square" stroke-miterlimit="3"/><line x1="92.307" y1="249.621" x2="92.307" y2="235.621" vector-effect="non-scaling-stroke" stroke-width="1" stroke="rgb(149,45,0)" stroke-linejoin="miter" stroke-linecap="square" stroke-miterlimit="3"/><line x1="150.422" y1="249.621" x2="150.422" y2="235.621" vector-effect="non-scaling-stroke" stroke-width="1" stroke="rgb(149,45,0)" stroke-linejoin="miter" stroke-linecap="square" stroke-miterlimit="3"/><line x1="209.961" y1="249.621" x2="209.961" y2="235.621" vector-effect="non-scaling-stroke" stroke-width="1" stroke="rgb(149,45,0)" stroke-linejoin="miter" stroke-linecap="square" stroke-miterlimit="3"/><line x1="268.787" y1="249.621" x2="268.787" y2="235.621" vector-effect="non-scaling-stroke" stroke-width="1" stroke="rgb(149,45,0)" stroke-linejoin="miter" stroke-linecap="square" stroke-miterlimit="3"/><line x1="328.614" y1="249.621" x2="328.614" y2="235.621" vector-effect="non-scaling-stroke" stroke-width="1" stroke="rgb(149,45,0)" stroke-linejoin="miter" stroke-linecap="square" stroke-miterlimit="3"/></g></svg>