<?xml version="1.0" standalone="no"?><!-- Generator: Gravit.io --><svg xmlns="http://www.w3.org/2000/svg" xmlns:xlink="http://www.w3.org/1999/xlink" style="isolation:isolate" viewBox="0 0 400 400" width="400" height="400"><defs><clipPath id="_clipPath_aoRJYn1JUnlg4j2g6Xnms795hQVWGmhq"><rect width="400" height="400"/></clipPath></defs><g clip-path="url(#_clipPath_aoRJYn1JUnlg4j2g6Xnms795hQVWGmhq)"><g id="Group"><line x1="156.131" y1="308.636" x2="132.784" y2="254.758" vector-effect="non-scaling-stroke" stroke-width="0.5" stroke="rgb(46,46,46)" stroke-linejoin="miter" stroke-linecap="square" stroke-miterlimit="3"/><line x1="109.437" y1="272.717" x2="156.131" y2="308.636" vector-effect="non-scaling-stroke" stroke-width="0.5" stroke="rgb(46,46,46)" stroke-linejoin="miter" stroke-linecap="square" stroke-miterlimit="3"/><line x1="99.464" y1="294.268" x2="156.131" y2="308.636" vector-effect="non-scaling-stroke" stroke-width="0.5" stroke="rgb(46,46,46)" stroke-linejoin="miter" stroke-linecap="square" stroke-miterlimit="3"/><line x1="99.464" y1="317.615" x2="156.131" y2="308.636" vector-effect="non-scaling-stroke" stroke-width="0.5" stroke="rgb(46,46,46)" stroke-linejoin="miter" stroke-linecap="square" stroke-miterlimit="3"/><line x1="109.437" y1="340.962" x2="156.131" y2="308.636" vector-effect="non-scaling-stroke" stroke-width="0.5" stroke="rgb(46,46,46)" stroke-linejoin="miter" stroke-linecap="square" stroke-miterlimit="3"/><line x1="132.784" y1="360.717" x2="156.131" y2="308.636" vector-effect="non-scaling-stroke" stroke-width="0.5" stroke="rgb(46,46,46)" stroke-linejoin="miter" stroke-linecap="square" stroke-miterlimit="3"/><line x1="170.498" y1="363.612" x2="156.131" y2="308.636" vector-effect="non-scaling-stroke" stroke-width="0.5" stroke="rgb(46,46,46)" stroke-linejoin="miter" stroke-linecap="square" stroke-miterlimit="3"/><line x1="213.601" y1="317.615" x2="156.131" y2="308.636" vector-effect="non-scaling-stroke" stroke-width="0.5" stroke="rgb(46,46,46)" stroke-linejoin="miter" stroke-linecap="square" stroke-miterlimit="3"/><line x1="156.131" y1="308.636" x2="220.784" y2="281.697" vector-effect="non-scaling-stroke" stroke-width="0.5" stroke="rgb(46,46,46)" stroke-linejoin="miter" stroke-linecap="square" stroke-miterlimit="3"/><line x1="213.601" y1="317.615" x2="220.784" y2="281.697" vector-effect="non-scaling-stroke" stroke-width="0.5" stroke="rgb(46,46,46)" stroke-linejoin="miter" stroke-linecap="square" stroke-miterlimit="3"/><line x1="220.784" y1="281.697" x2="197.437" y2="236.799" vector-effect="non-scaling-stroke" stroke-width="0.5" stroke="rgb(46,46,46)" stroke-linejoin="miter" stroke-linecap="square" stroke-miterlimit="3"/><line x1="197.437" y1="294.268" x2="197.437" y2="236.799" vector-effect="non-scaling-stroke" stroke-width="0.5" stroke="rgb(46,46,46)" stroke-linejoin="miter" stroke-linecap="square" stroke-miterlimit="3"/><line x1="242.335" y1="276.309" x2="197.437" y2="236.799" vector-effect="non-scaling-stroke" stroke-width="0.5" stroke="rgb(46,46,46)" stroke-linejoin="miter" stroke-linecap="square" stroke-miterlimit="3"/><line x1="255.117" y1="251.166" x2="197.437" y2="236.799" vector-effect="non-scaling-stroke" stroke-width="0.5" stroke="rgb(46,46,46)" stroke-linejoin="miter" stroke-linecap="square" stroke-miterlimit="3"/><line x1="253.111" y1="217.043" x2="197.437" y2="236.799" vector-effect="non-scaling-stroke" stroke-width="0.5" stroke="rgb(46,46,46)" stroke-linejoin="miter" stroke-linecap="square" stroke-miterlimit="3"/><line x1="197.437" y1="236.799" x2="177.291" y2="182.921" vector-effect="non-scaling-stroke" stroke-width="0.5" stroke="rgb(46,46,46)" stroke-linejoin="miter" stroke-linecap="square" stroke-miterlimit="3"/><line x1="177.291" y1="182.921" x2="170.498" y2="127.247" vector-effect="non-scaling-stroke" stroke-width="0.5" stroke="rgb(46,46,46)" stroke-linejoin="miter" stroke-linecap="square" stroke-miterlimit="3"/><line x1="177.291" y1="182.921" x2="192.049" y2="102.104" vector-effect="non-scaling-stroke" stroke-width="0.5" stroke="rgb(46,46,46)" stroke-linejoin="miter" stroke-linecap="square" stroke-miterlimit="3"/><line x1="170.498" y1="127.247" x2="144.457" y2="94.921" vector-effect="non-scaling-stroke" stroke-width="0.5" stroke="rgb(46,46,46)" stroke-linejoin="miter" stroke-linecap="square" stroke-miterlimit="3"/><line x1="173.894" y1="127.247" x2="141.764" y2="64.39" vector-effect="non-scaling-stroke" stroke-width="0.5" stroke="rgb(46,46,46)" stroke-linejoin="miter" stroke-linecap="square" stroke-miterlimit="3"/><line x1="173.894" y1="127.247" x2="163.315" y2="43" vector-effect="non-scaling-stroke" stroke-width="0.5" stroke="rgb(46,46,46)" stroke-linejoin="miter" stroke-linecap="square" stroke-miterlimit="3"/><line x1="173.894" y1="127.247" x2="192.049" y2="46.431" vector-effect="non-scaling-stroke" stroke-width="0.5" stroke="rgb(46,46,46)" stroke-linejoin="miter" stroke-linecap="square" stroke-miterlimit="3"/><line x1="173.894" y1="130.839" x2="192.049" y2="102.104" vector-effect="non-scaling-stroke" stroke-width="0.5" stroke="rgb(46,46,46)" stroke-linejoin="miter" stroke-linecap="square" stroke-miterlimit="3"/><line x1="173.894" y1="127.247" x2="219.886" y2="60.798" vector-effect="non-scaling-stroke" stroke-width="0.5" stroke="rgb(46,46,46)" stroke-linejoin="miter" stroke-linecap="square" stroke-miterlimit="3"/><line x1="173.894" y1="130.839" x2="219.886" y2="91.329" vector-effect="non-scaling-stroke" stroke-width="0.5" stroke="rgb(46,46,46)" stroke-linejoin="miter" stroke-linecap="square" stroke-miterlimit="3"/><line x1="219.886" y1="91.329" x2="144.457" y2="95.819" vector-effect="non-scaling-stroke" stroke-width="0.5" stroke="rgb(46,46,46)" stroke-linejoin="miter" stroke-linecap="square" stroke-miterlimit="3"/><line x1="220.784" y1="93.574" x2="141.764" y2="64.39" vector-effect="non-scaling-stroke" stroke-width="0.5" stroke="rgb(46,46,46)" stroke-linejoin="miter" stroke-linecap="square" stroke-miterlimit="3"/><line x1="219.886" y1="93.574" x2="163.315" y2="43" vector-effect="non-scaling-stroke" stroke-width="0.5" stroke="rgb(46,46,46)" stroke-linejoin="miter" stroke-linecap="square" stroke-miterlimit="3"/><line x1="220.784" y1="94.921" x2="191.6" y2="46.431" vector-effect="non-scaling-stroke" stroke-width="0.5" stroke="rgb(46,46,46)" stroke-linejoin="miter" stroke-linecap="square" stroke-miterlimit="3"/><line x1="220.784" y1="93.574" x2="219.886" y2="60.798" vector-effect="non-scaling-stroke" stroke-width="0.5" stroke="rgb(46,46,46)" stroke-linejoin="miter" stroke-linecap="square" stroke-miterlimit="3"/><line x1="144.457" y1="98.512" x2="191.6" y2="102.104" vector-effect="non-scaling-stroke" stroke-width="0.5" stroke="rgb(46,46,46)" stroke-linejoin="miter" stroke-linecap="square" stroke-miterlimit="3"/><line x1="144.457" y1="98.512" x2="144.457" y2="64.39" vector-effect="non-scaling-stroke" stroke-width="0.5" stroke="rgb(46,46,46)" stroke-linejoin="miter" stroke-linecap="square" stroke-miterlimit="3"/><line x1="144.457" y1="64.39" x2="163.315" y2="46.431" vector-effect="non-scaling-stroke" stroke-width="0.5" stroke="rgb(46,46,46)" stroke-linejoin="miter" stroke-linecap="square" stroke-miterlimit="3"/><line x1="163.315" y1="43" x2="192.049" y2="46.431" vector-effect="non-scaling-stroke" stroke-width="0.5" stroke="rgb(46,46,46)" stroke-linejoin="miter" stroke-linecap="square" stroke-miterlimit="3"/><line x1="192.049" y1="46.431" x2="220.335" y2="60.798" vector-effect="non-scaling-stroke" stroke-width="0.5" stroke="rgb(46,46,46)" stroke-linejoin="miter" stroke-linecap="square" stroke-miterlimit="3"/><line x1="144.457" y1="98.512" x2="219.886" y2="60.798" vector-effect="non-scaling-stroke" stroke-width="0.5" stroke="rgb(46,46,46)" stroke-linejoin="miter" stroke-linecap="square" stroke-miterlimit="3"/><line x1="144.457" y1="94.921" x2="191.6" y2="46.431" vector-effect="non-scaling-stroke" stroke-width="0.5" stroke="rgb(46,46,46)" stroke-linejoin="miter" stroke-linecap="square" stroke-miterlimit="3"/><line x1="144.457" y1="93.574" x2="163.315" y2="43" vector-effect="non-scaling-stroke" stroke-width="0.5" stroke="rgb(46,46,46)" stroke-linejoin="miter" stroke-linecap="square" stroke-miterlimit="3"/><line x1="141.764" y1="64.39" x2="192.049" y2="102.104" vector-effect="non-scaling-stroke" stroke-width="0.5" stroke="rgb(46,46,46)" stroke-linejoin="miter" stroke-linecap="square" stroke-miterlimit="3"/><line x1="141.764" y1="64.39" x2="191.6" y2="46.431" vector-effect="non-scaling-stroke" stroke-width="0.5" stroke="rgb(46,46,46)" stroke-linejoin="miter" stroke-linecap="square" stroke-miterlimit="3"/><line x1="144.457" y1="64.39" x2="217.192" y2="60.798" vector-effect="non-scaling-stroke" stroke-width="0.5" stroke="rgb(46,46,46)" stroke-linejoin="miter" stroke-linecap="square" stroke-miterlimit="3"/></g><g id="Group"><line x1="109.835" y1="341.981" x2="156.839" y2="307.259"/><line x1="220.832" y1="282.477" x2="156.839" y2="307.259"/><line x1="213.093" y1="318.914" x2="156.839" y2="307.259"/><line x1="213.093" y1="318.914" x2="220.832" y2="282.477"/><line x1="99.828" y1="294.694" x2="156.839" y2="307.259"/><line x1="132.458" y1="255.653" x2="156.839" y2="307.259"/><line x1="133.375" y1="360.669" x2="156.839" y2="307.259"/><line x1="110.154" y1="272.766" x2="156.839" y2="307.259"/><line x1="171.638" y1="363.612" x2="156.839" y2="307.259"/><line x1="99.464" y1="318.55" x2="156.839" y2="307.259"/><line x1="197.909" y1="237.597" x2="255.117" y2="250.875"/><line x1="197.909" y1="237.597" x2="213.093" y2="318.914"/><line x1="197.909" y1="237.597" x2="220.832" y2="282.477"/><line x1="197.909" y1="237.597" x2="156.839" y2="307.259"/><line x1="178.073" y1="184.188" x2="197.909" y2="237.597"/><line x1="243.414" y1="275.89" x2="197.909" y2="237.597"/><line x1="200.149" y1="294.276" x2="197.909" y2="237.597"/><line x1="251.533" y1="216.514" x2="197.909" y2="237.597"/><line x1="143.265" y1="65.939" x2="220.107" y2="92.17"/><line x1="192.355" y1="46.12" x2="220.107" y2="92.17"/><line x1="192.355" y1="46.12" x2="143.265" y2="65.939"/><line x1="192.835" y1="102.267" x2="220.107" y2="92.17"/><line x1="192.835" y1="102.267" x2="143.265" y2="65.939"/><line x1="192.835" y1="102.267" x2="192.355" y2="46.12"/><line x1="163.328" y1="43" x2="220.107" y2="92.17"/><line x1="163.328" y1="43" x2="143.265" y2="65.939"/><line x1="163.328" y1="43" x2="192.355" y2="46.12"/><line x1="163.328" y1="43" x2="192.835" y2="102.267"/><line x1="218.383" y1="60.594" x2="220.107" y2="92.17"/><line x1="218.383" y1="60.594" x2="143.265" y2="65.939"/><line x1="218.383" y1="60.594" x2="192.355" y2="46.12"/><line x1="218.383" y1="60.594" x2="192.835" y2="102.267"/><line x1="218.383" y1="60.594" x2="163.328" y2="43"/><line x1="144.927" y1="94.836" x2="220.107" y2="92.17"/><line x1="144.927" y1="94.836" x2="143.265" y2="65.939"/><line x1="144.927" y1="94.836" x2="192.355" y2="46.12"/><line x1="144.927" y1="94.836" x2="192.835" y2="102.267"/><line x1="144.927" y1="94.836" x2="163.328" y2="43"/><line x1="144.927" y1="94.836" x2="218.383" y2="60.594"/><line x1="172.359" y1="128.184" x2="220.107" y2="92.17"/><line x1="172.359" y1="128.184" x2="143.265" y2="65.939"/><line x1="172.359" y1="128.184" x2="192.355" y2="46.12"/><line x1="172.359" y1="128.184" x2="192.835" y2="102.267"/><line x1="172.359" y1="128.184" x2="163.328" y2="43"/><line x1="172.359" y1="128.184" x2="218.383" y2="60.594"/><line x1="172.359" y1="128.184" x2="144.927" y2="94.836"/><line x1="172.359" y1="128.184" x2="178.073" y2="184.188"/><line x1="172.359" y1="128.184" x2="197.909" y2="237.597"/></g><g id="Group"><g id="Group"><path d=" M 146.269 304.622 C 146.269 299.768 150.21 295.827 155.064 295.827 C 159.918 295.827 163.859 299.768 163.859 304.622 C 163.859 309.476 159.918 313.417 155.064 313.417 C 150.21 313.417 146.269 309.476 146.269 304.622 Z " fill="rgb(220,68,4)" vector-effect="non-scaling-stroke" stroke-width="1" stroke="rgb(85,129,186)" stroke-linejoin="miter" stroke-linecap="butt" stroke-miterlimit="4"/></g><g id="Group"><path d=" M 100.231 338.63 C 100.231 333.776 104.172 329.835 109.026 329.835 C 113.88 329.835 117.821 333.776 117.821 338.63 C 117.821 343.484 113.88 347.425 109.026 347.425 C 104.172 347.425 100.231 343.484 100.231 338.63 Z " fill="rgb(220,68,4)" vector-effect="non-scaling-stroke" stroke-width="1" stroke="rgb(85,129,186)" stroke-linejoin="miter" stroke-linecap="butt" stroke-miterlimit="4"/></g><g id="Group"><path d=" M 208.946 280.349 C 208.946 275.495 212.887 271.554 217.741 271.554 C 222.595 271.554 226.536 275.495 226.536 280.349 C 226.536 285.203 222.595 289.144 217.741 289.144 C 212.887 289.144 208.946 285.203 208.946 280.349 Z " fill="rgb(220,68,4)" vector-effect="non-scaling-stroke" stroke-width="1" stroke="rgb(85,129,186)" stroke-linejoin="miter" stroke-linecap="butt" stroke-miterlimit="4"/></g><g id="Group"><path d=" M 201.367 316.037 C 201.367 311.183 205.308 307.242 210.162 307.242 C 215.016 307.242 218.957 311.183 218.957 316.037 C 218.957 320.892 215.016 324.832 210.162 324.832 C 205.308 324.832 201.367 320.892 201.367 316.037 Z " fill="rgb(220,68,4)" vector-effect="non-scaling-stroke" stroke-width="1" stroke="rgb(85,129,186)" stroke-linejoin="miter" stroke-linecap="butt" stroke-miterlimit="4"/></g><g id="Group"><path d=" M 90.43 292.316 C 90.43 287.461 94.371 283.521 99.225 283.521 C 104.079 283.521 108.02 287.461 108.02 292.316 C 108.02 297.17 104.079 301.111 99.225 301.111 C 94.371 301.111 90.43 297.17 90.43 292.316 Z " fill="rgb(220,68,4)" vector-effect="non-scaling-stroke" stroke-width="1" stroke="rgb(85,129,186)" stroke-linejoin="miter" stroke-linecap="butt" stroke-miterlimit="4"/></g><g id="Group"><path d=" M 122.389 254.077 C 122.389 249.223 126.33 245.282 131.184 245.282 C 136.039 245.282 139.979 249.223 139.979 254.077 C 139.979 258.931 136.039 262.872 131.184 262.872 C 126.33 262.872 122.389 258.931 122.389 254.077 Z " fill="rgb(220,68,4)" vector-effect="non-scaling-stroke" stroke-width="1" stroke="rgb(85,129,186)" stroke-linejoin="miter" stroke-linecap="butt" stroke-miterlimit="4"/></g><g id="Group"><path d=" M 123.287 356.934 C 123.287 352.08 127.228 348.139 132.082 348.139 C 136.936 348.139 140.877 352.08 140.877 356.934 C 140.877 361.788 136.936 365.729 132.082 365.729 C 127.228 365.729 123.287 361.788 123.287 356.934 Z " fill="rgb(220,68,4)" vector-effect="non-scaling-stroke" stroke-width="1" stroke="rgb(85,129,186)" stroke-linejoin="miter" stroke-linecap="butt" stroke-miterlimit="4"/></g><g id="Group"><path d=" M 100.544 270.838 C 100.544 265.984 104.484 262.043 109.339 262.043 C 114.193 262.043 118.134 265.984 118.134 270.838 C 118.134 275.692 114.193 279.633 109.339 279.633 C 104.484 279.633 100.544 275.692 100.544 270.838 Z " fill="rgb(220,68,4)" vector-effect="non-scaling-stroke" stroke-width="1" stroke="rgb(85,129,186)" stroke-linejoin="miter" stroke-linecap="butt" stroke-miterlimit="4"/></g><g id="Group"><path d=" M 160.764 359.817 C 160.764 354.962 164.704 351.021 169.559 351.021 C 174.413 351.021 178.354 354.962 178.354 359.817 C 178.354 364.671 174.413 368.612 169.559 368.612 C 164.704 368.612 160.764 364.671 160.764 359.817 Z " fill="rgb(220,68,4)" vector-effect="non-scaling-stroke" stroke-width="1" stroke="rgb(85,129,186)" stroke-linejoin="miter" stroke-linecap="butt" stroke-miterlimit="4"/></g><g id="Group"><path d=" M 90.073 315.681 C 90.073 310.827 94.014 306.886 98.868 306.886 C 103.723 306.886 107.663 310.827 107.663 315.681 C 107.663 320.535 103.723 324.476 98.868 324.476 C 94.014 324.476 90.073 320.535 90.073 315.681 Z " fill="rgb(220,68,4)" vector-effect="non-scaling-stroke" stroke-width="1" stroke="rgb(85,129,186)" stroke-linejoin="miter" stroke-linecap="butt" stroke-miterlimit="4"/></g><g id="Group"><path d=" M 242.527 249.397 C 242.527 244.543 246.468 240.602 251.322 240.602 C 256.176 240.602 260.117 244.543 260.117 249.397 C 260.117 254.251 256.176 258.192 251.322 258.192 C 246.468 258.192 242.527 254.251 242.527 249.397 Z " fill="rgb(132,174,200)" vector-effect="non-scaling-stroke" stroke-width="1" stroke="rgb(85,129,186)" stroke-linejoin="miter" stroke-linecap="butt" stroke-miterlimit="4"/></g><g id="Group"><path d=" M 186.494 236.392 C 186.494 231.538 190.435 227.597 195.29 227.597 C 200.144 227.597 204.085 231.538 204.085 236.392 C 204.085 241.246 200.144 245.187 195.29 245.187 C 190.435 245.187 186.494 241.246 186.494 236.392 Z " fill="rgb(132,174,200)" vector-effect="non-scaling-stroke" stroke-width="1" stroke="rgb(85,129,186)" stroke-linejoin="miter" stroke-linecap="butt" stroke-miterlimit="4"/></g><g id="Group"><path d=" M 167.067 184.081 C 167.067 179.227 171.008 175.286 175.862 175.286 C 180.716 175.286 184.657 179.227 184.657 184.081 C 184.657 188.935 180.716 192.876 175.862 192.876 C 171.008 192.876 167.067 188.935 167.067 184.081 Z " fill="rgb(243,187,59)" vector-effect="non-scaling-stroke" stroke-width="1" stroke="rgb(220,68,4)" stroke-linejoin="miter" stroke-linecap="butt" stroke-miterlimit="4"/></g><g id="Group"><path d=" M 231.064 273.898 C 231.064 269.044 235.005 265.103 239.859 265.103 C 244.713 265.103 248.654 269.044 248.654 273.898 C 248.654 278.752 244.713 282.693 239.859 282.693 C 235.005 282.693 231.064 278.752 231.064 273.898 Z " fill="rgb(132,174,200)" vector-effect="non-scaling-stroke" stroke-width="1" stroke="rgb(85,129,186)" stroke-linejoin="miter" stroke-linecap="butt" stroke-miterlimit="4"/></g><g id="Group"><path d=" M 188.688 291.906 C 188.688 287.052 192.629 283.111 197.483 283.111 C 202.338 283.111 206.279 287.052 206.279 291.906 C 206.279 296.76 202.338 300.701 197.483 300.701 C 192.629 300.701 188.688 296.76 188.688 291.906 Z " fill="rgb(132,174,200)" vector-effect="non-scaling-stroke" stroke-width="1" stroke="rgb(85,129,186)" stroke-linejoin="miter" stroke-linecap="butt" stroke-miterlimit="4"/></g><g id="Group"><path d=" M 239.017 215.742 C 239.017 210.888 242.958 206.947 247.812 206.947 C 252.666 206.947 256.607 210.888 256.607 215.742 C 256.607 220.596 252.666 224.537 247.812 224.537 C 242.958 224.537 239.017 220.596 239.017 215.742 Z " fill="rgb(132,174,200)" vector-effect="non-scaling-stroke" stroke-width="1" stroke="rgb(85,129,186)" stroke-linejoin="miter" stroke-linecap="butt" stroke-miterlimit="4"/></g><g id="Group"><path d=" M 208.236 93.955 C 208.236 89.101 212.177 85.16 217.031 85.16 C 221.885 85.16 225.826 89.101 225.826 93.955 C 225.826 98.809 221.885 102.75 217.031 102.75 C 212.177 102.75 208.236 98.809 208.236 93.955 Z " fill="rgb(243,187,59)" vector-effect="non-scaling-stroke" stroke-width="1" stroke="rgb(220,68,4)" stroke-linejoin="miter" stroke-linecap="butt" stroke-miterlimit="4"/></g><g id="Group"><path d=" M 132.974 68.263 C 132.974 63.409 136.915 59.468 141.769 59.468 C 146.623 59.468 150.564 63.409 150.564 68.263 C 150.564 73.117 146.623 77.058 141.769 77.058 C 136.915 77.058 132.974 73.117 132.974 68.263 Z " fill="rgb(243,187,59)" vector-effect="non-scaling-stroke" stroke-width="1" stroke="rgb(220,68,4)" stroke-linejoin="miter" stroke-linecap="butt" stroke-miterlimit="4"/></g><g id="Group"><path d=" M 181.055 48.851 C 181.055 43.997 184.996 40.056 189.85 40.056 C 194.704 40.056 198.645 43.997 198.645 48.851 C 198.645 53.705 194.704 57.646 189.85 57.646 C 184.996 57.646 181.055 53.705 181.055 48.851 Z " fill="rgb(243,187,59)" vector-effect="non-scaling-stroke" stroke-width="1" stroke="rgb(220,68,4)" stroke-linejoin="miter" stroke-linecap="butt" stroke-miterlimit="4"/></g><g id="Group"><path d=" M 181.525 103.844 C 181.525 98.99 185.466 95.049 190.32 95.049 C 195.174 95.049 199.115 98.99 199.115 103.844 C 199.115 108.698 195.174 112.639 190.32 112.639 C 185.466 112.639 181.525 108.698 181.525 103.844 Z " fill="rgb(243,187,59)" vector-effect="non-scaling-stroke" stroke-width="1" stroke="rgb(220,68,4)" stroke-linejoin="miter" stroke-linecap="butt" stroke-miterlimit="4"/></g><g id="Group"><path d=" M 152.624 45.795 C 152.624 40.941 156.565 37 161.419 37 C 166.273 37 170.214 40.941 170.214 45.795 C 170.214 50.649 166.273 54.59 161.419 54.59 C 156.565 54.59 152.624 50.649 152.624 45.795 Z " fill="rgb(243,187,59)" vector-effect="non-scaling-stroke" stroke-width="1" stroke="rgb(220,68,4)" stroke-linejoin="miter" stroke-linecap="butt" stroke-miterlimit="4"/></g><g id="Group"><path d=" M 206.548 63.027 C 206.548 58.173 210.489 54.232 215.343 54.232 C 220.198 54.232 224.138 58.173 224.138 63.027 C 224.138 67.881 220.198 71.822 215.343 71.822 C 210.489 71.822 206.548 67.881 206.548 63.027 Z " fill="rgb(243,187,59)" vector-effect="non-scaling-stroke" stroke-width="1" stroke="rgb(220,68,4)" stroke-linejoin="miter" stroke-linecap="butt" stroke-miterlimit="4"/></g><g id="Group"><path d=" M 134.602 96.566 C 134.602 91.712 138.543 87.771 143.397 87.771 C 148.251 87.771 152.192 91.712 152.192 96.566 C 152.192 101.42 148.251 105.361 143.397 105.361 C 138.543 105.361 134.602 101.42 134.602 96.566 Z " fill="rgb(243,187,59)" vector-effect="non-scaling-stroke" stroke-width="1" stroke="rgb(220,68,4)" stroke-linejoin="miter" stroke-linecap="butt" stroke-miterlimit="4"/></g><g id="Group"><path d=" M 161.47 129.228 C 161.47 124.374 165.411 120.433 170.265 120.433 C 175.12 120.433 179.06 124.374 179.06 129.228 C 179.06 134.082 175.12 138.023 170.265 138.023 C 165.411 138.023 161.47 134.082 161.47 129.228 Z " fill="rgb(243,187,59)" vector-effect="non-scaling-stroke" stroke-width="1" stroke="rgb(220,68,4)" stroke-linejoin="miter" stroke-linecap="butt" stroke-miterlimit="4"/></g></g></g></svg>