<?xml version="1.0" standalone="no"?><!-- Generator: Gravit.io --><svg xmlns="http://www.w3.org/2000/svg" xmlns:xlink="http://www.w3.org/1999/xlink" style="isolation:isolate" viewBox="0 0 400 400" width="400" height="400"><defs><clipPath id="_clipPath_Hb4IkfcxRiKcTx6w8HSGK23dwWR1eSUT"><rect width="400" height="400"/></clipPath></defs><g clip-path="url(#_clipPath_Hb4IkfcxRiKcTx6w8HSGK23dwWR1eSUT)"><path d=" M 47.663 336.717 L 69.619 321.828 L 91.574 318.324 L 113.53 310.441 L 135.486 299.931 L 157.442 294.676 L 179.398 282.414 L 201.353 276.283 L 223.309 257.89 L 245.265 245.627 L 267.221 234.241 L 289.177 224.607 L 311.133 163.296 L 333.088 123.882 L 355.044 85.344 L 377 33.669 L 377 340.221 L 355.044 340.221 L 333.088 340.221 L 311.133 340.221 L 289.177 340.221 L 267.221 340.221 L 245.265 340.221 L 223.309 340.221 L 201.353 340.221 L 179.398 340.221 L 157.442 340.221 L 135.486 340.221 L 113.53 340.221 L 91.574 340.221 L 69.619 340.221 L 47.663 340.221 L 47.663 336.717 Z " fill="rgb(85,129,186)"/><g id="Group"><path d=" M 44.024 345.476 L 44.024 340.659 L 380 340.659 L 380 345.476" fill="none" vector-effect="non-scaling-stroke" stroke-width="1" stroke="rgb(0,0,0)" stroke-linejoin="miter" stroke-linecap="butt" stroke-miterlimit="4"/><g id="Group"><line x1="55.958" y1="340.221" x2="55.958" y2="345.476" vector-effect="non-scaling-stroke" stroke-width="1" stroke="rgb(0,0,0)" stroke-linejoin="miter" stroke-linecap="butt" stroke-miterlimit="4"/><g transform="matrix(0,0.876,-1.018,0,66.841,348.103)"><text transform="matrix(1,0,0,1,0,10.688)" style="font-family:&quot;Open Sans&quot;;font-weight:400;font-size:10px;font-style:normal;fill:#000000;stroke:none;">2001</text></g></g><g id="Group"><line x1="76.698" y1="340.221" x2="76.698" y2="345.476" vector-effect="non-scaling-stroke" stroke-width="1" stroke="rgb(0,0,0)" stroke-linejoin="miter" stroke-linecap="butt" stroke-miterlimit="4"/><g transform="matrix(0,0.876,-1.018,0,87.58,348.103)"><text transform="matrix(1,0,0,1,0,10.688)" style="font-family:&quot;Open Sans&quot;;font-weight:400;font-size:10px;font-style:normal;fill:#000000;stroke:none;">2002</text></g></g><g id="Group"><line x1="97.437" y1="340.221" x2="97.437" y2="345.476" vector-effect="non-scaling-stroke" stroke-width="1" stroke="rgb(0,0,0)" stroke-linejoin="miter" stroke-linecap="butt" stroke-miterlimit="4"/><g transform="matrix(0,0.876,-1.018,0,108.319,348.103)"><text transform="matrix(1,0,0,1,0,10.688)" style="font-family:&quot;Open Sans&quot;;font-weight:400;font-size:10px;font-style:normal;fill:#000000;stroke:none;">2003</text></g></g><g id="Group"><line x1="118.176" y1="340.221" x2="118.176" y2="345.476" vector-effect="non-scaling-stroke" stroke-width="1" stroke="rgb(0,0,0)" stroke-linejoin="miter" stroke-linecap="butt" stroke-miterlimit="4"/><g transform="matrix(0,0.876,-1.018,0,129.058,348.103)"><text transform="matrix(1,0,0,1,0,10.688)" style="font-family:&quot;Open Sans&quot;;font-weight:400;font-size:10px;font-style:normal;fill:#000000;stroke:none;">2004</text></g></g><g id="Group"><line x1="138.916" y1="340.221" x2="138.916" y2="345.476" vector-effect="non-scaling-stroke" stroke-width="1" stroke="rgb(0,0,0)" stroke-linejoin="miter" stroke-linecap="butt" stroke-miterlimit="4"/><g transform="matrix(0,0.876,-1.018,0,149.798,348.103)"><text transform="matrix(1,0,0,1,0,10.688)" style="font-family:&quot;Open Sans&quot;;font-weight:400;font-size:10px;font-style:normal;fill:#000000;stroke:none;">2005</text></g></g><g id="Group"><line x1="159.655" y1="340.221" x2="159.655" y2="345.476" vector-effect="non-scaling-stroke" stroke-width="1" stroke="rgb(0,0,0)" stroke-linejoin="miter" stroke-linecap="butt" stroke-miterlimit="4"/><g transform="matrix(0,0.876,-1.018,0,170.537,348.103)"><text transform="matrix(1,0,0,1,0,10.688)" style="font-family:&quot;Open Sans&quot;;font-weight:400;font-size:10px;font-style:normal;fill:#000000;stroke:none;">2006</text></g></g><g id="Group"><line x1="180.394" y1="340.221" x2="180.394" y2="345.476" vector-effect="non-scaling-stroke" stroke-width="1" stroke="rgb(0,0,0)" stroke-linejoin="miter" stroke-linecap="butt" stroke-miterlimit="4"/><g transform="matrix(0,0.876,-1.018,0,191.276,348.103)"><text transform="matrix(1,0,0,1,0,10.688)" style="font-family:&quot;Open Sans&quot;;font-weight:400;font-size:10px;font-style:normal;fill:#000000;stroke:none;">2007</text></g></g><g id="Group"><line x1="201.133" y1="340.221" x2="201.133" y2="345.476" vector-effect="non-scaling-stroke" stroke-width="1" stroke="rgb(0,0,0)" stroke-linejoin="miter" stroke-linecap="butt" stroke-miterlimit="4"/><g transform="matrix(0,0.876,-1.018,0,212.015,348.103)"><text transform="matrix(1,0,0,1,0,10.688)" style="font-family:&quot;Open Sans&quot;;font-weight:400;font-size:10px;font-style:normal;fill:#000000;stroke:none;">2008</text></g></g><g id="Group"><line x1="221.873" y1="340.221" x2="221.873" y2="345.476" vector-effect="non-scaling-stroke" stroke-width="1" stroke="rgb(0,0,0)" stroke-linejoin="miter" stroke-linecap="butt" stroke-miterlimit="4"/><g transform="matrix(0,0.876,-1.018,0,232.755,348.103)"><text transform="matrix(1,0,0,1,0,10.688)" style="font-family:&quot;Open Sans&quot;;font-weight:400;font-size:10px;font-style:normal;fill:#000000;stroke:none;">2009</text></g></g><g id="Group"><line x1="242.612" y1="340.221" x2="242.612" y2="345.476" vector-effect="non-scaling-stroke" stroke-width="1" stroke="rgb(0,0,0)" stroke-linejoin="miter" stroke-linecap="butt" stroke-miterlimit="4"/><g transform="matrix(0,0.876,-1.018,0,253.494,348.103)"><text transform="matrix(1,0,0,1,0,10.688)" style="font-family:&quot;Open Sans&quot;;font-weight:400;font-size:10px;font-style:normal;fill:#000000;stroke:none;">2010</text></g></g><g id="Group"><line x1="263.351" y1="340.221" x2="263.351" y2="345.476" vector-effect="non-scaling-stroke" stroke-width="1" stroke="rgb(0,0,0)" stroke-linejoin="miter" stroke-linecap="butt" stroke-miterlimit="4"/><g transform="matrix(0,0.876,-1.018,0,274.233,348.103)"><text transform="matrix(1,0,0,1,0,10.688)" style="font-family:&quot;Open Sans&quot;;font-weight:400;font-size:10px;font-style:normal;fill:#000000;stroke:none;">2011</text></g></g><g id="Group"><line x1="284.09" y1="340.221" x2="284.09" y2="345.476" vector-effect="non-scaling-stroke" stroke-width="1" stroke="rgb(0,0,0)" stroke-linejoin="miter" stroke-linecap="butt" stroke-miterlimit="4"/><g transform="matrix(0,0.876,-1.018,0,294.972,348.103)"><text transform="matrix(1,0,0,1,0,10.688)" style="font-family:&quot;Open Sans&quot;;font-weight:400;font-size:10px;font-style:normal;fill:#000000;stroke:none;">2012</text></g></g><g id="Group"><line x1="304.83" y1="340.221" x2="304.83" y2="345.476" vector-effect="non-scaling-stroke" stroke-width="1" stroke="rgb(0,0,0)" stroke-linejoin="miter" stroke-linecap="butt" stroke-miterlimit="4"/><g transform="matrix(0,0.876,-1.018,0,315.712,348.103)"><text transform="matrix(1,0,0,1,0,10.688)" style="font-family:&quot;Open Sans&quot;;font-weight:400;font-size:10px;font-style:normal;fill:#000000;stroke:none;">2013</text></g></g><g id="Group"><line x1="325.569" y1="340.221" x2="325.569" y2="345.476" vector-effect="non-scaling-stroke" stroke-width="1" stroke="rgb(0,0,0)" stroke-linejoin="miter" stroke-linecap="butt" stroke-miterlimit="4"/><g transform="matrix(0,0.876,-1.018,0,336.451,348.103)"><text transform="matrix(1,0,0,1,0,10.688)" style="font-family:&quot;Open Sans&quot;;font-weight:400;font-size:10px;font-style:normal;fill:#000000;stroke:none;">2014</text></g></g><g id="Group"><line x1="346.308" y1="340.221" x2="346.308" y2="345.476" vector-effect="non-scaling-stroke" stroke-width="1" stroke="rgb(0,0,0)" stroke-linejoin="miter" stroke-linecap="butt" stroke-miterlimit="4"/><g transform="matrix(0,0.876,-1.018,0,357.19,348.103)"><text transform="matrix(1,0,0,1,0,10.688)" style="font-family:&quot;Open Sans&quot;;font-weight:400;font-size:10px;font-style:normal;fill:#000000;stroke:none;">2015</text></g></g><g id="Group"><line x1="367.047" y1="340.221" x2="367.047" y2="345.476" vector-effect="non-scaling-stroke" stroke-width="1" stroke="rgb(0,0,0)" stroke-linejoin="miter" stroke-linecap="butt" stroke-miterlimit="4"/><g transform="matrix(0,0.876,-1.018,0,377.929,348.103)"><text transform="matrix(1,0,0,1,0,10.688)" style="font-family:&quot;Open Sans&quot;;font-weight:400;font-size:10px;font-style:normal;fill:#000000;stroke:none;">2016</text></g></g></g><g id="Group"><path d=" M 37.406 340.659 L 44.024 340.659 L 44.024 34.106 L 37.406 34.106" fill="none" vector-effect="non-scaling-stroke" stroke-width="1" stroke="rgb(0,0,0)" stroke-linejoin="miter" stroke-linecap="butt" stroke-miterlimit="4"/><g id="Group"><line x1="43.515" y1="340.659" x2="37.406" y2="340.659" vector-effect="non-scaling-stroke" stroke-width="1" stroke="rgb(0,0,0)" stroke-linejoin="miter" stroke-linecap="butt" stroke-miterlimit="4"/><g transform="matrix(1.018,0,0,0.876,20,331.297)"><text transform="matrix(1,0,0,1,0,10.688)" style="font-family:&quot;Open Sans&quot;;font-weight:400;font-size:10px;font-style:normal;fill:#000000;stroke:none;">0.0</text></g></g><g id="Group"><line x1="43.515" y1="317.886" x2="37.406" y2="317.886" vector-effect="non-scaling-stroke" stroke-width="1" stroke="rgb(0,0,0)" stroke-linejoin="miter" stroke-linecap="butt" stroke-miterlimit="4"/><g transform="matrix(1.018,0,0,0.876,20,308.524)"><text transform="matrix(1,0,0,1,0,10.688)" style="font-family:&quot;Open Sans&quot;;font-weight:400;font-size:10px;font-style:normal;fill:#000000;stroke:none;">0.5</text></g></g><g id="Group"><line x1="43.515" y1="294.238" x2="37.406" y2="294.238" vector-effect="non-scaling-stroke" stroke-width="1" stroke="rgb(0,0,0)" stroke-linejoin="miter" stroke-linecap="butt" stroke-miterlimit="4"/><g transform="matrix(1.018,0,0,0.876,20,284.876)"><text transform="matrix(1,0,0,1,0,10.688)" style="font-family:&quot;Open Sans&quot;;font-weight:400;font-size:10px;font-style:normal;fill:#000000;stroke:none;">1.0</text></g></g><g id="Group"><line x1="43.515" y1="271.465" x2="37.406" y2="271.465" vector-effect="non-scaling-stroke" stroke-width="1" stroke="rgb(0,0,0)" stroke-linejoin="miter" stroke-linecap="butt" stroke-miterlimit="4"/><g transform="matrix(1.018,0,0,0.876,20,262.104)"><text transform="matrix(1,0,0,1,0,10.688)" style="font-family:&quot;Open Sans&quot;;font-weight:400;font-size:10px;font-style:normal;fill:#000000;stroke:none;">1.5</text></g></g><g id="Group"><line x1="43.515" y1="247.817" x2="37.406" y2="247.817" vector-effect="non-scaling-stroke" stroke-width="1" stroke="rgb(0,0,0)" stroke-linejoin="miter" stroke-linecap="butt" stroke-miterlimit="4"/><g transform="matrix(1.018,0,0,0.876,20,238.455)"><text transform="matrix(1,0,0,1,0,10.688)" style="font-family:&quot;Open Sans&quot;;font-weight:400;font-size:10px;font-style:normal;fill:#000000;stroke:none;">2.0</text></g></g><g id="Group"><line x1="43.515" y1="225.045" x2="37.406" y2="225.045" vector-effect="non-scaling-stroke" stroke-width="1" stroke="rgb(0,0,0)" stroke-linejoin="miter" stroke-linecap="butt" stroke-miterlimit="4"/><g transform="matrix(1.018,0,0,0.876,20,215.683)"><text transform="matrix(1,0,0,1,0,10.688)" style="font-family:&quot;Open Sans&quot;;font-weight:400;font-size:10px;font-style:normal;fill:#000000;stroke:none;">2.5</text></g></g><g id="Group"><line x1="43.515" y1="201.396" x2="37.406" y2="201.396" vector-effect="non-scaling-stroke" stroke-width="1" stroke="rgb(0,0,0)" stroke-linejoin="miter" stroke-linecap="butt" stroke-miterlimit="4"/><g transform="matrix(1.018,0,0,0.876,20,192.035)"><text transform="matrix(1,0,0,1,0,10.688)" style="font-family:&quot;Open Sans&quot;;font-weight:400;font-size:10px;font-style:normal;fill:#000000;stroke:none;">3.0</text></g></g><g id="Group"><line x1="43.515" y1="178.624" x2="37.406" y2="178.624" vector-effect="non-scaling-stroke" stroke-width="1" stroke="rgb(0,0,0)" stroke-linejoin="miter" stroke-linecap="butt" stroke-miterlimit="4"/><g transform="matrix(1.018,0,0,0.876,20,169.262)"><text transform="matrix(1,0,0,1,0,10.688)" style="font-family:&quot;Open Sans&quot;;font-weight:400;font-size:10px;font-style:normal;fill:#000000;stroke:none;">3.5</text></g></g><g id="Group"><line x1="43.515" y1="155.851" x2="37.406" y2="155.851" vector-effect="non-scaling-stroke" stroke-width="1" stroke="rgb(0,0,0)" stroke-linejoin="miter" stroke-linecap="butt" stroke-miterlimit="4"/><g transform="matrix(1.018,0,0,0.876,20,146.49)"><text transform="matrix(1,0,0,1,0,10.688)" style="font-family:&quot;Open Sans&quot;;font-weight:400;font-size:10px;font-style:normal;fill:#000000;stroke:none;">4.0</text></g></g><g id="Group"><line x1="43.515" y1="132.203" x2="37.406" y2="132.203" vector-effect="non-scaling-stroke" stroke-width="1" stroke="rgb(0,0,0)" stroke-linejoin="miter" stroke-linecap="butt" stroke-miterlimit="4"/><g transform="matrix(1.018,0,0,0.876,20,122.841)"><text transform="matrix(1,0,0,1,0,10.688)" style="font-family:&quot;Open Sans&quot;;font-weight:400;font-size:10px;font-style:normal;fill:#000000;stroke:none;">4.5</text></g></g><g id="Group"><line x1="43.515" y1="109.431" x2="37.406" y2="109.431" vector-effect="non-scaling-stroke" stroke-width="1" stroke="rgb(0,0,0)" stroke-linejoin="miter" stroke-linecap="butt" stroke-miterlimit="4"/><g transform="matrix(1.018,0,0,0.876,20,100.069)"><text transform="matrix(1,0,0,1,0,10.688)" style="font-family:&quot;Open Sans&quot;;font-weight:400;font-size:10px;font-style:normal;fill:#000000;stroke:none;">5.0</text></g></g><g id="Group"><line x1="43.515" y1="85.782" x2="37.406" y2="85.782" vector-effect="non-scaling-stroke" stroke-width="1" stroke="rgb(0,0,0)" stroke-linejoin="miter" stroke-linecap="butt" stroke-miterlimit="4"/><g transform="matrix(1.018,0,0,0.876,20,76.421)"><text transform="matrix(1,0,0,1,0,10.688)" style="font-family:&quot;Open Sans&quot;;font-weight:400;font-size:10px;font-style:normal;fill:#000000;stroke:none;">5.5</text></g></g><g id="Group"><line x1="43.515" y1="63.01" x2="37.406" y2="63.01" vector-effect="non-scaling-stroke" stroke-width="1" stroke="rgb(0,0,0)" stroke-linejoin="miter" stroke-linecap="butt" stroke-miterlimit="4"/><g transform="matrix(1.018,0,0,0.876,20,53.648)"><text transform="matrix(1,0,0,1,0,10.688)" style="font-family:&quot;Open Sans&quot;;font-weight:400;font-size:10px;font-style:normal;fill:#000000;stroke:none;">6.0</text></g></g><g id="Group"><line x1="43.515" y1="39.362" x2="37.406" y2="39.362" vector-effect="non-scaling-stroke" stroke-width="1" stroke="rgb(0,0,0)" stroke-linejoin="miter" stroke-linecap="butt" stroke-miterlimit="4"/><g transform="matrix(1.018,0,0,0.876,20,30)"><text transform="matrix(1,0,0,1,0,10.688)" style="font-family:&quot;Open Sans&quot;;font-weight:400;font-size:10px;font-style:normal;fill:#000000;stroke:none;">6.5</text></g></g><g transform="matrix(0,-0.876,1.018,0,44.024,118.462)"><text transform="matrix(1,0,0,1,0,10.688)" style="font-family:&quot;Open Sans&quot;;font-weight:400;font-size:10px;font-style:normal;fill:#000000;stroke:none;">Percent of forest loss</text></g></g></g></svg>