<?xml version="1.0" standalone="no"?><!-- Generator: Gravit.io --><svg xmlns="http://www.w3.org/2000/svg" xmlns:xlink="http://www.w3.org/1999/xlink" style="isolation:isolate" viewBox="0 0 400 400" width="400" height="400"><defs><clipPath id="_clipPath_2OyO6qpPHqt6M9W25Pp6DPJHQYNbrDhu"><rect width="400" height="400"/></clipPath></defs><g clip-path="url(#_clipPath_2OyO6qpPHqt6M9W25Pp6DPJHQYNbrDhu)"><g id="vectorimage"><path d=" M 20 270.485 L 21.152 271.973 C 22.303 273.463 24.606 276.44 26.91 277.552 C 29.213 278.664 31.516 277.911 33.819 281.236 C 36.123 284.562 38.426 291.966 40.732 294.307 C 43.039 296.648 45.348 293.926 47.655 291.034 C 49.961 288.141 52.264 285.077 54.567 283.764 C 56.871 282.45 59.174 282.886 61.477 282.995 C 63.78 283.105 66.084 282.886 68.39 282.326 C 70.696 281.766 73.006 280.864 75.312 281.703 C 77.619 282.541 79.922 285.119 82.225 287.391 C 84.528 289.665 86.832 291.634 89.135 292.996 C 91.438 294.359 93.741 295.115 96.048 296.126 C 98.354 297.139 100.664 298.406 102.97 300.973 C 105.276 303.541 107.58 307.407 109.883 309.642 C 112.186 311.878 114.489 312.482 116.793 313.704 C 119.096 314.925 121.399 316.765 123.705 316.655 C 126.012 316.546 128.322 314.487 130.627 316 C 132.934 317.513 135.238 322.598 137.541 323.369 C 139.844 324.14 142.147 320.595 144.45 326.044 C 146.753 331.492 149.057 345.932 151.364 350.054 C 153.669 354.176 155.979 347.978 158.286 342.375 C 160.592 336.773 162.895 331.764 165.198 331.147 C 167.502 330.528 169.805 334.301 172.108 336.336 C 174.412 338.37 176.715 338.665 179.021 339.906 C 181.328 341.147 183.637 343.334 185.943 343.938 C 188.25 344.542 190.553 343.562 192.856 344.506 C 195.16 345.448 197.462 348.314 199.765 351.08 C 202.069 353.846 204.372 356.511 206.679 359.743 C 208.985 362.974 211.294 366.772 213.601 366.044 C 215.907 365.315 218.21 360.062 220.514 349.834 C 222.817 339.606 225.12 324.404 227.424 313.09 C 229.727 301.777 232.03 294.351 234.336 292.371 C 236.643 290.391 238.952 293.857 241.258 293.981 C 243.565 294.106 245.869 290.89 248.172 292.641 C 250.475 294.393 252.778 301.113 255.081 302.846 C 257.384 304.579 259.688 301.326 261.994 299.897 C 264.3 298.468 266.61 298.865 268.917 297.716 C 271.222 296.567 273.526 293.874 275.829 294.833 C 278.132 295.791 280.436 300.403 282.739 302.231 C 285.042 304.06 287.346 303.105 289.652 304.18 C 291.959 305.255 294.268 308.359 296.574 311.837 C 298.881 315.314 301.184 319.164 303.487 321.978 C 305.791 324.792 308.093 326.569 310.396 331.127 C 312.7 335.683 315.003 343.02 317.31 351.697 C 319.616 360.376 321.925 370.397 324.232 372.721 C 326.538 375.045 328.841 369.672 331.145 369.081 C 333.448 368.49 335.751 372.681 338.055 375.71 C 340.358 378.74 342.661 380.608 344.967 379.708 C 347.274 378.807 349.583 375.138 351.889 374.586 C 354.196 374.032 356.499 376.595 358.803 378.216 C 361.106 379.836 363.409 380.515 365.712 379.549 C 368.015 378.582 370.319 375.969 372.625 375.725 C 374.931 375.481 377.241 377.605 378.396 378.668 L 379.551 379.73 L 379.551 379.732 L 378.396 378.671 C 377.241 377.609 374.931 375.485 372.625 375.729 C 370.319 375.974 368.015 378.588 365.712 379.554 C 363.409 380.521 361.106 379.842 358.803 378.22 C 356.499 376.599 354.196 374.036 351.889 374.589 C 349.583 375.143 347.274 378.813 344.967 379.713 C 342.661 380.614 340.358 378.744 338.055 375.714 C 335.751 372.684 333.448 368.496 331.145 369.091 C 328.841 369.686 326.538 375.066 324.232 372.761 C 321.925 370.455 319.616 360.465 317.31 351.789 C 315.003 343.113 312.7 335.753 310.396 331.188 C 308.093 326.622 305.791 324.852 303.487 322.031 C 301.184 319.21 298.881 315.336 296.574 311.867 C 294.268 308.398 291.959 305.332 289.652 304.274 C 287.346 303.216 285.042 304.167 282.739 302.321 C 280.436 300.476 278.132 295.834 275.829 294.862 C 273.526 293.891 271.222 296.588 268.917 297.739 C 266.61 298.889 264.3 298.492 261.994 300.189 C 259.688 301.886 257.384 305.676 255.081 303.945 C 252.778 302.214 250.475 294.963 248.172 292.941 C 245.869 290.919 243.565 294.127 241.258 294.1 C 238.952 294.074 236.643 290.814 234.336 293.379 C 232.03 295.945 229.727 304.337 227.424 316.189 C 225.12 328.042 222.817 343.354 220.514 353.956 C 218.21 364.557 215.907 370.449 213.601 371.751 C 211.294 373.054 208.985 369.767 206.679 366.529 C 204.372 363.291 202.069 360.103 199.765 357.026 C 197.462 353.95 195.16 350.986 192.856 350.071 C 190.553 349.154 188.25 350.289 185.943 349.699 C 183.637 349.111 181.328 346.8 179.021 345.452 C 176.715 344.105 174.412 343.72 172.108 341.676 C 169.805 339.632 167.502 335.928 165.198 336.475 C 162.895 337.022 160.592 341.822 158.286 347.823 C 155.979 353.823 153.669 361.026 151.364 356.582 C 149.057 352.137 146.753 336.048 144.45 330.796 C 142.147 325.544 139.844 331.132 137.541 331.395 C 135.238 331.658 132.934 326.597 130.627 325.346 C 128.322 324.096 126.012 326.655 123.705 325.897 C 121.399 325.138 119.096 321.06 116.793 319.702 C 114.489 318.344 112.186 319.706 109.883 317.25 C 107.58 314.794 105.276 308.521 102.97 305.353 C 100.664 302.184 98.354 302.121 96.048 301.714 C 93.741 301.308 91.438 300.559 89.135 298.947 C 86.832 297.336 84.528 294.861 82.225 292.24 C 79.922 289.619 77.619 286.851 75.312 286.363 C 73.006 285.875 70.696 287.667 68.39 288.346 C 66.084 289.026 63.78 288.593 61.477 288.261 C 59.174 287.931 56.871 287.7 54.567 288.704 C 52.264 289.708 49.961 291.945 47.655 294.961 C 45.348 297.977 43.039 301.772 40.732 300.6 C 38.426 299.428 36.123 293.29 33.819 289.543 C 31.516 285.795 29.213 284.44 26.91 281.93 C 24.606 279.421 22.303 275.758 21.152 273.928 L 20 272.096 L 20 270.485 Z " fill="rgb(220,219,219)"/><path d=" M 20 264.964 L 21.152 265.171 C 22.303 265.377 24.606 265.789 26.91 265.988 C 29.213 266.187 31.516 266.172 33.819 266.737 C 36.123 267.301 38.426 268.444 40.732 268.895 C 43.039 269.347 45.348 269.106 47.655 267.328 C 49.961 265.551 52.264 262.238 54.567 261.028 C 56.871 259.817 59.174 260.713 61.477 261.249 C 63.78 261.785 66.084 261.963 68.39 262.629 C 70.696 263.295 73.006 264.448 75.312 265.055 C 77.619 265.661 79.922 265.72 82.225 267.11 C 84.528 268.5 86.832 271.221 89.135 272.56 C 91.438 273.899 93.741 273.855 96.048 272.566 C 98.354 271.276 100.664 268.742 102.97 268.532 C 105.276 268.323 107.58 270.439 109.883 270.425 C 112.186 270.411 114.489 268.266 116.793 266.594 C 119.096 264.922 121.399 263.72 123.705 264.472 C 126.012 265.223 128.322 267.926 130.627 268.487 C 132.934 269.047 135.238 267.463 137.541 267.7 C 139.844 267.937 142.147 269.995 144.45 270.496 C 146.753 270.998 149.057 269.943 151.364 270.342 C 153.669 270.742 155.979 272.595 158.286 274.424 C 160.592 276.252 162.895 278.054 165.198 280.032 C 167.502 282.01 169.805 284.166 172.108 284.944 C 174.412 285.721 176.715 285.123 179.021 286.225 C 181.328 287.327 183.637 290.129 185.943 290.178 C 188.25 290.228 190.553 287.523 192.856 286.665 C 195.16 285.806 197.462 286.793 199.765 285.689 C 202.069 284.585 204.372 281.389 206.679 279.705 C 208.985 278.021 211.294 277.848 213.601 277.757 C 215.907 277.664 218.21 277.653 220.514 280.849 C 222.817 284.046 225.12 290.451 227.424 289.948 C 229.727 289.445 232.03 282.034 234.336 279.901 C 236.643 277.766 238.952 280.908 241.258 282.239 C 243.565 283.569 245.869 283.087 248.172 281.816 C 250.475 280.544 252.778 278.484 255.081 277.32 C 257.384 276.157 259.688 275.891 261.994 275.936 C 264.3 275.98 266.61 276.337 268.917 277.479 C 271.222 278.622 273.526 280.554 275.829 284.018 C 278.132 287.483 280.436 292.481 282.739 294.026 C 285.042 295.571 287.346 293.662 289.652 292.741 C 291.959 291.82 294.268 291.887 296.574 292.032 C 298.881 292.176 301.184 292.397 303.487 290.609 C 305.791 288.82 308.093 285.022 310.396 283.849 C 312.7 282.678 315.003 284.132 317.31 286.74 C 319.616 289.347 321.925 293.108 324.232 293.367 C 326.538 293.626 328.841 290.384 331.145 288.533 C 333.448 286.683 335.751 286.224 338.055 286.744 C 340.358 287.264 342.661 288.764 344.967 288.417 C 347.274 288.072 349.583 285.88 351.889 283.85 C 354.196 281.822 356.499 279.954 358.803 280.926 C 361.106 281.898 363.409 285.709 365.712 286.417 C 368.015 287.125 370.319 284.73 372.625 283.279 C 374.931 281.827 377.241 281.318 378.396 281.063 L 379.551 280.808 L 379.551 379.73 L 378.396 378.668 C 377.241 377.605 374.931 375.481 372.625 375.725 C 370.319 375.969 368.015 378.582 365.712 379.549 C 363.409 380.515 361.106 379.836 358.803 378.216 C 356.499 376.595 354.196 374.032 351.889 374.586 C 349.583 375.138 347.274 378.807 344.967 379.708 C 342.661 380.608 340.358 378.74 338.055 375.71 C 335.751 372.681 333.448 368.49 331.145 369.081 C 328.841 369.672 326.538 375.045 324.232 372.721 C 321.925 370.397 319.616 360.376 317.31 351.697 C 315.003 343.02 312.7 335.683 310.396 331.127 C 308.093 326.569 305.791 324.792 303.487 321.978 C 301.184 319.164 298.881 315.314 296.574 311.837 C 294.268 308.359 291.959 305.255 289.652 304.18 C 287.346 303.105 285.042 304.06 282.739 302.231 C 280.436 300.403 278.132 295.791 275.829 294.833 C 273.526 293.874 271.222 296.567 268.917 297.716 C 266.61 298.865 264.3 298.468 261.994 299.897 C 259.688 301.326 257.384 304.579 255.081 302.846 C 252.778 301.113 250.475 294.393 248.172 292.641 C 245.869 290.89 243.565 294.106 241.258 293.981 C 238.952 293.857 236.643 290.391 234.336 292.371 C 232.03 294.351 229.727 301.777 227.424 313.09 C 225.12 324.404 222.817 339.606 220.514 349.834 C 218.21 360.062 215.907 365.315 213.601 366.044 C 211.294 366.772 208.985 362.974 206.679 359.743 C 204.372 356.511 202.069 353.846 199.765 351.08 C 197.462 348.314 195.16 345.448 192.856 344.506 C 190.553 343.562 188.25 344.542 185.943 343.938 C 183.637 343.334 181.328 341.147 179.021 339.906 C 176.715 338.665 174.412 338.37 172.108 336.336 C 169.805 334.301 167.502 330.528 165.198 331.147 C 162.895 331.764 160.592 336.773 158.286 342.375 C 155.979 347.978 153.669 354.176 151.364 350.054 C 149.057 345.932 146.753 331.492 144.45 326.044 C 142.147 320.595 139.844 324.14 137.541 323.369 C 135.238 322.598 132.934 317.513 130.627 316 C 128.322 314.487 126.012 316.546 123.705 316.655 C 121.399 316.765 119.096 314.925 116.793 313.704 C 114.489 312.482 112.186 311.878 109.883 309.642 C 107.58 307.407 105.276 303.541 102.97 300.973 C 100.664 298.406 98.354 297.139 96.048 296.126 C 93.741 295.115 91.438 294.359 89.135 292.996 C 86.832 291.634 84.528 289.665 82.225 287.391 C 79.922 285.119 77.619 282.541 75.312 281.703 C 73.006 280.864 70.696 281.766 68.39 282.326 C 66.084 282.886 63.78 283.105 61.477 282.995 C 59.174 282.886 56.871 282.45 54.567 283.764 C 52.264 285.077 49.961 288.141 47.655 291.034 C 45.348 293.926 43.039 296.648 40.732 294.307 C 38.426 291.966 36.123 284.562 33.819 281.236 C 31.516 277.911 29.213 278.664 26.91 277.552 C 24.606 276.44 22.303 273.463 21.152 271.973 L 20 270.485 L 20 264.964 Z " fill="rgb(243,187,59)"/><path d=" M 20 263.869 L 21.152 264.009 C 22.303 264.149 24.606 264.429 26.91 264.389 C 29.213 264.348 31.516 263.987 33.819 264.16 C 36.123 264.332 38.426 265.039 40.732 265.564 C 43.039 266.089 45.348 266.433 47.655 265.063 C 49.961 263.693 52.264 260.608 54.567 259.446 C 56.871 258.285 59.174 259.046 61.477 259.653 C 63.78 260.259 66.084 260.712 68.39 261.49 C 70.696 262.267 73.006 263.371 75.312 263.888 C 77.619 264.406 79.922 264.34 82.225 265.658 C 84.528 266.975 86.832 269.679 89.135 271.059 C 91.438 272.44 93.741 272.498 96.048 271.233 C 98.354 269.969 100.664 267.381 102.97 267.145 C 105.276 266.908 107.58 269.024 109.883 268.972 C 112.186 268.921 114.489 266.703 116.793 264.872 C 119.096 263.04 121.399 261.597 123.705 262.147 C 126.012 262.698 128.322 265.242 130.627 265.623 C 132.934 266.003 135.238 264.217 137.541 264.373 C 139.844 264.53 142.147 266.63 144.45 267.415 C 146.753 268.2 149.057 267.67 151.364 268.369 C 153.669 269.068 155.979 270.996 158.286 272.791 C 160.592 274.584 162.895 276.244 165.198 278.191 C 167.502 280.138 169.805 282.37 172.108 283.238 C 174.412 284.105 176.715 283.606 179.021 284.644 C 181.328 285.683 183.637 288.258 185.943 288.184 C 188.25 288.111 190.553 285.387 192.856 284.733 C 195.16 284.08 197.462 285.497 199.765 284.714 C 202.069 283.93 204.372 280.945 206.679 279.346 C 208.985 277.747 211.294 277.533 213.601 277.344 C 215.907 277.156 218.21 276.993 220.514 280.14 C 222.817 283.286 225.12 289.743 227.424 289.374 C 229.727 289.007 232.03 281.815 234.336 279.784 C 236.643 277.753 238.952 280.883 241.258 282.211 C 243.565 283.539 245.869 283.066 248.172 281.797 C 250.475 280.528 252.778 278.465 255.081 277.299 C 257.384 276.135 259.688 275.868 261.994 275.913 C 264.3 275.956 266.61 276.312 268.917 277.455 C 271.222 278.597 273.526 280.528 275.829 283.987 C 278.132 287.445 280.436 292.431 282.739 293.968 C 285.042 295.505 287.346 293.593 289.652 292.67 C 291.959 291.746 294.268 291.812 296.574 291.953 C 298.881 292.095 301.184 292.313 303.487 290.522 C 305.791 288.733 308.093 284.934 310.396 283.76 C 312.7 282.585 315.003 284.034 317.31 286.642 C 319.616 289.251 321.925 293.017 324.232 293.282 C 326.538 293.547 328.841 290.311 331.145 288.464 C 333.448 286.617 335.751 286.16 338.055 286.688 C 340.358 287.214 342.661 288.726 344.967 288.39 C 347.274 288.053 349.583 285.87 351.889 283.834 C 354.196 281.799 356.499 279.91 358.803 280.86 C 361.106 281.81 363.409 285.6 365.712 286.293 C 368.015 286.987 370.319 284.586 372.625 283.138 C 374.931 281.69 377.241 281.197 378.396 280.95 L 379.551 280.703 L 379.551 280.808 L 378.396 281.063 C 377.241 281.318 374.931 281.827 372.625 283.279 C 370.319 284.73 368.015 287.125 365.712 286.417 C 363.409 285.709 361.106 281.898 358.803 280.926 C 356.499 279.954 354.196 281.822 351.889 283.85 C 349.583 285.88 347.274 288.072 344.967 288.417 C 342.661 288.764 340.358 287.264 338.055 286.744 C 335.751 286.224 333.448 286.683 331.145 288.533 C 328.841 290.384 326.538 293.626 324.232 293.367 C 321.925 293.108 319.616 289.347 317.31 286.74 C 315.003 284.132 312.7 282.678 310.396 283.849 C 308.093 285.022 305.791 288.82 303.487 290.609 C 301.184 292.397 298.881 292.176 296.574 292.032 C 294.268 291.887 291.959 291.82 289.652 292.741 C 287.346 293.662 285.042 295.571 282.739 294.026 C 280.436 292.481 278.132 287.483 275.829 284.018 C 273.526 280.554 271.222 278.622 268.917 277.479 C 266.61 276.337 264.3 275.98 261.994 275.936 C 259.688 275.891 257.384 276.157 255.081 277.32 C 252.778 278.484 250.475 280.544 248.172 281.816 C 245.869 283.087 243.565 283.569 241.258 282.239 C 238.952 280.908 236.643 277.766 234.336 279.901 C 232.03 282.034 229.727 289.445 227.424 289.948 C 225.12 290.451 222.817 284.046 220.514 280.849 C 218.21 277.653 215.907 277.664 213.601 277.757 C 211.294 277.848 208.985 278.021 206.679 279.705 C 204.372 281.389 202.069 284.585 199.765 285.689 C 197.462 286.793 195.16 285.806 192.856 286.665 C 190.553 287.523 188.25 290.228 185.943 290.178 C 183.637 290.129 181.328 287.327 179.021 286.225 C 176.715 285.123 174.412 285.721 172.108 284.944 C 169.805 284.166 167.502 282.01 165.198 280.032 C 162.895 278.054 160.592 276.252 158.286 274.424 C 155.979 272.595 153.669 270.742 151.364 270.342 C 149.057 269.943 146.753 270.998 144.45 270.496 C 142.147 269.995 139.844 267.937 137.541 267.7 C 135.238 267.463 132.934 269.047 130.627 268.487 C 128.322 267.926 126.012 265.223 123.705 264.472 C 121.399 263.72 119.096 264.922 116.793 266.594 C 114.489 268.266 112.186 270.411 109.883 270.425 C 107.58 270.439 105.276 268.323 102.97 268.532 C 100.664 268.742 98.354 271.276 96.048 272.566 C 93.741 273.855 91.438 273.899 89.135 272.56 C 86.832 271.221 84.528 268.5 82.225 267.11 C 79.922 265.72 77.619 265.661 75.312 265.055 C 73.006 264.448 70.696 263.295 68.39 262.629 C 66.084 261.963 63.78 261.785 61.477 261.249 C 59.174 260.713 56.871 259.817 54.567 261.028 C 52.264 262.238 49.961 265.551 47.655 267.328 C 45.348 269.106 43.039 269.347 40.732 268.895 C 38.426 268.444 36.123 267.301 33.819 266.737 C 31.516 266.172 29.213 266.187 26.91 265.988 C 24.606 265.789 22.303 265.377 21.152 265.171 L 20 264.964 L 20 263.869 Z " fill="rgb(132,174,200)"/><path d=" M 20 239.79 L 21.152 239.765 C 22.303 239.739 24.606 239.689 26.91 239.593 C 29.213 239.497 31.516 239.356 33.819 237.588 C 36.123 235.821 38.426 232.425 40.732 230.978 C 43.039 229.531 45.348 230.032 47.655 231.654 C 49.961 233.276 52.264 236.02 54.567 237.535 C 56.871 239.05 59.174 239.337 61.477 239.271 C 63.78 239.206 66.084 238.788 68.39 238.945 C 70.696 239.102 73.006 239.834 75.312 239.885 C 77.619 239.935 79.922 239.304 82.225 238.607 C 84.528 237.908 86.832 237.144 89.135 237.308 C 91.438 237.472 93.741 238.565 96.048 238.988 C 98.354 239.412 100.664 239.167 102.97 238.491 C 105.276 237.815 107.58 236.71 109.883 236.687 C 112.186 236.665 114.489 237.726 116.793 237.973 C 119.096 238.219 121.399 237.651 123.705 239.394 C 126.012 241.137 128.322 245.192 130.627 245.758 C 132.934 246.326 135.238 243.406 137.541 243.202 C 139.844 242.998 142.147 245.51 144.45 245.032 C 146.753 244.553 149.057 241.084 151.364 240.969 C 153.669 240.852 155.979 244.091 158.286 246.498 C 160.592 248.906 162.895 250.483 165.198 252.265 C 167.502 254.047 169.805 256.033 172.108 257.263 C 174.412 258.494 176.715 258.967 179.021 259.241 C 181.328 259.515 183.637 259.59 185.943 259.414 C 188.25 259.238 190.553 258.813 192.856 258.616 C 195.16 258.421 197.462 258.455 199.765 257.408 C 202.069 256.36 204.372 254.23 206.679 252.177 C 208.985 250.124 211.294 248.149 213.601 247.234 C 215.907 246.318 218.21 246.462 220.514 248.924 C 222.817 251.385 225.12 256.165 227.424 254.75 C 229.727 253.335 232.03 245.728 234.336 241.357 C 236.643 236.987 238.952 235.854 241.258 236.556 C 243.565 237.257 245.869 239.793 248.172 239.539 C 250.475 239.285 252.778 236.24 255.081 234.54 C 257.384 232.84 259.688 232.484 261.994 233.501 C 264.3 234.518 266.61 236.907 268.917 238.649 C 271.222 240.391 273.526 241.486 275.829 241.264 C 278.132 241.041 280.436 239.501 282.739 238.753 C 285.042 238.005 287.346 238.047 289.652 237.349 C 291.959 236.65 294.268 235.211 296.574 232.472 C 298.881 229.734 301.184 225.695 303.487 224.606 C 305.791 223.515 308.093 225.373 310.396 224.589 C 312.7 223.806 315.003 220.38 317.31 216.467 C 319.616 212.555 321.925 208.157 324.232 207.273 C 326.538 206.389 328.841 209.02 331.145 210.03 C 333.448 211.039 335.751 210.428 338.055 209.95 C 340.358 209.47 342.661 209.124 344.967 210.415 C 347.274 211.706 349.583 214.634 351.889 217.059 C 354.196 219.482 356.499 221.403 358.803 221.359 C 361.106 221.314 363.409 219.305 365.712 219.032 C 368.015 218.758 370.319 220.22 372.625 220.934 C 374.931 221.649 377.241 221.617 378.396 221.601 L 379.551 221.585 L 379.551 280.703 L 378.396 280.95 C 377.241 281.197 374.931 281.69 372.625 283.138 C 370.319 284.586 368.015 286.987 365.712 286.293 C 363.409 285.6 361.106 281.81 358.803 280.86 C 356.499 279.91 354.196 281.799 351.889 283.834 C 349.583 285.87 347.274 288.053 344.967 288.39 C 342.661 288.726 340.358 287.214 338.055 286.688 C 335.751 286.16 333.448 286.617 331.145 288.464 C 328.841 290.311 326.538 293.547 324.232 293.282 C 321.925 293.017 319.616 289.251 317.31 286.642 C 315.003 284.034 312.7 282.585 310.396 283.76 C 308.093 284.934 305.791 288.733 303.487 290.522 C 301.184 292.313 298.881 292.095 296.574 291.953 C 294.268 291.812 291.959 291.746 289.652 292.67 C 287.346 293.593 285.042 295.505 282.739 293.968 C 280.436 292.431 278.132 287.445 275.829 283.987 C 273.526 280.528 271.222 278.597 268.917 277.455 C 266.61 276.312 264.3 275.956 261.994 275.913 C 259.688 275.868 257.384 276.135 255.081 277.299 C 252.778 278.465 250.475 280.528 248.172 281.797 C 245.869 283.066 243.565 283.539 241.258 282.211 C 238.952 280.883 236.643 277.753 234.336 279.784 C 232.03 281.815 229.727 289.007 227.424 289.374 C 225.12 289.743 222.817 283.286 220.514 280.14 C 218.21 276.993 215.907 277.156 213.601 277.344 C 211.294 277.533 208.985 277.747 206.679 279.346 C 204.372 280.945 202.069 283.93 199.765 284.714 C 197.462 285.497 195.16 284.08 192.856 284.733 C 190.553 285.387 188.25 288.111 185.943 288.184 C 183.637 288.258 181.328 285.683 179.021 284.644 C 176.715 283.606 174.412 284.105 172.108 283.238 C 169.805 282.37 167.502 280.138 165.198 278.191 C 162.895 276.244 160.592 274.584 158.286 272.791 C 155.979 270.996 153.669 269.068 151.364 268.369 C 149.057 267.67 146.753 268.2 144.45 267.415 C 142.147 266.63 139.844 264.53 137.541 264.373 C 135.238 264.217 132.934 266.003 130.627 265.623 C 128.322 265.242 126.012 262.698 123.705 262.147 C 121.399 261.597 119.096 263.04 116.793 264.872 C 114.489 266.703 112.186 268.921 109.883 268.972 C 107.58 269.024 105.276 266.908 102.97 267.145 C 100.664 267.381 98.354 269.969 96.048 271.233 C 93.741 272.498 91.438 272.44 89.135 271.059 C 86.832 269.679 84.528 266.975 82.225 265.658 C 79.922 264.34 77.619 264.406 75.312 263.888 C 73.006 263.371 70.696 262.267 68.39 261.49 C 66.084 260.712 63.78 260.259 61.477 259.653 C 59.174 259.046 56.871 258.285 54.567 259.446 C 52.264 260.608 49.961 263.693 47.655 265.063 C 45.348 266.433 43.039 266.089 40.732 265.564 C 38.426 265.039 36.123 264.332 33.819 264.16 C 31.516 263.987 29.213 264.348 26.91 264.389 C 24.606 264.429 22.303 264.149 21.152 264.009 L 20 263.869 L 20 239.79 Z " fill="rgb(220,68,4)"/><path d=" M 20 207.637 L 21.152 206.66 C 22.303 205.683 24.606 203.727 26.91 203.04 C 29.213 202.352 31.516 202.931 33.819 201.483 C 36.123 200.036 38.426 196.562 40.732 195.377 C 43.039 194.191 45.348 195.295 47.655 197.344 C 49.961 199.393 52.264 202.385 54.567 203.024 C 56.871 203.663 59.174 201.949 61.477 201.273 C 63.78 200.598 66.084 200.96 68.39 200.335 C 70.696 199.708 73.006 198.093 75.312 196.873 C 77.619 195.653 79.922 194.83 82.225 192.881 C 84.528 190.932 86.832 187.859 89.135 185.261 C 91.438 182.664 93.741 180.544 96.048 180.734 C 98.354 180.925 100.664 183.426 102.97 182.311 C 105.276 181.196 107.58 176.464 109.883 174.43 C 112.186 172.396 114.489 173.059 116.793 173.314 C 119.096 173.57 121.399 173.418 123.705 170.652 C 126.012 167.887 128.322 162.506 130.627 160.094 C 132.934 157.681 135.238 158.236 137.541 157.175 C 139.844 156.115 142.147 153.439 144.45 147.856 C 146.753 142.272 149.057 133.78 151.364 128.782 C 153.669 123.783 155.979 122.278 158.286 121.162 C 160.592 120.046 162.895 119.321 165.198 116.456 C 167.502 113.592 169.805 108.589 172.108 105.898 C 174.412 103.208 176.715 102.829 179.021 101.438 C 181.328 100.047 183.637 97.645 185.943 97.658 C 188.25 97.672 190.553 100.103 192.856 100.31 C 195.16 100.517 197.462 98.501 199.765 99.014 C 202.069 99.528 204.372 102.572 206.679 103.987 C 208.985 105.402 211.294 105.187 213.601 106.714 C 215.907 108.241 218.21 111.51 220.514 110.181 C 222.817 108.852 225.12 102.925 227.424 107.612 C 229.727 112.3 232.03 127.603 234.336 134.832 C 236.643 142.062 238.952 141.219 241.258 139.241 C 243.565 137.264 245.869 134.153 248.172 134.402 C 250.475 134.651 252.778 138.262 255.081 140.866 C 257.384 143.47 259.688 145.069 261.994 144.095 C 264.3 143.12 266.61 139.573 268.917 136.747 C 271.222 133.921 273.526 131.816 275.829 130.278 C 278.132 128.741 280.436 127.772 282.739 127.871 C 285.042 127.97 287.346 129.137 289.652 130.532 C 291.959 131.927 294.268 133.549 296.574 137.457 C 298.881 141.365 301.184 147.559 303.487 151.148 C 305.791 154.736 308.093 155.718 310.396 154.761 C 312.7 153.803 315.003 150.906 317.31 145.018 C 319.616 139.13 321.925 130.251 324.232 129.906 C 326.538 129.56 328.841 137.747 331.145 140.366 C 333.448 142.986 335.751 140.037 338.055 136.35 C 340.358 132.662 342.661 128.236 344.967 127.252 C 347.274 126.267 349.583 128.725 351.889 128.635 C 354.196 128.545 356.499 125.906 358.803 122.982 C 361.106 120.058 363.409 116.848 365.712 117.174 C 368.015 117.5 370.319 121.36 372.625 122.665 C 374.931 123.969 377.241 122.716 378.396 122.09 L 379.551 121.464 L 379.551 221.585 L 378.396 221.601 C 377.241 221.617 374.931 221.649 372.625 220.934 C 370.319 220.22 368.015 218.758 365.712 219.032 C 363.409 219.305 361.106 221.314 358.803 221.359 C 356.499 221.403 354.196 219.482 351.889 217.059 C 349.583 214.634 347.274 211.706 344.967 210.415 C 342.661 209.124 340.358 209.47 338.055 209.95 C 335.751 210.428 333.448 211.039 331.145 210.03 C 328.841 209.02 326.538 206.389 324.232 207.273 C 321.925 208.157 319.616 212.555 317.31 216.467 C 315.003 220.38 312.7 223.806 310.396 224.589 C 308.093 225.373 305.791 223.515 303.487 224.606 C 301.184 225.695 298.881 229.734 296.574 232.472 C 294.268 235.211 291.959 236.65 289.652 237.349 C 287.346 238.047 285.042 238.005 282.739 238.753 C 280.436 239.501 278.132 241.041 275.829 241.264 C 273.526 241.486 271.222 240.391 268.917 238.649 C 266.61 236.907 264.3 234.518 261.994 233.501 C 259.688 232.484 257.384 232.84 255.081 234.54 C 252.778 236.24 250.475 239.285 248.172 239.539 C 245.869 239.793 243.565 237.257 241.258 236.556 C 238.952 235.854 236.643 236.987 234.336 241.357 C 232.03 245.728 229.727 253.335 227.424 254.75 C 225.12 256.165 222.817 251.385 220.514 248.924 C 218.21 246.462 215.907 246.318 213.601 247.234 C 211.294 248.149 208.985 250.124 206.679 252.177 C 204.372 254.23 202.069 256.36 199.765 257.408 C 197.462 258.455 195.16 258.421 192.856 258.616 C 190.553 258.813 188.25 259.238 185.943 259.414 C 183.637 259.59 181.328 259.515 179.021 259.241 C 176.715 258.967 174.412 258.494 172.108 257.263 C 169.805 256.033 167.502 254.047 165.198 252.265 C 162.895 250.483 160.592 248.906 158.286 246.498 C 155.979 244.091 153.669 240.852 151.364 240.969 C 149.057 241.084 146.753 244.553 144.45 245.032 C 142.147 245.51 139.844 242.998 137.541 243.202 C 135.238 243.406 132.934 246.326 130.627 245.758 C 128.322 245.192 126.012 241.137 123.705 239.394 C 121.399 237.651 119.096 238.219 116.793 237.973 C 114.489 237.726 112.186 236.665 109.883 236.687 C 107.58 236.71 105.276 237.815 102.97 238.491 C 100.664 239.167 98.354 239.412 96.048 238.988 C 93.741 238.565 91.438 237.472 89.135 237.308 C 86.832 237.144 84.528 237.908 82.225 238.607 C 79.922 239.304 77.619 239.935 75.312 239.885 C 73.006 239.834 70.696 239.102 68.39 238.945 C 66.084 238.788 63.78 239.206 61.477 239.271 C 59.174 239.337 56.871 239.05 54.567 237.535 C 52.264 236.02 49.961 233.276 47.655 231.654 C 45.348 230.032 43.039 229.531 40.732 230.978 C 38.426 232.425 36.123 235.821 33.819 237.588 C 31.516 239.356 29.213 239.497 26.91 239.593 C 24.606 239.689 22.303 239.739 21.152 239.765 L 20 239.79 L 20 207.637 Z " fill="rgb(85,129,186)"/><g id="Group"><path d=" M 20.449 87.323 L 20.449 82.084 L 380 82.084 L 380 87.323" fill="none" vector-effect="non-scaling-stroke" stroke-width="0.967" stroke="rgb(0,0,0)" stroke-linejoin="miter" stroke-linecap="butt" stroke-miterlimit="4"/><g id="Group"><line x1="48.107" y1="81.608" x2="48.107" y2="87.323" vector-effect="non-scaling-stroke" stroke-width="0.967" stroke="rgb(0,0,0)" stroke-linejoin="miter" stroke-linecap="butt" stroke-miterlimit="4"/><g transform="matrix(0.899,0,0,0.952,37.828,80)"><text transform="matrix(1,0,0,1,0,10.688)" style="font-family:&quot;Open Sans&quot;;font-weight:400;font-size:10px;font-style:normal;fill:#000000;stroke:none;">1965</text></g></g><g id="Group"><line x1="82.675" y1="81.608" x2="82.675" y2="87.323" vector-effect="non-scaling-stroke" stroke-width="0.967" stroke="rgb(0,0,0)" stroke-linejoin="miter" stroke-linecap="butt" stroke-miterlimit="4"/><g transform="matrix(0.899,0,0,0.952,72.395,80)"><text transform="matrix(1,0,0,1,0,10.688)" style="font-family:&quot;Open Sans&quot;;font-weight:400;font-size:10px;font-style:normal;fill:#000000;stroke:none;">1970</text></g></g><g id="Group"><line x1="117.242" y1="81.608" x2="117.242" y2="87.323" vector-effect="non-scaling-stroke" stroke-width="0.967" stroke="rgb(0,0,0)" stroke-linejoin="miter" stroke-linecap="butt" stroke-miterlimit="4"/><g transform="matrix(0.899,0,0,0.952,106.963,80)"><text transform="matrix(1,0,0,1,0,10.688)" style="font-family:&quot;Open Sans&quot;;font-weight:400;font-size:10px;font-style:normal;fill:#000000;stroke:none;">1975</text></g></g><g id="Group"><line x1="151.809" y1="81.608" x2="151.809" y2="87.323" vector-effect="non-scaling-stroke" stroke-width="0.967" stroke="rgb(0,0,0)" stroke-linejoin="miter" stroke-linecap="butt" stroke-miterlimit="4"/><g transform="matrix(0.899,0,0,0.952,141.53,80)"><text transform="matrix(1,0,0,1,0,10.688)" style="font-family:&quot;Open Sans&quot;;font-weight:400;font-size:10px;font-style:normal;fill:#000000;stroke:none;">1980</text></g></g><g id="Group"><line x1="186.396" y1="81.608" x2="186.396" y2="87.323" vector-effect="non-scaling-stroke" stroke-width="0.967" stroke="rgb(0,0,0)" stroke-linejoin="miter" stroke-linecap="butt" stroke-miterlimit="4"/><g transform="matrix(0.899,0,0,0.952,176.116,80)"><text transform="matrix(1,0,0,1,0,10.688)" style="font-family:&quot;Open Sans&quot;;font-weight:400;font-size:10px;font-style:normal;fill:#000000;stroke:none;">1985</text></g></g><g id="Group"><line x1="220.964" y1="81.608" x2="220.964" y2="87.323" vector-effect="non-scaling-stroke" stroke-width="0.967" stroke="rgb(0,0,0)" stroke-linejoin="miter" stroke-linecap="butt" stroke-miterlimit="4"/><g transform="matrix(0.899,0,0,0.952,210.684,80)"><text transform="matrix(1,0,0,1,0,10.688)" style="font-family:&quot;Open Sans&quot;;font-weight:400;font-size:10px;font-style:normal;fill:#000000;stroke:none;">1990</text></g></g><g id="Group"><line x1="255.531" y1="81.608" x2="255.531" y2="87.323" vector-effect="non-scaling-stroke" stroke-width="0.967" stroke="rgb(0,0,0)" stroke-linejoin="miter" stroke-linecap="butt" stroke-miterlimit="4"/><g transform="matrix(0.899,0,0,0.952,245.252,80)"><text transform="matrix(1,0,0,1,0,10.688)" style="font-family:&quot;Open Sans&quot;;font-weight:400;font-size:10px;font-style:normal;fill:#000000;stroke:none;">1995</text></g></g><g id="Group"><line x1="290.098" y1="81.608" x2="290.098" y2="87.323" vector-effect="non-scaling-stroke" stroke-width="0.967" stroke="rgb(0,0,0)" stroke-linejoin="miter" stroke-linecap="butt" stroke-miterlimit="4"/><g transform="matrix(0.899,0,0,0.952,279.819,80)"><text transform="matrix(1,0,0,1,0,10.688)" style="font-family:&quot;Open Sans&quot;;font-weight:400;font-size:10px;font-style:normal;fill:#000000;stroke:none;">2000</text></g></g><g id="Group"><line x1="324.685" y1="81.608" x2="324.685" y2="87.323" vector-effect="non-scaling-stroke" stroke-width="0.967" stroke="rgb(0,0,0)" stroke-linejoin="miter" stroke-linecap="butt" stroke-miterlimit="4"/><g transform="matrix(0.899,0,0,0.952,314.406,80)"><text transform="matrix(1,0,0,1,0,10.688)" style="font-family:&quot;Open Sans&quot;;font-weight:400;font-size:10px;font-style:normal;fill:#000000;stroke:none;">2005</text></g></g><g id="Group"><line x1="359.252" y1="81.608" x2="359.252" y2="87.323" vector-effect="non-scaling-stroke" stroke-width="0.967" stroke="rgb(0,0,0)" stroke-linejoin="miter" stroke-linecap="butt" stroke-miterlimit="4"/><g transform="matrix(0.899,0,0,0.952,348.973,80)"><text transform="matrix(1,0,0,1,0,10.688)" style="font-family:&quot;Open Sans&quot;;font-weight:400;font-size:10px;font-style:normal;fill:#000000;stroke:none;">2010</text></g></g></g></g><g transform="matrix(1,0,0,1,148.5,30)"><text transform="matrix(1,0,0,1,0,21.377)" style="font-family:&quot;Open Sans&quot;;font-weight:400;font-size:20px;font-style:normal;fill:#000000;stroke:none;">Cuba Cereals</text></g><g transform="matrix(1,0,0,1,157,60)"><text transform="matrix(1,0,0,1,0,12.826)" style="font-family:&quot;Open Sans&quot;;font-weight:400;font-size:12px;font-style:normal;fill:#000000;stroke:none;">Imports 1961-2013</text></g><rect x="30" y="110" width="10" height="10" transform="matrix(1,0,0,1,0,0)" fill="rgb(220,68,4)"/><rect x="30" y="100" width="10" height="10" transform="matrix(1,0,0,1,0,0)" fill="rgb(85,129,186)"/><rect x="30" y="120" width="10" height="10" transform="matrix(1,0,0,1,0,0)" fill="rgb(132,174,200)"/><rect x="30" y="130" width="10" height="10" transform="matrix(1,0,0,1,0,0)" fill="rgb(243,187,59)"/><rect x="30" y="140" width="10" height="10" transform="matrix(1,0,0,1,0,0)" fill="rgb(220,219,219)"/><g transform="matrix(1,0,0,1,40,98.191)"><text transform="matrix(1,0,0,1,0,10.688)" style="font-family:&quot;Open Sans&quot;;font-weight:400;font-size:10px;font-style:normal;fill:#000000;stroke:none;">Wheat</text></g><g transform="matrix(1,0,0,1,40,108.191)"><text transform="matrix(1,0,0,1,0,10.688)" style="font-family:&quot;Open Sans&quot;;font-weight:400;font-size:10px;font-style:normal;fill:#000000;stroke:none;">Rice</text></g><g transform="matrix(1,0,0,1,40,118.191)"><text transform="matrix(1,0,0,1,0,10.688)" style="font-family:&quot;Open Sans&quot;;font-weight:400;font-size:10px;font-style:normal;fill:#000000;stroke:none;">Oats</text></g><g transform="matrix(1,0,0,1,40,128.191)"><text transform="matrix(1,0,0,1,0,10.688)" style="font-family:&quot;Open Sans&quot;;font-weight:400;font-size:10px;font-style:normal;fill:#000000;stroke:none;">Maize</text></g><g transform="matrix(1,0,0,1,40,138.191)"><text transform="matrix(1,0,0,1,0,10.688)" style="font-family:&quot;Open Sans&quot;;font-weight:400;font-size:10px;font-style:normal;fill:#000000;stroke:none;">Barley</text></g></g></svg>