<?xml version="1.0" standalone="no"?><!-- Generator: Gravit.io --><svg xmlns="http://www.w3.org/2000/svg" xmlns:xlink="http://www.w3.org/1999/xlink" style="isolation:isolate" viewBox="0 0 400 300" width="400" height="300"><defs><clipPath id="_clipPath_TcfelXL7TcK4QoS6lj5ot972CZqeiYPc"><rect width="400" height="300"/></clipPath></defs><g clip-path="url(#_clipPath_TcfelXL7TcK4QoS6lj5ot972CZqeiYPc)"><rect width="400" height="300" style="fill:rgb(248,248,248)"/><path d=" M 54.111 194 C 54.264 193.428 55.111 194 54.111 163.333 C 54.444 163.333 72.585 148.509 80.111 146 C 87.861 143.417 94.816 139.137 102.111 144 C 107.985 147.916 117.511 157.267 123.778 151 C 130.327 144.451 157.478 121.1 164.778 118.667 C 172.851 115.976 182.667 123.445 185.444 129 C 188.501 135.112 207.626 145.454 211.944 148.333 C 220.354 153.94 261.672 151.193 268.444 149.5 C 276.46 147.496 289.732 135.401 294.444 128.333 C 298.901 121.648 318.012 85.099 322.111 81 C 328.625 74.486 340.08 92.969 342.444 95.333 C 350.831 103.72 354.647 113.203 361.444 120 C 368.232 126.788 372.277 134.166 377.778 139.667 C 380.305 142.194 388.444 145.667 388.111 145 L 388.444 185 C 242.167 232.657 57.111 205.333 54.111 194 Z " fill="rgb(238,178,48)" vector-effect="non-scaling-stroke" stroke-width="1" stroke="rgb(220,68,5)" stroke-linejoin="miter" stroke-linecap="square" stroke-miterlimit="3"/><path d=" M 54.029 228.39 L 53.944 227.25 L 54.194 195.25 C 55.733 195.25 58.234 193.92 58.694 193 C 62.358 185.672 70.509 181.577 75.944 177.5 C 82.911 172.275 88.146 168.75 95.694 168.75 C 103.275 168.75 111.805 171.68 117.444 174.5 C 126.401 178.978 131.044 171.175 135.944 167.5 C 142.624 162.49 147.688 154.128 153.944 151 C 162.96 146.492 165.798 142.383 174.694 149.5 C 182.203 155.507 186.264 163.32 191.944 169 C 200.655 177.71 202.884 177.97 211.944 182.5 C 220.03 186.543 250.335 201.5 257.194 201.5 C 263.156 201.5 273.684 200.26 277.444 196.5 C 282.543 191.401 307.444 159.75 306.964 160 C 307.694 159.5 317.112 149.095 324.444 139.667 C 329.819 135.635 339.902 144.596 341.944 148 C 343.566 150.702 354.359 163.315 363.444 171 C 368.967 175.671 387.944 184.5 388.444 185 C 388.444 184.75 387.304 211.941 388.444 213 C 352.638 249.524 241.176 254.664 54.029 228.39 Z " fill="rgb(244,155,66)" vector-effect="non-scaling-stroke" stroke-width="1" stroke="rgb(220,68,5)" stroke-linejoin="miter" stroke-linecap="square" stroke-miterlimit="3"/><g transform="matrix(1,0,0,1,12.444,181.833)"><text transform="matrix(1,0,0,1,0,19.36)" style="font-family:&quot;Magra&quot;;font-weight:400;font-size:20px;font-style:normal;fill:#dc4405;stroke:none;">200</text></g><g transform="matrix(1,0,0,1,81.752,270)"><text transform="matrix(1,0,0,1,0,19.36)" style="font-family:&quot;Magra&quot;;font-weight:400;font-size:20px;font-style:normal;fill:#dc4405;stroke:none;">10</text></g><g transform="matrix(1,0,0,1,139.29,270)"><text transform="matrix(1,0,0,1,0,19.36)" style="font-family:&quot;Magra&quot;;font-weight:400;font-size:20px;font-style:normal;fill:#dc4405;stroke:none;">20</text></g><g transform="matrix(1,0,0,1,197.828,270)"><text transform="matrix(1,0,0,1,0,19.36)" style="font-family:&quot;Magra&quot;;font-weight:400;font-size:20px;font-style:normal;fill:#dc4405;stroke:none;">30</text></g><g transform="matrix(1,0,0,1,256.366,270)"><text transform="matrix(1,0,0,1,0,19.36)" style="font-family:&quot;Magra&quot;;font-weight:400;font-size:20px;font-style:normal;fill:#dc4405;stroke:none;">40</text></g><g transform="matrix(1,0,0,1,316.904,270)"><text transform="matrix(1,0,0,1,0,19.36)" style="font-family:&quot;Magra&quot;;font-weight:400;font-size:20px;font-style:normal;fill:#dc4405;stroke:none;">50</text></g><path d=" M 54.444 16 L 54.444 256 L 388.444 256" fill="none" vector-effect="non-scaling-stroke" stroke-width="1" stroke="rgb(149,45,0)" stroke-linejoin="miter" stroke-linecap="square" stroke-miterlimit="3"/><g transform="matrix(1,0,0,1,11.444,133.374)"><text transform="matrix(1,0,0,1,0,19.36)" style="font-family:&quot;Magra&quot;;font-weight:400;font-size:20px;font-style:normal;fill:#dc4405;stroke:none;">400</text></g><g transform="matrix(1,0,0,1,11.444,36.458)"><text transform="matrix(1,0,0,1,0,19.36)" style="font-family:&quot;Magra&quot;;font-weight:400;font-size:20px;font-style:normal;fill:#dc4405;stroke:none;">800</text></g><g transform="matrix(1,0,0,1,11.444,84.916)"><text transform="matrix(1,0,0,1,0,19.36)" style="font-family:&quot;Magra&quot;;font-weight:400;font-size:20px;font-style:normal;fill:#dc4405;stroke:none;">600</text></g><line x1="61.944" y1="51" x2="48.944" y2="51" vector-effect="non-scaling-stroke" stroke-width="1.01" stroke="rgb(149,45,0)" stroke-linejoin="miter" stroke-linecap="square" stroke-miterlimit="3"/><line x1="61.444" y1="99.667" x2="48.444" y2="99.667" vector-effect="non-scaling-stroke" stroke-width="1.01" stroke="rgb(149,45,0)" stroke-linejoin="miter" stroke-linecap="square" stroke-miterlimit="3"/><line x1="61.444" y1="148.333" x2="48.444" y2="148.333" vector-effect="non-scaling-stroke" stroke-width="1.01" stroke="rgb(149,45,0)" stroke-linejoin="miter" stroke-linecap="square" stroke-miterlimit="3"/><line x1="61.444" y1="197" x2="48.444" y2="197" vector-effect="non-scaling-stroke" stroke-width="1.01" stroke="rgb(149,45,0)" stroke-linejoin="miter" stroke-linecap="square" stroke-miterlimit="3"/><line x1="91.444" y1="265" x2="91.444" y2="251" vector-effect="non-scaling-stroke" stroke-width="1" stroke="rgb(149,45,0)" stroke-linejoin="miter" stroke-linecap="square" stroke-miterlimit="3"/><line x1="150.79" y1="265" x2="150.79" y2="251" vector-effect="non-scaling-stroke" stroke-width="1" stroke="rgb(149,45,0)" stroke-linejoin="miter" stroke-linecap="square" stroke-miterlimit="3"/><line x1="206.482" y1="265" x2="206.482" y2="251" vector-effect="non-scaling-stroke" stroke-width="1" stroke="rgb(149,45,0)" stroke-linejoin="miter" stroke-linecap="square" stroke-miterlimit="3"/><line x1="264.444" y1="265" x2="264.444" y2="251" vector-effect="non-scaling-stroke" stroke-width="1" stroke="rgb(149,45,0)" stroke-linejoin="miter" stroke-linecap="square" stroke-miterlimit="3"/><line x1="328.904" y1="265" x2="328.904" y2="251" vector-effect="non-scaling-stroke" stroke-width="1" stroke="rgb(149,45,0)" stroke-linejoin="miter" stroke-linecap="square" stroke-miterlimit="3"/><path d=" M 54.444 256 L 54.029 228.39 C 54.029 228.923 58.298 227.856 58.298 227.856 C 66.811 223.6 72.241 215.282 80.177 211.314 C 85.318 208.743 100.491 204.395 104.723 206.511 C 107.444 208.75 119.008 216.116 128.202 216.116 C 135.511 216.116 162.135 196.372 170.892 196.372 C 178.386 196.372 183.434 196.841 188.501 200.641 C 190.819 202.38 212.06 218.784 217.85 218.784 C 220.194 219.5 239.194 225.25 242.93 225.721 C 252.354 228.863 259.769 225.978 266.943 223.587 C 276.568 220.379 283.13 215.937 289.355 209.713 C 296.448 202.619 300.986 195.414 306.964 189.435 C 314.262 182.137 323.578 181.965 331.511 181.965 C 340.015 181.965 353.047 189.477 355.523 196.906 C 358.183 204.884 368.815 210.457 376.444 213 C 385.198 215.918 388.281 211.933 388.444 213 C 388.694 212.909 388.444 251.273 388.444 256 L 54.444 256 Z " fill="rgb(255,113,113)" vector-effect="non-scaling-stroke" stroke-width="1" stroke="rgb(220,68,5)" stroke-linejoin="miter" stroke-linecap="square" stroke-miterlimit="3"/></g></svg>