<?xml version="1.0" standalone="no"?><!-- Generator: Gravit.io --><svg xmlns="http://www.w3.org/2000/svg" xmlns:xlink="http://www.w3.org/1999/xlink" style="isolation:isolate" viewBox="0 0 400 300" width="400" height="300"><defs><clipPath id="_clipPath_2f9B4nqZuVufCq11mQAsKMLBYuTn1MCw"><rect width="400" height="300"/></clipPath></defs><g clip-path="url(#_clipPath_2f9B4nqZuVufCq11mQAsKMLBYuTn1MCw)"><clipPath id="_clipPath_fHavIu2JkeiEt7rLINn9x1r2SjxoQyA0"><rect x="0" y="0" width="400" height="300" transform="matrix(1,0,0,1,0,0)" fill="rgb(255,255,255)"/></clipPath><g clip-path="url(#_clipPath_fHavIu2JkeiEt7rLINn9x1r2SjxoQyA0)"><g id="Group"><g opacity="0"><rect x="0" y="0" width="400" height="300" transform="matrix(1,0,0,1,0,0)" fill="rgb(248,248,248)"/></g><path d=" M 285.245 173.228 C 289.389 158.02 289.389 141.98 285.245 126.772 L 337.514 112.636" fill="rgb(253,82,1)"/><path d=" M 262.21 212.738 C 273.403 201.64 281.423 187.749 285.438 172.506 L 337.773 186.399" fill="rgb(254,34,9)"/><path d=" M 222.506 235.438 C 237.749 231.423 251.64 223.403 262.738 212.21 L 301.115 250.409" fill="rgb(168,18,74)"/><path d=" M 176.772 235.245 C 191.98 239.389 208.02 239.389 223.228 235.245 L 237.364 287.514" fill="rgb(135,0,176)"/><path d=" M 137.262 212.21 C 148.36 223.403 162.251 231.423 177.494 235.438 L 163.601 287.773" fill="rgb(59,0,165)"/><path d=" M 114.562 172.506 C 118.577 187.749 126.597 201.64 137.79 212.738 L 99.591 251.115" fill="rgb(0,70,254)"/><path d=" M 114.562 126.772 C 110.418 141.98 110.418 158.02 114.562 173.228 L 62.292 187.364" fill="rgb(0,147,207)"/><path d=" M 137.79 87.262 C 126.597 98.36 118.577 112.251 114.562 127.494 L 62.227 113.601" fill="rgb(102,177,47)"/><path d=" M 177.494 64.562 C 162.251 68.577 148.36 76.597 137.262 87.79 L 98.885 49.591" fill="rgb(209,235,39)"/><path d=" M 223.228 64.755 C 208.02 60.611 191.98 60.611 176.772 64.755 L 162.636 12.486" fill="rgb(254,254,48)"/><path d=" M 262.738 87.79 C 251.64 76.597 237.749 68.577 222.506 64.562 L 236.399 12.227" fill="rgb(250,189,0)"/><path d=" M 285.438 127.494 C 281.423 112.251 273.403 98.36 262.21 87.262 L 300.409 48.885" fill="rgb(251,154,0)"/></g></g></g></svg>