<?xml version="1.0" standalone="no"?><!-- Generator: Gravit.io --><svg xmlns="http://www.w3.org/2000/svg" xmlns:xlink="http://www.w3.org/1999/xlink" style="isolation:isolate" viewBox="0 0 400 300" width="400" height="300"><defs><clipPath id="_clipPath_VsJJPgM2LcMgqSZpDYbkh1ETbzX8wK4i"><rect width="400" height="300"/></clipPath></defs><g clip-path="url(#_clipPath_VsJJPgM2LcMgqSZpDYbkh1ETbzX8wK4i)"><clipPath id="_clipPath_rJ7gCnyzHfDkUz2WBniVevbwFJCWgWp3"><rect x="0" y="0" width="400" height="300" transform="matrix(1,0,0,1,0,0)" fill="rgb(255,255,255)"/></clipPath><g clip-path="url(#_clipPath_rJ7gCnyzHfDkUz2WBniVevbwFJCWgWp3)"><g id="Group"><g opacity="0"><rect x="0" y="0" width="400" height="300" transform="matrix(1,0,0,1,0,0)" fill="rgb(248,248,248)"/></g><clipPath id="_clipPath_z50LDHn9DbxbOAsXZGV0L1LeSKxSfvSs"><path d=" M 71 27.721 L 91.828 27.721 C 159.361 27.721 214.107 82.467 214.107 150 C 214.107 217.533 159.361 272.279 91.828 272.279 L 71 272.279 L 71 218.53 L 91.828 218.53 C 129.676 218.53 160.358 187.848 160.358 150 C 160.358 112.152 129.676 81.47 91.828 81.47 L 71 81.47 L 71 27.721 L 71 27.721 Z  M 168.423 27.721 L 254.421 27.721 C 283.349 27.721 309.668 44.449 321.947 70.641 C 334.226 96.833 330.251 127.764 311.748 150 C 330.251 172.236 334.226 203.167 321.947 229.359 C 309.668 255.551 283.349 272.279 254.421 272.279 L 168.423 272.279 C 189.584 259.024 206.943 240.504 218.803 218.53 L 254.419 218.53 C 265.922 218.53 275.247 209.205 275.247 197.702 C 275.247 186.199 265.922 176.875 254.419 176.875 L 233.591 176.875 C 236.958 159.116 236.958 140.884 233.591 123.125 L 254.419 123.125 C 265.922 123.125 275.247 113.801 275.247 102.298 C 275.247 90.795 265.922 81.47 254.419 81.47 L 218.803 81.47 C 206.943 59.496 189.584 40.976 168.423 27.721 Z " fill="rgb(255,255,255)"/></clipPath><g clip-path="url(#_clipPath_z50LDHn9DbxbOAsXZGV0L1LeSKxSfvSs)"><g id="Group"><g id="Group"><linearGradient id="_lgradient_0" x1="0%" y1="50%" x2="70.71067811865474%" y2="120.71067811865474%"><stop offset="50%" stop-opacity="1" style="stop-color:rgb(249,160,60)"/><stop offset="64.33333333333334%" stop-opacity="1" style="stop-color:rgb(247,151,78)"/></linearGradient><path d=" M -270.307 -246.4 L -270.307 559.837 L 535.93 559.837 L -270.307 -246.4 L -270.307 -246.4 Z " fill="url(#_lgradient_0)"/><linearGradient id="_lgradient_1" x1="0%" y1="50%" x2="70.71063426632355%" y2="120.71072197095876%"><stop offset="34.99999462523299%" stop-opacity="1" style="stop-color:rgb(184,78,81)"/><stop offset="55.99999462523301%" stop-opacity="1" style="stop-color:rgb(246,142,72)"/></linearGradient><path d=" M -125.184 -246.4 L 681.052 -246.4 L 681.052 559.837 L -125.184 -246.4 L -125.184 -246.4 Z " fill="url(#_lgradient_1)"/><linearGradient id="_lgradient_2" x1="0%" y1="50%" x2="68.18442900883824%" y2="123.14973438597505%"><stop offset="33.55576164542347%" stop-opacity="1" style="stop-color:rgb(242,109,88)"/><stop offset="62.222428312090194%" stop-opacity="1" style="stop-color:rgb(249,160,60)"/></linearGradient><line x1="-197.746" y1="-246.4" x2="608.491" y2="559.837" vector-effect="non-scaling-stroke" stroke-width="107.498" stroke="url(#_lgradient_2)" stroke-linejoin="miter" stroke-linecap="butt" stroke-miterlimit="4"/></g></g></g></g></g></g></svg>