<?xml version="1.0" standalone="no"?><!-- Generator: Gravit.io --><svg xmlns="http://www.w3.org/2000/svg" xmlns:xlink="http://www.w3.org/1999/xlink" style="isolation:isolate" viewBox="0 0 400 300" width="400" height="300"><defs><clipPath id="_clipPath_0pDqMHb2Dyb5xYijpMvOlJQSqpKsQPRo"><rect width="400" height="300"/></clipPath></defs><g clip-path="url(#_clipPath_0pDqMHb2Dyb5xYijpMvOlJQSqpKsQPRo)"><rect width="400" height="300" style="fill:rgb(248,248,248)"/><g transform="matrix(1,0,0,1,13,176.683)"><text transform="matrix(1,0,0,1,0,19.36)" style="font-family:&quot;Magra&quot;;font-weight:400;font-size:20px;font-style:normal;fill:#dc4405;stroke:none;">200</text></g><g transform="matrix(1,0,0,1,85,264.85)"><text transform="matrix(1,0,0,1,0,19.36)" style="font-family:&quot;Magra&quot;;font-weight:400;font-size:20px;font-style:normal;fill:#dc4405;stroke:none;">2</text></g><g transform="matrix(1,0,0,1,144.594,262.85)"><text transform="matrix(1,0,0,1,0,19.36)" style="font-family:&quot;Magra&quot;;font-weight:400;font-size:20px;font-style:normal;fill:#dc4405;stroke:none;">4</text></g><g transform="matrix(1,0,0,1,205.217,262.85)"><text transform="matrix(1,0,0,1,0,19.36)" style="font-family:&quot;Magra&quot;;font-weight:400;font-size:20px;font-style:normal;fill:#dc4405;stroke:none;">6</text></g><g transform="matrix(1,0,0,1,265.84,262.85)"><text transform="matrix(1,0,0,1,0,19.36)" style="font-family:&quot;Magra&quot;;font-weight:400;font-size:20px;font-style:normal;fill:#dc4405;stroke:none;">8</text></g><g transform="matrix(1,0,0,1,326.463,262.85)"><text transform="matrix(1,0,0,1,0,19.36)" style="font-family:&quot;Magra&quot;;font-weight:400;font-size:20px;font-style:normal;fill:#dc4405;stroke:none;">10</text></g><path d=" M 55 10.85 L 55 250.85 L 389 250.85" fill="none" vector-effect="non-scaling-stroke" stroke-width="1" stroke="rgb(149,45,0)" stroke-linejoin="miter" stroke-linecap="square" stroke-miterlimit="3"/><g transform="matrix(1,0,0,1,12,128.224)"><text transform="matrix(1,0,0,1,0,19.36)" style="font-family:&quot;Magra&quot;;font-weight:400;font-size:20px;font-style:normal;fill:#dc4405;stroke:none;">400</text></g><g transform="matrix(1,0,0,1,12,31.308)"><text transform="matrix(1,0,0,1,0,19.36)" style="font-family:&quot;Magra&quot;;font-weight:400;font-size:20px;font-style:normal;fill:#dc4405;stroke:none;">800</text></g><g transform="matrix(1,0,0,1,12,79.766)"><text transform="matrix(1,0,0,1,0,19.36)" style="font-family:&quot;Magra&quot;;font-weight:400;font-size:20px;font-style:normal;fill:#dc4405;stroke:none;">600</text></g><line x1="62.5" y1="45.85" x2="49.5" y2="45.85" vector-effect="non-scaling-stroke" stroke-width="1.01" stroke="rgb(149,45,0)" stroke-linejoin="miter" stroke-linecap="square" stroke-miterlimit="3"/><line x1="62" y1="94.517" x2="49" y2="94.517" vector-effect="non-scaling-stroke" stroke-width="1.01" stroke="rgb(149,45,0)" stroke-linejoin="miter" stroke-linecap="square" stroke-miterlimit="3"/><line x1="62" y1="143.183" x2="49" y2="143.183" vector-effect="non-scaling-stroke" stroke-width="1.01" stroke="rgb(149,45,0)" stroke-linejoin="miter" stroke-linecap="square" stroke-miterlimit="3"/><line x1="62" y1="191.85" x2="49" y2="191.85" vector-effect="non-scaling-stroke" stroke-width="1.01" stroke="rgb(149,45,0)" stroke-linejoin="miter" stroke-linecap="square" stroke-miterlimit="3"/><line x1="91.17" y1="259.85" x2="91.17" y2="245.85" vector-effect="non-scaling-stroke" stroke-width="1" stroke="rgb(149,45,0)" stroke-linejoin="miter" stroke-linecap="square" stroke-miterlimit="3"/><line x1="151.279" y1="259.85" x2="151.279" y2="245.85" vector-effect="non-scaling-stroke" stroke-width="1" stroke="rgb(149,45,0)" stroke-linejoin="miter" stroke-linecap="square" stroke-miterlimit="3"/><line x1="211.902" y1="259.85" x2="211.902" y2="245.85" vector-effect="non-scaling-stroke" stroke-width="1" stroke="rgb(149,45,0)" stroke-linejoin="miter" stroke-linecap="square" stroke-miterlimit="3"/><line x1="272.524" y1="259.85" x2="272.524" y2="245.85" vector-effect="non-scaling-stroke" stroke-width="1" stroke="rgb(149,45,0)" stroke-linejoin="miter" stroke-linecap="square" stroke-miterlimit="3"/><line x1="337.775" y1="259.85" x2="337.775" y2="245.85" vector-effect="non-scaling-stroke" stroke-width="1" stroke="rgb(149,45,0)" stroke-linejoin="miter" stroke-linecap="square" stroke-miterlimit="3"/><path d=" M 121.274 39.104 L 134.264 61.602 L 121.274 84.102 L 95.295 84.102 L 82.307 61.602 L 95.295 39.104 L 121.274 39.104 Z " fill-rule="evenodd" fill="rgb(251,200,91)"/><path d=" M 160.241 61.603 L 173.231 84.101 L 160.241 106.601 L 134.262 106.601 L 121.274 84.101 L 134.262 61.603 L 160.241 61.603 Z " fill-rule="evenodd" fill="rgb(251,200,91)"/><path d=" M 199.208 39.104 L 212.198 61.602 L 199.208 84.102 L 173.229 84.102 L 160.241 61.602 L 173.229 39.104 L 199.208 39.104 Z " fill-rule="evenodd" fill="rgb(251,200,91)"/><path d=" M 199.208 84.102 L 212.198 106.6 L 199.208 129.099 L 173.229 129.099 L 160.241 106.6 L 173.229 84.102 L 199.208 84.102 Z " fill-rule="evenodd" fill="rgb(244,186,56)"/><path d=" M 160.241 16.605 L 173.231 39.103 L 160.241 61.603 L 134.262 61.603 L 121.274 39.103 L 134.262 16.605 L 160.241 16.605 Z " fill-rule="evenodd" fill="rgb(251,200,91)"/><path d=" M 238.175 61.603 L 251.164 84.101 L 238.175 106.601 L 212.195 106.601 L 199.208 84.101 L 212.195 61.603 L 238.175 61.603 Z " fill-rule="evenodd" fill="rgb(244,186,56)"/><path d=" M 160.241 106.601 L 173.231 129.099 L 160.241 151.598 L 134.262 151.598 L 121.274 129.099 L 134.262 106.601 L 160.241 106.601 Z " fill-rule="evenodd" fill="rgb(244,186,56)"/><path d=" M 199.208 129.099 L 212.198 151.598 L 199.208 174.097 L 173.229 174.097 L 160.241 151.598 L 173.229 129.099 L 199.208 129.099 Z " fill-rule="evenodd" fill="rgb(244,186,56)"/><path d=" M 238.175 106.601 L 251.164 129.099 L 238.175 151.598 L 212.195 151.598 L 199.208 129.099 L 212.195 106.601 L 238.175 106.601 Z " fill-rule="evenodd" fill="rgb(220,68,5)"/><path d=" M 277.142 129.099 L 290.131 151.598 L 277.142 174.097 L 251.162 174.097 L 238.175 151.598 L 251.162 129.099 L 277.142 129.099 Z " fill-rule="evenodd" fill="rgb(220,68,5)"/><path d=" M 316.108 106.601 L 329.098 129.099 L 316.108 151.598 L 290.129 151.598 L 277.142 129.099 L 290.129 106.601 L 316.108 106.601 Z " fill-rule="evenodd" fill="rgb(244,186,56)"/><path d=" M 121.274 129.099 L 134.264 151.598 L 121.274 174.097 L 95.295 174.097 L 82.307 151.598 L 95.295 129.099 L 121.274 129.099 Z " fill-rule="evenodd" fill="rgb(244,186,56)"/><path d=" M 160.241 151.598 L 173.231 174.097 L 160.241 196.596 L 134.262 196.596 L 121.274 174.097 L 134.262 151.598 L 160.241 151.598 Z " fill-rule="evenodd" fill="rgb(251,200,91)"/><path d=" M 121.274 84.102 L 134.264 106.6 L 121.274 129.099 L 95.295 129.099 L 82.307 106.6 L 95.295 84.102 L 121.274 84.102 Z " fill-rule="evenodd" fill="rgb(251,200,91)"/><path d=" M 199.208 174.097 L 212.198 196.596 L 199.208 219.095 L 173.229 219.095 L 160.241 196.596 L 173.229 174.097 L 199.208 174.097 Z " fill-rule="evenodd" fill="rgb(251,200,91)"/><path d=" M 238.175 151.598 L 251.164 174.097 L 238.175 196.596 L 212.195 196.596 L 199.208 174.097 L 212.195 151.598 L 238.175 151.598 Z " fill-rule="evenodd" fill="rgb(251,200,91)"/><path d=" M 277.142 84.102 L 290.131 106.6 L 277.142 129.099 L 251.162 129.099 L 238.175 106.6 L 251.162 84.102 L 277.142 84.102 Z " fill-rule="evenodd" fill="rgb(220,68,5)"/><path d=" M 277.142 174.097 L 290.131 196.596 L 277.142 219.095 L 251.162 219.095 L 238.175 196.596 L 251.162 174.097 L 277.142 174.097 Z " fill-rule="evenodd" fill="rgb(251,200,91)"/><path d=" M 316.108 151.598 L 329.098 174.097 L 316.108 196.596 L 290.129 196.596 L 277.142 174.097 L 290.129 151.598 L 316.108 151.598 Z " fill-rule="evenodd" fill="rgb(244,186,56)"/><path d=" M 316.108 61.603 L 329.098 84.101 L 316.108 106.601 L 290.129 106.601 L 277.142 84.101 L 290.129 61.603 L 316.108 61.603 Z " fill-rule="evenodd" fill="rgb(251,200,91)"/><path d=" M 355.075 84.102 L 368.065 106.6 L 355.075 129.099 L 329.096 129.099 L 316.108 106.6 L 329.096 84.102 L 355.075 84.102 Z " fill-rule="evenodd" fill="rgb(251,200,91)"/><path d=" M 277.142 39.104 L 290.131 61.602 L 277.142 84.102 L 251.162 84.102 L 238.175 61.602 L 251.162 39.104 L 277.142 39.104 Z " fill-rule="evenodd" fill="rgb(251,200,91)"/></g></svg>