<?xml version="1.0" standalone="no"?><!-- Generator: Gravit.io --><svg xmlns="http://www.w3.org/2000/svg" xmlns:xlink="http://www.w3.org/1999/xlink" style="isolation:isolate" viewBox="0 0 400 400" width="400" height="400"><defs><clipPath id="_clipPath_p5RdiFuqAyJeaEScieloZ9mX737i3uqQ"><rect width="400" height="400"/></clipPath></defs><g clip-path="url(#_clipPath_p5RdiFuqAyJeaEScieloZ9mX737i3uqQ)"><clipPath id="_clipPath_cvmliiZNFaKV96OAGf9Tgg2DYZ3c4nDt"><rect x="0" y="50" width="400" height="300" transform="matrix(1,0,0,1,0,0)" fill="rgb(255,255,255)"/></clipPath><g clip-path="url(#_clipPath_cvmliiZNFaKV96OAGf9Tgg2DYZ3c4nDt)"><g id="Group"><clipPath id="_clipPath_LzhTchZ5Ka4jUbX75iqTVdW506fYmn3a"><rect x="0" y="50" width="400" height="300" transform="matrix(1,0,0,1,0,0)" fill="rgb(255,255,255)"/></clipPath><g clip-path="url(#_clipPath_LzhTchZ5Ka4jUbX75iqTVdW506fYmn3a)"><g id="Group"><g id="Group"><path d=" M 201 200 L 66 200 C 66 156.956 86.189 118.589 117.599 93.854 L 201 200 L 201 200 Z " fill="rgb(220,68,5)"/><g id="Group"><g id="Group"><g transform="matrix(1,0,0,1,372,-71.626)"><text transform="matrix(1,0,0,1,0,19.36)" style="font-family:&quot;Magra&quot;;font-weight:400;font-size:20px;font-style:normal;fill:#DC4405;stroke:none;">200</text></g></g></g><g id="Group"><g id="Group"><g transform="matrix(1,0,0,1,682.114,16.542)"><text transform="matrix(1,0,0,1,0,19.36)" style="font-family:&quot;Magra&quot;;font-weight:400;font-size:20px;font-style:normal;fill:#DC4405;stroke:none;">E</text></g></g></g><rect x="440.307" y="-73.7" width="23" height="60.725" transform="matrix(1,0,0,1,0,0)" fill="rgb(255,199,80)" vector-effect="non-scaling-stroke" stroke-width="1" stroke="rgb(220,68,5)" stroke-opacity="5000" stroke-linejoin="round" stroke-linecap="butt" stroke-miterlimit="1.414"/><rect x="498.422" y="-129.7" width="23" height="116.725" transform="matrix(1,0,0,1,0,0)" fill="rgb(244,186,56)" vector-effect="non-scaling-stroke" stroke-width="1" stroke="rgb(220,68,5)" stroke-opacity="5000" stroke-linejoin="round" stroke-linecap="butt" stroke-miterlimit="1.414"/><rect x="557.961" y="-192.7" width="23" height="179.725" transform="matrix(1,0,0,1,0,0)" fill="rgb(234,160,0)" vector-effect="non-scaling-stroke" stroke-width="1" stroke="rgb(220,68,5)" stroke-opacity="5000" stroke-linejoin="round" stroke-linecap="butt" stroke-miterlimit="1.414"/><rect x="616.787" y="-150.599" width="23" height="137.624" transform="matrix(1,0,0,1,0,0)" fill="rgb(255,117,58)" vector-effect="non-scaling-stroke" stroke-width="1" stroke="rgb(220,68,5)" stroke-opacity="5000" stroke-linejoin="round" stroke-linecap="butt" stroke-miterlimit="1.414"/><rect x="676.614" y="-65.7" width="51.886" height="52.725" transform="matrix(1,0,0,1,0,0)" fill="rgb(220,68,5)" vector-effect="non-scaling-stroke" stroke-width="1" stroke="rgb(220,68,5)" stroke-opacity="5000" stroke-linejoin="round" stroke-linecap="butt" stroke-miterlimit="1.414"/><line x1="414" y1="2.542" x2="748" y2="2.542" vector-effect="non-scaling-stroke" stroke-width="1" stroke="rgb(149,45,0)" stroke-opacity="10000" stroke-linejoin="miter" stroke-linecap="square" stroke-miterlimit="3"/><g id="Group"><g id="Group"><g transform="matrix(1,0,0,1,371,-120.084)"><text transform="matrix(1,0,0,1,0,19.36)" style="font-family:&quot;Magra&quot;;font-weight:400;font-size:20px;font-style:normal;fill:#DC4405;stroke:none;">400</text></g></g></g><g id="Group"><g id="Group"><g transform="matrix(1,0,0,1,371,-217)"><text transform="matrix(1,0,0,1,0,19.36)" style="font-family:&quot;Magra&quot;;font-weight:400;font-size:20px;font-style:normal;fill:#DC4405;stroke:none;">800</text></g></g></g><g id="Group"><g id="Group"><g transform="matrix(1,0,0,1,371,-168.542)"><text transform="matrix(1,0,0,1,0,19.36)" style="font-family:&quot;Magra&quot;;font-weight:400;font-size:20px;font-style:normal;fill:#DC4405;stroke:none;">600</text></g></g></g><line x1="421.5" y1="-202.458" x2="408.5" y2="-202.458" vector-effect="non-scaling-stroke" stroke-width="1.01" stroke="rgb(149,45,0)" stroke-opacity="10000" stroke-linejoin="miter" stroke-linecap="square" stroke-miterlimit="3"/><line x1="421" y1="-153.791" x2="408" y2="-153.791" vector-effect="non-scaling-stroke" stroke-width="1.01" stroke="rgb(149,45,0)" stroke-opacity="10000" stroke-linejoin="miter" stroke-linecap="square" stroke-miterlimit="3"/><line x1="421" y1="-105.125" x2="408" y2="-105.125" vector-effect="non-scaling-stroke" stroke-width="1.01" stroke="rgb(149,45,0)" stroke-opacity="10000" stroke-linejoin="miter" stroke-linecap="square" stroke-miterlimit="3"/><line x1="421" y1="-56.458" x2="408" y2="-56.458" vector-effect="non-scaling-stroke" stroke-width="1.01" stroke="rgb(149,45,0)" stroke-opacity="10000" stroke-linejoin="miter" stroke-linecap="square" stroke-miterlimit="3"/><line x1="451.807" y1="11.542" x2="451.807" y2="-2.458" vector-effect="non-scaling-stroke" stroke-width="1" stroke="rgb(149,45,0)" stroke-opacity="10000" stroke-linejoin="miter" stroke-linecap="square" stroke-miterlimit="3"/><line x1="509.922" y1="11.542" x2="509.922" y2="-2.458" vector-effect="non-scaling-stroke" stroke-width="1" stroke="rgb(149,45,0)" stroke-opacity="10000" stroke-linejoin="miter" stroke-linecap="square" stroke-miterlimit="3"/><line x1="569.461" y1="11.542" x2="569.461" y2="-2.458" vector-effect="non-scaling-stroke" stroke-width="1" stroke="rgb(149,45,0)" stroke-opacity="10000" stroke-linejoin="miter" stroke-linecap="square" stroke-miterlimit="3"/><line x1="628.287" y1="11.542" x2="628.287" y2="-2.458" vector-effect="non-scaling-stroke" stroke-width="1" stroke="rgb(149,45,0)" stroke-opacity="10000" stroke-linejoin="miter" stroke-linecap="square" stroke-miterlimit="3"/><line x1="688.114" y1="11.542" x2="688.114" y2="-2.458" vector-effect="non-scaling-stroke" stroke-width="1" stroke="rgb(149,45,0)" stroke-opacity="10000" stroke-linejoin="miter" stroke-linecap="square" stroke-miterlimit="3"/><path d=" M 200.626 200 L 261 79.251 C 242.832 70.13 222.323 65 200.626 65 C 169.161 65 140.197 75.787 117.225 93.854 L 200.626 200 L 200.626 200 Z " fill="rgb(255,117,58)"/><path d=" M 200 200 L 260.374 79.251 C 304.61 101.42 335 147.189 335 200 C 335 237.254 319.877 271.004 295.423 295.423 L 200 200 L 200 200 Z " fill="rgb(234,160,0)"/><path d=" M 201 200 L 66 200 C 66 274.509 126.491 335 201 335 C 238.254 335 272.004 319.877 296.423 295.423 L 201 200 L 201 200 Z " fill="rgb(255,199,80)"/><g id="Group"><g id="Group"><g transform="matrix(1,0,0,1,188.112,103)"><text transform="matrix(1,0,0,1,0,19.36)" style="font-family:&quot;Magra&quot;;font-weight:400;font-size:20px;font-style:normal;fill:#DC4405;stroke:none;">A</text></g></g></g><g id="Group"><g id="Group"><g transform="matrix(1,0,0,1,116.225,146.927)"><text transform="matrix(1,0,0,1,0,19.36)" style="font-family:&quot;Magra&quot;;font-weight:400;font-size:20px;font-style:normal;fill:#EAA000;stroke:none;">B</text></g></g></g><g id="Group"><g id="Group"><g transform="matrix(1,0,0,1,167.211,255.35)"><text transform="matrix(1,0,0,1,0,19.36)" style="font-family:&quot;Magra&quot;;font-weight:400;font-size:20px;font-style:normal;fill:#DC4405;stroke:none;">C</text></g></g></g><g id="Group"><g id="Group"><g transform="matrix(1,0,0,1,267.5,171.227)"><text transform="matrix(1,0,0,1,0,19.36)" style="font-family:&quot;Magra&quot;;font-weight:400;font-size:20px;font-style:normal;fill:#DC4405;stroke:none;">D</text></g></g></g></g></g></g></g></g></g></svg>