<?xml version="1.0" standalone="no"?><!-- Generator: Gravit.io --><svg xmlns="http://www.w3.org/2000/svg" xmlns:xlink="http://www.w3.org/1999/xlink" style="isolation:isolate" viewBox="0 0 400 300" width="400" height="300"><defs><clipPath id="_clipPath_obDBxBJAksQnPrkPzrGk0b2FTKSmFgZu"><rect width="400" height="300"/></clipPath></defs><g clip-path="url(#_clipPath_obDBxBJAksQnPrkPzrGk0b2FTKSmFgZu)"><clipPath id="_clipPath_j8bTbJBbJjIZ0ft39owuph4FCUMxb2y5"><rect x="0" y="0" width="400" height="300" transform="matrix(1,0,0,1,0,0)" fill="rgb(255,255,255)"/></clipPath><g clip-path="url(#_clipPath_j8bTbJBbJjIZ0ft39owuph4FCUMxb2y5)"><g id="Group"><g opacity="0"><rect x="0" y="0" width="400" height="300" transform="matrix(1,0,0,1,0,0)" fill="rgb(248,248,248)"/></g><path d=" M 201 150 L 66 150 C 66 106.956 86.189 68.589 117.599 43.854 L 201 150 L 201 150 Z " fill="rgb(220,68,5)"/><g id="Group"><g transform="matrix(1,0,0,1,372,-121.626)"><text transform="matrix(1,0,0,1,0,19.36)" style="font-family:&quot;Magra&quot;;font-weight:400;font-size:20px;font-style:normal;fill:#DC4405;stroke:none;">200</text></g></g><g id="Group"><g transform="matrix(1,0,0,1,682.114,-33.458)"><text transform="matrix(1,0,0,1,0,19.36)" style="font-family:&quot;Magra&quot;;font-weight:400;font-size:20px;font-style:normal;fill:#DC4405;stroke:none;">E</text></g></g><rect x="440.307" y="-123.7" width="23" height="60.725" transform="matrix(1,0,0,1,0,0)" fill="rgb(255,199,80)" vector-effect="non-scaling-stroke" stroke-width="1" stroke="rgb(220,68,5)" stroke-opacity="50" stroke-linejoin="round" stroke-linecap="butt" stroke-miterlimit="1.414"/><rect x="498.422" y="-179.7" width="23" height="116.725" transform="matrix(1,0,0,1,0,0)" fill="rgb(244,186,56)" vector-effect="non-scaling-stroke" stroke-width="1" stroke="rgb(220,68,5)" stroke-opacity="50" stroke-linejoin="round" stroke-linecap="butt" stroke-miterlimit="1.414"/><rect x="557.961" y="-242.7" width="23" height="179.725" transform="matrix(1,0,0,1,0,0)" fill="rgb(234,160,0)" vector-effect="non-scaling-stroke" stroke-width="1" stroke="rgb(220,68,5)" stroke-opacity="50" stroke-linejoin="round" stroke-linecap="butt" stroke-miterlimit="1.414"/><rect x="616.787" y="-200.599" width="23" height="137.624" transform="matrix(1,0,0,1,0,0)" fill="rgb(255,117,58)" vector-effect="non-scaling-stroke" stroke-width="1" stroke="rgb(220,68,5)" stroke-opacity="50" stroke-linejoin="round" stroke-linecap="butt" stroke-miterlimit="1.414"/><rect x="676.614" y="-115.7" width="51.886" height="52.725" transform="matrix(1,0,0,1,0,0)" fill="rgb(220,68,5)" vector-effect="non-scaling-stroke" stroke-width="1" stroke="rgb(220,68,5)" stroke-opacity="50" stroke-linejoin="round" stroke-linecap="butt" stroke-miterlimit="1.414"/><line x1="414" y1="-47.458" x2="748" y2="-47.458" vector-effect="non-scaling-stroke" stroke-width="1" stroke="rgb(149,45,0)" stroke-opacity="100" stroke-linejoin="miter" stroke-linecap="square" stroke-miterlimit="3"/><g id="Group"><g transform="matrix(1,0,0,1,371,-170.084)"><text transform="matrix(1,0,0,1,0,19.36)" style="font-family:&quot;Magra&quot;;font-weight:400;font-size:20px;font-style:normal;fill:#DC4405;stroke:none;">400</text></g></g><g id="Group"><g transform="matrix(1,0,0,1,371,-267)"><text transform="matrix(1,0,0,1,0,19.36)" style="font-family:&quot;Magra&quot;;font-weight:400;font-size:20px;font-style:normal;fill:#DC4405;stroke:none;">800</text></g></g><g id="Group"><g transform="matrix(1,0,0,1,371,-218.542)"><text transform="matrix(1,0,0,1,0,19.36)" style="font-family:&quot;Magra&quot;;font-weight:400;font-size:20px;font-style:normal;fill:#DC4405;stroke:none;">600</text></g></g><line x1="421.5" y1="-252.458" x2="408.5" y2="-252.458" vector-effect="non-scaling-stroke" stroke-width="1.01" stroke="rgb(149,45,0)" stroke-opacity="100" stroke-linejoin="miter" stroke-linecap="square" stroke-miterlimit="3"/><line x1="421" y1="-203.791" x2="408" y2="-203.791" vector-effect="non-scaling-stroke" stroke-width="1.01" stroke="rgb(149,45,0)" stroke-opacity="100" stroke-linejoin="miter" stroke-linecap="square" stroke-miterlimit="3"/><line x1="421" y1="-155.125" x2="408" y2="-155.125" vector-effect="non-scaling-stroke" stroke-width="1.01" stroke="rgb(149,45,0)" stroke-opacity="100" stroke-linejoin="miter" stroke-linecap="square" stroke-miterlimit="3"/><line x1="421" y1="-106.458" x2="408" y2="-106.458" vector-effect="non-scaling-stroke" stroke-width="1.01" stroke="rgb(149,45,0)" stroke-opacity="100" stroke-linejoin="miter" stroke-linecap="square" stroke-miterlimit="3"/><line x1="451.807" y1="-38.458" x2="451.807" y2="-52.458" vector-effect="non-scaling-stroke" stroke-width="1" stroke="rgb(149,45,0)" stroke-opacity="100" stroke-linejoin="miter" stroke-linecap="square" stroke-miterlimit="3"/><line x1="509.922" y1="-38.458" x2="509.922" y2="-52.458" vector-effect="non-scaling-stroke" stroke-width="1" stroke="rgb(149,45,0)" stroke-opacity="100" stroke-linejoin="miter" stroke-linecap="square" stroke-miterlimit="3"/><line x1="569.461" y1="-38.458" x2="569.461" y2="-52.458" vector-effect="non-scaling-stroke" stroke-width="1" stroke="rgb(149,45,0)" stroke-opacity="100" stroke-linejoin="miter" stroke-linecap="square" stroke-miterlimit="3"/><line x1="628.287" y1="-38.458" x2="628.287" y2="-52.458" vector-effect="non-scaling-stroke" stroke-width="1" stroke="rgb(149,45,0)" stroke-opacity="100" stroke-linejoin="miter" stroke-linecap="square" stroke-miterlimit="3"/><line x1="688.114" y1="-38.458" x2="688.114" y2="-52.458" vector-effect="non-scaling-stroke" stroke-width="1" stroke="rgb(149,45,0)" stroke-opacity="100" stroke-linejoin="miter" stroke-linecap="square" stroke-miterlimit="3"/><path d=" M 200.626 150 L 261 29.251 C 242.832 20.13 222.323 15 200.626 15 C 169.161 15 140.197 25.787 117.225 43.854 L 200.626 150 L 200.626 150 Z " fill="rgb(255,117,58)"/><path d=" M 200 150 L 260.374 29.251 C 304.61 51.42 335 97.189 335 150 C 335 187.254 319.877 221.004 295.423 245.423 L 200 150 L 200 150 Z " fill="rgb(234,160,0)"/><path d=" M 201 150 L 66 150 C 66 224.509 126.491 285 201 285 C 238.254 285 272.004 269.877 296.423 245.423 L 201 150 L 201 150 Z " fill="rgb(255,199,80)"/><g id="Group"><g transform="matrix(1,0,0,1,188.112,53)"><text transform="matrix(1,0,0,1,0,19.36)" style="font-family:&quot;Magra&quot;;font-weight:400;font-size:20px;font-style:normal;fill:#DC4405;stroke:none;">A</text></g></g><g id="Group"><g transform="matrix(1,0,0,1,116.225,96.927)"><text transform="matrix(1,0,0,1,0,19.36)" style="font-family:&quot;Magra&quot;;font-weight:400;font-size:20px;font-style:normal;fill:#EAA000;stroke:none;">B</text></g></g><g id="Group"><g transform="matrix(1,0,0,1,167.211,205.35)"><text transform="matrix(1,0,0,1,0,19.36)" style="font-family:&quot;Magra&quot;;font-weight:400;font-size:20px;font-style:normal;fill:#DC4405;stroke:none;">C</text></g></g><g id="Group"><g transform="matrix(1,0,0,1,267.5,121.227)"><text transform="matrix(1,0,0,1,0,19.36)" style="font-family:&quot;Magra&quot;;font-weight:400;font-size:20px;font-style:normal;fill:#DC4405;stroke:none;">D</text></g></g></g></g></g></svg>