<?xml version="1.0" standalone="no"?><!-- Generator: Gravit.io --><svg xmlns="http://www.w3.org/2000/svg" xmlns:xlink="http://www.w3.org/1999/xlink" style="isolation:isolate" viewBox="0 0 400 300" width="400" height="300"><defs><clipPath id="_clipPath_YncbZU08FPy82P7z2ediPkEDsI5u0Ki3"><rect width="400" height="300"/></clipPath></defs><g clip-path="url(#_clipPath_YncbZU08FPy82P7z2ediPkEDsI5u0Ki3)"><g id="layer1"><path d=" M 68.497 22.109 L 69.436 32.491 L 66.618 35.323 L 67.558 47.593 L 67.558 51.368 L 70.376 56.088 L 69.436 56.088 L 71.315 62.694 L 71.315 66.47 L 66.618 63.638 L 65.679 82.515 L 64.74 90.066 L 62.861 101.392 L 61.922 106.111 L 62.861 111.774 L 61.922 115.55 L 63.801 119.325 L 61.922 120.269 L 60.043 129.707 L 59.104 140.089 L 58.165 151.416 L 56.286 155.191 L 54.408 160.854 L 55.347 166.517 L 55.347 169.349 L 55.347 173.124 L 52.529 177.843 L 50.65 182.562 L 51.59 187.282 L 53.468 192.001 L 45.954 194.833 L 45.014 195.776 L 45.014 201.44 L 45.014 207.102 L 42.197 212.765 L 38.439 221.26 L 37.5 226.923 L 42.197 233.53 L 44.075 239.193 L 42.197 246.744 L 41.257 252.407 L 41.257 257.126 L 44.075 265.62 L 46.893 271.284 L 51.59 273.172 L 52.529 274.116 L 72.254 275.059 L 90.101 275.059 L 113.584 276.003 L 145.52 276.947 L 191.546 277.891 L 275.145 276.947 L 316.474 276.003 L 350.289 274.116 L 345.592 166.517 L 349.35 161.798 L 348.41 156.135 L 350.289 149.528 L 351.228 143.865 L 347.471 140.089 L 341.835 139.146 L 338.078 131.595 L 339.017 124.988 L 344.653 111.774 L 351.228 97.617 C 351.228 97.617 345.592 100.448 350.289 92.898 C 354.985 85.347 355.925 83.459 357.803 73.077 C 359.682 62.694 362.5 58.919 362.5 58.919 L 362.5 52.312 L 354.985 45.705 L 352.167 41.93 L 346.532 35.323 L 345.592 31.548 L 333.381 32.491 L 333.381 33.435 L 287.355 34.379 L 264.812 34.379 L 258.237 40.986 L 249.783 40.042 L 242.269 41.93 L 233.815 45.705 C 233.815 45.705 231.936 46.649 228.179 46.649 C 224.422 46.649 219.725 48.537 219.725 48.537 L 215.029 53.256 L 207.514 54.2 L 201.879 48.537 L 188.728 57.031 L 179.335 57.031 L 177.456 60.807 L 172.76 55.144 L 165.246 54.2 L 153.974 53.256 L 150.217 57.031 L 146.459 59.863 L 138.006 60.807 L 127.673 60.807 L 119.22 58.919 L 115.462 55.144 L 114.523 48.537 L 114.523 42.874 L 111.705 33.435 L 107.948 28.716 L 99.494 23.997 L 95.737 24.941 L 89.162 23.053 L 85.405 22.109 L 80.708 24.941 L 76.951 23.997 L 68.497 22.109 L 68.497 22.109 Z " fill-rule="evenodd" fill="rgb(220,68,5)" vector-effect="non-scaling-stroke" stroke-width="1.678" stroke="rgb(234,160,0)" stroke-linejoin="miter" stroke-linecap="butt" stroke-miterlimit="4"/></g><g transform="matrix(1,0,0,1,82,78)"><text transform="matrix(1,0,0,1,0,20.38)" style="font-family:&quot;Lemon&quot;;font-weight:400;font-size:20px;font-style:normal;fill:#f4ba38;stroke:none;">Oregon</text></g><g transform="matrix(1,0,0,1,248,51.88)"><text transform="matrix(1,0,0,1,0,20.466)" style="font-family:&quot;Kumar One Outline&quot;;font-weight:400;font-size:18px;font-style:normal;fill:#f4ba38;stroke:none;">Oregon</text></g><g transform="matrix(1,0,0,1,147,113)"><text transform="matrix(1,0,0,1,0,35.684)" style="font-family:&quot;Krona One&quot;;font-weight:400;font-size:36px;font-style:normal;fill:#f4ba38;stroke:none;">Oregon</text></g><g transform="matrix(1,0,0,1,96,166)"><text transform="matrix(1,0,0,1,1.92,24.768)" style="font-family:&quot;Leckerli One&quot;;font-weight:400;font-size:24px;font-style:normal;fill:#f4ba38;stroke:none;">Oregon</text></g><g transform="matrix(1,0,0,1,191.251,64.328)"><text transform="matrix(1,0,0,1,0,40.872)" style="font-family:&quot;Inknut Antiqua&quot;;font-weight:400;font-size:24px;font-style:normal;fill:#f4ba38;stroke:none;">Oregon</text></g><g transform="matrix(1,0,0,1,225.498,229)"><text transform="matrix(1,0,0,1,0,25.758)" style="font-family:&quot;Love Ya Like A Sister&quot;;font-weight:400;font-size:28px;font-style:normal;fill:#f4ba38;stroke:none;">Oregon</text></g><g transform="matrix(1,0,0,1,70,126.44)"><text transform="matrix(1,0,0,1,0,23.156)" style="font-family:&quot;Jolly Lodger&quot;;font-weight:400;font-size:24px;font-style:normal;fill:#f4ba38;stroke:none;">Oregon</text></g><g transform="matrix(1,0,0,1,244.502,166)"><text transform="matrix(1,0,0,1,0,12.228)" style="font-family:&quot;Lemon&quot;;font-weight:400;font-size:12px;font-style:normal;fill:#f4ba38;stroke:none;">Oregon</text></g><g transform="matrix(1,0,0,1,187.998,180.695)"><text transform="matrix(1,0,0,1,0,35.068)" style="font-family:&quot;Marcellus SC&quot;;font-weight:400;font-size:36px;font-style:normal;fill:#f4ba38;stroke:none;">Oregon</text></g><g transform="matrix(1,0,0,1,60.749,199)"><text transform="matrix(1,0,0,1,18.734,44.688)" style="font-family:&quot;Meddon&quot;;font-weight:400;font-size:32px;font-style:normal;fill:#f4ba38;stroke:none;">Oregon</text></g></g></svg>