<?xml version="1.0" standalone="no"?><!-- Generator: Gravit.io --><svg xmlns="http://www.w3.org/2000/svg" xmlns:xlink="http://www.w3.org/1999/xlink" style="isolation:isolate" viewBox="0 0 400 300" width="400" height="300"><defs><clipPath id="_clipPath_GXOAeAdlAzVkzWn5hWzbisMpLG4au5d7"><rect width="400" height="300"/></clipPath></defs><g clip-path="url(#_clipPath_GXOAeAdlAzVkzWn5hWzbisMpLG4au5d7)"><clipPath id="_clipPath_u6esFImvJPHknvxdNMIgE80YwiH8IVIW"><rect x="0" y="0" width="400" height="300" transform="matrix(1,0,0,1,0,0)" fill="rgb(255,255,255)"/></clipPath><g clip-path="url(#_clipPath_u6esFImvJPHknvxdNMIgE80YwiH8IVIW)"><g id="Group"><g opacity="0"><rect x="0" y="0" width="400" height="300" transform="matrix(1,0,0,1,0,0)" fill="rgb(248,248,248)"/></g><path d=" M 317.78 216.637 L 367.97 216.637 C 370.608 216.637 372.75 218.779 372.75 221.417 L 372.75 274.22 C 372.75 276.858 370.608 279 367.97 279 L 317.78 279 C 315.142 279 313 276.858 313 274.22 L 313 221.417 C 313 218.779 315.142 216.637 317.78 216.637 Z " fill="rgb(255,199,80)"/><g opacity="0.5"><path d=" M 317.78 216.637 L 367.97 216.637 C 370.608 216.637 372.75 218.779 372.75 221.417 L 372.75 274.22 C 372.75 276.858 370.608 279 367.97 279 L 317.78 279 C 315.142 279 313 276.858 313 274.22 L 313 221.417 C 313 218.779 315.142 216.637 317.78 216.637 Z " fill="none" vector-effect="non-scaling-stroke" stroke-width="1" stroke="rgb(220,68,5)" stroke-linejoin="round" stroke-linecap="butt" stroke-miterlimit="1.414"/></g><path d=" M 318.079 90 L 367.671 90 C 370.474 90 372.75 92.276 372.75 95.079 L 372.75 201.647 C 372.75 204.45 370.474 206.725 367.671 206.725 L 318.079 206.725 C 315.276 206.725 313 204.45 313 201.647 L 313 95.079 C 313 92.276 315.276 90 318.079 90 Z " fill="rgb(244,186,56)"/><g opacity="0.5"><path d=" M 318.079 90 L 367.671 90 C 370.474 90 372.75 92.276 372.75 95.079 L 372.75 201.647 C 372.75 204.45 370.474 206.725 367.671 206.725 L 318.079 206.725 C 315.276 206.725 313 204.45 313 201.647 L 313 95.079 C 313 92.276 315.276 90 318.079 90 Z " fill="none" vector-effect="non-scaling-stroke" stroke-width="1" stroke="rgb(220,68,5)" stroke-linejoin="round" stroke-linecap="butt" stroke-miterlimit="1.414"/></g><path d=" M 126.34 90 L 293.66 90 C 296.607 90 299 92.393 299 95.34 L 299 273.66 C 299 276.607 296.607 279 293.66 279 L 126.34 279 C 123.393 279 121 276.607 121 273.66 L 121 95.34 C 121 92.393 123.393 90 126.34 90 Z " fill="rgb(234,160,0)"/><g opacity="0.5"><path d=" M 126.34 90 L 293.66 90 C 296.607 90 299 92.393 299 95.34 L 299 273.66 C 299 276.607 296.607 279 293.66 279 L 126.34 279 C 123.393 279 121 276.607 121 273.66 L 121 95.34 C 121 92.393 123.393 90 126.34 90 Z " fill="none" vector-effect="non-scaling-stroke" stroke-width="1" stroke="rgb(220,68,5)" stroke-linejoin="round" stroke-linecap="butt" stroke-miterlimit="1.414"/></g><path d=" M 32.499 90 L 102.751 90 C 105.648 90 108 92.352 108 95.249 L 108 273.751 C 108 276.648 105.648 279 102.751 279 L 32.499 279 C 29.602 279 27.25 276.648 27.25 273.751 L 27.25 95.249 C 27.25 92.352 29.602 90 32.499 90 Z " fill="rgb(255,117,58)"/><g opacity="0.5"><path d=" M 32.499 90 L 102.751 90 C 105.648 90 108 92.352 108 95.249 L 108 273.751 C 108 276.648 105.648 279 102.751 279 L 32.499 279 C 29.602 279 27.25 276.648 27.25 273.751 L 27.25 95.249 C 27.25 92.352 29.602 90 32.499 90 Z " fill="none" vector-effect="non-scaling-stroke" stroke-width="1" stroke="rgb(220,68,5)" stroke-linejoin="round" stroke-linecap="butt" stroke-miterlimit="1.414"/></g><path d=" M 32.523 22 L 367.477 22 C 370.387 22 372.75 24.363 372.75 27.273 L 372.75 69.453 C 372.75 72.363 370.387 74.725 367.477 74.725 L 32.523 74.725 C 29.613 74.725 27.25 72.363 27.25 69.453 L 27.25 27.273 C 27.25 24.363 29.613 22 32.523 22 Z " fill="rgb(220,68,5)"/><g opacity="0.5"><path d=" M 32.523 22 L 367.477 22 C 370.387 22 372.75 24.363 372.75 27.273 L 372.75 69.453 C 372.75 72.363 370.387 74.725 367.477 74.725 L 32.523 74.725 C 29.613 74.725 27.25 72.363 27.25 69.453 L 27.25 27.273 C 27.25 24.363 29.613 22 32.523 22 Z " fill="none" vector-effect="non-scaling-stroke" stroke-width="1" stroke="rgb(220,68,5)" stroke-linejoin="round" stroke-linecap="butt" stroke-miterlimit="1.414"/></g><g id="Group"><g transform="matrix(1,0,0,1,200,160.2)"><text transform="matrix(1,0,0,1,0,19.36)" style="font-family:&quot;Magra&quot;;font-weight:400;font-size:20px;font-style:normal;fill:#DC4405;stroke:none;">A</text></g></g><g id="Group"><g transform="matrix(1,0,0,1,60.625,160.2)"><text transform="matrix(1,0,0,1,0,19.36)" style="font-family:&quot;Magra&quot;;font-weight:400;font-size:20px;font-style:normal;fill:#DC4405;stroke:none;">B</text></g></g><g id="Group"><g transform="matrix(1,0,0,1,336.375,136.213)"><text transform="matrix(1,0,0,1,0,19.36)" style="font-family:&quot;Magra&quot;;font-weight:400;font-size:20px;font-style:normal;fill:#DC4405;stroke:none;">C</text></g></g><g id="Group"><g transform="matrix(1,0,0,1,336.375,235.669)"><text transform="matrix(1,0,0,1,0,19.36)" style="font-family:&quot;Magra&quot;;font-weight:400;font-size:20px;font-style:normal;fill:#DC4405;stroke:none;">D</text></g></g><g id="Group"><g transform="matrix(1,0,0,1,200,36.213)"><text transform="matrix(1,0,0,1,0,19.36)" style="font-family:&quot;Magra&quot;;font-weight:400;font-size:20px;font-style:normal;fill:#F4BA38;stroke:none;">E</text></g></g></g></g></g></svg>