<?xml version="1.0" standalone="no"?><!-- Generator: Gravit.io --><svg xmlns="http://www.w3.org/2000/svg" xmlns:xlink="http://www.w3.org/1999/xlink" style="isolation:isolate" viewBox="0 0 400 300" width="400" height="300"><defs><clipPath id="_clipPath_qwsLstlOPGpylEre5ItDjW6UMDvYEd2u"><rect width="400" height="300"/></clipPath></defs><g clip-path="url(#_clipPath_qwsLstlOPGpylEre5ItDjW6UMDvYEd2u)"><path d=" M 143.666 249.148 C 143.27 239.265 230.359 59.173 314 251" fill="none" vector-effect="non-scaling-stroke" stroke-width="2" stroke="rgb(255,117,58)" stroke-linejoin="miter" stroke-linecap="square" stroke-miterlimit="3"/><path d=" M 90.307 245.692 C 89.788 235.854 203.96 56.583 313.611 247.536" fill="none" vector-effect="non-scaling-stroke" stroke-width="2" stroke="rgb(255,117,58)" stroke-linejoin="miter" stroke-linecap="square" stroke-miterlimit="3"/><path d=" M 92.309 245.684 C 91.913 235.801 179.002 55.709 262.643 247.536" fill="none" vector-effect="non-scaling-stroke" stroke-width="5" stroke="rgb(255,117,58)" stroke-linejoin="miter" stroke-linecap="square" stroke-miterlimit="3"/><path d=" M 147.778 247.389 C 147.643 244.469 171.333 195.333 206.087 247.937" fill="none" vector-effect="non-scaling-stroke" stroke-width="2" stroke="rgb(255,117,58)" stroke-linejoin="miter" stroke-linecap="square" stroke-miterlimit="3"/><path d=" M 204.334 245.274 C 204.199 242.354 232 196.667 262.643 245.821" fill="none" vector-effect="non-scaling-stroke" stroke-width="4" stroke="rgb(255,117,58)" stroke-linejoin="miter" stroke-linecap="square" stroke-miterlimit="3"/><path d=" M 313 250.453 C 312.865 247.533 342.678 194.324 371.31 251" fill="none" vector-effect="non-scaling-stroke" stroke-width="2" stroke="rgb(255,117,58)" stroke-linejoin="miter" stroke-linecap="square" stroke-miterlimit="3"/><path d=" M 261.558 244.95 C 261.437 242.661 290.667 199.333 314 249" fill="none" vector-effect="non-scaling-stroke" stroke-width="3" stroke="rgb(255,117,58)" stroke-linejoin="miter" stroke-linecap="square" stroke-miterlimit="3"/><path d=" M 34 245.303 C 33.219 225.192 205.796 -141.415 370.5 249.071" fill="none" vector-effect="non-scaling-stroke" stroke-width="2" stroke="rgb(255,117,58)" stroke-linejoin="miter" stroke-linecap="square" stroke-miterlimit="3"/><path d=" M 34 247.843 C 33.352 230.997 176 -75.978 313 251" fill="none" vector-effect="non-scaling-stroke" stroke-width="3" stroke="rgb(255,117,58)" stroke-linejoin="miter" stroke-linecap="square" stroke-miterlimit="3"/><path d=" M 34 248.433 C 33.471 234.731 149.818 -14.942 261.558 251" fill="none" vector-effect="non-scaling-stroke" stroke-width="1" stroke="rgb(255,117,58)" stroke-linejoin="miter" stroke-linecap="square" stroke-miterlimit="3"/><path d=" M 33.999 249.148 C 33.603 239.265 120.693 59.173 204.334 251" fill="none" vector-effect="non-scaling-stroke" stroke-width="2" stroke="rgb(255,117,58)" stroke-linejoin="miter" stroke-linecap="square" stroke-miterlimit="3"/><path d=" M 33.999 249.906 C 33.737 244.066 91.314 137.648 146.612 251" fill="none" vector-effect="non-scaling-stroke" stroke-width="3" stroke="rgb(255,117,58)" stroke-linejoin="miter" stroke-linecap="square" stroke-miterlimit="3"/><path d=" M 91.5 247.843 C 90.852 230.997 233.5 -75.978 370.5 251" fill="none" vector-effect="non-scaling-stroke" stroke-width="5" stroke="rgb(255,117,58)" stroke-linejoin="miter" stroke-linecap="square" stroke-miterlimit="3"/><g transform="matrix(1.131,0,0,1.131,27,255.821)"><text transform="matrix(1,0,0,1,0,19.36)" style="font-family:&quot;Magra&quot;;font-weight:400;font-size:20px;font-style:normal;fill:#dc4405;stroke:none;">A</text></g><g transform="matrix(1.131,0,0,1.131,84.391,255.821)"><text transform="matrix(1,0,0,1,0,19.36)" style="font-family:&quot;Magra&quot;;font-weight:400;font-size:20px;font-style:normal;fill:#dc4405;stroke:none;">B</text></g><g transform="matrix(1.131,0,0,1.131,139.261,255.821)"><text transform="matrix(1,0,0,1,0,19.36)" style="font-family:&quot;Magra&quot;;font-weight:400;font-size:20px;font-style:normal;fill:#dc4405;stroke:none;">C</text></g><g transform="matrix(1.131,0,0,1.131,195.852,255.821)"><text transform="matrix(1,0,0,1,0,19.36)" style="font-family:&quot;Magra&quot;;font-weight:400;font-size:20px;font-style:normal;fill:#dc4405;stroke:none;">D</text></g><g transform="matrix(1.131,0,0,1.131,254.772,255.821)"><text transform="matrix(1,0,0,1,0,19.36)" style="font-family:&quot;Magra&quot;;font-weight:400;font-size:20px;font-style:normal;fill:#dc4405;stroke:none;">E</text></g><g transform="matrix(1.131,0,0,1.131,362.018,255.821)"><text transform="matrix(1,0,0,1,0,19.36)" style="font-family:&quot;Magra&quot;;font-weight:400;font-size:20px;font-style:normal;fill:#dc4405;stroke:none;">G</text></g><g transform="matrix(1.131,0,0,1.131,306.826,255.821)"><text transform="matrix(1,0,0,1,0,19.36)" style="font-family:&quot;Magra&quot;;font-weight:400;font-size:20px;font-style:normal;fill:#dc4405;stroke:none;">F</text></g><path d=" M 25.351 246.821 C 25.351 241.854 29.384 237.821 34.351 237.821 C 39.318 237.821 43.351 241.854 43.351 246.821 C 43.351 251.789 39.318 255.821 34.351 255.821 C 29.384 255.821 25.351 251.789 25.351 246.821 Z " fill="rgb(220,68,5)"/><path d=" M 80.807 244.321 C 80.807 237.974 85.96 232.821 92.307 232.821 C 98.655 232.821 103.807 237.974 103.807 244.321 C 103.807 250.668 98.655 255.821 92.307 255.821 C 85.96 255.821 80.807 250.668 80.807 244.321 Z " fill="rgb(220,68,5)"/><path d=" M 140.073 249.283 C 140.073 245.674 143.003 242.744 146.612 242.744 C 150.221 242.744 153.151 245.674 153.151 249.283 C 153.151 252.892 150.221 255.821 146.612 255.821 C 143.003 255.821 140.073 252.892 140.073 249.283 Z " fill="rgb(220,68,5)"/><path d=" M 195.334 246.821 C 195.334 241.854 199.366 237.821 204.334 237.821 C 209.301 237.821 213.334 241.854 213.334 246.821 C 213.334 251.789 209.301 255.821 204.334 255.821 C 199.366 255.821 195.334 251.789 195.334 246.821 Z " fill="rgb(220,68,5)"/><path d=" M 251.115 245.379 C 251.115 239.616 255.794 234.937 261.558 234.937 C 267.321 234.937 272 239.616 272 245.379 C 272 251.142 267.321 255.821 261.558 255.821 C 255.794 255.821 251.115 251.142 251.115 245.379 Z " fill="rgb(220,68,5)"/><path d=" M 307.945 250.725 C 307.613 247.598 309.883 244.79 313.01 244.458 C 316.137 244.126 318.945 246.395 319.277 249.522 C 319.609 252.649 317.34 255.458 314.213 255.79 C 311.086 256.122 308.277 253.852 307.945 250.725 Z " fill="rgb(220,68,5)"/><path d=" M 363.75 249.071 C 363.75 245.346 366.775 242.321 370.5 242.321 C 374.225 242.321 377.25 245.346 377.25 249.071 C 377.25 252.797 374.225 255.821 370.5 255.821 C 366.775 255.821 363.75 252.797 363.75 249.071 Z " fill="rgb(220,68,5)"/></g></svg>