<?xml version="1.0" standalone="no"?><!-- Generator: Gravit.io --><svg xmlns="http://www.w3.org/2000/svg" xmlns:xlink="http://www.w3.org/1999/xlink" style="isolation:isolate" viewBox="0 0 400 300" width="400" height="300"><defs><clipPath id="_clipPath_HPcHAn4hRhQbSo5HofxkMBVKoXRou48U"><rect width="400" height="300"/></clipPath></defs><g clip-path="url(#_clipPath_HPcHAn4hRhQbSo5HofxkMBVKoXRou48U)"><clipPath id="_clipPath_hsJE69WKbMvfXZHLsZBcG24RFhUYFrWf"><rect x="0" y="0" width="400" height="300" transform="matrix(1,0,0,1,0,0)" fill="rgb(255,255,255)"/></clipPath><g clip-path="url(#_clipPath_hsJE69WKbMvfXZHLsZBcG24RFhUYFrWf)"><g id="Group"><g opacity="0"><rect x="0" y="0" width="400" height="300" transform="matrix(1,0,0,1,0,0)" fill="rgb(255,255,255)"/></g><g id="Group"><g transform="matrix(1.131,0,0,1.131,27,255.821)"><text transform="matrix(1,0,0,1,0,19.36)" style="font-family:&quot;Magra&quot;;font-weight:400;font-size:20px;font-style:normal;fill:#DC4405;stroke:none;">A</text></g></g><g id="Group"><g transform="matrix(1.131,0,0,1.131,84.391,255.821)"><text transform="matrix(1,0,0,1,0,19.36)" style="font-family:&quot;Magra&quot;;font-weight:400;font-size:20px;font-style:normal;fill:#DC4405;stroke:none;">B</text></g></g><g id="Group"><g transform="matrix(1.131,0,0,1.131,139.261,255.821)"><text transform="matrix(1,0,0,1,0,19.36)" style="font-family:&quot;Magra&quot;;font-weight:400;font-size:20px;font-style:normal;fill:#DC4405;stroke:none;">C</text></g></g><g id="Group"><g transform="matrix(1.131,0,0,1.131,195.852,255.821)"><text transform="matrix(1,0,0,1,0,19.36)" style="font-family:&quot;Magra&quot;;font-weight:400;font-size:20px;font-style:normal;fill:#DC4405;stroke:none;">D</text></g></g><g id="Group"><g transform="matrix(1.131,0,0,1.131,254.772,255.821)"><text transform="matrix(1,0,0,1,0,19.36)" style="font-family:&quot;Magra&quot;;font-weight:400;font-size:20px;font-style:normal;fill:#DC4405;stroke:none;">E</text></g></g><g id="Group"><g transform="matrix(1.131,0,0,1.131,362.018,255.821)"><text transform="matrix(1,0,0,1,0,19.36)" style="font-family:&quot;Magra&quot;;font-weight:400;font-size:20px;font-style:normal;fill:#DC4405;stroke:none;">G</text></g></g><g id="Group"><g transform="matrix(1.131,0,0,1.131,306.826,255.821)"><text transform="matrix(1,0,0,1,0,19.36)" style="font-family:&quot;Magra&quot;;font-weight:400;font-size:20px;font-style:normal;fill:#DC4405;stroke:none;">F</text></g></g><path d=" M 25.351 246.821 C 25.351 241.854 29.384 237.821 34.351 237.821 C 39.318 237.821 43.351 241.854 43.351 246.821 C 43.351 251.789 39.318 255.821 34.351 255.821 C 29.384 255.821 25.351 251.789 25.351 246.821 Z " fill="rgb(220,68,5)"/><path d=" M 80.807 244.321 C 80.807 237.974 85.96 232.821 92.307 232.821 C 98.655 232.821 103.807 237.974 103.807 244.321 C 103.807 250.668 98.655 255.821 92.307 255.821 C 85.96 255.821 80.807 250.668 80.807 244.321 Z " fill="rgb(220,68,5)"/><path d=" M 140.073 249.283 C 140.073 245.674 143.003 242.744 146.612 242.744 C 150.221 242.744 153.151 245.674 153.151 249.283 C 153.151 252.892 150.221 255.821 146.612 255.821 C 143.003 255.821 140.073 252.892 140.073 249.283 Z " fill="rgb(220,68,5)"/><path d=" M 195.334 246.821 C 195.334 241.854 199.366 237.821 204.334 237.821 C 209.301 237.821 213.334 241.854 213.334 246.821 C 213.334 251.789 209.301 255.821 204.334 255.821 C 199.366 255.821 195.334 251.789 195.334 246.821 Z " fill="rgb(220,68,5)"/><path d=" M 251.115 245.379 C 251.115 239.616 255.794 234.937 261.558 234.937 C 267.321 234.937 272 239.616 272 245.379 C 272 251.142 267.321 255.821 261.558 255.821 C 255.794 255.821 251.115 251.142 251.115 245.379 Z " fill="rgb(220,68,5)"/><path d=" M 307.945 250.725 C 307.613 247.598 309.883 244.79 313.01 244.458 C 316.137 244.126 318.945 246.395 319.277 249.522 C 319.609 252.649 317.34 255.458 314.213 255.79 C 311.086 256.122 308.277 253.852 307.945 250.725 Z " fill="rgb(220,68,5)"/><path d=" M 363.75 249.071 C 363.75 245.346 366.775 242.321 370.5 242.321 C 374.225 242.321 377.25 245.346 377.25 249.071 C 377.25 252.797 374.225 255.821 370.5 255.821 C 366.775 255.821 363.75 252.797 363.75 249.071 Z " fill="rgb(220,68,5)"/></g></g></g></svg>