
<?xml version="1.0" standalone="no"?>
<svg width="360" height="360"><g transform="translate(180,180)"><path d="M1.1021821192326179e-14,-180A180,180,0,0,1,23.16835974776928,-178.50273697228832L13.514876519532079,-104.12659656716818A105,105,0,0,0,6.429395695523604e-15,-105Z" fill="#3182bd"></path><path d="M23.16835974776928,-178.50273697228832A180,180,0,0,1,34.63191545529869,-176.6370018764388L20.201950682257568,-103.0382510945893A105,105,0,0,0,13.514876519532079,-104.12659656716818Z" fill="#6baed6"></path><path d="M34.63191545529869,-176.6370018764388A180,180,0,0,1,62.557111213082855,-168.7797613361092L36.49164820763166,-98.45486077939704A105,105,0,0,0,20.201950682257568,-103.0382510945893Z" fill="#9ecae1"></path><path d="M62.557111213082855,-168.7797613361092A180,180,0,0,1,179.66536595564716,-10.970700799100445L104.80479680746083,-6.399575466141926A105,105,0,0,0,36.49164820763166,-98.45486077939704Z" fill="#c6dbef"></path><path d="M179.66536595564716,-10.970700799100445A180,180,0,0,1,-126.49649964801439,128.05715746025248L-73.78962479467506,74.70000851848062A105,105,0,0,0,104.80479680746083,-6.399575466141926Z" fill="#e6550d"></path><path d="M-126.49649964801439,128.05715746025248A180,180,0,0,1,-1.9293757912300106e-13,-180L-1.1254692115508396e-13,-105A105,105,0,0,0,-73.78962479467506,74.70000851848062Z" fill="#fd8d3c"></path><g class="legend" transform="translate(-36,-66)"><rect width="18" height="18" style="fill: rgb(49, 130, 189); stroke: rgb(49, 130, 189);"></rect><text x="22" y="14">Sleeping</text></g><g class="legend" transform="translate(-36,-44)"><rect width="18" height="18" style="fill: rgb(107, 174, 214); stroke: rgb(107, 174, 214);"></rect><text x="22" y="14">Exercise</text></g><g class="legend" transform="translate(-36,-22)"><rect width="18" height="18" style="fill: rgb(158, 202, 225); stroke: rgb(158, 202, 225);"></rect><text x="22" y="14">Writing</text></g><g class="legend" transform="translate(-36,0)"><rect width="18" height="18" style="fill: rgb(198, 219, 239); stroke: rgb(198, 219, 239);"></rect><text x="22" y="14">Studying</text></g><g class="legend" transform="translate(-36,22)"><rect width="18" height="18" style="fill: rgb(230, 85, 13); stroke: rgb(230, 85, 13);"></rect><text x="22" y="14">Creating</text></g><g class="legend" transform="translate(-36,44)"><rect width="18" height="18" style="fill: rgb(253, 141, 60); stroke: rgb(253, 141, 60);"></rect><text x="22" y="14">Planning</text></g></g></svg>