<?xml version="1.0" standalone="no"?><!-- Generator: Gravit.io --><svg xmlns="http://www.w3.org/2000/svg" xmlns:xlink="http://www.w3.org/1999/xlink" style="isolation:isolate" viewBox="0 0 400 300" width="400" height="300"><defs><clipPath id="_clipPath_Jf5tJP3ESa6MYUmHBKyQBnwDsfiV3UTj"><rect width="400" height="300"/></clipPath></defs><g clip-path="url(#_clipPath_Jf5tJP3ESa6MYUmHBKyQBnwDsfiV3UTj)"><clipPath id="_clipPath_A0hAvdHNJYXR5OFkDOW4gXdx1W8SQHYx"><rect x="0" y="0" width="400" height="300" transform="matrix(1,0,0,1,0,0)" fill="rgb(255,255,255)"/></clipPath><g clip-path="url(#_clipPath_A0hAvdHNJYXR5OFkDOW4gXdx1W8SQHYx)"><g id="Group"><g opacity="0"><rect x="0" y="0" width="400" height="300" transform="matrix(1,0,0,1,0,0)" fill="rgb(248,248,248)"/></g><path d=" M 32.092 138.369 C 32.023 138.369 32.155 152.432 32.092 152.369 C 39.405 158.557 61.948 149.048 68.576 153.024 C 76.933 158.039 88.656 160.025 90.988 169.353 C 94.473 183.293 108.59 167.596 112.119 165.831 C 121.359 161.212 129.339 156.281 136.132 166.472 C 142.338 175.781 142.991 181.422 145.417 191.125 C 147.423 199.149 154.729 209.348 160.465 203.611 C 166.499 197.578 170.184 184.042 171.351 177.037 C 173.196 165.969 184.253 164.42 188.32 172.555 C 194.024 183.962 209.784 176.729 215.855 182.8 C 220.458 187.404 232.756 198.489 237.947 198.489 C 248.354 198.489 252.483 187.283 259.398 187.283 C 265.341 187.283 278.435 197.061 284.051 191.445 C 289.146 186.35 292.52 185.164 293.336 178.638 C 293.603 176.503 294.187 171.063 295.577 169.673 C 303.584 161.667 314.334 176.371 315.428 181.84 C 317.077 190.086 321.903 201.246 328.555 204.572 C 336.11 208.35 349.866 207.024 353.848 201.05 C 359.08 193.203 367.616 200.693 367.616 190.369 C 367.616 183.711 367.523 159.369 367.616 159.428 C 358.423 159.428 341.011 158.452 334.638 155.266 C 323.262 149.578 308.876 149.225 298.459 146.621 C 285.019 143.261 270.636 144.7 258.117 144.7 C 238.053 144.7 221.191 144.7 204.329 144.7 C 191.705 144.7 180.389 146.621 168.79 146.621 C 161.487 146.621 156.856 148.542 151.5 148.542 C 147.528 148.542 143.441 143.081 139.654 141.818 C 135.691 140.497 132.955 137.78 130.369 136.055 C 124.559 132.182 114.099 135.211 107.637 134.134 C 94.754 131.987 83.505 129.012 72.098 129.012 C 60.267 129.012 46.799 126.456 38.8 134.455 C 37.84 135.415 32.412 137.729 32.092 138.369 Z " fill="rgb(244,65,65)" vector-effect="non-scaling-stroke" stroke-width="1" stroke="rgb(220,68,5)" stroke-opacity="100" stroke-linejoin="miter" stroke-linecap="square" stroke-miterlimit="3"/><path d=" M 32.077 111.369 C 32.023 111.557 32.148 137.931 32.092 137.703 C 32.21 142.557 49.28 145.661 52.888 145.661 C 62.183 145.661 67.759 130.532 75.3 143.099 C 80.16 151.2 87.627 162.042 95.471 159.428 C 104.342 156.471 106.186 144.97 113.72 142.459 C 122.495 139.534 135.392 141.198 138.373 150.143 C 141.064 158.215 146.108 164.534 147.338 171.915 C 149.995 187.858 162.774 173.414 165.908 168.713 C 170.54 161.765 175.729 148.865 183.197 160.068 C 188.575 168.134 197.36 167.112 205.289 167.112 C 217.363 167.112 219.618 165.165 230.262 168.713 C 242.126 172.667 242.395 167.543 250.433 162.95 C 250.433 162.95 252.674 162.309 252.674 162.309 C 259.489 162.309 271.575 171.627 273.486 177.357 C 275.187 182.463 284.298 174.666 284.691 171.915 C 285.16 168.633 286.002 165.394 288.213 162.63 C 297.785 150.664 299.492 152.235 306.783 161.349 C 313.685 169.977 320.061 176.604 327.915 181.84 C 334.808 186.436 344.978 191.916 351.927 187.283 C 360.273 181.719 363.986 166.688 367.616 159.428 C 367.523 159.307 367.616 131.852 367.616 124.369 C 367.585 124.369 359.085 122.807 358.971 122.928 C 351.898 122.369 333.065 119.74 327.274 116.845 C 319.376 112.896 305.063 112.363 297.498 112.363 C 289.228 112.363 272.507 104.696 267.082 110.122 C 257.527 119.676 247.872 104.06 247.872 119.086 C 247.872 120.367 236.346 120.047 236.346 120.047 C 229.958 120.047 224.896 117.872 218.736 116.845 C 210.884 115.536 197.018 118.259 191.522 121.007 C 178.455 127.541 175.955 125.07 164.627 119.407 C 157.404 115.795 145.642 115.853 139.014 113.643 C 128.741 110.219 118.904 108.201 108.918 108.201 C 96.759 108.201 86.013 104.999 75.94 104.999 C 67.636 104.999 52.714 104.581 46.805 108.521 C 42.518 111.379 36.085 108.307 32.077 111.369 Z " fill="rgb(255,113,113)" vector-effect="non-scaling-stroke" stroke-width="1" stroke="rgb(220,68,5)" stroke-opacity="100" stroke-linejoin="miter" stroke-linecap="square" stroke-miterlimit="3"/><path d=" M 32.077 102.117 C 32.148 127.182 31.18 117.063 42.642 121.648 C 52.848 124.199 58.323 117.806 66.335 117.806 C 77.841 117.806 83.165 112.168 94.19 114.924 C 106.506 118.003 110.101 121.787 121.084 118.126 C 130.771 114.897 139.758 117.962 144.777 125.49 C 149.239 132.183 151.386 142.459 160.145 142.459 C 170.65 142.459 173.493 132.213 181.917 132.213 C 191.849 132.213 202.232 133.99 208.491 127.731 C 216.389 119.832 225.051 124.761 230.583 130.292 C 236.752 136.462 249.252 133.515 251.714 126.13 C 254.605 117.458 269.006 117.566 275.086 119.086 C 285.821 121.77 289.067 114.248 297.818 117.165 C 306.943 120.207 311.084 129.54 315.428 136.055 C 320.143 143.129 325.867 151.828 334.638 145.981 C 342.276 140.889 347.805 136.976 353.848 130.933 C 356.263 128.518 365.603 124.657 367.616 124.369 C 367.648 124.182 367.936 105.893 367.936 100.369 C 367.905 100.494 366.335 93.932 361.648 94.753 C 347.108 94.753 332.429 97.315 320.23 97.315 C 309.042 97.315 297.626 99.748 287.893 97.315 C 276.836 94.55 263.732 95.714 253.635 95.714 C 242.379 95.714 233.144 99.556 224.179 99.556 C 213.175 99.556 201.099 97.858 192.162 100.837 C 182.562 104.037 167.372 102.117 158.224 102.117 C 146.507 102.117 137.985 96.354 128.128 96.354 C 121.488 96.354 106.181 97.46 102.194 93.473 C 93.802 85.08 82.912 93.171 76.58 94.753 C 67.261 97.083 59.831 99.556 51.287 99.556 C 43.619 99.556 37.611 101.477 32.077 102.117 Z " fill="rgb(244,155,66)" vector-effect="non-scaling-stroke" stroke-width="1" stroke="rgb(220,68,5)" stroke-opacity="100" stroke-linejoin="miter" stroke-linecap="square" stroke-miterlimit="3"/><g id="Group"><g transform="matrix(1,0,0,1,59.4,244.369)"><text transform="matrix(1,0,0,1,0,19.36)" style="font-family:&quot;Magra&quot;;font-weight:400;font-size:20px;font-style:normal;fill:#DC4405;stroke:none;">10</text></g></g><g id="Group"><g transform="matrix(1,0,0,1,116.938,244.369)"><text transform="matrix(1,0,0,1,0,19.36)" style="font-family:&quot;Magra&quot;;font-weight:400;font-size:20px;font-style:normal;fill:#DC4405;stroke:none;">20</text></g></g><g id="Group"><g transform="matrix(1,0,0,1,175.476,244.369)"><text transform="matrix(1,0,0,1,0,19.36)" style="font-family:&quot;Magra&quot;;font-weight:400;font-size:20px;font-style:normal;fill:#DC4405;stroke:none;">30</text></g></g><g id="Group"><g transform="matrix(1,0,0,1,234.014,244.369)"><text transform="matrix(1,0,0,1,0,19.36)" style="font-family:&quot;Magra&quot;;font-weight:400;font-size:20px;font-style:normal;fill:#DC4405;stroke:none;">40</text></g></g><g id="Group"><g transform="matrix(1,0,0,1,294.552,244.369)"><text transform="matrix(1,0,0,1,0,19.36)" style="font-family:&quot;Magra&quot;;font-weight:400;font-size:20px;font-style:normal;fill:#DC4405;stroke:none;">50</text></g></g><line x1="32.092" y1="230.369" x2="366.092" y2="230.369" vector-effect="non-scaling-stroke" stroke-width="1" stroke="rgb(149,45,0)" stroke-opacity="100" stroke-linejoin="miter" stroke-linecap="square" stroke-miterlimit="3"/><line x1="69.092" y1="239.369" x2="69.092" y2="225.369" vector-effect="non-scaling-stroke" stroke-width="1" stroke="rgb(149,45,0)" stroke-opacity="100" stroke-linejoin="miter" stroke-linecap="square" stroke-miterlimit="3"/><line x1="128.438" y1="239.369" x2="128.438" y2="225.369" vector-effect="non-scaling-stroke" stroke-width="1" stroke="rgb(149,45,0)" stroke-opacity="100" stroke-linejoin="miter" stroke-linecap="square" stroke-miterlimit="3"/><line x1="184.13" y1="239.369" x2="184.13" y2="225.369" vector-effect="non-scaling-stroke" stroke-width="1" stroke="rgb(149,45,0)" stroke-opacity="100" stroke-linejoin="miter" stroke-linecap="square" stroke-miterlimit="3"/><line x1="242.092" y1="239.369" x2="242.092" y2="225.369" vector-effect="non-scaling-stroke" stroke-width="1" stroke="rgb(149,45,0)" stroke-opacity="100" stroke-linejoin="miter" stroke-linecap="square" stroke-miterlimit="3"/><line x1="306.552" y1="239.369" x2="306.552" y2="225.369" vector-effect="non-scaling-stroke" stroke-width="1" stroke="rgb(149,45,0)" stroke-opacity="100" stroke-linejoin="miter" stroke-linecap="square" stroke-miterlimit="3"/><path d=" M 32.092 98.916 C 39.214 96.68 48.569 98.29 56.09 96.034 C 63.513 94.178 73.193 93.43 77.221 87.389 C 81.119 81.542 90.515 71.33 97.392 73.622 C 103.75 75.741 108.666 85.941 113.72 89.31 C 123.778 96.015 130.049 85.789 136.452 82.587 C 141.609 80.009 145.41 65.305 149.259 61.456 C 159.354 51.361 158.237 66.16 164.627 70.42 C 172.069 75.381 172.046 87.353 181.597 80.986 C 188.646 76.286 198.491 74.164 206.57 76.183 C 214.966 78.283 221.357 84.523 227.701 86.109 C 234.422 87.789 243.405 98.58 249.473 92.512 C 255.354 86.631 263.004 82.21 268.683 78.425 C 278.106 72.142 279.625 69.925 289.494 76.504 C 296.921 81.455 303.119 87.71 311.266 87.71 C 320.913 87.71 328.775 87.73 336.879 86.109 C 345.513 84.382 352.431 80.437 358.331 76.504 C 368.826 69.507 367.616 66.03 367.616 76.504 C 367.616 85.423 367.96 100.369 367.936 100.369 C 359.636 106.594 357.648 118.932 338.16 116.845 C 328.381 116.845 321.668 112.97 313.827 111.402 C 303.899 109.417 295.541 107.937 287.253 106.28 C 279.435 104.716 265.927 99.685 260.038 101.157 C 251.354 103.328 249.097 114.196 241.148 116.845 C 229.987 120.565 229.089 106.6 219.377 106.6 C 207.46 106.6 203.188 107.215 195.044 113.323 C 187.047 119.321 179.465 119.407 171.031 119.407 C 163.239 119.407 150.351 113.498 146.378 108.201 C 142.285 102.744 123.957 101.803 120.124 104.358 C 109.586 111.384 105.135 103.137 98.992 96.995 C 91.942 89.944 80.183 99.929 75.94 102.758 C 68.688 107.592 58.617 108.201 50.967 108.201 C 46.228 108.201 42.571 108.764 39.761 107.56 C 34.738 105.408 32.698 106.764 32.077 101.797 Q 32.077 101.797 32.092 98.916 Z " fill="rgb(238,178,48)" vector-effect="non-scaling-stroke" stroke-width="1" stroke="rgb(220,68,5)" stroke-opacity="100" stroke-linejoin="miter" stroke-linecap="square" stroke-miterlimit="3"/></g></g></g></svg>