<?xml version="1.0" standalone="no"?><!-- Generator: Gravit.io --><svg xmlns="http://www.w3.org/2000/svg" xmlns:xlink="http://www.w3.org/1999/xlink" style="isolation:isolate" viewBox="0 0 1133.858 1133.858" width="1133.858" height="1133.858"><defs><clipPath id="_clipPath_Bdfn15rUbKIwD6eBY4E36QBG7PgaFs5V"><rect width="1133.858" height="1133.858"/></clipPath></defs><g clip-path="url(#_clipPath_Bdfn15rUbKIwD6eBY4E36QBG7PgaFs5V)"><g id="Group"><g id="Group"><path d=" M 136.165 741.14 C 136.165 502.598 329.541 309.222 568.083 309.222 C 806.624 309.222 1000 502.598 1000 741.14 L 827.233 741.14 C 827.233 598.015 711.207 481.989 568.083 481.989 C 424.958 481.989 308.932 598.015 308.932 741.14 L 136.165 741.14 Z " fill="rgb(215,215,215)"/><g transform="matrix(6.837,0,0,6.837,198.403,731.895)"><text transform="matrix(1,0,0,1,0,10.688)" style="font-family:&quot;Open Sans&quot;;font-weight:300;font-size:10px;font-style:normal;fill:#952D00;stroke:none;">0</text></g><g transform="matrix(6.837,0,0,6.837,849.13,731.895)"><text transform="matrix(1,0,0,1,0,10.688)" style="font-family:&quot;Open Sans&quot;;font-weight:300;font-size:10px;font-style:normal;fill:#952D00;stroke:none;">100</text></g><path d=" M 136.165 741.14 C 136.165 578.722 227.281 430.034 371.996 356.298 C 516.711 282.562 690.559 296.244 821.957 391.711 L 720.407 531.482 C 641.568 474.202 537.26 465.993 450.431 510.235 C 363.602 554.477 308.932 643.689 308.932 741.14 L 136.165 741.14 Z " fill="rgb(246,198,0)"/><g transform="matrix(6.837,0,0,6.837,393.651,575.461)"><text transform="matrix(1,0,0,1,0,19.239)" style="font-family:&quot;Open Sans&quot;;font-weight:400;font-size:18px;font-style:normal;fill:#952D00;stroke:none;">70.0%</text></g></g></g></g></svg>