<?xml version="1.0" standalone="no"?><!-- Generator: Gravit.io --><svg xmlns="http://www.w3.org/2000/svg" xmlns:xlink="http://www.w3.org/1999/xlink" style="isolation:isolate" viewBox="0 0 400 400" width="400" height="400"><defs><clipPath id="_clipPath_ZK3ZmnkCOhAUEgx26syhEvEYzLQg7iYT"><rect width="400" height="400"/></clipPath></defs><g clip-path="url(#_clipPath_ZK3ZmnkCOhAUEgx26syhEvEYzLQg7iYT)"><g id="Group"><clipPath id="_clipPath_8mkhmXJUh5PblUv1ot1nhneUnXz6gHAX"><rect x="0" y="0" width="400" height="400" transform="matrix(1,0,0,1,0,0)" fill="rgb(255,255,255)"/></clipPath><g clip-path="url(#_clipPath_8mkhmXJUh5PblUv1ot1nhneUnXz6gHAX)"><g id="Group"><g id="Group"><g id="Group"><path d=" M 48.036 261.458 C 48.036 177.305 116.255 109.087 200.407 109.087 C 284.559 109.087 352.778 177.305 352.778 261.458 L 291.829 261.458 C 291.829 210.966 250.898 170.035 200.407 170.035 C 149.916 170.035 108.984 210.966 108.984 261.458 L 48.036 261.458 Z " fill="rgb(215,215,215)"/><g id="Group"><g transform="matrix(2.412,0,0,2.412,69.992,258.195)"><text transform="matrix(1,0,0,1,0,10.688)" style="font-family:&quot;Open Sans&quot;;font-weight:300;font-size:10px;font-style:normal;fill:#952D00;stroke:none;">0</text></g></g><g id="Group"><g transform="matrix(2.412,0,0,2.412,299.554,258.195)"><text transform="matrix(1,0,0,1,0,10.688)" style="font-family:&quot;Open Sans&quot;;font-weight:300;font-size:10px;font-style:normal;fill:#952D00;stroke:none;">100</text></g></g><path d=" M 48.036 261.458 C 48.036 204.16 80.18 151.706 131.232 125.694 C 182.284 99.682 243.614 104.508 289.968 138.187 L 254.144 187.495 C 226.331 167.288 189.533 164.392 158.902 180 C 128.271 195.607 108.984 227.079 108.984 261.458 L 48.036 261.458 Z " fill="rgb(246,198,0)"/><g id="Group"><g transform="matrix(2.412,0,0,2.412,138.871,203.009)"><text transform="matrix(1,0,0,1,0,19.239)" style="font-family:&quot;Open Sans&quot;;font-weight:400;font-size:18px;font-style:normal;fill:#952D00;stroke:none;">70.0%</text></g></g></g></g></g></g></g></g></svg>