<?xml version="1.0" standalone="no"?><!-- Generator: Gravit.io --><svg xmlns="http://www.w3.org/2000/svg" xmlns:xlink="http://www.w3.org/1999/xlink" style="isolation:isolate" viewBox="0 0 400 300" width="400" height="300"><defs><clipPath id="_clipPath_j0X3PhejfX725JM1f7KS1XxTkCQLAJ2d"><rect width="400" height="300"/></clipPath></defs><g clip-path="url(#_clipPath_j0X3PhejfX725JM1f7KS1XxTkCQLAJ2d)"><rect width="400" height="300" style="fill:rgb(248,248,248)"/><g transform="matrix(1,0,0,1,12.5,187.533)"><text transform="matrix(1,0,0,1,0,19.36)" style="font-family:&quot;Magra&quot;;font-weight:400;font-size:20px;font-style:normal;fill:#dc4405;stroke:none;">200</text></g><g transform="matrix(1,0,0,1,81.807,275.7)"><text transform="matrix(1,0,0,1,0.98,19.36)" style="font-family:&quot;Magra&quot;;font-weight:400;font-size:20px;font-style:normal;fill:#dc4405;stroke:none;">Jan</text></g><g transform="matrix(1,0,0,1,139.346,275.7)"><text transform="matrix(1,0,0,1,0,19.36)" style="font-family:&quot;Magra&quot;;font-weight:400;font-size:20px;font-style:normal;fill:#dc4405;stroke:none;">Feb</text></g><g transform="matrix(1,0,0,1,197.884,275.7)"><text transform="matrix(1,0,0,1,0.02,19.36)" style="font-family:&quot;Magra&quot;;font-weight:400;font-size:20px;font-style:normal;fill:#dc4405;stroke:none;">Mar</text></g><g transform="matrix(1,0,0,1,253.672,275.7)"><text transform="matrix(1,0,0,1,0.02,19.36)" style="font-family:&quot;Magra&quot;;font-weight:400;font-size:20px;font-style:normal;fill:#dc4405;stroke:none;">Apr</text></g><g transform="matrix(1,0,0,1,316.96,275.7)"><text transform="matrix(1,0,0,1,0,19.36)" style="font-family:&quot;Magra&quot;;font-weight:400;font-size:20px;font-style:normal;fill:#dc4405;stroke:none;">May</text></g><path d=" M 54.5 21.7 L 54.5 261.7 L 388.5 261.7" fill="none" vector-effect="non-scaling-stroke" stroke-width="1" stroke="rgb(149,45,0)" stroke-linejoin="miter" stroke-linecap="square" stroke-miterlimit="3"/><g transform="matrix(1,0,0,1,11.5,139.074)"><text transform="matrix(1,0,0,1,0,19.36)" style="font-family:&quot;Magra&quot;;font-weight:400;font-size:20px;font-style:normal;fill:#dc4405;stroke:none;">400</text></g><g transform="matrix(1,0,0,1,11.5,42.158)"><text transform="matrix(1,0,0,1,0,19.36)" style="font-family:&quot;Magra&quot;;font-weight:400;font-size:20px;font-style:normal;fill:#dc4405;stroke:none;">800</text></g><g transform="matrix(1,0,0,1,11.5,90.616)"><text transform="matrix(1,0,0,1,0,19.36)" style="font-family:&quot;Magra&quot;;font-weight:400;font-size:20px;font-style:normal;fill:#dc4405;stroke:none;">600</text></g><line x1="62" y1="56.7" x2="49" y2="56.7" vector-effect="non-scaling-stroke" stroke-width="1.01" stroke="rgb(149,45,0)" stroke-linejoin="miter" stroke-linecap="square" stroke-miterlimit="3"/><line x1="61.5" y1="105.367" x2="48.5" y2="105.367" vector-effect="non-scaling-stroke" stroke-width="1.01" stroke="rgb(149,45,0)" stroke-linejoin="miter" stroke-linecap="square" stroke-miterlimit="3"/><line x1="61.5" y1="154.033" x2="48.5" y2="154.033" vector-effect="non-scaling-stroke" stroke-width="1.01" stroke="rgb(149,45,0)" stroke-linejoin="miter" stroke-linecap="square" stroke-miterlimit="3"/><line x1="61.5" y1="202.7" x2="48.5" y2="202.7" vector-effect="non-scaling-stroke" stroke-width="1.01" stroke="rgb(149,45,0)" stroke-linejoin="miter" stroke-linecap="square" stroke-miterlimit="3"/><line x1="95.807" y1="270.7" x2="95.807" y2="256.7" vector-effect="non-scaling-stroke" stroke-width="1" stroke="rgb(149,45,0)" stroke-linejoin="miter" stroke-linecap="square" stroke-miterlimit="3"/><line x1="155.346" y1="270.7" x2="155.346" y2="256.7" vector-effect="non-scaling-stroke" stroke-width="1" stroke="rgb(149,45,0)" stroke-linejoin="miter" stroke-linecap="square" stroke-miterlimit="3"/><line x1="214.884" y1="270.7" x2="214.884" y2="256.7" vector-effect="non-scaling-stroke" stroke-width="1" stroke="rgb(149,45,0)" stroke-linejoin="miter" stroke-linecap="square" stroke-miterlimit="3"/><line x1="269.172" y1="270.7" x2="269.172" y2="256.7" vector-effect="non-scaling-stroke" stroke-width="1" stroke="rgb(149,45,0)" stroke-linejoin="miter" stroke-linecap="square" stroke-miterlimit="3"/><line x1="334.46" y1="270.7" x2="334.46" y2="256.7" vector-effect="non-scaling-stroke" stroke-width="1" stroke="rgb(149,45,0)" stroke-linejoin="miter" stroke-linecap="square" stroke-miterlimit="3"/><g id="Group"><line x1="102.307" y1="92.301" x2="89.307" y2="92.301" vector-effect="non-scaling-stroke" stroke-width="0.99" stroke="rgb(149,45,0)" stroke-linejoin="miter" stroke-linecap="square" stroke-miterlimit="3"/><line x1="102.307" y1="210.148" x2="89.307" y2="210.148" vector-effect="non-scaling-stroke" stroke-width="0.99" stroke="rgb(149,45,0)" stroke-linejoin="miter" stroke-linecap="square" stroke-miterlimit="3"/><path d=" M 95.807 93.261 Q 95.807 219.888 95.807 209.336" fill="none" vector-effect="non-scaling-stroke" stroke-width="0.979" stroke="rgb(149,45,0)" stroke-linejoin="miter" stroke-linecap="square" stroke-miterlimit="3"/></g><g id="Group"><line x1="161.846" y1="114.356" x2="148.846" y2="114.356" vector-effect="non-scaling-stroke" stroke-width="0.99" stroke="rgb(149,45,0)" stroke-linejoin="miter" stroke-linecap="square" stroke-miterlimit="3"/><line x1="161.846" y1="232.202" x2="148.846" y2="232.202" vector-effect="non-scaling-stroke" stroke-width="0.99" stroke="rgb(149,45,0)" stroke-linejoin="miter" stroke-linecap="square" stroke-miterlimit="3"/><path d=" M 155.346 115.315 Q 155.346 241.943 155.346 231.39" fill="none" vector-effect="non-scaling-stroke" stroke-width="0.979" stroke="rgb(149,45,0)" stroke-linejoin="miter" stroke-linecap="square" stroke-miterlimit="3"/></g><rect x="84.307" y="124.862" width="23" height="52.725" transform="matrix(1,0,0,1,0,0)" fill="rgb(244,186,56)" vector-effect="non-scaling-stroke" stroke-width="1" stroke="rgb(220,68,5)" stroke-opacity="0.5" stroke-linejoin="round" stroke-linecap="butt" stroke-miterlimit="1.414"/><rect x="143.846" y="142.916" width="23" height="60.725" transform="matrix(1,0,0,1,0,0)" fill="rgb(244,186,56)" vector-effect="non-scaling-stroke" stroke-width="1" stroke="rgb(220,68,5)" stroke-opacity="0.5" stroke-linejoin="round" stroke-linecap="butt" stroke-miterlimit="1.414"/><g id="Group"><line x1="221.384" y1="70.7" x2="208.384" y2="70.7" vector-effect="non-scaling-stroke" stroke-width="1.178" stroke="rgb(149,45,0)" stroke-linejoin="miter" stroke-linecap="square" stroke-miterlimit="3"/><line x1="221.384" y1="237.7" x2="208.384" y2="237.7" vector-effect="non-scaling-stroke" stroke-width="1.178" stroke="rgb(149,45,0)" stroke-linejoin="miter" stroke-linecap="square" stroke-miterlimit="3"/><path d=" M 214.884 72.059 Q 214.884 251.503 214.884 236.55" fill="none" vector-effect="non-scaling-stroke" stroke-width="1.166" stroke="rgb(149,45,0)" stroke-linejoin="miter" stroke-linecap="square" stroke-miterlimit="3"/></g><rect x="203.384" y="114.916" width="23" height="79.725" transform="matrix(1,0,0,1,0,0)" fill="rgb(244,186,56)" vector-effect="non-scaling-stroke" stroke-width="1" stroke="rgb(220,68,5)" stroke-opacity="0.5" stroke-linejoin="round" stroke-linecap="butt" stroke-miterlimit="1.414"/><g id="Group"><line x1="275.672" y1="11.777" x2="262.672" y2="11.777" vector-effect="non-scaling-stroke" stroke-width="1.354" stroke="rgb(149,45,0)" stroke-linejoin="miter" stroke-linecap="square" stroke-miterlimit="3"/><line x1="275.672" y1="232.202" x2="262.672" y2="232.202" vector-effect="non-scaling-stroke" stroke-width="1.354" stroke="rgb(149,45,0)" stroke-linejoin="miter" stroke-linecap="square" stroke-miterlimit="3"/><path d=" M 269.172 13.571 Q 269.172 250.421 269.172 230.684" fill="none" vector-effect="non-scaling-stroke" stroke-width="1.34" stroke="rgb(149,45,0)" stroke-linejoin="miter" stroke-linecap="square" stroke-miterlimit="3"/></g><rect x="257.672" y="47.7" width="23" height="151.079" transform="matrix(1,0,0,1,0,0)" fill="rgb(244,186,56)" vector-effect="non-scaling-stroke" stroke-width="1" stroke="rgb(220,68,5)" stroke-opacity="0.5" stroke-linejoin="round" stroke-linecap="butt" stroke-miterlimit="1.414"/><g id="Group"><line x1="340.96" y1="36.7" x2="327.96" y2="36.7" vector-effect="non-scaling-stroke" stroke-width="1.161" stroke="rgb(149,45,0)" stroke-linejoin="miter" stroke-linecap="square" stroke-miterlimit="3"/><line x1="340.96" y1="198.779" x2="327.96" y2="198.779" vector-effect="non-scaling-stroke" stroke-width="1.161" stroke="rgb(149,45,0)" stroke-linejoin="miter" stroke-linecap="square" stroke-miterlimit="3"/><path d=" M 334.46 38.019 Q 334.46 212.176 334.46 197.663" fill="none" vector-effect="non-scaling-stroke" stroke-width="1.149" stroke="rgb(149,45,0)" stroke-linejoin="miter" stroke-linecap="square" stroke-miterlimit="3"/></g><rect x="322.96" y="56.554" width="23" height="116.725" transform="matrix(1,0,0,1,0,0)" fill="rgb(244,186,56)" vector-effect="non-scaling-stroke" stroke-width="1" stroke="rgb(220,68,5)" stroke-opacity="0.5" stroke-linejoin="round" stroke-linecap="butt" stroke-miterlimit="1.414"/></g></svg>