<?xml version="1.0" standalone="no"?><!-- Generator: Gravit.io --><svg xmlns="http://www.w3.org/2000/svg" xmlns:xlink="http://www.w3.org/1999/xlink" style="isolation:isolate" viewBox="0 0 400 300" width="400" height="300"><defs><clipPath id="_clipPath_1AW6JJzW3TMpVboyfR4dFDnWWWegonjx"><rect width="400" height="300"/></clipPath></defs><g clip-path="url(#_clipPath_1AW6JJzW3TMpVboyfR4dFDnWWWegonjx)"><clipPath id="_clipPath_SOchQKXuSB70MGWiKY6itRWihOUDqe97"><rect x="0" y="0" width="400" height="300" transform="matrix(1,0,0,1,0,0)" fill="rgb(255,255,255)"/></clipPath><g clip-path="url(#_clipPath_SOchQKXuSB70MGWiKY6itRWihOUDqe97)"><g id="Group"><g opacity="0"><rect x="0" y="0" width="400" height="300" transform="matrix(1,0,0,1,0,0)" fill="rgb(248,248,248)"/></g><path d=" M 57 28.448 L 99 28.448 L 99 66.448 L 57 66.448" fill="none" vector-effect="non-scaling-stroke" stroke-width="1" stroke="rgb(220,68,5)" stroke-opacity="100" stroke-linejoin="miter" stroke-linecap="square" stroke-miterlimit="3"/><path d=" M 57 233.552 L 99 233.552 L 99 271.552 L 57 271.552" fill="none" vector-effect="non-scaling-stroke" stroke-width="1" stroke="rgb(220,68,5)" stroke-opacity="100" stroke-linejoin="miter" stroke-linecap="square" stroke-miterlimit="3"/><path d=" M 57 95.483 L 99 95.483 L 99 136.483 L 57 136.483" fill="none" vector-effect="non-scaling-stroke" stroke-width="1" stroke="rgb(220,68,5)" stroke-opacity="100" stroke-linejoin="miter" stroke-linecap="square" stroke-miterlimit="3"/><path d=" M 57 165.517 L 99 165.517 L 99 204.517 L 57 204.517 L 57 204.517 L 57 204.517" fill="none" vector-effect="non-scaling-stroke" stroke-width="1" stroke="rgb(220,68,5)" stroke-opacity="100" stroke-linejoin="miter" stroke-linecap="square" stroke-miterlimit="3"/><path d=" M 99 45.448 L 272 45.448 L 272 118.448 L 99 118.448 L 99 118.448" fill="none" vector-effect="non-scaling-stroke" stroke-width="1" stroke="rgb(220,68,5)" stroke-opacity="100" stroke-linejoin="miter" stroke-linecap="square" stroke-miterlimit="3"/><path d=" M 99 186.448 L 197 186.448 L 197 220.448 L 197 254.448 L 99 254.448 L 99 254.448" fill="none" vector-effect="non-scaling-stroke" stroke-width="1" stroke="rgb(220,68,5)" stroke-opacity="100" stroke-linejoin="miter" stroke-linecap="square" stroke-miterlimit="3"/><path d=" M 272 78.448 L 383.114 78.448 L 383.114 220.448 L 197 220.448 L 197 220.448" fill="none" vector-effect="non-scaling-stroke" stroke-width="1" stroke="rgb(220,68,5)" stroke-opacity="100" stroke-linejoin="miter" stroke-linecap="square" stroke-miterlimit="3"/><g id="Group"><g transform="matrix(1,0,0,1,20,15.448)"><text transform="matrix(1,0,0,1,0,17.37)" style="font-family:&quot;Maven Pro&quot;;font-weight:400;font-size:18px;font-style:normal;fill:#E8936F;stroke:none;">abc</text></g></g><g id="Group"><g transform="matrix(1,0,0,1,23,50.356)"><text transform="matrix(1,0,0,1,0,17.37)" style="font-family:&quot;Maven Pro&quot;;font-weight:400;font-size:18px;font-style:normal;fill:#E8936F;stroke:none;">def</text></g></g><g id="Group"><g transform="matrix(1,0,0,1,22,85.263)"><text transform="matrix(1,0,0,1,0,17.37)" style="font-family:&quot;Maven Pro&quot;;font-weight:400;font-size:18px;font-style:normal;fill:#E8936F;stroke:none;">xyz</text></g></g><g id="Group"><g transform="matrix(1,0,0,1,28,120.171)"><text transform="matrix(1,0,0,1,0,17.37)" style="font-family:&quot;Maven Pro&quot;;font-weight:400;font-size:18px;font-style:normal;fill:#E8936F;stroke:none;">rst</text></g></g><g id="Group"><g transform="matrix(1,0,0,1,30,155.079)"><text transform="matrix(1,0,0,1,0,17.37)" style="font-family:&quot;Maven Pro&quot;;font-weight:400;font-size:18px;font-style:normal;fill:#E8936F;stroke:none;">hij</text></g></g><g id="Group"><g transform="matrix(1,0,0,1,19,189.987)"><text transform="matrix(1,0,0,1,0,17.37)" style="font-family:&quot;Maven Pro&quot;;font-weight:400;font-size:18px;font-style:normal;fill:#E8936F;stroke:none;">opq</text></g></g><g id="Group"><g transform="matrix(1,0,0,1,26,224.894)"><text transform="matrix(1,0,0,1,0,17.37)" style="font-family:&quot;Maven Pro&quot;;font-weight:400;font-size:18px;font-style:normal;fill:#E8936F;stroke:none;">ert</text></g></g><g id="Group"><g transform="matrix(1,0,0,1,17,259.802)"><text transform="matrix(1,0,0,1,0,17.37)" style="font-family:&quot;Maven Pro&quot;;font-weight:400;font-size:18px;font-style:normal;fill:#E8936F;stroke:none;">qws</text></g></g></g></g></g></svg>