<?xml version="1.0" standalone="no"?><!-- Generator: Gravit.io --><svg xmlns="http://www.w3.org/2000/svg" xmlns:xlink="http://www.w3.org/1999/xlink" style="isolation:isolate" viewBox="0 0 400 300" width="400" height="300"><defs><clipPath id="_clipPath_uZ0IdZG6uLqKpfgkIc0yCURvHDLBXB7d"><rect width="400" height="300"/></clipPath></defs><g clip-path="url(#_clipPath_uZ0IdZG6uLqKpfgkIc0yCURvHDLBXB7d)"><rect width="400" height="300" style="fill:rgb(248,248,248)"/><g transform="matrix(1,0,0,1,80.807,254.621)"><text transform="matrix(1,0,0,1,0,19.36)" style="font-family:&quot;Magra&quot;;font-weight:400;font-size:20px;font-style:normal;fill:#dc4405;stroke:none;">100</text></g><g transform="matrix(1,0,0,1,139.422,253.621)"><text transform="matrix(1,0,0,1,0,19.36)" style="font-family:&quot;Magra&quot;;font-weight:400;font-size:20px;font-style:normal;fill:#dc4405;stroke:none;">50</text></g><g transform="matrix(1,0,0,1,203.461,254.621)"><text transform="matrix(1,0,0,1,0,19.36)" style="font-family:&quot;Magra&quot;;font-weight:400;font-size:20px;font-style:normal;fill:#dc4405;stroke:none;">00</text></g><g transform="matrix(1,0,0,1,257.287,254.621)"><text transform="matrix(1,0,0,1,0,19.36)" style="font-family:&quot;Magra&quot;;font-weight:400;font-size:20px;font-style:normal;fill:#dc4405;stroke:none;">50</text></g><g transform="matrix(1,0,0,1,313.614,254.621)"><text transform="matrix(1,0,0,1,0,19.36)" style="font-family:&quot;Magra&quot;;font-weight:400;font-size:20px;font-style:normal;fill:#dc4405;stroke:none;">100</text></g><rect x="172.782" y="141.274" width="23" height="50.188" transform="matrix(0,-1,1,0,17.914,350.65)" fill="rgb(244,186,56)" vector-effect="non-scaling-stroke" stroke-width="1" stroke="rgb(220,68,5)" stroke-opacity="0.5" stroke-linejoin="round" stroke-linecap="butt" stroke-miterlimit="1.414"/><rect x="242.98" y="121.848" width="23" height="89.039" transform="matrix(0,-1,1,0,88.112,420.848)" fill="rgb(255,117,58)" vector-effect="non-scaling-stroke" stroke-width="1" stroke="rgb(220,68,5)" stroke-opacity="0.5" stroke-linejoin="round" stroke-linecap="butt" stroke-miterlimit="1.414"/><rect x="162.899" y="108.018" width="23" height="69.953" transform="matrix(0,-1,1,0,31.405,317.394)" fill="rgb(244,186,56)" vector-effect="non-scaling-stroke" stroke-width="1" stroke="rgb(220,68,5)" stroke-opacity="0.5" stroke-linejoin="round" stroke-linecap="butt" stroke-miterlimit="1.414"/><rect x="250.287" y="91.168" width="23" height="103.653" transform="matrix(0,-1,1,0,118.793,404.782)" fill="rgb(255,117,58)" vector-effect="non-scaling-stroke" stroke-width="1" stroke="rgb(220,68,5)" stroke-opacity="0.5" stroke-linejoin="round" stroke-linecap="butt" stroke-miterlimit="1.414"/><rect x="139.513" y="61.258" width="23" height="116.725" transform="matrix(0,-1,1,0,31.392,270.634)" fill="rgb(244,186,56)" vector-effect="non-scaling-stroke" stroke-width="1" stroke="rgb(220,68,5)" stroke-opacity="0.5" stroke-linejoin="round" stroke-linecap="butt" stroke-miterlimit="1.414"/><rect x="255.48" y="62.601" width="23" height="114.039" transform="matrix(0,-1,1,0,147.359,386.601)" fill="rgb(255,117,58)" vector-effect="non-scaling-stroke" stroke-width="1" stroke="rgb(220,68,5)" stroke-opacity="0.5" stroke-linejoin="round" stroke-linecap="butt" stroke-miterlimit="1.414"/><rect x="157.688" y="56.059" width="23" height="80.376" transform="matrix(0,-1,1,0,72.941,265.435)" fill="rgb(244,186,56)" vector-effect="non-scaling-stroke" stroke-width="1" stroke="rgb(220,68,5)" stroke-opacity="0.5" stroke-linejoin="round" stroke-linecap="butt" stroke-miterlimit="1.414"/><rect x="247.98" y="46.728" width="23" height="99.039" transform="matrix(0,-1,1,0,163.233,355.728)" fill="rgb(255,117,58)" vector-effect="non-scaling-stroke" stroke-width="1" stroke="rgb(220,68,5)" stroke-opacity="0.5" stroke-linejoin="round" stroke-linecap="butt" stroke-miterlimit="1.414"/><rect x="176.282" y="168.148" width="23" height="43.188" transform="matrix(0,-1,1,0,-1.96,377.524)" fill="rgb(244,186,56)" vector-effect="non-scaling-stroke" stroke-width="1" stroke="rgb(220,68,5)" stroke-opacity="0.5" stroke-linejoin="round" stroke-linecap="butt" stroke-miterlimit="1.414"/><rect x="230.48" y="157.722" width="23" height="64.039" transform="matrix(0,-1,1,0,52.238,431.722)" fill="rgb(255,117,58)" vector-effect="non-scaling-stroke" stroke-width="1" stroke="rgb(220,68,5)" stroke-opacity="0.5" stroke-linejoin="round" stroke-linecap="butt" stroke-miterlimit="1.414"/><rect x="168.694" y="43.692" width="23" height="58.363" transform="matrix(0,-1,1,0,107.321,253.068)" fill="rgb(244,186,56)" vector-effect="non-scaling-stroke" stroke-width="1" stroke="rgb(220,68,5)" stroke-opacity="0.5" stroke-linejoin="round" stroke-linecap="butt" stroke-miterlimit="1.414"/><rect x="242.98" y="28.728" width="23" height="89.039" transform="matrix(0,-1,1,0,181.233,327.728)" fill="rgb(255,117,58)" vector-effect="non-scaling-stroke" stroke-width="1" stroke="rgb(220,68,5)" stroke-opacity="0.5" stroke-linejoin="round" stroke-linecap="butt" stroke-miterlimit="1.414"/><line x1="54.5" y1="240.621" x2="388.5" y2="240.621" vector-effect="non-scaling-stroke" stroke-width="1" stroke="rgb(149,45,0)" stroke-linejoin="miter" stroke-linecap="square" stroke-miterlimit="3"/><line x1="97.807" y1="249.621" x2="97.807" y2="235.621" vector-effect="non-scaling-stroke" stroke-width="1" stroke="rgb(149,45,0)" stroke-linejoin="miter" stroke-linecap="square" stroke-miterlimit="3"/><line x1="150.422" y1="249.621" x2="150.422" y2="235.621" vector-effect="non-scaling-stroke" stroke-width="1" stroke="rgb(149,45,0)" stroke-linejoin="miter" stroke-linecap="square" stroke-miterlimit="3"/><line x1="209.961" y1="249.621" x2="209.961" y2="235.621" vector-effect="non-scaling-stroke" stroke-width="1" stroke="rgb(149,45,0)" stroke-linejoin="miter" stroke-linecap="square" stroke-miterlimit="3"/><line x1="268.787" y1="249.621" x2="268.787" y2="235.621" vector-effect="non-scaling-stroke" stroke-width="1" stroke="rgb(149,45,0)" stroke-linejoin="miter" stroke-linecap="square" stroke-miterlimit="3"/><line x1="328.614" y1="249.621" x2="328.614" y2="235.621" vector-effect="non-scaling-stroke" stroke-width="1" stroke="rgb(149,45,0)" stroke-linejoin="miter" stroke-linecap="square" stroke-miterlimit="3"/><rect x="172.782" y="24.406" width="23" height="50.188" transform="matrix(0,-1,1,0,134.782,233.782)" fill="rgb(244,186,56)" vector-effect="non-scaling-stroke" stroke-width="1" stroke="rgb(220,68,5)" stroke-opacity="0.5" stroke-linejoin="round" stroke-linecap="butt" stroke-miterlimit="1.414"/><rect x="224.374" y="23.587" width="23" height="51.827" transform="matrix(0,-1,1,0,186.374,285.374)" fill="rgb(255,117,58)" vector-effect="non-scaling-stroke" stroke-width="1" stroke="rgb(220,68,5)" stroke-opacity="0.5" stroke-linejoin="round" stroke-linecap="butt" stroke-miterlimit="1.414"/></g></svg>