<?xml version="1.0" standalone="no"?><!-- Generator: Gravit.io --><svg xmlns="http://www.w3.org/2000/svg" xmlns:xlink="http://www.w3.org/1999/xlink" style="isolation:isolate" viewBox="0 0 400 300" width="400" height="300"><defs><clipPath id="_clipPath_2N7xKZXKZPepUHRnE7Uvmua1ssMu2FNl"><rect width="400" height="300"/></clipPath></defs><g clip-path="url(#_clipPath_2N7xKZXKZPepUHRnE7Uvmua1ssMu2FNl)"><clipPath id="_clipPath_awyypGMzwzIxUPEkLFIuY5SH6VupEEqh"><rect x="0" y="0" width="400" height="300" transform="matrix(1,0,0,1,0,0)" fill="rgb(255,255,255)"/></clipPath><g clip-path="url(#_clipPath_awyypGMzwzIxUPEkLFIuY5SH6VupEEqh)"><g id="Group"><g opacity="0"><rect x="0" y="0" width="400" height="300" transform="matrix(1,0,0,1,0,0)" fill="rgb(248,248,248)"/></g><line x1="200" y1="14.125" x2="200" y2="108.391" vector-effect="non-scaling-stroke" stroke-width="1" stroke="rgb(255,199,80)" stroke-opacity="100" stroke-linejoin="miter" stroke-linecap="square" stroke-miterlimit="3"/><line x1="64.125" y1="150" x2="158.391" y2="150" vector-effect="non-scaling-stroke" stroke-width="1" stroke="rgb(255,199,80)" stroke-opacity="100" stroke-linejoin="miter" stroke-linecap="square" stroke-miterlimit="3"/><line x1="200" y1="191.609" x2="200" y2="285.875" vector-effect="non-scaling-stroke" stroke-width="1" stroke="rgb(255,199,80)" stroke-opacity="100" stroke-linejoin="miter" stroke-linecap="square" stroke-miterlimit="3"/><line x1="241.609" y1="150" x2="335.875" y2="150" vector-effect="non-scaling-stroke" stroke-width="1" stroke="rgb(255,199,80)" stroke-opacity="100" stroke-linejoin="miter" stroke-linecap="square" stroke-miterlimit="3"/><line x1="170" y1="123" x2="106" y2="53" vector-effect="non-scaling-stroke" stroke-width="1" stroke="rgb(255,199,80)" stroke-opacity="100" stroke-linejoin="miter" stroke-linecap="square" stroke-miterlimit="3"/><line x1="232" y1="179" x2="304" y2="238" vector-effect="non-scaling-stroke" stroke-width="1" stroke="rgb(255,199,80)" stroke-opacity="100" stroke-linejoin="miter" stroke-linecap="square" stroke-miterlimit="3"/><line x1="232" y1="123" x2="302" y2="61" vector-effect="non-scaling-stroke" stroke-width="1" stroke="rgb(255,199,80)" stroke-opacity="100" stroke-linejoin="miter" stroke-linecap="square" stroke-miterlimit="3"/><line x1="170" y1="179" x2="106" y2="249" vector-effect="non-scaling-stroke" stroke-width="1" stroke="rgb(255,199,80)" stroke-opacity="100" stroke-linejoin="miter" stroke-linecap="square" stroke-miterlimit="3"/><g id="Group"><g transform="matrix(1,0,0,1,46,138.85)"><text transform="matrix(1,0,0,1,0,13.552)" style="font-family:&quot;Magra&quot;;font-weight:400;font-size:14px;font-style:normal;fill:#DC4405;stroke:none;">A</text></g></g><g id="Group"><g transform="matrix(1,0,0,1,345,137.85)"><text transform="matrix(1,0,0,1,0,13.552)" style="font-family:&quot;Magra&quot;;font-weight:400;font-size:14px;font-style:normal;fill:#DC4405;stroke:none;">E</text></g></g><g id="Group"><g transform="matrix(1,0,0,1,308,234.93)"><text transform="matrix(1,0,0,1,0,13.552)" style="font-family:&quot;Magra&quot;;font-weight:400;font-size:14px;font-style:normal;fill:#DC4405;stroke:none;">F</text></g></g><g id="Group"><g transform="matrix(1,0,0,1,195.266,282.7)"><text transform="matrix(1,0,0,1,0,13.552)" style="font-family:&quot;Magra&quot;;font-weight:400;font-size:14px;font-style:normal;fill:#DC4405;stroke:none;">G</text></g></g><g id="Group"><g transform="matrix(1,0,0,1,92,247.08)"><text transform="matrix(1,0,0,1,0,13.552)" style="font-family:&quot;Magra&quot;;font-weight:400;font-size:14px;font-style:normal;fill:#DC4405;stroke:none;">H</text></g></g><g id="Group"><g transform="matrix(1,0,0,1,94,33.731)"><text transform="matrix(1,0,0,1,0,13.552)" style="font-family:&quot;Magra&quot;;font-weight:400;font-size:14px;font-style:normal;fill:#DC4405;stroke:none;">B</text></g></g><g id="Group"><g transform="matrix(1,0,0,1,195.766,-2)"><text transform="matrix(1,0,0,1,0,13.552)" style="font-family:&quot;Magra&quot;;font-weight:400;font-size:14px;font-style:normal;fill:#DC4405;stroke:none;">C</text></g></g><g id="Group"><g transform="matrix(1,0,0,1,307,43.99)"><text transform="matrix(1,0,0,1,0,13.552)" style="font-family:&quot;Magra&quot;;font-weight:400;font-size:14px;font-style:normal;fill:#DC4405;stroke:none;">D</text></g></g><path d=" M 200 21.063 C 271.162 21.063 328.938 78.838 328.938 150 C 328.938 221.162 271.162 278.938 200 278.938 C 128.838 278.938 71.063 221.162 71.063 150 C 71.063 78.838 128.838 21.063 200 21.063 Z " fill-rule="evenodd" fill="none" vector-effect="non-scaling-stroke" stroke-width="2" stroke="rgb(255,199,80)" stroke-opacity="100" stroke-linejoin="miter" stroke-linecap="square" stroke-miterlimit="3"/><path d=" M 200 108.391 C 222.965 108.391 241.609 127.035 241.609 150 C 241.609 172.965 222.965 191.609 200 191.609 C 177.035 191.609 158.391 172.965 158.391 150 C 158.391 127.035 177.035 108.391 200 108.391 Z " fill-rule="evenodd" fill="none" vector-effect="non-scaling-stroke" stroke-width="2" stroke="rgb(255,199,80)" stroke-opacity="100" stroke-linejoin="miter" stroke-linecap="square" stroke-miterlimit="3"/><path d=" M 200 58.031 C 250.758 58.031 291.969 99.242 291.969 150 C 291.969 200.758 250.758 241.969 200 241.969 C 149.242 241.969 108.031 200.758 108.031 150 C 108.031 99.242 149.242 58.031 200 58.031 Z " fill-rule="evenodd" fill="none" vector-effect="non-scaling-stroke" stroke-width="2" stroke="rgb(255,199,80)" stroke-opacity="100" stroke-linejoin="miter" stroke-linecap="square" stroke-miterlimit="3"/><path d=" M 101 180 C 101 180 104 164 104 164 C 104 161.269 102.862 156.862 101 155 C 98.11 152.11 96.204 151.612 95 148 C 87.348 140.348 89.107 123.786 92 118 C 97.006 107.988 117.823 112.06 126 108.391 C 133.511 106.297 152.937 112.453 157 108.391 C 157.58 107.811 166.921 90 167 90 C 175.774 84.525 157.524 59.552 170 53 C 178.975 41.942 188.552 47 200 47 C 217.268 47 220.805 55.805 229 64 C 233.578 68.578 232.647 70.47 235 74 C 236.046 75.569 238.803 85 239 85 C 240 85 244 101 244 101 C 244 104.134 251 105.003 251 108.391 C 251 108.724 253.764 110.764 254 111 C 255 112 261 125 261 125 C 262.162 128.485 264.147 130.147 267 133 C 275.298 141.298 279.961 148.961 287 156 C 294.664 163.664 300 171.31 300 180 C 300 187 300 192 300 197 C 300 202.814 295.41 200.769 294 205 C 292.379 209.864 279.253 222.874 277 224 C 274.669 225.166 270.63 226 268 226 C 259.029 226 270.979 247 261 247 C 257.667 247 236.606 248.453 238 239 C 238.527 248.773 239.241 232.62 232 229 C 230.142 228.071 229.242 223.159 217 219 C 212.465 219 208.171 219 204 219 C 195.971 219 186.427 211 179 211 C 168.012 211 157.309 210 148 210 C 140.109 210 136.421 205 131 205 C 130.273 205 124.466 200.888 123.601 200.684 C 117.174 199.166 107.557 192.557 104 189 C 101.877 186.877 100 179.783 101 180 Z " fill="none" vector-effect="non-scaling-stroke" stroke-width="2" stroke="rgb(220,68,5)" stroke-opacity="100" stroke-linejoin="miter" stroke-linecap="square" stroke-miterlimit="3"/></g></g></g></svg>