<?xml version="1.0" standalone="no"?><!-- Generator: Gravit.io --><svg xmlns="http://www.w3.org/2000/svg" xmlns:xlink="http://www.w3.org/1999/xlink" style="isolation:isolate" viewBox="0 0 400 400" width="400" height="400"><defs><clipPath id="_clipPath_8tYWN5xTOnzqiGmBJ7ct5YXdwzqF1uKZ"><rect width="400" height="400"/></clipPath></defs><g clip-path="url(#_clipPath_8tYWN5xTOnzqiGmBJ7ct5YXdwzqF1uKZ)"><g id="3dforcegraph_1 (1)"><path d=" M 288.086 30.348 C 287.789 30.617 287.047 30.818 286.379 30.885 C 285.637 30.952 284.598 31.019 283.856 31.086 C 281.852 31.22 279.33 35.777 279.33 39.464 C 279.33 42.413 279.552 42.882 282.224 44.96 C 288.753 49.987 297.435 46.501 297.806 38.66 C 297.88 37.52 297.583 36.515 297.212 36.515 C 296.767 36.515 296.767 36.113 297.287 35.576 C 297.954 34.839 297.954 34.504 297.287 34.102 C 296.693 33.834 296.619 33.901 296.916 34.37 C 297.212 34.839 297.064 35.174 296.693 35.174 C 296.248 35.174 295.877 34.638 295.877 33.901 C 295.877 31.823 289.644 29.008 288.086 30.348 Z " fill="rgb(0,0,0)"/><path d=" M 269.757 59.571 C 262.857 67.346 256.549 74.518 255.659 75.523 C 254.694 76.595 252.171 79.477 249.945 82.091 C 246.532 86.113 245.79 86.649 244.751 85.979 C 243.712 85.241 243.712 85.241 244.529 86.247 C 245.642 87.52 244.751 88.325 243.193 87.386 C 240.076 85.644 233.695 87.52 232.137 90.603 C 231.024 92.882 231.098 96.971 232.359 98.579 C 233.398 99.853 232.433 100.925 215.293 117.547 C 205.349 127.266 197.187 135.376 197.187 135.644 C 197.187 135.845 198.449 134.773 200.007 133.231 C 201.491 131.689 209.727 123.646 218.261 115.335 L 233.769 100.322 L 236.218 101.327 C 238.295 102.266 238.963 102.266 241.709 101.461 C 243.49 100.925 245.567 99.719 246.384 98.713 C 248.164 96.502 248.313 91.944 246.606 90.268 C 245.938 89.598 245.419 88.861 245.419 88.593 C 245.419 88.325 250.465 82.359 255.214 77.065 C 262.263 69.223 282.595 45.697 282.372 45.563 C 282.224 45.429 276.584 51.729 269.757 59.571 Z " fill="rgb(0,0,0)"/><path d=" M 88.851 46.635 C 84.993 48.043 83.212 52.668 85.215 56.086 C 85.883 57.225 85.438 57.963 81.282 61.582 C 56.35 83.7 55.683 84.102 60.357 73.311 C 63.325 66.341 64.661 64.933 67.703 65 C 71.933 65.201 74.456 60.778 72.972 55.617 C 72.823 54.879 72.601 54.008 72.601 53.74 C 72.527 53.405 72.23 53.405 71.785 53.606 C 71.414 53.807 70.449 53.74 69.781 53.405 C 66.59 51.93 64.364 51.863 63.103 53.204 C 62.435 53.941 61.619 54.41 61.248 54.209 C 60.951 54.008 60.654 54.276 60.654 54.812 C 60.654 55.349 60.209 56.153 59.615 56.555 C 58.131 57.627 59.615 62.453 61.767 63.727 L 63.474 64.732 L 60.283 71.904 L 57.092 79.075 L 54.347 79.276 C 52.789 79.41 50.785 79.947 49.895 80.483 C 49.004 81.019 48.114 81.287 47.965 81.153 C 47.817 80.952 47.743 82.024 47.891 83.499 C 48.114 85.04 47.817 86.582 47.223 87.185 C 46.481 88.057 46.481 88.325 47.372 88.794 C 48.633 89.531 48.782 89.464 39.21 96.099 C 31.641 101.327 31.418 101.394 29.415 100.456 C 26.298 99.049 24.443 99.317 21.92 101.528 C 20.065 103.204 19.768 103.941 20.139 105.617 C 21.178 110.376 25.334 112.386 29.489 110.175 C 31.863 108.834 32.68 106.89 32.309 103.472 C 32.16 101.662 32.309 101.193 33.348 101.26 C 34.09 101.327 34.535 101.126 34.312 100.858 C 34.164 100.59 37.354 98.043 41.436 95.161 C 48.336 90.335 48.93 90.067 50.192 91.073 C 50.934 91.676 52.343 92.145 53.308 92.145 C 55.163 92.145 55.163 92.346 57.167 103.673 C 58.354 110.041 59.986 119.558 60.951 124.853 L 62.658 134.437 L 60.728 135.711 C 59.615 136.381 58.28 137.722 57.76 138.66 C 55.608 142.279 59.541 147.775 64.216 147.775 C 65.923 147.775 70.3 145.698 70.3 144.893 C 70.3 144.357 79.056 148.244 96.791 156.622 C 107.624 161.716 108.07 161.984 107.402 163.526 C 107.031 164.464 106.957 165.336 107.402 165.537 C 107.773 165.738 107.921 166.475 107.773 167.212 C 107.55 168.084 108.441 169.156 110.296 170.497 C 111.854 171.636 113.338 172.373 113.635 172.105 C 113.857 171.904 114.08 172.038 114.08 172.44 C 114.08 173.312 117.345 172.842 117.642 171.904 C 117.79 171.502 118.161 171.368 118.532 171.569 C 118.829 171.703 120.016 171.1 121.055 170.228 C 122.168 169.29 122.762 168.553 122.465 168.553 C 122.168 168.553 122.391 168.285 122.984 167.95 C 123.578 167.547 124.023 166.274 124.023 164.934 L 124.023 162.655 L 154.001 153.204 C 183.979 143.754 184.053 143.687 185.166 145.161 C 186.873 147.373 190.583 148.513 193.551 147.775 C 194.887 147.373 196.223 147.373 196.519 147.641 C 199.116 150.255 235.253 195.832 235.253 196.435 C 235.253 196.904 235.55 197.239 235.773 197.172 C 236.069 197.105 239.78 201.261 243.935 206.422 C 251.726 216.006 252.839 217.347 252.839 216.743 C 252.839 216.542 249.649 212.521 245.79 207.695 C 241.931 202.936 236.96 196.77 234.734 194.022 C 232.508 191.274 223.01 179.545 213.66 167.95 L 196.668 146.904 L 198.078 144.625 C 199.116 143.151 199.487 141.542 199.265 139.598 C 199.042 137.118 198.671 136.515 196.445 135.443 C 195.035 134.705 192.364 134.102 190.657 134.102 L 187.392 134.035 L 169.658 106.622 C 159.937 91.542 151.923 79.075 151.923 78.941 C 151.923 78.74 152.591 77.802 153.482 76.863 C 155.114 74.987 155.337 69.692 153.779 68.284 C 152.295 66.944 149.772 66.005 147.546 66.005 C 145.171 66.005 141.535 67.212 141.535 68.083 C 141.535 69.893 137.231 68.753 118.755 62.185 C 98.72 55.08 98.498 55.013 98.498 53.07 C 98.498 50.59 96.494 47.574 94.268 46.635 C 92.19 45.764 91.3 45.764 88.851 46.635 Z  M 129.069 66.542 C 138.344 69.759 140.051 70.563 139.903 71.703 C 139.457 77.132 144.355 81.086 149.326 79.41 C 150.81 78.874 152.295 80.885 167.877 105.081 C 177.227 119.558 185.315 132.159 185.983 133.164 C 187.021 134.84 186.947 135.108 185.686 136.381 C 184.944 137.118 184.127 138.995 183.905 140.47 L 183.46 143.218 L 155.263 152.132 C 139.754 157.025 126.324 161.18 125.507 161.448 C 124.246 161.783 123.281 161.314 121.426 159.505 C 119.126 157.293 118.606 157.092 115.713 157.36 C 113.561 157.561 111.78 158.298 110.37 159.505 L 108.292 161.247 L 89.667 152.668 L 71.043 144.089 L 71.043 141.542 C 71.043 139.531 70.523 138.459 68.668 136.85 C 67.407 135.644 65.848 134.705 65.255 134.705 C 64.661 134.705 63.845 134.236 63.548 133.7 C 62.954 132.695 56.202 94.893 56.202 92.681 C 56.202 91.944 56.573 91.676 57.315 91.877 C 57.983 92.145 58.428 91.877 58.428 91.207 C 58.428 90.603 58.947 90.134 59.541 90.134 C 60.135 90.134 60.654 89.665 60.654 89.062 C 60.654 88.526 60.951 88.191 61.248 88.392 C 62.212 88.928 61.693 82.896 60.728 81.89 C 60.135 81.153 62.732 78.539 72.972 69.625 C 81.208 62.52 86.477 58.365 87.293 58.499 C 92.636 59.504 93.749 59.437 95.9 57.493 L 98.127 55.617 L 108.144 59.169 C 113.635 61.113 123.059 64.464 129.069 66.542 Z " fill="rgb(0,0,0)"/><path d=" M 55.163 140.336 C 54.866 140.805 54.792 141.341 55.015 141.542 C 55.683 142.145 56.425 141.274 56.054 140.336 C 55.757 139.598 55.608 139.598 55.163 140.336 Z " fill="rgb(0,0,0)"/><path d=" M 282.372 165.001 C 279.033 166.877 278.513 171.368 281.11 174.719 L 282.595 176.529 L 271.687 196.167 C 261.373 214.867 260.705 215.805 258.701 215.872 C 257.514 215.939 256.772 215.671 256.995 215.403 C 257.217 215.068 256.846 214.8 256.253 214.8 C 255.585 214.8 255.065 215.068 255.065 215.336 C 255.065 215.671 254.249 216.341 253.21 216.81 C 251.578 217.615 250.391 219.357 250.242 221.033 C 250.242 221.301 249.723 221.837 249.129 222.239 C 248.164 222.776 248.164 222.977 249.352 223.781 C 250.02 224.25 250.613 224.92 250.613 225.255 C 250.613 225.524 251.429 226.529 252.394 227.467 L 254.175 229.21 L 240.893 260.041 C 233.621 276.998 227.759 291.073 227.833 291.409 C 227.907 291.677 233.992 277.87 241.338 260.778 L 254.694 229.679 L 258.033 229.411 C 259.888 229.21 261.595 229.21 261.818 229.277 C 262.634 229.679 287.715 262.923 287.715 263.593 C 287.715 263.996 287.344 264.398 286.898 264.532 C 285.414 265.001 285.192 270.162 286.676 272.307 C 288.902 275.792 294.096 276.194 297.435 273.178 C 298.622 272.106 299.958 271.033 300.477 270.899 C 301.219 270.631 301.219 270.497 300.552 270.497 C 300.032 270.43 299.587 269.961 299.587 269.425 C 299.587 268.754 300.032 268.888 301.294 269.961 C 302.184 270.765 302.629 271.636 302.332 271.837 C 301.961 272.039 303.817 272.24 306.339 272.24 C 310.495 272.24 311.163 272.039 312.721 270.363 L 314.502 268.486 L 321.106 271.502 C 324.742 273.111 327.858 274.451 328.081 274.451 C 328.229 274.451 332.385 276.127 337.208 278.272 C 342.031 280.35 349.822 283.634 354.497 285.577 C 363.03 289.197 363.03 289.197 362.808 291.409 C 362.659 293.084 363.179 294.358 365.256 296.771 C 367.779 299.787 368.076 299.921 371.564 299.921 C 374.606 299.921 375.496 299.586 377.426 297.843 C 381.729 294.023 380.468 287.789 374.903 285.376 C 372.602 284.371 372.231 284.371 369.857 285.443 C 368.447 286.047 366.815 286.516 366.369 286.516 C 365.85 286.516 365.034 286.985 364.514 287.588 C 363.55 288.795 364.218 289.063 337.801 277.803 C 332.533 275.524 325.261 272.441 321.699 270.966 L 315.17 268.218 L 315.095 265.47 C 315.021 263.929 315.021 262.521 315.021 262.32 C 315.318 260.041 304.707 256.958 302.703 258.768 C 302.184 259.304 301.516 259.706 301.294 259.706 C 301.071 259.706 297.212 256.489 292.612 252.534 C 284.821 245.765 274.506 236.851 266.715 230.215 C 264.786 228.607 263.228 227.4 263.228 227.601 C 263.228 227.802 270.722 234.371 279.923 242.213 C 289.05 249.987 296.47 256.757 296.322 257.226 C 296.248 257.695 296.248 257.762 296.47 257.494 C 296.916 256.757 300.329 259.706 300.329 260.845 C 300.329 261.315 300.032 261.717 299.587 261.717 C 299.216 261.717 298.845 261.382 298.845 260.979 C 298.845 260.644 298.548 260.51 298.103 260.711 C 297.732 260.912 297.361 261.449 297.361 261.784 C 297.361 262.186 297.732 262.253 298.103 262.052 C 298.548 261.784 298.845 262.454 298.845 263.459 C 298.845 265.269 298.771 265.269 297.806 263.996 C 296.99 262.99 295.803 262.722 292.463 262.655 L 288.234 262.588 L 275.026 245.229 C 265.157 232.293 262.04 227.802 262.782 227.4 C 263.376 227.132 264.044 226.127 264.266 225.188 C 264.786 223.245 264.044 223.312 277.623 224.183 C 296.174 225.39 295.728 225.323 296.916 227.802 C 298.177 230.617 301.813 232.092 304.781 231.087 C 306.785 230.416 307.081 230.617 313.982 238.124 C 318.657 243.285 320.809 246.167 320.364 246.636 C 319.993 247.038 319.622 248.446 319.473 249.853 C 319.102 255.014 326.077 257.829 330.01 254.009 C 331.42 252.668 331.643 251.864 331.272 249.652 C 330.752 246.033 329.045 244.894 324.742 245.095 L 321.328 245.296 L 314.205 237.655 C 307.452 230.282 307.23 229.88 308.269 228.473 C 308.862 227.601 309.233 225.859 309.085 224.317 L 308.862 221.703 L 321.551 212.923 C 333.052 205.014 334.314 204.344 335.575 205.148 C 339.508 207.762 345.147 204.88 345.147 200.255 C 345.147 195.832 340.695 194.491 334.907 197.172 C 332.978 198.111 332.83 198.379 333.201 201.127 L 333.498 204.009 L 320.661 212.856 C 313.611 217.682 307.527 221.435 307.081 221.234 C 306.636 220.966 304.262 221.167 301.739 221.636 C 298.474 222.239 297.064 222.843 296.767 223.647 C 296.619 224.317 296.248 224.853 295.951 224.853 C 295.728 224.853 289.347 224.384 281.778 223.848 C 274.21 223.312 267.383 222.843 266.567 222.843 C 265.528 222.843 265.083 222.373 265.008 221.1 C 264.934 220.162 264.118 218.62 263.153 217.749 L 261.447 216.073 L 272.355 196.368 L 283.188 176.663 L 286.082 176.73 C 290.757 176.797 293.651 174.25 293.651 170.228 C 293.651 165.001 287.492 162.186 282.372 165.001 Z " fill="rgb(0,0,0)"/><path d=" M 248.387 218.084 C 248.387 218.486 248.684 218.955 249.129 219.156 C 249.574 219.357 249.649 219.089 249.426 218.553 C 248.906 217.347 248.387 217.146 248.387 218.084 Z " fill="rgb(0,0,0)"/><path d=" M 316.283 267.079 C 316.505 267.414 316.876 267.749 317.099 267.749 C 317.247 267.749 317.396 267.414 317.396 267.079 C 317.396 266.677 317.025 266.408 316.579 266.408 C 316.208 266.408 316.06 266.677 316.283 267.079 Z " fill="rgb(0,0,0)"/><path d=" M 220.487 293.017 C 216.331 296.167 216.406 300.658 220.635 303.808 L 223.307 305.819 L 221.377 320.095 C 216.702 355.417 216.851 354.747 214.625 353.808 C 214.254 353.607 214.551 353.942 215.293 354.479 C 216.702 355.551 216.702 355.551 215.218 355.551 C 214.328 355.551 212.399 356.556 210.989 357.83 C 207.576 360.712 207.427 363.393 210.544 366.945 C 213.141 369.961 215.664 370.698 218.558 369.358 C 224.865 366.409 225.236 359.773 219.3 356.556 C 217.964 355.886 217.296 355.216 217.741 355.082 C 218.187 354.948 218.409 354.21 218.187 353.54 C 217.964 352.87 219.225 341.677 221.006 328.741 C 224.123 305.752 224.197 305.283 225.829 305.283 C 226.72 305.283 228.501 304.344 229.762 303.205 C 232.656 300.591 232.953 296.905 230.356 294.224 C 228.13 291.878 222.861 291.208 220.487 293.017 Z " fill="rgb(0,0,0)"/></g></g></svg>