<?xml version="1.0" standalone="no"?><!-- Generator: Gravit.io --><svg xmlns="http://www.w3.org/2000/svg" xmlns:xlink="http://www.w3.org/1999/xlink" style="isolation:isolate" viewBox="0 0 400 400" width="400" height="400"><defs><clipPath id="_clipPath_auqsf5vNFnhiwW1rgA8CS1wX7sLAQhHC"><rect width="400" height="400"/></clipPath></defs><g clip-path="url(#_clipPath_auqsf5vNFnhiwW1rgA8CS1wX7sLAQhHC)"><g id="mysankey"><g id="Group"><path d=" M 27.219 223.101 C 67.707 223.101 67.707 225.748 108.195 225.748" fill="none" vector-effect="non-scaling-stroke" stroke-width="26.601" stroke="rgb(220,219,219)" stroke-linejoin="miter" stroke-linecap="butt" stroke-miterlimit="4"/><path d=" M 27.219 254.395 C 67.707 254.395 67.707 252.895 108.195 252.895" fill="none" vector-effect="non-scaling-stroke" stroke-width="26.727" stroke="rgb(220,219,219)" stroke-linejoin="miter" stroke-linecap="butt" stroke-miterlimit="4"/><path d=" M 27.219 129.387 C 67.707 129.387 67.707 133.152 108.195 133.152" fill="none" vector-effect="non-scaling-stroke" stroke-width="47.907" stroke="rgb(220,219,219)" stroke-linejoin="miter" stroke-linecap="butt" stroke-miterlimit="4"/><path d=" M 27.219 181.667 C 67.707 181.667 67.707 181.284 108.195 181.284" fill="none" vector-effect="non-scaling-stroke" stroke-width="46.646" stroke="rgb(220,219,219)" stroke-linejoin="miter" stroke-linecap="butt" stroke-miterlimit="4"/><path d=" M 115.414 239.354 C 155.902 239.354 155.902 239.766 196.39 239.766" fill="none" vector-effect="non-scaling-stroke" stroke-width="53.328" stroke="rgb(220,219,219)" stroke-linejoin="miter" stroke-linecap="butt" stroke-miterlimit="4"/><path d=" M 115.414 156.897 C 155.902 156.897 155.902 158.143 196.39 158.143" fill="none" vector-effect="non-scaling-stroke" stroke-width="94.554" stroke="rgb(220,219,219)" stroke-linejoin="miter" stroke-linecap="butt" stroke-miterlimit="4"/><path d=" M 203.61 239.766 C 244.098 239.766 244.098 235.72 284.586 235.72" fill="none" vector-effect="non-scaling-stroke" stroke-width="53.328" stroke="rgb(220,219,219)" stroke-linejoin="miter" stroke-linecap="butt" stroke-miterlimit="4"/><path d=" M 203.61 158.143 C 244.098 158.143 244.098 160.442 284.586 160.442" fill="none" vector-effect="non-scaling-stroke" stroke-width="94.554" stroke="rgb(220,219,219)" stroke-linejoin="miter" stroke-linecap="butt" stroke-miterlimit="4"/><path d=" M 291.805 145.874 C 332.293 145.874 332.293 142.712 372.781 142.712" fill="none" vector-effect="non-scaling-stroke" stroke-width="65.935" stroke="rgb(220,219,219)" stroke-linejoin="miter" stroke-linecap="butt" stroke-miterlimit="4"/><path d=" M 291.805 246.181 C 332.293 246.181 332.293 251.314 372.781 251.314" fill="none" vector-effect="non-scaling-stroke" stroke-width="32.779" stroke="rgb(220,219,219)" stroke-linejoin="miter" stroke-linecap="butt" stroke-miterlimit="4"/><path d=" M 291.805 204.467 C 332.293 204.467 332.293 205.452 372.781 205.452" fill="none" vector-effect="non-scaling-stroke" stroke-width="49.168" stroke="rgb(220,219,219)" stroke-linejoin="miter" stroke-linecap="butt" stroke-miterlimit="4"/></g><g id="Group"><g id="Group"><rect x="20" y="209.559" width="7.219" height="27.082" transform="matrix(1,0,0,1,0,0)" fill="rgb(220,68,4)" vector-effect="non-scaling-stroke" stroke-width="0.407" stroke="rgb(0,0,0)" stroke-linejoin="miter" stroke-linecap="butt" stroke-miterlimit="4"/><g transform="matrix(0.481,0,0,0.415,30.107,218.667)"><text transform="matrix(1,0,0,1,0,10.688)" style="font-family:&quot;Open Sans&quot;;font-weight:400;font-size:10px;font-style:normal;fill:#000000;stroke:none;">Columbia South Shore Well Field</text></g></g><g id="Group"><rect x="20" y="240.789" width="7.219" height="27.211" transform="matrix(1,0,0,1,0,0)" fill="rgb(243,187,59)" vector-effect="non-scaling-stroke" stroke-width="0.407" stroke="rgb(0,0,0)" stroke-linejoin="miter" stroke-linecap="butt" stroke-miterlimit="4"/><g transform="matrix(0.481,0,0,0.415,30.107,249.962)"><text transform="matrix(1,0,0,1,0,10.688)" style="font-family:&quot;Open Sans&quot;;font-weight:400;font-size:10px;font-style:normal;fill:#000000;stroke:none;">Bull Run Watershed</text></g></g><g id="Group"><rect x="20" y="105" width="7.219" height="48.774" transform="matrix(1,0,0,1,0,0)" fill="rgb(220,68,4)" vector-effect="non-scaling-stroke" stroke-width="0.407" stroke="rgb(0,0,0)" stroke-linejoin="miter" stroke-linecap="butt" stroke-miterlimit="4"/><g transform="matrix(0.481,0,0,0.415,30.107,124.954)"><text transform="matrix(1,0,0,1,0,10.688)" style="font-family:&quot;Open Sans&quot;;font-weight:400;font-size:10px;font-style:normal;fill:#000000;stroke:none;">Haggs Lake</text></g></g><g id="Group"><rect x="20" y="157.921" width="7.219" height="47.49" transform="matrix(1,0,0,1,0,0)" fill="rgb(243,187,59)" vector-effect="non-scaling-stroke" stroke-width="0.407" stroke="rgb(0,0,0)" stroke-linejoin="miter" stroke-linecap="butt" stroke-miterlimit="4"/><g transform="matrix(0.481,0,0,0.415,30.107,177.234)"><text transform="matrix(1,0,0,1,0,10.688)" style="font-family:&quot;Open Sans&quot;;font-weight:400;font-size:10px;font-style:normal;fill:#000000;stroke:none;">Barney Reservoir</text></g></g><g id="Group"><rect x="108.195" y="212.207" width="7.219" height="54.293" transform="matrix(1,0,0,1,0,0)" fill="rgb(132,174,200)" vector-effect="non-scaling-stroke" stroke-width="0.407" stroke="rgb(0,0,0)" stroke-linejoin="miter" stroke-linecap="butt" stroke-miterlimit="4"/><g transform="matrix(0.481,0,0,0.415,118.302,234.92)"><text transform="matrix(1,0,0,1,0,10.688)" style="font-family:&quot;Open Sans&quot;;font-weight:400;font-size:10px;font-style:normal;fill:#000000;stroke:none;">Powell Butte Reservoir</text></g></g><g id="Group"><rect x="108.195" y="108.765" width="7.219" height="96.264" transform="matrix(1,0,0,1,0,0)" fill="rgb(132,174,200)" vector-effect="non-scaling-stroke" stroke-width="0.407" stroke="rgb(0,0,0)" stroke-linejoin="miter" stroke-linecap="butt" stroke-miterlimit="4"/><g transform="matrix(0.481,0,0,0.415,118.302,152.464)"><text transform="matrix(1,0,0,1,0,10.688)" style="font-family:&quot;Open Sans&quot;;font-weight:400;font-size:10px;font-style:normal;fill:#000000;stroke:none;">Tualatin River</text></g></g><g id="Group"><rect x="196.39" y="212.62" width="7.219" height="54.293" transform="matrix(1,0,0,1,0,0)" fill="rgb(85,129,186)" vector-effect="non-scaling-stroke" stroke-width="0.407" stroke="rgb(0,0,0)" stroke-linejoin="miter" stroke-linecap="butt" stroke-miterlimit="4"/><g transform="matrix(0.481,0,0,0.415,206.497,235.333)"><text transform="matrix(1,0,0,1,0,10.688)" style="font-family:&quot;Open Sans&quot;;font-weight:400;font-size:10px;font-style:normal;fill:#000000;stroke:none;">Washington County Pipeline</text></g></g><g id="Group"><rect x="196.39" y="110.011" width="7.219" height="96.264" transform="matrix(1,0,0,1,0,0)" fill="rgb(85,129,186)" vector-effect="non-scaling-stroke" stroke-width="0.407" stroke="rgb(0,0,0)" stroke-linejoin="miter" stroke-linecap="butt" stroke-miterlimit="4"/><g transform="matrix(0.481,0,0,0.415,206.497,153.71)"><text transform="matrix(1,0,0,1,0.781,10.688)" style="font-family:&quot;Open Sans&quot;;font-weight:400;font-size:10px;font-style:normal;fill:#000000;stroke:none;">JWC Treatment Plant</text></g></g><g id="Group"><rect x="284.586" y="112.31" width="7.219" height="150.557" transform="matrix(1,0,0,1,0,0)" fill="rgb(243,187,59)" vector-effect="non-scaling-stroke" stroke-width="0.407" stroke="rgb(0,0,0)" stroke-linejoin="miter" stroke-linecap="butt" stroke-miterlimit="4"/><g transform="matrix(0.481,0,0,0.415,241.367,183.155)"><text transform="matrix(1,0,0,1,0,10.688)" style="font-family:&quot;Open Sans&quot;;font-weight:400;font-size:10px;font-style:normal;fill:#000000;stroke:none;">Water Consumers</text></g></g><g id="Group"><rect x="372.781" y="109.148" width="7.219" height="67.128" transform="matrix(1,0,0,1,0,0)" fill="rgb(220,68,4)" vector-effect="non-scaling-stroke" stroke-width="0.407" stroke="rgb(0,0,0)" stroke-linejoin="miter" stroke-linecap="butt" stroke-miterlimit="4"/><g transform="matrix(0.481,0,0,0.415,356.827,138.279)"><text transform="matrix(1,0,0,1,0,10.688)" style="font-family:&quot;Open Sans&quot;;font-weight:400;font-size:10px;font-style:normal;fill:#000000;stroke:none;">Other</text></g></g><g id="Group"><rect x="372.781" y="234.628" width="7.219" height="33.372" transform="matrix(1,0,0,1,0,0)" fill="rgb(220,68,4)" vector-effect="non-scaling-stroke" stroke-width="0.407" stroke="rgb(0,0,0)" stroke-linejoin="miter" stroke-linecap="butt" stroke-miterlimit="4"/><g transform="matrix(0.481,0,0,0.415,302.497,246.881)"><text transform="matrix(1,0,0,1,0,10.688)" style="font-family:&quot;Open Sans&quot;;font-weight:400;font-size:10px;font-style:normal;fill:#000000;stroke:none;">CWS Durham Treatment Plant</text></g></g><g id="Group"><rect x="372.781" y="180.423" width="7.219" height="50.057" transform="matrix(1,0,0,1,0,0)" fill="rgb(220,68,4)" vector-effect="non-scaling-stroke" stroke-width="0.407" stroke="rgb(0,0,0)" stroke-linejoin="miter" stroke-linecap="butt" stroke-miterlimit="4"/><g transform="matrix(0.481,0,0,0.415,296.154,201.019)"><text transform="matrix(1,0,0,1,0,10.688)" style="font-family:&quot;Open Sans&quot;;font-weight:400;font-size:10px;font-style:normal;fill:#000000;stroke:none;">CWS Rock Creek Treatment Plant</text></g></g></g></g></g></svg>