<svg width="400" height="400"><g transform="translate(40,30)"><g class="x axis" transform="translate(0,340)"><g class="tick" transform="translate(15.5,0)" style="opacity: 1;"><line y2="6" x2="0"></line><text dy=".71em" y="9" x="0" style="text-anchor: middle;">Jan</text></g><g class="tick" transform="translate(43.5,0)" style="opacity: 1;"><line y2="6" x2="0"></line><text dy=".71em" y="9" x="0" style="text-anchor: middle;">Feb</text></g><g class="tick" transform="translate(71.5,0)" style="opacity: 1;"><line y2="6" x2="0"></line><text dy=".71em" y="9" x="0" style="text-anchor: middle;">Mar</text></g><g class="tick" transform="translate(99.5,0)" style="opacity: 1;"><line y2="6" x2="0"></line><text dy=".71em" y="9" x="0" style="text-anchor: middle;">Apr</text></g><g class="tick" transform="translate(127.5,0)" style="opacity: 1;"><line y2="6" x2="0"></line><text dy=".71em" y="9" x="0" style="text-anchor: middle;">May</text></g><g class="tick" transform="translate(155.5,0)" style="opacity: 1;"><line y2="6" x2="0"></line><text dy=".71em" y="9" x="0" style="text-anchor: middle;">Jun</text></g><g class="tick" transform="translate(183.5,0)" style="opacity: 1;"><line y2="6" x2="0"></line><text dy=".71em" y="9" x="0" style="text-anchor: middle;">Jul</text></g><g class="tick" transform="translate(211.5,0)" style="opacity: 1;"><line y2="6" x2="0"></line><text dy=".71em" y="9" x="0" style="text-anchor: middle;">Agu</text></g><g class="tick" transform="translate(239.5,0)" style="opacity: 1;"><line y2="6" x2="0"></line><text dy=".71em" y="9" x="0" style="text-anchor: middle;">Sep</text></g><g class="tick" transform="translate(267.5,0)" style="opacity: 1;"><line y2="6" x2="0"></line><text dy=".71em" y="9" x="0" style="text-anchor: middle;">Oct</text></g><g class="tick" transform="translate(295.5,0)" style="opacity: 1;"><line y2="6" x2="0"></line><text dy=".71em" y="9" x="0" style="text-anchor: middle;">Nov</text></g><g class="tick" transform="translate(323.5,0)" style="opacity: 1;"><line y2="6" x2="0"></line><text dy=".71em" y="9" x="0" style="text-anchor: middle;">Des</text></g><path class="domain" d="M0,6V0H340V6"></path></g><g class="y axis"><g class="tick" transform="translate(0,340)" style="opacity: 1;"><line x2="-6" y2="0"></line><text dy=".32em" x="-9" y="0" style="text-anchor: end;">0</text></g><g class="tick" transform="translate(0,300)" style="opacity: 1;"><line x2="-6" y2="0"></line><text dy=".32em" x="-9" y="0" style="text-anchor: end;">2</text></g><g class="tick" transform="translate(0,260)" style="opacity: 1;"><line x2="-6" y2="0"></line><text dy=".32em" x="-9" y="0" style="text-anchor: end;">4</text></g><g class="tick" transform="translate(0,219.99999999999997)" style="opacity: 1;"><line x2="-6" y2="0"></line><text dy=".32em" x="-9" y="0" style="text-anchor: end;">6</text></g><g class="tick" transform="translate(0,180)" style="opacity: 1;"><line x2="-6" y2="0"></line><text dy=".32em" x="-9" y="0" style="text-anchor: end;">8</text></g><g class="tick" transform="translate(0,140)" style="opacity: 1;"><line x2="-6" y2="0"></line><text dy=".32em" x="-9" y="0" style="text-anchor: end;">10</text></g><g class="tick" transform="translate(0,99.99999999999999)" style="opacity: 1;"><line x2="-6" y2="0"></line><text dy=".32em" x="-9" y="0" style="text-anchor: end;">12</text></g><g class="tick" transform="translate(0,60.000000000000014)" style="opacity: 1;"><line x2="-6" y2="0"></line><text dy=".32em" x="-9" y="0" style="text-anchor: end;">14</text></g><g class="tick" transform="translate(0,20.000000000000004)" style="opacity: 1;"><line x2="-6" y2="0"></line><text dy=".32em" x="-9" y="0" style="text-anchor: end;">16</text></g><path class="domain" d="M-6,0H0V340H-6"></path><text transform="rotate(-90)" y="6" dy=".71em" style="text-anchor: end;">WaterDepth (ft)</text></g><rect class="bar" x="3" width="25" y="140" height="200"></rect><rect class="bar" x="31" width="25" y="140" height="200"></rect><rect class="bar" x="59" width="25" y="119.99999999999999" height="220"></rect><rect class="bar" x="87" width="25" y="99.99999999999999" height="240"></rect><rect class="bar" x="115" width="25" y="40.00000000000001" height="300"></rect><rect class="bar" x="143" width="25" y="20.000000000000004" height="320"></rect><rect class="bar" x="171" width="25" y="20.000000000000004" height="320"></rect><rect class="bar" x="199" width="25" y="0" height="340"></rect><rect class="bar" x="227" width="25" y="40.00000000000001" height="300"></rect><rect class="bar" x="255" width="25" y="119.99999999999999" height="220"></rect><rect class="bar" x="283" width="25" y="140" height="200"></rect><rect class="bar" x="311" width="25" y="180" height="160"></rect></g></svg>