<?xml version="1.0" standalone="no"?><!-- Generator: Gravit.io --><svg xmlns="http://www.w3.org/2000/svg" xmlns:xlink="http://www.w3.org/1999/xlink" style="isolation:isolate" viewBox="0 0 400 300" width="400" height="300"><defs><clipPath id="_clipPath_8F3QjREnXS1Pw00MgydQDNCfDyZe8gBX"><rect width="400" height="300"/></clipPath></defs><g clip-path="url(#_clipPath_8F3QjREnXS1Pw00MgydQDNCfDyZe8gBX)"><clipPath id="_clipPath_whvAUTkbagv8WxTGBiGNCav2a0qi75pz"><rect x="0" y="0" width="400" height="300" transform="matrix(1,0,0,1,0,0)" fill="rgb(255,255,255)"/></clipPath><g clip-path="url(#_clipPath_whvAUTkbagv8WxTGBiGNCav2a0qi75pz)"><g id="Group"><g opacity="0"><rect x="0" y="0" width="400" height="300" transform="matrix(1,0,0,1,0,0)" fill="rgb(248,248,248)"/></g><g id="Group"><g transform="matrix(1,0,0,1,12.5,176.683)"><text transform="matrix(1,0,0,1,0,19.36)" style="font-family:&quot;Magra&quot;;font-weight:400;font-size:20px;font-style:normal;fill:#DC4405;stroke:none;">200</text></g></g><g id="Group"><g transform="matrix(1,0,0,1,81.807,264.85)"><text transform="matrix(1,0,0,1,0,19.36)" style="font-family:&quot;Magra&quot;;font-weight:400;font-size:20px;font-style:normal;fill:#DC4405;stroke:none;">10</text></g></g><g id="Group"><g transform="matrix(1,0,0,1,139.346,264.85)"><text transform="matrix(1,0,0,1,0,19.36)" style="font-family:&quot;Magra&quot;;font-weight:400;font-size:20px;font-style:normal;fill:#DC4405;stroke:none;">20</text></g></g><g id="Group"><g transform="matrix(1,0,0,1,197.884,264.85)"><text transform="matrix(1,0,0,1,0,19.36)" style="font-family:&quot;Magra&quot;;font-weight:400;font-size:20px;font-style:normal;fill:#DC4405;stroke:none;">30</text></g></g><g id="Group"><g transform="matrix(1,0,0,1,256.422,264.85)"><text transform="matrix(1,0,0,1,0,19.36)" style="font-family:&quot;Magra&quot;;font-weight:400;font-size:20px;font-style:normal;fill:#DC4405;stroke:none;">40</text></g></g><g id="Group"><g transform="matrix(1,0,0,1,316.96,264.85)"><text transform="matrix(1,0,0,1,0,19.36)" style="font-family:&quot;Magra&quot;;font-weight:400;font-size:20px;font-style:normal;fill:#DC4405;stroke:none;">50</text></g></g><rect x="68.5" y="182.154" width="23" height="52.725" transform="matrix(1,0,0,1,0,0)" fill="rgb(244,186,56)" vector-effect="non-scaling-stroke" stroke-width="1" stroke="rgb(220,68,5)" stroke-opacity="50" stroke-linejoin="round" stroke-linecap="butt" stroke-miterlimit="1.414"/><rect x="93.807" y="174.154" width="23" height="60.725" transform="matrix(1,0,0,1,0,0)" fill="rgb(244,186,56)" vector-effect="non-scaling-stroke" stroke-width="1" stroke="rgb(220,68,5)" stroke-opacity="50" stroke-linejoin="round" stroke-linecap="butt" stroke-miterlimit="1.414"/><rect x="119.115" y="155.154" width="23" height="79.725" transform="matrix(1,0,0,1,0,0)" fill="rgb(244,186,56)" vector-effect="non-scaling-stroke" stroke-width="1" stroke="rgb(220,68,5)" stroke-opacity="50" stroke-linejoin="round" stroke-linecap="butt" stroke-miterlimit="1.414"/><rect x="144.422" y="118.154" width="23" height="116.725" transform="matrix(1,0,0,1,0,0)" fill="rgb(244,186,56)" vector-effect="non-scaling-stroke" stroke-width="1" stroke="rgb(220,68,5)" stroke-opacity="50" stroke-linejoin="round" stroke-linecap="butt" stroke-miterlimit="1.414"/><rect x="169.73" y="67.154" width="23" height="167.725" transform="matrix(1,0,0,1,0,0)" fill="rgb(244,186,56)" vector-effect="non-scaling-stroke" stroke-width="1" stroke="rgb(220,68,5)" stroke-opacity="50" stroke-linejoin="round" stroke-linecap="butt" stroke-miterlimit="1.414"/><rect x="195.037" y="55.154" width="23" height="179.725" transform="matrix(1,0,0,1,0,0)" fill="rgb(244,186,56)" vector-effect="non-scaling-stroke" stroke-width="1" stroke="rgb(220,68,5)" stroke-opacity="50" stroke-linejoin="round" stroke-linecap="butt" stroke-miterlimit="1.414"/><rect x="220.345" y="80.255" width="23" height="154.624" transform="matrix(1,0,0,1,0,0)" fill="rgb(244,186,56)" vector-effect="non-scaling-stroke" stroke-width="1" stroke="rgb(220,68,5)" stroke-opacity="50" stroke-linejoin="round" stroke-linecap="butt" stroke-miterlimit="1.414"/><rect x="245.652" y="97.255" width="23" height="137.624" transform="matrix(1,0,0,1,0,0)" fill="rgb(244,186,56)" vector-effect="non-scaling-stroke" stroke-width="1" stroke="rgb(220,68,5)" stroke-opacity="50" stroke-linejoin="round" stroke-linecap="butt" stroke-miterlimit="1.414"/><rect x="270.96" y="119.255" width="23" height="115.624" transform="matrix(1,0,0,1,0,0)" fill="rgb(244,186,56)" vector-effect="non-scaling-stroke" stroke-width="1" stroke="rgb(220,68,5)" stroke-opacity="50" stroke-linejoin="round" stroke-linecap="butt" stroke-miterlimit="1.414"/><rect x="296.267" y="156.162" width="23" height="78.717" transform="matrix(1,0,0,1,0,0)" fill="rgb(244,186,56)" vector-effect="non-scaling-stroke" stroke-width="1" stroke="rgb(220,68,5)" stroke-opacity="50" stroke-linejoin="round" stroke-linecap="butt" stroke-miterlimit="1.414"/><rect x="321.575" y="182.154" width="23" height="52.725" transform="matrix(1,0,0,1,0,0)" fill="rgb(244,186,56)" vector-effect="non-scaling-stroke" stroke-width="1" stroke="rgb(220,68,5)" stroke-opacity="50" stroke-linejoin="round" stroke-linecap="butt" stroke-miterlimit="1.414"/><path d=" M 54.5 10.85 L 54.5 250.85 L 388.5 250.85" fill="none" vector-effect="non-scaling-stroke" stroke-width="1" stroke="rgb(149,45,0)" stroke-opacity="100" stroke-linejoin="miter" stroke-linecap="square" stroke-miterlimit="3"/><g id="Group"><g transform="matrix(1,0,0,1,11.5,128.224)"><text transform="matrix(1,0,0,1,0,19.36)" style="font-family:&quot;Magra&quot;;font-weight:400;font-size:20px;font-style:normal;fill:#DC4405;stroke:none;">400</text></g></g><g id="Group"><g transform="matrix(1,0,0,1,11.5,31.308)"><text transform="matrix(1,0,0,1,0,19.36)" style="font-family:&quot;Magra&quot;;font-weight:400;font-size:20px;font-style:normal;fill:#DC4405;stroke:none;">800</text></g></g><g id="Group"><g transform="matrix(1,0,0,1,11.5,79.766)"><text transform="matrix(1,0,0,1,0,19.36)" style="font-family:&quot;Magra&quot;;font-weight:400;font-size:20px;font-style:normal;fill:#DC4405;stroke:none;">600</text></g></g><line x1="62" y1="45.85" x2="49" y2="45.85" vector-effect="non-scaling-stroke" stroke-width="1.01" stroke="rgb(149,45,0)" stroke-opacity="100" stroke-linejoin="miter" stroke-linecap="square" stroke-miterlimit="3"/><line x1="61.5" y1="94.517" x2="48.5" y2="94.517" vector-effect="non-scaling-stroke" stroke-width="1.01" stroke="rgb(149,45,0)" stroke-opacity="100" stroke-linejoin="miter" stroke-linecap="square" stroke-miterlimit="3"/><line x1="61.5" y1="143.183" x2="48.5" y2="143.183" vector-effect="non-scaling-stroke" stroke-width="1.01" stroke="rgb(149,45,0)" stroke-opacity="100" stroke-linejoin="miter" stroke-linecap="square" stroke-miterlimit="3"/><line x1="61.5" y1="191.85" x2="48.5" y2="191.85" vector-effect="non-scaling-stroke" stroke-width="1.01" stroke="rgb(149,45,0)" stroke-opacity="100" stroke-linejoin="miter" stroke-linecap="square" stroke-miterlimit="3"/><line x1="91.5" y1="259.85" x2="91.5" y2="245.85" vector-effect="non-scaling-stroke" stroke-width="1" stroke="rgb(149,45,0)" stroke-opacity="100" stroke-linejoin="miter" stroke-linecap="square" stroke-miterlimit="3"/><line x1="150.846" y1="259.85" x2="150.846" y2="245.85" vector-effect="non-scaling-stroke" stroke-width="1" stroke="rgb(149,45,0)" stroke-opacity="100" stroke-linejoin="miter" stroke-linecap="square" stroke-miterlimit="3"/><line x1="206.537" y1="259.85" x2="206.537" y2="245.85" vector-effect="non-scaling-stroke" stroke-width="1" stroke="rgb(149,45,0)" stroke-opacity="100" stroke-linejoin="miter" stroke-linecap="square" stroke-miterlimit="3"/><line x1="264.5" y1="259.85" x2="264.5" y2="245.85" vector-effect="non-scaling-stroke" stroke-width="1" stroke="rgb(149,45,0)" stroke-opacity="100" stroke-linejoin="miter" stroke-linecap="square" stroke-miterlimit="3"/><line x1="328.96" y1="259.85" x2="328.96" y2="245.85" vector-effect="non-scaling-stroke" stroke-width="1" stroke="rgb(149,45,0)" stroke-opacity="100" stroke-linejoin="miter" stroke-linecap="square" stroke-miterlimit="3"/></g></g></g></svg>