<?xml version="1.0" standalone="no"?><!-- Generator: Gravit.io --><svg xmlns="http://www.w3.org/2000/svg" xmlns:xlink="http://www.w3.org/1999/xlink" style="isolation:isolate" viewBox="0 0 400 400" width="400" height="400"><defs><clipPath id="_clipPath_DNxYuYomniqB9J234Ib9RleswVpbTCmT"><rect width="400" height="400"/></clipPath></defs><g clip-path="url(#_clipPath_DNxYuYomniqB9J234Ib9RleswVpbTCmT)"><g id="ts"><g id="Group"><path d=" M 56.825 347.365 L 56.825 344.487 L 360 344.487 L 360 347.365" fill="none" vector-effect="non-scaling-stroke" stroke-width="0.533" stroke="rgb(0,0,0)" stroke-linejoin="miter" stroke-linecap="butt" stroke-miterlimit="4"/><g id="Group"><line x1="83.515" y1="344.226" x2="83.515" y2="347.365" vector-effect="non-scaling-stroke" stroke-width="0.533" stroke="rgb(0,0,0)" stroke-linejoin="miter" stroke-linecap="butt" stroke-miterlimit="4"/><g transform="matrix(0.453,0,0,0.523,78.687,346.437)"><text transform="matrix(1,0,0,1,0,10.688)" style="font-family:&quot;Open Sans&quot;;font-weight:400;font-size:10px;font-style:normal;fill:#000000;stroke:none;">2008</text></g></g><g id="Group"><line x1="111.346" y1="344.226" x2="111.346" y2="347.365" vector-effect="non-scaling-stroke" stroke-width="0.533" stroke="rgb(0,0,0)" stroke-linejoin="miter" stroke-linecap="butt" stroke-miterlimit="4"/><g transform="matrix(0.453,0,0,0.523,105.344,346.437)"><text transform="matrix(1,0,0,1,0,10.688)" style="font-family:&quot;Open Sans&quot;;font-weight:400;font-size:10px;font-style:normal;fill:#000000;stroke:none;">2009</text></g></g><g id="Group"><line x1="139.101" y1="344.226" x2="139.101" y2="347.365" vector-effect="non-scaling-stroke" stroke-width="0.533" stroke="rgb(0,0,0)" stroke-linejoin="miter" stroke-linecap="butt" stroke-miterlimit="4"/><g transform="matrix(0.453,0,0,0.523,134.344,346.437)"><text transform="matrix(1,0,0,1,0,10.688)" style="font-family:&quot;Open Sans&quot;;font-weight:400;font-size:10px;font-style:normal;fill:#000000;stroke:none;">2010</text></g></g><g id="Group"><line x1="166.856" y1="344.226" x2="166.856" y2="347.365" vector-effect="non-scaling-stroke" stroke-width="0.533" stroke="rgb(0,0,0)" stroke-linejoin="miter" stroke-linecap="butt" stroke-miterlimit="4"/><g transform="matrix(0.453,0,0,0.523,161,346.437)"><text transform="matrix(1,0,0,1,0,10.688)" style="font-family:&quot;Open Sans&quot;;font-weight:400;font-size:10px;font-style:normal;fill:#000000;stroke:none;">2011</text></g></g><g id="Group"><line x1="194.611" y1="344.226" x2="194.611" y2="347.365" vector-effect="non-scaling-stroke" stroke-width="0.533" stroke="rgb(0,0,0)" stroke-linejoin="miter" stroke-linecap="butt" stroke-miterlimit="4"/><g transform="matrix(0.453,0,0,0.523,189,346)"><text transform="matrix(1,0,0,1,0,10.688)" style="font-family:&quot;Open Sans&quot;;font-weight:400;font-size:10px;font-style:normal;fill:#000000;stroke:none;">2012</text></g></g><g id="Group"><line x1="222.442" y1="344.226" x2="222.442" y2="347.365" vector-effect="non-scaling-stroke" stroke-width="0.533" stroke="rgb(0,0,0)" stroke-linejoin="miter" stroke-linecap="butt" stroke-miterlimit="4"/><g transform="matrix(0.453,0,0,0.523,217.267,346.342)"><text transform="matrix(1,0,0,1,0,10.688)" style="font-family:&quot;Open Sans&quot;;font-weight:400;font-size:10px;font-style:normal;fill:#000000;stroke:none;">2013</text></g></g><g id="Group"><line x1="250.197" y1="344.226" x2="250.197" y2="347.365" vector-effect="non-scaling-stroke" stroke-width="0.533" stroke="rgb(0,0,0)" stroke-linejoin="miter" stroke-linecap="butt" stroke-miterlimit="4"/><g transform="matrix(0.453,0,0,0.523,245.022,346.342)"><text transform="matrix(1,0,0,1,0,10.688)" style="font-family:&quot;Open Sans&quot;;font-weight:400;font-size:10px;font-style:normal;fill:#000000;stroke:none;">2014</text></g></g><g id="Group"><line x1="277.952" y1="344.226" x2="277.952" y2="347.365" vector-effect="non-scaling-stroke" stroke-width="0.533" stroke="rgb(0,0,0)" stroke-linejoin="miter" stroke-linecap="butt" stroke-miterlimit="4"/><g transform="matrix(0.453,0,0,0.523,272.777,346.342)"><text transform="matrix(1,0,0,1,0,10.688)" style="font-family:&quot;Open Sans&quot;;font-weight:400;font-size:10px;font-style:normal;fill:#000000;stroke:none;">2015</text></g></g><g id="Group"><line x1="305.707" y1="344.226" x2="305.707" y2="347.365" vector-effect="non-scaling-stroke" stroke-width="0.533" stroke="rgb(0,0,0)" stroke-linejoin="miter" stroke-linecap="butt" stroke-miterlimit="4"/><g transform="matrix(0.453,0,0,0.523,300.532,346.342)"><text transform="matrix(1,0,0,1,0,10.688)" style="font-family:&quot;Open Sans&quot;;font-weight:400;font-size:10px;font-style:normal;fill:#000000;stroke:none;">2016</text></g></g><g id="Group"><line x1="333.538" y1="344.226" x2="333.538" y2="347.365" vector-effect="non-scaling-stroke" stroke-width="0.533" stroke="rgb(0,0,0)" stroke-linejoin="miter" stroke-linecap="butt" stroke-miterlimit="4"/><g transform="matrix(0.453,0,0,0.523,328.363,346.342)"><text transform="matrix(1,0,0,1,0,10.688)" style="font-family:&quot;Open Sans&quot;;font-weight:400;font-size:10px;font-style:normal;fill:#000000;stroke:none;">2017</text></g></g></g><g id="Group"><path d=" M 54.133 345.195 L 57.075 345.195 L 57.075 40.423 L 54.133 40.423" fill="none" vector-effect="non-scaling-stroke" stroke-width="0.533" stroke="rgb(0,0,0)" stroke-linejoin="miter" stroke-linecap="butt" stroke-miterlimit="4"/><g id="Group"><line x1="56.848" y1="332.046" x2="54.133" y2="332.046" vector-effect="non-scaling-stroke" stroke-width="0.533" stroke="rgb(0,0,0)" stroke-linejoin="miter" stroke-linecap="butt" stroke-miterlimit="4"/><g transform="matrix(0.453,0,0,0.616,41.102,325.626)"><text transform="matrix(1,0,0,1,0,16.033)" style="font-family:&quot;Open Sans&quot;;font-weight:400;font-size:15px;font-style:normal;fill:#000000;stroke:none;">-0.1</text></g></g><g id="Group"><line x1="56.848" y1="304.069" x2="54.133" y2="304.069" vector-effect="non-scaling-stroke" stroke-width="0.533" stroke="rgb(0,0,0)" stroke-linejoin="miter" stroke-linecap="butt" stroke-miterlimit="4"/><g transform="matrix(0.453,0,0,0.616,43.106,297.606)"><text transform="matrix(1,0,0,1,0,16.033)" style="font-family:&quot;Open Sans&quot;;font-weight:400;font-size:15px;font-style:normal;fill:#000000;stroke:none;">0.0</text></g></g><g id="Group"><line x1="56.848" y1="276.093" x2="54.133" y2="276.093" vector-effect="non-scaling-stroke" stroke-width="0.533" stroke="rgb(0,0,0)" stroke-linejoin="miter" stroke-linecap="butt" stroke-miterlimit="4"/><g transform="matrix(0.453,0,0,0.616,43.106,269.86)"><text transform="matrix(1,0,0,1,0,16.033)" style="font-family:&quot;Open Sans&quot;;font-weight:400;font-size:15px;font-style:normal;fill:#000000;stroke:none;">0.1</text></g></g><g id="Group"><line x1="56.848" y1="248.116" x2="54.133" y2="248.116" vector-effect="non-scaling-stroke" stroke-width="0.533" stroke="rgb(0,0,0)" stroke-linejoin="miter" stroke-linecap="butt" stroke-miterlimit="4"/><g transform="matrix(0.453,0,0,0.616,43.106,241.84)"><text transform="matrix(1,0,0,1,0,16.033)" style="font-family:&quot;Open Sans&quot;;font-weight:400;font-size:15px;font-style:normal;fill:#000000;stroke:none;">0.2</text></g></g><g id="Group"><line x1="56.848" y1="220.14" x2="54.133" y2="220.14" vector-effect="non-scaling-stroke" stroke-width="0.533" stroke="rgb(0,0,0)" stroke-linejoin="miter" stroke-linecap="butt" stroke-miterlimit="4"/><g transform="matrix(0.453,0,0,0.616,43.106,214.094)"><text transform="matrix(1,0,0,1,0,16.033)" style="font-family:&quot;Open Sans&quot;;font-weight:400;font-size:15px;font-style:normal;fill:#000000;stroke:none;">0.3</text></g></g><g id="Group"><line x1="56.848" y1="192.164" x2="54.133" y2="192.164" vector-effect="non-scaling-stroke" stroke-width="0.533" stroke="rgb(0,0,0)" stroke-linejoin="miter" stroke-linecap="butt" stroke-miterlimit="4"/><g transform="matrix(0.453,0,0,0.616,43.106,185.8)"><text transform="matrix(1,0,0,1,0,16.033)" style="font-family:&quot;Open Sans&quot;;font-weight:400;font-size:15px;font-style:normal;fill:#000000;stroke:none;">0.4</text></g></g><g id="Group"><line x1="56.848" y1="164.187" x2="54.133" y2="164.187" vector-effect="non-scaling-stroke" stroke-width="0.533" stroke="rgb(0,0,0)" stroke-linejoin="miter" stroke-linecap="butt" stroke-miterlimit="4"/><g transform="matrix(0.453,0,0,0.616,43.106,158.329)"><text transform="matrix(1,0,0,1,0,16.033)" style="font-family:&quot;Open Sans&quot;;font-weight:400;font-size:15px;font-style:normal;fill:#000000;stroke:none;">0.5</text></g></g><g id="Group"><line x1="56.848" y1="136.211" x2="54.133" y2="136.211" vector-effect="non-scaling-stroke" stroke-width="0.533" stroke="rgb(0,0,0)" stroke-linejoin="miter" stroke-linecap="butt" stroke-miterlimit="4"/><g transform="matrix(0.453,0,0,0.616,43.381,130.035)"><text transform="matrix(1,0,0,1,0,16.033)" style="font-family:&quot;Open Sans&quot;;font-weight:400;font-size:15px;font-style:normal;fill:#000000;stroke:none;">0.6</text></g></g><g id="Group"><line x1="56.848" y1="108.234" x2="54.133" y2="108.234" vector-effect="non-scaling-stroke" stroke-width="0.533" stroke="rgb(0,0,0)" stroke-linejoin="miter" stroke-linecap="butt" stroke-miterlimit="4"/><g transform="matrix(0.453,0,0,0.616,43.106,101.192)"><text transform="matrix(1,0,0,1,0,16.033)" style="font-family:&quot;Open Sans&quot;;font-weight:400;font-size:15px;font-style:normal;fill:#000000;stroke:none;">0.7</text></g></g><g id="Group"><line x1="56.848" y1="80.258" x2="54.133" y2="80.258" vector-effect="non-scaling-stroke" stroke-width="0.533" stroke="rgb(0,0,0)" stroke-linejoin="miter" stroke-linecap="butt" stroke-miterlimit="4"/><g transform="matrix(0.453,0,0,0.616,43.106,73.72)"><text transform="matrix(1,0,0,1,0,16.033)" style="font-family:&quot;Open Sans&quot;;font-weight:400;font-size:15px;font-style:normal;fill:#000000;stroke:none;">0.8</text></g></g><g id="Group"><line x1="56.848" y1="52.281" x2="54.133" y2="52.281" vector-effect="non-scaling-stroke" stroke-width="0.533" stroke="rgb(0,0,0)" stroke-linejoin="miter" stroke-linecap="butt" stroke-miterlimit="4"/><g transform="matrix(0.453,0,0,0.616,43.655,46.249)"><text transform="matrix(1,0,0,1,0,16.033)" style="font-family:&quot;Open Sans&quot;;font-weight:400;font-size:15px;font-style:normal;fill:#000000;stroke:none;">0.9</text></g></g></g><g transform="matrix(0,-0.497,0.453,0,28.903,262.863)"><text transform="matrix(1,0,0,1,0,19.239)" style="font-family:&quot;Open Sans&quot;;font-weight:800;font-size:18px;font-style:italic;fill:#000000;stroke:none;">Daily Average SIF (W/m^2/sr/µm)</text></g><g transform="matrix(0.449,0,0,0.432,199.589,355.911)"><text transform="matrix(1,0,0,1,0,21.377)" style="font-family:&quot;Open Sans&quot;;font-weight:800;font-size:20px;font-style:italic;fill:#000000;stroke:none;">Date</text></g><path d=" M 56.598 333.193 L 56.991 325.614 C 57.384 318.035 58.17 302.877 58.917 290.782 C 59.664 278.687 60.373 269.655 61.12 255.812 C 61.867 241.968 62.653 223.313 63.426 205.671 C 64.199 188.029 64.96 171.401 65.733 158.938 C 66.506 146.474 67.292 138.174 68.065 127.214 C 68.838 116.253 69.598 102.631 70.371 101.196 C 71.144 99.761 71.93 110.513 72.716 116.132 C 73.502 121.752 74.287 122.239 75.06 140.679 C 75.834 159.119 76.594 195.511 77.368 218.696 C 78.141 241.881 78.928 251.859 79.702 266.723 C 80.475 281.587 81.236 301.337 82.009 304.538 C 82.782 307.739 83.568 294.391 84.353 297.836 C 85.139 301.28 85.925 321.517 86.685 326.195 C 87.445 330.874 88.179 319.995 88.938 302.352 C 89.698 284.708 90.484 260.299 91.257 231.98 C 92.03 203.662 92.791 171.434 93.564 145.018 C 94.337 118.602 95.123 97.998 95.896 80.96 C 96.669 63.923 97.429 50.452 98.202 59.452 C 98.975 68.452 99.761 99.922 100.547 121.143 C 101.333 142.363 102.118 153.334 102.891 172.233 C 103.665 191.133 104.425 217.961 105.199 238.047 C 105.972 258.133 106.759 271.478 107.533 277.634 C 108.306 283.79 109.067 282.758 109.84 280.395 C 110.613 278.031 111.399 274.334 112.184 275.312 C 112.97 276.289 113.756 281.939 114.503 282.94 C 115.25 283.94 115.959 280.29 116.706 273.407 C 117.453 266.524 118.239 256.409 119.012 229.073 C 119.785 201.737 120.546 157.182 121.319 130.063 C 122.092 102.943 122.878 93.26 123.651 88.025 C 124.424 82.789 125.184 82 125.957 77.6 C 126.73 73.2 127.516 65.189 128.302 82.787 C 129.088 100.386 129.873 143.593 130.646 177.051 C 131.42 210.51 132.18 234.219 132.954 248.023 C 133.727 261.827 134.514 265.726 135.288 270.661 C 136.061 275.595 136.822 281.566 137.595 285.487 C 138.368 289.408 139.154 291.278 140.294 284.173 C 141.434 277.067 142.928 260.986 144.068 243.17 C 145.208 225.355 145.994 205.805 146.767 186.583 C 147.54 167.36 148.301 148.465 149.074 136.933 C 149.847 125.4 150.633 121.232 151.406 109.59 C 152.179 97.948 152.939 78.833 153.712 81.829 C 154.485 84.825 155.271 109.933 156.057 129.685 C 156.843 149.438 157.628 163.835 158.401 178.955 C 159.174 194.074 159.935 209.916 160.708 226.841 C 161.482 243.766 162.269 261.775 163.043 277.758 C 163.816 293.741 164.577 307.699 165.35 316.586 C 166.123 325.474 166.908 329.292 167.694 329.893 C 168.48 330.494 169.266 327.878 170.013 320.508 C 170.76 313.139 171.469 301.016 172.216 275.49 C 172.963 249.965 173.749 211.038 174.522 185.269 C 175.295 159.501 176.056 146.89 176.829 130.341 C 177.602 113.791 178.387 93.302 179.161 77.559 C 179.934 61.816 180.694 50.819 181.467 52.618 C 182.24 54.416 183.026 69.01 183.812 94.235 C 184.598 119.461 185.383 155.318 186.156 180.853 C 186.929 206.388 187.69 221.6 188.463 239.057 C 189.237 256.513 190.024 276.214 190.797 284.661 C 191.571 293.107 192.332 290.3 193.105 295.036 C 193.878 299.771 194.663 312.05 195.449 312.252 C 196.235 312.454 197.021 300.579 197.781 293.877 C 198.54 287.174 199.274 285.644 200.034 266.196 C 200.794 246.748 201.58 209.381 202.353 181.238 C 203.126 153.095 203.887 134.176 204.66 128.522 C 205.433 122.869 206.218 130.481 206.992 137.941 C 207.765 145.402 208.525 152.711 209.298 162.422 C 210.071 172.134 210.857 184.248 211.643 188.836 C 212.429 193.424 213.214 190.485 213.987 201.633 C 214.76 212.781 215.521 238.017 216.294 253.803 C 217.068 269.589 217.855 275.926 218.628 282.408 C 219.402 288.89 220.163 295.517 220.936 298.157 C 221.709 300.797 222.494 299.451 223.28 297.954 C 224.066 296.456 224.852 294.807 225.599 286.811 C 226.346 278.816 227.055 264.473 227.802 255.604 C 228.549 246.735 229.335 243.34 230.108 220.437 C 230.881 197.534 231.642 155.123 232.415 134.368 C 233.188 113.612 233.973 114.512 234.747 115.343 C 235.52 116.175 236.28 116.938 237.053 118.341 C 237.826 119.744 238.612 121.787 239.398 131.388 C 240.183 140.988 240.969 158.146 241.742 175.069 C 242.515 191.993 243.276 208.682 244.049 223.613 C 244.823 238.544 245.61 251.718 246.383 261.088 C 247.157 270.459 247.917 276.028 248.691 281.266 C 249.464 286.504 250.249 291.412 251.035 293.21 C 251.821 295.008 252.607 293.695 253.354 290.378 C 254.101 287.06 254.81 281.738 255.557 274.041 C 256.304 266.344 257.09 256.272 257.863 239.251 C 258.636 222.229 259.396 198.257 260.17 166.805 C 260.943 135.354 261.728 96.423 262.501 74.923 C 263.275 53.423 264.035 49.355 264.808 69.74 C 265.581 90.126 266.367 134.966 267.153 162.73 C 267.938 190.495 268.724 201.183 269.497 210.292 C 270.27 219.401 271.031 226.929 271.804 237.367 C 272.578 247.805 273.365 261.153 274.138 271.457 C 274.912 281.76 275.672 289.021 276.446 290.04 C 277.219 291.06 278.004 285.838 278.79 280.578 C 279.576 275.318 280.362 270.021 281.109 270.399 C 281.856 270.777 282.565 276.829 283.312 272.11 C 284.059 267.391 284.845 251.899 285.618 221.839 C 286.391 191.778 287.151 147.148 287.925 129.081 C 288.698 111.014 289.483 119.511 290.256 124.065 C 291.03 128.62 291.79 129.233 292.563 128.844 C 293.336 128.455 294.122 127.064 294.908 135.431 C 295.693 143.798 296.479 161.923 297.252 179.039 C 298.025 196.155 298.786 212.262 299.559 227.855 C 300.333 243.447 301.12 258.525 301.893 266.318 C 302.667 274.112 303.427 274.622 304.2 277.659 C 304.974 280.696 305.759 286.259 306.545 284.435 C 307.331 282.612 308.117 273.402 308.876 269.917 C 309.636 266.432 310.37 268.672 311.13 269.194 C 311.89 269.716 312.676 268.519 313.449 249.531 C 314.222 230.544 314.982 193.765 315.756 173.56 C 316.529 153.354 317.314 149.723 318.087 139.901 C 318.861 130.08 319.621 114.068 320.394 111.807 C 321.167 109.547 321.953 121.037 322.739 135.113 C 323.524 149.188 324.31 165.849 325.083 183.193 C 325.856 200.536 326.617 218.563 327.39 232.202 C 328.164 245.842 328.951 255.094 329.724 263.872 C 330.498 272.651 331.258 280.956 332.031 290.022 C 332.805 299.087 333.59 308.913 334.376 309.154 C 335.162 309.395 335.948 300.05 336.695 291.073 C 337.442 282.095 338.151 273.485 338.898 261.603 C 339.645 249.722 340.431 234.569 341.204 209.453 C 341.977 184.337 342.737 149.257 343.51 131.042 C 344.284 112.828 345.069 111.479 345.842 110.062 C 346.615 108.644 347.376 107.157 348.149 109.012 C 348.922 110.867 349.708 116.063 350.494 131.092 C 351.279 146.121 352.065 170.982 352.838 192.707 C 353.611 214.431 354.372 233.02 355.145 244.104 C 355.919 255.189 356.706 258.77 357.479 261.271 C 358.253 263.772 359.013 265.193 359.394 265.904 L 359.774 266.615" fill="none" vector-effect="non-scaling-stroke" stroke-width="0.533" stroke="rgb(243,187,59)" stroke-linejoin="miter" stroke-linecap="butt" stroke-miterlimit="4"/><path d=" M 56.598 221.699 L 56.991 235.602 C 57.384 249.506 58.17 277.313 58.917 288.348 C 59.664 299.383 60.373 293.645 61.12 276.993 C 61.867 260.341 62.653 232.776 63.426 210.109 C 64.199 187.443 64.96 169.675 65.733 157.329 C 66.506 144.984 67.292 138.06 68.065 132.814 C 68.838 127.569 69.598 124.003 70.371 126.973 C 71.144 129.944 71.93 139.451 72.716 158.627 C 73.502 177.803 74.287 206.648 75.06 226.229 C 75.834 245.81 76.594 256.127 77.368 266.266 C 78.141 276.405 78.928 286.366 79.702 284.862 C 80.475 283.358 81.236 270.389 82.009 264.533 C 82.782 258.677 83.568 259.934 84.353 269.361 C 85.139 278.788 85.925 296.384 86.685 299.018 C 87.445 301.653 88.179 289.327 88.938 278.088 C 89.698 266.85 90.484 256.699 91.257 238.748 C 92.03 220.796 92.791 195.043 93.564 167.013 C 94.337 138.983 95.123 108.676 95.896 93.859 C 96.669 79.042 97.429 79.716 98.202 87.237 C 98.975 94.757 99.761 109.124 100.547 131.745 C 101.333 154.367 102.118 185.242 102.891 204.245 C 103.665 223.249 104.425 230.38 105.199 242.308 C 105.972 254.237 106.759 270.963 107.533 279.85 C 108.306 288.736 109.067 289.783 109.84 292.992 C 110.613 296.201 111.399 301.573 112.184 298.438 C 112.97 295.303 113.756 283.662 114.503 276.821 C 115.25 269.98 115.959 267.94 116.706 266.914 C 117.453 265.889 118.239 265.877 119.012 241.829 C 119.785 217.781 120.546 169.696 121.319 145.473 C 122.092 121.249 122.878 120.888 123.651 113.753 C 124.424 106.617 125.184 92.707 125.957 92.25 C 126.73 91.792 127.516 104.787 128.302 125.859 C 129.088 146.932 129.873 176.081 130.646 201.844 C 131.42 227.608 132.18 249.984 132.954 263.9 C 133.727 277.816 134.514 283.271 135.288 286.401 C 136.061 289.531 136.822 290.336 137.595 294.472 C 138.368 298.609 139.154 306.078 139.939 306.339 C 140.725 306.6 141.511 299.655 142.258 294.753 C 143.005 289.851 143.714 286.994 144.461 273.042 C 145.208 259.09 145.994 234.043 146.767 213.815 C 147.54 193.587 148.301 178.178 149.074 168.527 C 149.847 158.876 150.633 154.982 151.406 139.951 C 152.179 124.921 152.939 98.753 153.712 103.153 C 154.485 107.552 155.271 142.518 156.057 165.143 C 156.843 187.768 157.628 198.053 158.401 211.103 C 159.174 224.153 159.935 239.968 160.708 252.253 C 161.482 264.538 162.269 273.292 163.043 279.248 C 163.816 285.205 164.577 288.365 165.35 292.075 C 166.123 295.785 166.908 300.045 167.694 300.687 C 168.48 301.33 169.266 298.355 170.013 299.504 C 170.76 300.652 171.469 305.926 172.216 293.677 C 172.963 281.429 173.749 251.659 174.522 222.791 C 175.295 193.922 176.056 165.954 176.829 151.936 C 177.602 137.917 178.387 137.846 179.161 132.213 C 179.934 126.581 180.694 115.385 181.467 111.645 C 182.24 107.904 183.026 111.619 183.812 128.85 C 184.598 146.08 185.383 176.828 186.156 204.511 C 186.929 232.195 187.69 256.814 188.463 269.232 C 189.237 281.651 190.024 281.867 190.797 286.744 C 191.571 291.62 192.332 301.156 193.105 302.188 C 193.878 303.22 194.663 295.748 195.449 288.966 C 196.235 282.183 197.021 276.09 197.781 270.971 C 198.54 265.853 199.274 261.709 200.034 244.732 C 200.794 227.756 201.58 197.946 202.353 185.312 C 203.126 172.677 203.887 177.218 204.66 174.72 C 205.433 172.223 206.218 162.686 206.992 162.093 C 207.765 161.499 208.525 169.848 209.298 176.446 C 210.071 183.043 210.857 187.889 211.643 192.505 C 212.429 197.122 213.214 201.509 213.987 215.724 C 214.76 229.939 215.521 253.982 216.294 267.012 C 217.068 280.042 217.855 282.059 218.628 285.513 C 219.402 288.967 220.163 293.858 220.936 295.26 C 221.709 296.663 222.494 294.578 223.28 292.338 C 224.066 290.098 224.852 287.704 225.599 284.523 C 226.346 281.342 227.055 277.375 227.802 271.039 C 228.549 264.703 229.335 255.998 230.108 242.712 C 230.881 229.426 231.642 211.56 232.415 192.286 C 233.188 173.012 233.973 152.332 234.747 150.566 C 235.52 148.8 236.28 165.949 237.053 174.724 C 237.826 183.498 238.612 183.898 239.398 189.177 C 240.183 194.457 240.969 204.617 241.742 213.54 C 242.515 222.463 243.276 230.149 244.049 244.63 C 244.823 259.11 245.61 280.384 246.383 290.061 C 247.157 299.739 247.917 297.82 248.691 292.385 C 249.464 286.949 250.249 277.997 251.035 278.103 C 251.821 278.209 252.607 287.374 253.354 290.969 C 254.101 294.565 254.81 292.592 255.557 289.912 C 256.304 287.232 257.09 283.845 257.863 263.765 C 258.636 243.684 259.396 206.91 260.17 181.694 C 260.943 156.478 261.728 142.821 262.501 138.544 C 263.275 134.268 264.035 139.374 264.808 139.641 C 265.581 139.909 266.367 135.339 267.153 148.978 C 267.938 162.616 268.724 194.462 269.497 215.697 C 270.27 236.932 271.031 247.555 271.804 258.736 C 272.578 269.916 273.365 281.653 274.138 290.579 C 274.912 299.505 275.672 305.62 276.446 305.427 C 277.219 305.234 278.004 298.733 278.79 296.923 C 279.576 295.113 280.362 297.994 281.109 294.395 C 281.856 290.796 282.565 280.717 283.312 267.005 C 284.059 253.292 284.845 235.946 285.618 220.109 C 286.391 204.272 287.151 189.945 287.925 183.134 C 288.698 176.324 289.483 177.031 290.256 172.424 C 291.03 167.816 291.79 157.895 292.563 155.264 C 293.336 152.632 294.122 157.29 294.908 163.397 C 295.693 169.505 296.479 177.061 297.252 193.465 C 298.025 209.869 298.786 235.121 299.559 249.551 C 300.333 263.981 301.12 267.589 301.893 272.633 C 302.667 277.676 303.427 284.154 304.2 289.058 C 304.974 293.962 305.759 297.291 306.545 296.286 C 307.331 295.28 308.117 289.94 308.876 284.527 C 309.636 279.114 310.37 273.628 311.13 267.084 C 311.89 260.54 312.676 252.937 313.449 240.183 C 314.222 227.428 314.982 209.522 315.756 193.436 C 316.529 177.35 317.314 163.084 318.087 155.209 C 318.861 147.333 319.621 145.847 320.394 145.794 C 321.167 145.74 321.953 147.118 322.739 153.855 C 323.524 160.592 324.31 172.689 325.083 191.724 C 325.856 210.759 326.617 236.732 327.39 253.211 C 328.164 269.69 328.951 276.674 329.724 282.407 C 330.498 288.14 331.258 292.621 332.031 295.635 C 332.805 298.65 333.59 300.198 334.376 303.038 C 335.162 305.877 335.948 310.008 336.695 310.132 C 337.442 310.255 338.151 306.372 338.898 295.479 C 339.645 284.587 340.431 266.685 341.204 240.806 C 341.977 214.926 342.737 181.068 343.51 166.098 C 344.284 151.129 345.069 155.048 345.842 157.74 C 346.615 160.432 347.376 161.898 348.149 159.366 C 348.922 156.835 349.708 150.307 350.494 163.738 C 351.279 177.169 352.065 210.558 352.838 227.208 C 353.611 243.858 354.372 243.768 355.145 253.808 C 355.919 263.848 356.706 284.018 357.479 292.94 C 358.253 301.862 359.013 299.537 359.394 298.374 L 359.774 297.211" fill="none" vector-effect="non-scaling-stroke" stroke-width="0.533" stroke="rgb(220,219,219)" stroke-linejoin="miter" stroke-linecap="butt" stroke-miterlimit="4"/><path d=" M 56.598 304.923 L 56.991 303.691 C 57.384 302.459 58.17 299.995 58.917 294.585 C 59.664 289.175 60.373 280.818 61.12 271.19 C 61.867 261.561 62.653 250.661 63.426 243.818 C 64.199 236.976 64.96 234.19 65.733 235.518 C 66.506 236.846 67.292 242.287 68.065 249.196 C 68.838 256.104 69.598 264.479 70.371 267.402 C 71.144 270.324 71.93 267.794 72.716 270.234 C 73.502 272.674 74.287 280.085 75.06 284.078 C 75.834 288.071 76.594 288.646 77.368 285.893 C 78.141 283.14 78.928 277.06 79.702 277.541 C 80.475 278.022 81.236 285.064 82.009 288.455 C 82.782 291.847 83.568 291.587 84.353 288.618 C 85.139 285.648 85.925 279.969 86.685 271.467 C 87.445 262.966 88.179 251.641 88.938 244.042 C 89.698 236.443 90.484 232.569 91.257 234.905 C 92.03 237.242 92.791 245.788 93.564 247.454 C 94.337 249.12 95.123 243.906 95.896 239.383 C 96.669 234.861 97.429 231.029 98.202 237.284 C 98.975 243.538 99.761 259.879 100.547 263.467 C 101.333 267.055 102.118 257.891 102.891 259.846 C 103.665 261.801 104.425 274.874 105.199 281.139 C 105.972 287.404 106.759 286.861 107.533 284.958 C 108.306 283.054 109.067 279.789 109.84 278.571 C 110.613 277.352 111.399 278.181 112.184 281.581 C 112.97 284.982 113.756 290.955 114.503 282.048 C 115.25 273.141 115.959 249.355 116.706 245.106 C 117.453 240.857 118.239 256.145 119.012 251.488 C 119.785 246.831 120.546 222.228 121.319 214.275 C 122.092 206.323 122.878 215.021 123.651 222.494 C 124.424 229.968 125.184 236.217 125.957 243.483 C 126.73 250.748 127.516 259.03 128.302 266.035 C 129.088 273.04 129.873 278.768 130.646 279.293 C 131.42 279.818 132.18 275.139 132.954 274.794 C 133.727 274.449 134.514 278.436 135.288 279.819 C 136.061 281.202 136.822 279.98 137.595 282.502 C 138.368 285.023 139.154 291.288 139.939 292.153 C 140.725 293.019 141.511 288.486 142.258 280.898 C 143.005 273.311 143.714 262.669 144.461 256.448 C 145.208 250.227 145.994 248.428 146.767 251.995 C 147.54 255.563 148.301 264.497 149.074 263.145 C 149.847 261.793 150.633 250.154 151.406 248.101 C 152.179 246.048 152.939 253.58 153.712 257.412 C 154.485 261.245 155.271 261.377 156.057 262.067 C 156.843 262.756 157.628 264.003 158.401 266.35 C 159.174 268.698 159.935 272.147 160.708 276.666 C 161.482 281.185 162.269 286.774 163.043 286.341 C 163.816 285.907 164.577 279.451 165.35 276.524 C 166.123 273.598 166.908 274.201 167.694 277.484 C 168.48 280.766 169.266 286.728 170.013 284.954 C 170.76 283.181 171.469 273.672 172.216 265.657 C 172.963 257.643 173.749 251.123 174.522 244.01 C 175.295 236.898 176.056 229.192 176.829 225.019 C 177.602 220.846 178.387 220.205 179.161 222.727 C 179.934 225.248 180.694 230.933 181.467 235.047 C 182.24 239.161 183.026 241.703 183.812 247.388 C 184.598 253.073 185.383 261.9 186.156 263.864 C 186.929 265.827 187.69 260.928 188.463 261.182 C 189.237 261.437 190.024 266.846 190.797 268.235 C 191.571 269.624 192.332 266.993 193.105 268.537 C 193.878 270.08 194.663 275.797 195.449 281.08 C 196.235 286.364 197.021 291.213 197.781 290.888 C 198.54 290.563 199.274 285.063 200.034 279.547 C 200.794 274.031 201.58 268.499 202.353 259.434 C 203.126 250.369 203.887 237.77 204.66 233.457 C 205.433 229.144 206.218 233.117 206.992 236.346 C 207.765 239.574 208.525 242.058 209.298 247.654 C 210.071 253.25 210.857 261.96 211.643 267.514 C 212.429 273.068 213.214 275.466 213.987 277.035 C 214.76 278.603 215.521 279.341 216.294 280.954 C 217.068 282.568 217.855 285.057 218.628 286.505 C 219.402 287.954 220.163 288.362 220.936 291.466 C 221.709 294.569 222.494 300.368 223.28 299.528 C 224.066 298.687 224.852 291.206 225.599 282.175 C 226.346 273.145 227.055 262.565 227.802 258.996 C 228.549 255.427 229.335 258.87 230.108 257.85 C 230.881 256.829 231.642 251.346 232.415 250.821 C 233.188 250.297 233.973 254.732 234.747 247.909 C 235.52 241.085 236.28 223.003 237.053 219.639 C 237.826 216.275 238.612 227.629 239.398 236.966 C 240.183 246.304 240.969 253.624 241.742 258.882 C 242.515 264.139 243.276 267.335 244.049 275.694 C 244.823 284.052 245.61 297.574 246.383 301.809 C 247.157 306.044 247.917 300.992 248.691 296.208 C 249.464 291.424 250.249 286.906 251.035 290.89 C 251.821 294.874 252.607 307.359 253.354 304.16 C 254.101 300.961 254.81 282.077 255.557 272.256 C 256.304 262.435 257.09 261.676 257.863 260.374 C 258.636 259.071 259.396 257.225 260.17 259.483 C 260.943 261.74 261.728 268.101 262.501 267.029 C 263.275 265.957 264.035 257.452 264.808 254.013 C 265.581 250.574 266.367 252.201 267.153 261.684 C 267.938 271.167 268.724 288.505 269.497 291.264 C 270.27 294.023 271.031 282.204 271.804 281.681 C 272.578 281.158 273.365 291.932 274.138 294.556 C 274.912 297.18 275.672 291.654 276.446 289.935 C 277.219 288.215 278.004 290.302 278.79 283.107 C 279.576 275.913 280.362 259.438 281.109 254.209 C 281.856 248.979 282.565 254.996 283.312 258.971 C 284.059 262.947 284.845 264.882 285.618 260.034 C 286.391 255.186 287.151 243.556 287.925 237.671 C 288.698 231.786 289.483 231.646 290.256 232.856 C 291.03 234.066 291.79 236.627 292.563 242.223 C 293.336 247.819 294.122 256.449 294.908 265.249 C 295.693 274.048 296.479 283.017 297.252 288.05 C 298.025 293.083 298.786 294.181 299.559 295.105 C 300.333 296.028 301.12 296.777 301.893 295.65 C 302.667 294.523 303.427 291.519 304.2 288.483 C 304.974 285.446 305.759 282.376 306.545 275.827 C 307.331 269.278 308.117 259.25 308.876 254.883 C 309.636 250.516 310.37 251.811 311.13 250.752 C 311.89 249.693 312.676 246.28 313.449 241.665 C 314.222 237.051 314.982 231.236 315.756 232.779 C 316.529 234.323 317.314 243.226 318.087 250.006 C 318.861 256.786 319.621 261.443 320.394 262.904 C 321.167 264.366 321.953 262.633 322.739 262.529 C 323.524 262.425 324.31 263.952 325.083 268.659 C 325.856 273.366 326.617 281.254 327.39 286.272 C 328.164 291.29 328.951 293.439 329.724 293.364 C 330.498 293.289 331.258 290.991 332.031 292.299 C 332.805 293.606 333.59 298.519 334.376 301.891 C 335.162 305.262 335.948 307.094 336.695 299.597 C 337.442 292.1 338.151 275.276 338.898 270.133 C 339.645 264.991 340.431 271.531 341.204 270.159 C 341.977 268.786 342.737 259.501 343.51 260.218 C 344.284 260.935 345.069 271.653 345.842 272.897 C 346.615 274.14 347.376 265.908 348.149 260.956 C 348.922 256.004 349.708 254.332 350.494 257.88 C 351.279 261.428 352.065 270.197 352.838 276.691 C 353.611 283.184 354.372 287.402 355.145 287.781 C 355.919 288.16 356.706 284.699 357.479 287.73 C 358.253 290.761 359.013 300.284 359.394 305.045 L 359.774 309.806" fill="none" vector-effect="non-scaling-stroke" stroke-width="0.533" stroke="rgb(132,174,200)" stroke-linejoin="miter" stroke-linecap="butt" stroke-miterlimit="4"/><path d=" M 56.598 292.024 L 56.991 292.67 C 57.384 293.316 58.17 294.607 58.917 295.29 C 59.664 295.974 60.373 296.048 61.12 291.82 C 61.867 287.591 62.653 279.06 63.426 278.308 C 64.199 277.555 64.96 284.582 65.733 279.778 C 66.506 274.973 67.292 258.337 68.065 250.382 C 68.838 242.427 69.598 243.152 70.371 246.885 C 71.144 250.618 71.93 257.359 72.716 260.646 C 73.502 263.933 74.287 263.767 75.06 270.143 C 75.834 276.518 76.594 289.435 77.368 295.969 C 78.141 302.504 78.928 302.656 79.702 304.285 C 80.475 305.914 81.236 309.02 82.009 311.188 C 82.782 313.355 83.568 314.584 84.353 312.756 C 85.139 310.928 85.925 306.045 86.685 303.383 C 87.445 300.721 88.179 300.28 88.938 300.541 C 89.698 300.802 90.484 301.764 91.257 301.446 C 92.03 301.128 92.791 299.53 93.564 293.397 C 94.337 287.263 95.123 276.596 95.896 265.809 C 96.669 255.023 97.429 244.118 98.202 238.963 C 98.975 233.807 99.761 234.401 100.547 240.585 C 101.333 246.768 102.118 258.541 102.891 262.649 C 103.665 266.757 104.425 263.199 105.199 267.893 C 105.972 272.587 106.759 285.531 107.533 289.555 C 108.306 293.579 109.067 288.681 109.84 295.503 C 110.613 302.324 111.399 320.864 112.184 325.403 C 112.97 329.942 113.756 320.48 114.503 310.356 C 115.25 300.233 115.959 289.448 116.706 290.046 C 117.453 290.644 118.239 302.624 119.012 300.811 C 119.785 298.998 120.546 283.392 121.319 277.188 C 122.092 270.983 122.878 274.179 123.651 276.177 C 124.424 278.175 125.184 278.975 125.957 274.007 C 126.73 269.039 127.516 258.303 128.302 259.277 C 129.088 260.25 129.873 272.933 130.646 281.251 C 131.42 289.568 132.18 293.52 132.954 296.398 C 133.727 299.276 134.514 301.081 135.288 300.696 C 136.061 300.312 136.822 297.738 137.595 299.221 C 138.368 300.704 139.154 306.244 139.939 304.505 C 140.725 302.767 141.511 293.75 142.258 292.531 C 143.005 291.311 143.714 297.89 144.461 300.796 C 145.208 303.702 145.994 302.934 146.767 297.092 C 147.54 291.249 148.301 280.331 149.074 271.461 C 149.847 262.591 150.633 255.769 151.406 253.253 C 152.179 250.738 152.939 252.53 153.712 253.898 C 154.485 255.267 155.271 256.214 156.057 258.498 C 156.843 260.782 157.628 264.404 158.401 267.936 C 159.174 271.469 159.935 274.913 160.708 277.676 C 161.482 280.44 162.269 282.524 163.043 283.415 C 163.816 284.306 164.577 284.004 165.35 285.123 C 166.123 286.242 166.908 288.781 167.694 290.26 C 168.48 291.739 169.266 292.157 170.013 295.602 C 170.76 299.046 171.469 305.518 172.216 305.114 C 172.963 304.71 173.749 297.429 174.522 293.096 C 175.295 288.762 176.056 287.374 176.829 287.429 C 177.602 287.485 178.387 288.983 179.161 289.94 C 179.934 290.898 180.694 291.314 181.467 289.479 C 182.24 287.643 183.026 283.555 183.812 279.809 C 184.598 276.062 185.383 272.658 186.156 276.875 C 186.929 281.092 187.69 292.931 188.463 298.621 C 189.237 304.312 190.024 303.854 190.797 297.468 C 191.571 291.083 192.332 278.77 193.105 275.08 C 193.878 271.39 194.663 276.323 195.449 287.416 C 196.235 298.51 197.021 315.765 197.781 318.664 C 198.54 321.562 199.274 310.105 200.034 307.375 C 200.794 304.644 201.58 310.64 202.353 306.294 C 203.126 301.948 203.887 287.26 204.66 280.414 C 205.433 273.567 206.218 274.561 206.992 274.95 C 207.765 275.338 208.525 275.121 209.298 271.587 C 210.071 268.052 210.857 261.2 211.643 267.16 C 212.429 273.119 213.214 291.89 213.987 300.132 C 214.76 308.375 215.521 306.089 216.294 300.216 C 217.068 294.343 217.855 284.883 218.628 286.913 C 219.402 288.943 220.163 302.464 220.936 307.114 C 221.709 311.765 222.494 307.544 223.28 309.843 C 224.066 312.141 224.852 320.959 225.599 322.956 C 226.346 324.953 227.055 320.128 227.802 313.744 C 228.549 307.36 229.335 299.417 230.108 293.231 C 230.881 287.044 231.642 282.615 232.415 282.759 C 233.188 282.904 233.973 287.623 234.747 291.234 C 235.52 294.845 236.28 297.348 237.053 289.706 C 237.826 282.063 238.612 264.276 239.398 258.141 C 240.183 252.006 240.969 257.523 241.742 262.173 C 242.515 266.822 243.276 270.604 244.049 273.514 C 244.823 276.424 245.61 278.462 246.383 286.388 C 247.157 294.314 247.917 308.128 248.691 311.333 C 249.464 314.538 250.249 307.134 251.035 304.144 C 251.821 301.154 252.607 302.578 253.354 300.936 C 254.101 299.293 254.81 294.583 255.557 291.568 C 256.304 288.553 257.09 287.233 257.863 279.639 C 258.636 272.044 259.396 258.175 260.17 254.481 C 260.943 250.786 261.728 257.267 262.501 263.79 C 263.275 270.314 264.035 276.88 264.808 274.748 C 265.581 272.615 266.367 261.785 267.153 256.922 C 267.938 252.06 268.724 253.165 269.497 255.928 C 270.27 258.692 271.031 263.113 271.804 267.257 C 272.578 271.402 273.365 275.27 274.138 276.978 C 274.912 278.686 275.672 278.234 276.446 280.127 C 277.219 282.021 278.004 286.262 278.79 286.877 C 279.576 287.493 280.362 284.485 281.109 285.316 C 281.856 286.148 282.565 290.821 283.312 289.988 C 284.059 289.156 284.845 282.819 285.618 281.388 C 286.391 279.958 287.151 283.434 287.925 280.774 C 288.698 278.113 289.483 269.317 290.256 265.563 C 291.03 261.808 291.79 263.095 292.563 266.337 C 293.336 269.578 294.122 274.773 294.908 277.071 C 295.693 279.369 296.479 278.77 297.252 280.53 C 298.025 282.29 298.786 286.409 299.559 285.641 C 300.333 284.874 301.12 279.219 301.893 280.846 C 302.667 282.473 303.427 291.381 304.2 297.622 C 304.974 303.863 305.759 307.437 306.545 309.492 C 307.331 311.547 308.117 312.084 308.876 309.586 C 309.636 307.088 310.37 301.555 311.13 293.376 C 311.89 285.197 312.676 274.373 313.449 273.473 C 314.222 272.573 314.982 281.598 315.756 286.116 C 316.529 290.635 317.314 290.648 318.087 290.672 C 318.861 290.695 319.621 290.729 320.394 287.86 C 321.167 284.99 321.953 279.217 322.739 273.59 C 323.524 267.963 324.31 262.482 325.083 265.135 C 325.856 267.789 326.617 278.577 327.39 287.51 C 328.164 296.444 328.951 303.522 329.724 306.156 C 330.498 308.79 331.258 306.98 332.031 306.236 C 332.805 305.492 333.59 305.813 334.376 303.302 C 335.162 300.79 335.948 295.446 336.695 292.676 C 337.442 289.907 338.151 289.712 338.898 289.642 C 339.645 289.571 340.431 289.625 341.204 285.049 C 341.977 280.474 342.737 271.269 343.51 269.912 C 344.284 268.555 345.069 275.045 345.842 276.132 C 346.615 277.219 347.376 272.902 348.149 276.257 C 348.922 279.611 349.708 290.636 350.494 295.512 C 351.279 300.387 352.065 299.113 352.838 297.71 C 353.611 296.308 354.372 294.776 355.145 292.492 C 355.919 290.208 356.706 287.171 357.479 287.485 C 358.253 287.798 359.013 291.461 359.394 293.292 L 359.774 295.124" fill="none" vector-effect="non-scaling-stroke" stroke-width="0.533" stroke="rgb(220,68,4)" stroke-linejoin="miter" stroke-linecap="butt" stroke-miterlimit="4"/><path d=" M 56.598 279.176 L 56.991 275.161 C 57.384 271.146 58.17 263.117 58.917 248.855 C 59.664 234.593 60.373 214.097 61.12 197.329 C 61.867 180.56 62.653 167.519 63.426 164.408 C 64.199 161.297 64.96 168.115 65.733 174.615 C 66.506 181.115 67.292 187.297 68.065 190.709 C 68.838 194.12 69.598 194.762 70.371 202.137 C 71.144 209.512 71.93 223.621 72.716 232.768 C 73.502 241.915 74.287 246.101 75.06 248.784 C 75.834 251.468 76.594 252.65 77.368 258.287 C 78.141 263.923 78.928 274.013 79.702 275.663 C 80.475 277.313 81.236 270.523 82.009 270.926 C 82.782 271.33 83.568 278.927 84.353 275.59 C 85.139 272.252 85.925 257.981 86.685 245.856 C 87.445 233.731 88.179 223.752 88.938 216.181 C 89.698 208.61 90.484 203.448 91.257 204.28 C 92.03 205.112 92.791 211.939 93.564 215.736 C 94.337 219.532 95.123 220.299 95.896 221.032 C 96.669 221.765 97.429 222.464 98.202 222.322 C 98.975 222.18 99.761 221.195 100.547 227.4 C 101.333 233.604 102.118 246.996 102.891 252.031 C 103.665 257.066 104.425 253.743 105.199 255.023 C 105.972 256.303 106.759 262.187 107.533 266.257 C 108.306 270.328 109.067 272.585 109.84 278.161 C 110.613 283.737 111.399 292.633 112.184 287.587 C 112.97 282.541 113.756 263.555 114.503 245.426 C 115.25 227.298 115.959 210.027 116.706 198.474 C 117.453 186.921 118.239 181.084 119.012 181.035 C 119.785 180.986 120.546 186.723 121.319 195.942 C 122.092 205.16 122.878 217.86 123.651 218.679 C 124.424 219.497 125.184 208.434 125.957 207.218 C 126.73 206.001 127.516 214.632 128.302 219.217 C 129.088 223.802 129.873 224.341 130.646 233.803 C 131.42 243.266 132.18 261.651 132.954 271.045 C 133.727 280.44 134.514 280.844 135.288 278.742 C 136.061 276.64 136.822 272.033 137.595 269.858 C 138.368 267.682 139.154 267.939 139.939 265.033 C 140.725 262.128 141.511 256.06 142.258 244.396 C 143.005 232.731 143.714 215.47 144.461 203.018 C 145.208 190.566 145.994 182.925 146.767 175.522 C 147.54 168.118 148.301 160.954 149.074 163.691 C 149.847 166.427 150.633 179.065 151.406 187.138 C 152.179 195.212 152.939 198.721 153.712 203.317 C 154.485 207.913 155.271 213.596 156.057 220.442 C 156.843 227.287 157.628 235.295 158.401 242.73 C 159.174 250.166 159.935 257.029 160.708 259.108 C 161.482 261.186 162.269 258.481 163.043 258.66 C 163.816 258.839 164.577 261.903 165.35 261.729 C 166.123 261.554 166.908 258.142 167.694 256.775 C 168.48 255.409 169.266 256.088 170.013 250.507 C 170.76 244.926 171.469 233.084 172.216 219.165 C 172.963 205.246 173.749 189.25 174.522 182.372 C 175.295 175.495 176.056 177.737 176.829 177.507 C 177.602 177.277 178.387 174.574 179.161 178.491 C 179.934 182.407 180.694 192.942 181.467 201.27 C 182.24 209.598 183.026 215.719 183.812 220.728 C 184.598 225.737 185.383 229.634 186.156 233.23 C 186.929 236.827 187.69 240.124 188.463 245.607 C 189.237 251.091 190.024 258.762 190.797 268.592 C 191.571 278.423 192.332 290.414 193.105 291.085 C 193.878 291.755 194.663 281.106 195.449 276.374 C 196.235 271.642 197.021 272.828 197.781 271.533 C 198.54 270.237 199.274 266.46 200.034 251.53 C 200.794 236.599 201.58 210.515 202.353 201.268 C 203.126 192.02 203.887 199.61 204.66 206.341 C 205.433 213.073 206.218 218.947 206.992 223.043 C 207.765 227.139 208.525 229.458 209.298 226.298 C 210.071 223.138 210.857 214.499 211.643 221.567 C 212.429 228.635 213.214 251.41 213.987 258.147 C 214.76 264.885 215.521 255.585 216.294 255.136 C 217.068 254.687 217.855 263.09 218.628 266.987 C 219.402 270.884 220.163 270.277 220.936 270.724 C 221.709 271.172 222.494 272.674 223.28 269.372 C 224.066 266.069 224.852 257.96 225.599 246.494 C 226.346 235.027 227.055 220.203 227.802 212.321 C 228.549 204.438 229.335 203.499 230.108 204.653 C 230.881 205.807 231.642 209.055 232.415 202.381 C 233.188 195.707 233.973 179.111 234.747 178.667 C 235.52 178.222 236.28 193.929 237.053 211.092 C 237.826 228.255 238.612 246.875 239.398 255.32 C 240.183 263.765 240.969 262.035 241.742 263.931 C 242.515 265.827 243.276 271.35 244.049 272.498 C 244.823 273.646 245.61 270.419 246.383 273.874 C 247.157 277.329 247.917 287.466 248.691 290.407 C 249.464 293.349 250.249 289.095 251.035 282.085 C 251.821 275.075 252.607 265.309 253.354 248.958 C 254.101 232.607 254.81 209.669 255.557 196.366 C 256.304 183.063 257.09 179.393 257.863 184.797 C 258.636 190.201 259.396 204.679 260.17 209.501 C 260.943 214.323 261.728 209.489 262.501 213.114 C 263.275 216.74 264.035 228.823 264.808 237.724 C 265.581 246.625 266.367 252.343 267.153 256.348 C 267.938 260.353 268.724 262.643 269.497 264.685 C 270.27 266.726 271.031 268.518 271.804 268.955 C 272.578 269.391 273.365 268.473 274.138 269.784 C 274.912 271.095 275.672 274.635 276.446 274.658 C 277.219 274.681 278.004 271.189 278.79 262.759 C 279.576 254.329 280.362 240.963 281.109 228.533 C 281.856 216.104 282.565 204.611 283.312 202.954 C 284.059 201.296 284.845 209.475 285.618 216.175 C 286.391 222.876 287.151 228.1 287.925 226.956 C 288.698 225.812 289.483 218.3 290.256 219.701 C 291.03 221.102 291.79 231.415 292.563 236.335 C 293.336 241.255 294.122 240.782 294.908 242.186 C 295.693 243.591 296.479 246.874 297.252 256.614 C 298.025 266.355 298.786 282.552 299.559 288.537 C 300.333 294.523 301.12 290.297 301.893 289.6 C 302.667 288.903 303.427 291.735 304.2 289.849 C 304.974 287.963 305.759 281.36 306.545 273.622 C 307.331 265.884 308.117 257.011 308.876 239.908 C 309.636 222.806 310.37 197.473 311.13 190.778 C 311.89 184.083 312.676 196.026 313.449 204.049 C 314.222 212.072 314.982 216.175 315.756 218.276 C 316.529 220.376 317.314 220.473 318.087 222.826 C 318.861 225.179 319.621 229.788 320.394 231.053 C 321.167 232.317 321.953 230.239 322.739 236.033 C 323.524 241.826 324.31 255.493 325.083 261.227 C 325.856 266.96 326.617 264.762 327.39 262.325 C 328.164 259.889 328.951 257.215 329.724 256.402 C 330.498 255.588 331.258 256.637 332.031 255.483 C 332.805 254.329 333.59 250.974 334.376 247.255 C 335.162 243.536 335.948 239.454 336.695 232.347 C 337.442 225.241 338.151 215.112 338.898 203.157 C 339.645 191.202 340.431 177.423 341.204 170.987 C 341.977 164.551 342.737 165.459 343.51 174.933 C 344.284 184.407 345.069 202.447 345.842 211.102 C 346.615 219.758 347.376 219.028 348.149 221.211 C 348.922 223.393 349.708 228.488 350.494 234.828 C 351.279 241.168 352.065 248.753 352.838 254.084 C 353.611 259.415 354.372 262.491 355.145 270.818 C 355.919 279.146 356.706 292.725 357.479 295.082 C 358.253 297.44 359.013 288.574 359.394 284.142 L 359.774 279.709" fill="none" vector-effect="non-scaling-stroke" stroke-width="0.533" stroke="rgb(85,129,186)" stroke-linejoin="miter" stroke-linecap="butt" stroke-miterlimit="4"/><g id="Group"><g id="Group"><rect x="298" y="43.023" width="3.634" height="3.25" transform="matrix(1,0,0,1,0,0)" fill="rgb(243,187,59)"/><g transform="matrix(0.363,0,0,0.325,303.451,40.423)"><text transform="matrix(1,0,0,1,0,19.239)" style="font-family:&quot;Open Sans&quot;;font-weight:400;font-size:18px;font-style:normal;fill:#000000;stroke:none;">Kansas Field Station</text></g></g><g id="Group"><rect x="298" y="51.147" width="3.634" height="3.25" transform="matrix(1,0,0,1,0,0)" fill="rgb(220,219,219)"/><g transform="matrix(0.363,0,0,0.325,303.451,48.547)"><text transform="matrix(1,0,0,1,0,19.239)" style="font-family:&quot;Open Sans&quot;;font-weight:400;font-size:18px;font-style:normal;fill:#000000;stroke:none;">Konza Prairie LTER</text></g></g><g id="Group"><rect x="298" y="59.271" width="3.634" height="3.25" transform="matrix(1,0,0,1,0,0)" fill="rgb(132,174,200)"/><g transform="matrix(0.363,0,0,0.325,303.451,56.671)"><text transform="matrix(1,0,0,1,0,19.239)" style="font-family:&quot;Open Sans&quot;;font-weight:400;font-size:18px;font-style:normal;fill:#000000;stroke:none;">S. Calif. Grassland</text></g></g><g id="Group"><rect x="298" y="67.395" width="3.634" height="3.25" transform="matrix(1,0,0,1,0,0)" fill="rgb(220,68,4)"/><g transform="matrix(0.363,0,0,0.325,303.451,64.795)"><text transform="matrix(1,0,0,1,0,19.239)" style="font-family:&quot;Open Sans&quot;;font-weight:400;font-size:18px;font-style:normal;fill:#000000;stroke:none;">Sevilleta grassland</text></g></g><g id="Group"><rect x="298" y="75.519" width="3.634" height="3.25" transform="matrix(1,0,0,1,0,0)" fill="rgb(85,129,186)"/><g transform="matrix(0.363,0,0,0.325,303.451,72.919)"><text transform="matrix(1,0,0,1,0,19.239)" style="font-family:&quot;Open Sans&quot;;font-weight:400;font-size:18px;font-style:normal;fill:#000000;stroke:none;">Vaira Ranch</text></g></g></g><g id="Group"><g opacity="0"><line x1="331.266" y1="344.772" x2="331.266" y2="40" vector-effect="non-scaling-stroke" stroke-width="0.533" stroke="rgb(0,0,0)" stroke-linejoin="miter" stroke-linecap="butt" stroke-miterlimit="4"/></g><g id="Group"><g opacity="0"><path d=" M 328.099 283.99 C 328.099 280.719 329.518 278.064 331.266 278.064 C 333.014 278.064 334.434 280.719 334.434 283.99 C 334.434 287.26 333.014 289.916 331.266 289.916 C 329.518 289.916 328.099 287.26 328.099 283.99 Z " fill="none" vector-effect="non-scaling-stroke" stroke-width="0.533" stroke="rgb(243,187,59)" stroke-opacity="100" stroke-linejoin="miter" stroke-linecap="butt" stroke-miterlimit="4"/></g></g><g id="Group"><g opacity="0"><path d=" M 328.099 291.727 C 328.099 288.457 329.518 285.801 331.266 285.801 C 333.014 285.801 334.434 288.457 334.434 291.727 C 334.434 294.998 333.014 297.653 331.266 297.653 C 329.518 297.653 328.099 294.998 328.099 291.727 Z " fill="none" vector-effect="non-scaling-stroke" stroke-width="0.533" stroke="rgb(220,219,219)" stroke-opacity="100" stroke-linejoin="miter" stroke-linecap="butt" stroke-miterlimit="4"/></g></g><g id="Group"><g opacity="0"><path d=" M 328.099 292.016 C 328.099 288.745 329.518 286.09 331.266 286.09 C 333.014 286.09 334.434 288.745 334.434 292.016 C 334.434 295.287 333.014 297.942 331.266 297.942 C 329.518 297.942 328.099 295.287 328.099 292.016 Z " fill="none" vector-effect="non-scaling-stroke" stroke-width="0.533" stroke="rgb(132,174,200)" stroke-opacity="100" stroke-linejoin="miter" stroke-linecap="butt" stroke-miterlimit="4"/></g></g><g id="Group"><g opacity="0"><path d=" M 328.099 307.218 C 328.099 303.948 329.518 301.292 331.266 301.292 C 333.014 301.292 334.434 303.948 334.434 307.218 C 334.434 310.489 333.014 313.145 331.266 313.145 C 329.518 313.145 328.099 310.489 328.099 307.218 Z " fill="none" vector-effect="non-scaling-stroke" stroke-width="0.533" stroke="rgb(220,68,4)" stroke-opacity="100" stroke-linejoin="miter" stroke-linecap="butt" stroke-miterlimit="4"/></g></g><g id="Group"><g opacity="0"><path d=" M 328.099 256.064 C 328.099 252.793 329.518 250.138 331.266 250.138 C 333.014 250.138 334.434 252.793 334.434 256.064 C 334.434 259.334 333.014 261.99 331.266 261.99 C 329.518 261.99 328.099 259.334 328.099 256.064 Z " fill="none" vector-effect="non-scaling-stroke" stroke-width="0.533" stroke="rgb(85,129,186)" stroke-opacity="100" stroke-linejoin="miter" stroke-linecap="butt" stroke-miterlimit="4"/></g></g><rect x="56.598" y="40" width="303.175" height="304.772" transform="matrix(1,0,0,1,0,0)" fill="none"/></g></g></g></svg>