<svg width="850" height="500"><g transform="translate(80,60)"><g transform="translate(0,360)" class="x axis" fill="none" font-size="10" font-family="sans-serif" text-anchor="middle"><path class="domain" stroke="#000" d="M0.5,6V0.5H670.5V6"></path><g class="tick" opacity="1" transform="translate(59.48419864559819,0)"><line stroke="#000" y2="6"></line><text fill="#000" y="9" dy="0.71em">2008</text></g><g class="tick" opacity="1" transform="translate(120.98908954100827,0)"><line stroke="#000" y2="6"></line><text fill="#000" y="9" dy="0.71em">2009</text></g><g class="tick" opacity="1" transform="translate(182.3259342864309,0)"><line stroke="#000" y2="6"></line><text fill="#000" y="9" dy="0.71em">2010</text></g><g class="tick" opacity="1" transform="translate(243.66277903185352,0)"><line stroke="#000" y2="6"></line><text fill="#000" y="9" dy="0.71em">2011</text></g><g class="tick" opacity="1" transform="translate(304.99962377727616,0)"><line stroke="#000" y2="6"></line><text fill="#000" y="9" dy="0.71em">2012</text></g><g class="tick" opacity="1" transform="translate(366.50451467268624,0)"><line stroke="#000" y2="6"></line><text fill="#000" y="9" dy="0.71em">2013</text></g><g class="tick" opacity="1" transform="translate(427.8413594181088,0)"><line stroke="#000" y2="6"></line><text fill="#000" y="9" dy="0.71em">2014</text></g><g class="tick" opacity="1" transform="translate(489.17820416353146,0)"><line stroke="#000" y2="6"></line><text fill="#000" y="9" dy="0.71em">2015</text></g><g class="tick" opacity="1" transform="translate(550.5150489089541,0)"><line stroke="#000" y2="6"></line><text fill="#000" y="9" dy="0.71em">2016</text></g><g class="tick" opacity="1" transform="translate(612.0199398043642,0)"><line stroke="#000" y2="6"></line><text fill="#000" y="9" dy="0.71em">2017</text></g></g><g class="y axis" fill="none" font-size="10" font-family="sans-serif" text-anchor="end"><path class="domain" stroke="#000" d="M-6,360.5H0.5V0.5H-6"></path><g class="tick" opacity="1" transform="translate(0,344.96808184624524)"><line stroke="#000" x2="-6"></line><text fill="#000" x="-9" dy="0.32em">-0.1</text></g><g class="tick" opacity="1" transform="translate(0,311.92195029561344)"><line stroke="#000" x2="-6"></line><text fill="#000" x="-9" dy="0.32em">0.0</text></g><g class="tick" opacity="1" transform="translate(0,278.87581874498164)"><line stroke="#000" x2="-6"></line><text fill="#000" x="-9" dy="0.32em">0.1</text></g><g class="tick" opacity="1" transform="translate(0,245.82968719434984)"><line stroke="#000" x2="-6"></line><text fill="#000" x="-9" dy="0.32em">0.2</text></g><g class="tick" opacity="1" transform="translate(0,212.78355564371802)"><line stroke="#000" x2="-6"></line><text fill="#000" x="-9" dy="0.32em">0.3</text></g><g class="tick" opacity="1" transform="translate(0,179.73742409308616)"><line stroke="#000" x2="-6"></line><text fill="#000" x="-9" dy="0.32em">0.4</text></g><g class="tick" opacity="1" transform="translate(0,146.6912925424544)"><line stroke="#000" x2="-6"></line><text fill="#000" x="-9" dy="0.32em">0.5</text></g><g class="tick" opacity="1" transform="translate(0,113.64516099182259)"><line stroke="#000" x2="-6"></line><text fill="#000" x="-9" dy="0.32em">0.6</text></g><g class="tick" opacity="1" transform="translate(0,80.5990294411908)"><line stroke="#000" x2="-6"></line><text fill="#000" x="-9" dy="0.32em">0.7</text></g><g class="tick" opacity="1" transform="translate(0,47.55289789055894)"><line stroke="#000" x2="-6"></line><text fill="#000" x="-9" dy="0.32em">0.8</text></g><g class="tick" opacity="1" transform="translate(0,14.506766339927196)"><line stroke="#000" x2="-6"></line><text fill="#000" x="-9" dy="0.32em">0.9</text></g></g><text transform="rotate(-90)" y="-60" x="-180" dy="1em" class="y axis label" style="text-anchor: middle;">Daily Average SIF (W/m^2/sr/µm)</text><text transform="translate(335 ,420)" class="x axis label" style="text-anchor: middle;">Date</text><path class="line" stroke="#f3bb3b" d="M0,349.8886383308214L0.8682384416018727,340.93623222173846C1.7364768832037454,331.98382611265555,3.4729537664074908,314.0790138944897,5.124240587464816,299.79231288140164C6.775527408522141,285.5056118683137,8.341624167433045,274.83702206030347,9.99291098849037,258.484758828547C11.644197809547697,242.13249559679056,13.380674692751443,220.09655894128787,15.089143884290612,199.2580621479848C16.797613075829783,178.41956535468168,18.478074575704373,158.77850842357807,20.186543767243542,144.0561411295433C21.89501295878271,129.33377383550848,23.631489841986454,119.53009617854241,25.339959033525627,106.58314031954414C27.048428225064793,93.63618446054586,28.728889724939382,77.54595039951538,30.43735891647856,75.85090612695392C32.145828108017724,74.15586185439247,33.88230499122147,86.85600737030006,35.61878187442522,93.49392266626205C37.35525875762897,100.13183796222403,39.0917356408327,100.70752303824038,40.80020483237188,122.48868354371051C42.50867402391105,144.26984404918062,44.18913552378564,187.25647998410446,45.8987717024775,214.64300139721698C47.60840788116936,242.0295228103295,49.347218738678485,253.8159297016306,51.056854917370345,271.3735534635031C52.7664910960622,288.93117722537545,54.446952595936786,312.26001785781915,56.155421787475966,316.041134701541C57.86389097901513,319.82225154526276,59.60036786221887,304.0556446002626,61.33684474542262,308.12416818521876C63.07332162862637,312.1926917701749,64.80979851183011,336.0963458850875,66.48909302455202,341.6230567598214C68.16838753727392,347.1497676345554,69.79049967951399,334.2995352691109,71.46979419223588,313.4583793768492C73.14908870495778,292.6172234845875,74.88556558816153,263.78514406550875,76.5940347797007,230.33512874491305C78.30250397123986,196.8851134243174,79.98296547111447,158.81716220220494,81.69143466265363,127.61418460228224C83.3999038541928,96.41120700235955,85.13638073739655,72.07320302462664,86.84484992893572,51.948334527944574C88.55331912047488,31.823466031262495,90.23378062034946,15.911733015631247,91.94224981188863,26.542498782374793C93.65071900342781,37.173264549118336,95.38719588663155,74.34652909823667,97.1236727698353,99.41245485020255C98.86014965303904,124.47838060216843,100.5966265362428,137.43696755698184,102.30509572778196,159.76103481954658C104.01356491932113,182.08510208211135,105.69402641919571,213.77464965242743,107.40366259788756,237.50083271243238C109.11329877657943,261.22701577243726,110.85210963408856,276.989834322131,112.56174581278042,284.2617715499966C114.27138199147227,291.5337087778621,115.95184349134688,290.3147646838994,117.66031268288604,287.52238946960705C119.36878187442521,284.73001425531464,121.10525875762896,280.3642079206926,122.84173564083271,281.51848687256603C124.57821252403646,282.6727658244395,126.31468940724021,289.3471300628085,127.96597622829752,290.5286530838962C129.61726304935485,291.7101761049839,131.18335980826575,287.3988579087902,132.83464662932306,279.26878328208073C134.4859334503804,271.1387086553712,136.22241033358415,259.18987759814587,137.93087952512332,226.9007438377946C139.6393487166625,194.61161007744337,141.3198102165371,141.98217361396618,143.02827940807626,109.94861332298034C144.73674859961542,77.91505303199449,146.47322548281917,66.47736891349996,148.18169467435834,60.29264286819603C149.8901638658975,54.107916822892115,151.57062536577212,53.176148850778794,153.27909455731128,47.97897933030671C154.98756374885045,42.78180980983461,156.72404063205417,33.319238741003744,158.46051751525792,54.10647073265617C160.19699439846167,74.89370272430861,161.93347128166542,125.93073777644435,163.64194047320458,165.4522624643931C165.35040966474375,204.97378715234186,167.03087116461836,232.9798014761037,168.7405073433102,249.28525512802935C170.4501435220021,265.59070877995504,172.1889543795112,270.19560176004455,173.89859055820307,276.02451984695256C175.60822673689495,281.8534379338605,177.28868823676953,288.9063811275868,178.9971574283087,293.5376142679043C180.70562661984786,298.1688474082218,182.44210350305158,300.3783704951304,184.96162876571077,291.9852734339559C187.48115402836996,283.59217637278135,190.78372767048464,264.5964591635238,193.30325293314385,243.5526221731839C195.82277819580304,222.50878518284398,197.5592550790068,199.41682841142176,199.26772427054593,176.7109760916226C200.97619346208512,154.00512377182346,202.6566549619597,131.68537590364738,204.36512415349887,118.06343567814024C206.07359334503803,104.4414954526331,207.81007022824178,99.51736286979492,209.51853941978095,85.76577351444705C211.22700861132012,72.01418415909917,212.9074701111947,49.43513803124163,214.6159393027339,52.97428712860269C216.32440849427306,56.51343622596375,218.0608853774768,86.17078054854342,219.79736226068056,109.50266847556527C221.53383914388428,132.83455640258714,223.27031602708803,149.8409879340512,224.9787852186272,167.70037141621268C226.68725441016636,185.5597548983741,228.36771591004097,204.272090331233,230.07735208873282,224.26446511875642C231.7869882674247,244.25683990627985,233.5257991249338,265.5292540484679,235.23543530362568,284.408634652401C236.9450714823175,303.2880152563341,238.6255329821921,319.7743623220122,240.33400217373128,330.2725182491951C242.04247136527044,340.770674176378,243.7789482484742,345.28063896506563,245.51542513167792,345.9905256468249C247.2519020148817,346.70041232858415,248.98837889808544,343.610220903415,250.6396657191428,334.90517316622817C252.29095254020012,326.2001254290413,253.85704929911103,311.8802213798369,255.50833612016837,281.7295908102197C257.1596229412257,251.57896024060256,258.8960998244294,205.5976031505727,260.6045690159686,175.15928577258543C262.31303820750776,144.72096839459812,263.99349970738234,129.82569072865334,265.7019688989215,110.27703748636021C267.4104380904607,90.72838424406712,269.1469149736644,66.52635542542566,270.8553841652036,47.93056731506966C272.56385335674275,29.33477920471366,274.24431485661734,16.34523180264311,275.9527840481565,18.469602374838104C277.66125323969567,20.593972947033098,279.3977301228994,37.83226149349364,281.13420700610317,67.62897707130374C282.8706838893069,97.42569264911383,284.60716077251067,139.78083525827347,286.31562996404983,169.9429052880246C288.024099155589,200.1049753177757,289.70456065546364,218.07397276811832,291.41419683415546,238.6937735474395C293.12383301284734,259.3135743267606,294.8626438703564,282.5841784350603,296.5722800490483,292.561478224298C298.2819162277401,302.5387780135357,299.96237772761475,299.22277348371136,301.6708469191539,304.8165618736832C303.3793161106931,310.410350263655,305.11579299389683,324.91393157342293,306.8522698771006,325.1525551335239C308.58874676030433,325.3911786936249,310.3252236435081,311.36484450405896,312.00451815622995,303.44790548150684C313.6838126689519,295.53096645895465,315.3059248111919,293.7234226034163,316.9852193239138,270.75080274627476C318.6645138366357,247.7781828891332,320.40099071983946,203.64048703038853,322.1094599113786,170.39769656373429C323.8179291029178,137.15490609708007,325.4983906027924,114.80702102251628,327.2068597943316,108.12892871099314C328.91532898587076,101.45083639946996,330.6518058690745,110.44253685098742,332.3602750606137,119.2550009013442C334.06874425215284,128.067464951701,335.7492057520274,136.7006926008971,337.4576749435666,148.17209475075398C339.16614413510575,159.64349690061087,340.9026210183095,173.95307355112848,342.63909790151325,179.37217606665664C344.375574784717,184.79127858218476,346.11205166792075,181.31990696272342,347.8205208594599,194.48841746967284C349.5289900509991,207.65692797662226,351.20945155087367,237.46532060998246,352.9190877295655,256.11212812983223C354.62872390825737,274.75893564968203,356.36753476576655,282.2441580560214,358.0771709444584,289.9006513386983C359.78680712315025,297.5571446213753,361.46726862302484,305.38490878038994,363.175737814564,308.5037091147634C364.88420700610317,311.6225094491369,366.6206838893069,310.03234595886926,368.35716077251067,308.2633664502634C370.0936376557144,306.49438694165747,371.83011453891817,304.5465914147133,373.48140135997545,295.1019686483205C375.1326881810328,285.6573458819277,376.6987849399438,268.7158958760863,378.35007176100106,258.2398130349769C380.0013585820584,247.76373019386747,381.7378354652621,243.7530145174902,383.44630465680126,216.69969872162574C385.1547738483405,189.64638292576137,386.83523534821506,139.5504670104099,388.5437045397542,115.03374121640734C390.2521737312934,90.51701542240473,391.98865061449715,91.57947974975103,393.69711980603626,92.56162287435728C395.4055889975754,93.54376599896354,397.08605049745006,94.44558792082977,398.7945196889893,96.10301743306108C400.5029888805284,97.76044694529241,402.23946576373214,100.17348404788885,403.9759426469359,111.5135710275082C405.71241953013964,122.85365800712758,407.4488964133434,143.12079486376987,409.1573656048825,163.11109653895713C410.86583479642167,183.10139821414438,412.5462962962963,202.81486470787658,414.25593247498813,220.45175300893678C415.96556865368,238.088641309997,417.7043795111892,253.6489514183852,419.41401568988096,264.7178501086435C421.12365186857284,275.78674879890184,422.8041133684474,282.3642360710303,424.51258255998664,288.5517447320808C426.22105175152575,294.7392533931313,427.9575286347295,300.53678344310396,429.69400551793325,302.66026723862467C431.430482401137,304.7837510341454,433.16695928434075,303.2331885752142,434.81824610539815,299.31456635943545C436.46953292645543,295.39594414365666,438.0356296853663,289.10926217103037,439.68691650642364,280.01753363893545C441.3382033274809,270.9258051068405,443.0746802106847,259.029030015277,444.7831494022239,238.92262789393973C446.4916185937631,218.8162257726025,448.1720800936377,190.50019662149157,449.8805492851768,153.3493784787056C451.58901847671603,116.1985603359197,453.3254953599198,70.21295320145879,455.0339645514589,44.81708907698374C456.7424337429981,19.421224952508698,458.4228952428727,14.615103838019516,460.1313644344118,38.694887968426634C461.83983362595103,62.77467209883375,463.5763105091548,115.74036147413716,465.31278739235853,148.5359645391098C467.0492642755623,181.3315676040825,468.78574115876603,193.95708435872442,470.49421035030514,204.71636011044612C472.20267954184436,215.47563586216788,473.88314104171894,224.3686706109694,475.5927772204108,236.69816973972465C477.3024133991027,249.02766886847994,479.04122425661177,264.7936323771889,480.7508604353036,276.9647730325674C482.4604966139955,289.1359136879458,484.14095811387006,297.7122314899937,485.84942730540934,298.91620871415455C487.55789649694844,300.1201859383154,489.29437338015214,293.9518225845892,491.0308502633559,287.7391810270663C492.76732714655964,281.52653946954337,494.50380402976344,275.26961970822373,496.1550908508207,275.7158161031175C497.806377671878,276.1620124980113,499.37247443078894,283.31132504911847,501.0237612518463,277.73672843914954C502.67504807290356,272.1621318291806,504.4115249561073,253.86362605813568,506.1199941476466,218.3554449585597C507.8284633391857,182.84726385898367,509.5089248390603,130.12940743087665,511.21739403059945,108.78866511467753C512.9258632221386,87.44792279847839,514.6623401053423,97.48429459418715,516.3708092968815,102.86445279990592C518.0792784884206,108.24461100562472,519.7597399882953,108.96855562135352,521.4682091798345,108.50889917940113C523.1766783713737,108.04924273744875,524.9131552545774,106.40598523781517,526.6496321377812,116.2891748779C528.3861090209849,126.1723645179848,530.1225859041887,147.582001297788,531.8310550957278,167.79986931841748C533.539524287267,188.017737339047,535.2199857871416,207.0438366005028,536.9296219658335,225.46176546033166C538.6392581445253,243.87969432016052,540.3780690020344,261.6894527783624,542.0877051807263,270.8955997123741C543.7973413594182,280.10174664638583,545.4778028592928,280.7042820562073,547.1862720508319,284.29113346021774C548.894741242371,287.87798486422815,550.6312181255747,294.44915226242745,552.3676950087785,292.2952353255387C554.1041718919822,290.14131838865006,555.840648775186,279.2623171166734,557.519943287908,275.14589384441985C559.1992378006299,271.0294705721663,560.8213499428699,273.67562529963584,562.5006444555919,274.29198597226804C564.1799389683138,274.9083466449003,565.9164158515174,273.49491326269515,567.6248850430567,251.06639593647003C569.3333542345957,228.63787861024494,571.0138157344703,185.19427733999987,572.7222849260095,161.32764748489245C574.4307541175486,137.461017629785,576.1672310007524,133.17135918981523,577.8757001922916,121.56992381804594C579.5841693838307,109.96848844627662,581.2646308837053,91.0552761427078,582.9731000752445,88.38505492824392C584.6815692667836,85.71483371378004,586.4180461499874,99.28760358842112,588.1545230331911,115.91382828712528C589.8909999163949,132.54005298582945,591.6274767995986,152.2197325085967,593.3359459911379,172.70626965060782C595.044415182677,193.19280679261897,596.7248766825516,214.48620155387394,598.4345128612434,230.59717084181446C600.1441490399353,246.70814012975498,601.8829598974445,257.636683944381,603.5925960761363,268.00608203230007C605.3022322548281,278.3754801202192,606.9826937547028,288.18573248143133,608.691162946242,298.894065149648C610.3996321377812,309.6023978178646,612.1361090209848,321.20881079308566,613.8725859041886,321.4932377431029C615.6090627873923,321.7776646931201,617.3455396705962,310.74010561793335,618.9968264916535,300.135797065118C620.6481133127108,289.5314885123027,622.2142100716218,279.3604304818587,623.8654968926791,265.32583359366924C625.5167837137363,251.2912367054798,627.2532605969401,233.39310095954488,628.9617297884793,203.72549448468817C630.6701989800184,174.05788800983146,632.350660479893,132.62081080605296,634.0591296714322,111.10576044957163C635.7675988629713,89.59071009309031,637.5040757461751,87.99768658390616,639.2125449377143,86.32297292844402C640.9210141292534,84.64825927298187,642.601475629128,82.89185547124174,644.3099448206672,85.08285781079742C646.0184140122063,87.27386015035312,647.7548908954101,93.41226863120461,649.4913677786138,111.16454130932806C651.2278446618176,128.9168139874515,652.9643215450213,158.28295086284686,654.6727907365605,183.94440891000048C656.3812599280997,209.60586695715406,658.0617214279742,231.56264617606595,659.7713576066661,244.65586971268644C661.480993785358,257.74909324930695,663.2198046428671,261.97876110363615,664.929440821559,264.9331398702057C666.6390770002508,267.88751863677527,668.3195385001254,269.5666083155852,669.1597692500627,270.4061531549902L670,271.24569799439513"></path><path class="line" stroke="#dcdbdb" d="M0,214.6247701551596L0.8682384416018727,231.04793933269823C1.7364768832037454,247.47110851023692,3.4729537664074908,280.3174468653142,5.124240587464816,293.35176499950325C6.775527408522141,306.38608313369235,8.341624167433045,299.60838104699314,9.99291098849037,279.9392136595041C11.644197809547697,260.27004627201507,13.380674692751443,227.70941358373622,15.089143884290612,200.93540802416763C16.797613075829783,174.16140246459904,18.478074575704373,153.1740240337407,20.186543767243542,138.59096890384842C21.89501295878271,124.00791377395613,23.631489841986454,115.82918194502987,25.339959033525627,109.63351748277542C27.048428225064793,103.43785302052095,28.728889724939382,99.22525592493827,30.43735891647856,102.73393371793702C32.145828108017724,106.24261151093577,33.88230499122147,117.47256419251596,35.61878187442522,140.12356356848943C37.35525875762897,162.7745629444629,39.0917356408327,196.84660901482968,40.80020483237188,219.97590725030003C42.50867402391105,243.10520548577037,44.18913552378564,255.29175588634428,45.8987717024775,267.2682012553819C47.60840788116936,279.24464662441943,49.347218738678485,291.0109869619207,51.056854917370345,289.23430014423553C52.7664910960622,287.4576133265504,54.446952595936786,272.13789935367885,56.155421787475966,265.2208214465522C57.86389097901513,258.3037435394255,59.60036786221887,259.78930169804386,61.33684474542262,270.9243030031773C63.07332162862637,282.05930430831063,64.80979851183011,302.84374875995917,66.48909302455202,305.95583466428485C68.16838753727392,309.0679205686106,69.79049967951399,294.5076479256135,71.46979419223588,281.23268831170486C73.14908870495778,267.9577286977962,74.88556558816153,255.96808211297594,76.5940347797007,234.76331782835175C78.30250397123986,213.55855354372758,79.98296547111447,183.13867155929947,81.69143466265363,150.02912739246594C83.3999038541928,116.91958322563238,85.13638073739655,81.12037687639338,86.84484992893572,63.618876927092664C88.55331912047488,46.117376977791956,90.23378062034946,46.913583428429526,91.94224981188863,55.7968024909519C93.65071900342781,64.68002155347426,95.38719588663155,81.65025322788142,97.1236727698353,108.37069825599627C98.86014965303904,135.09114328411113,100.5966265362428,171.56180166593367,102.30509572778196,194.00874556309023C104.01356491932113,216.45568946024676,105.69402641919571,224.87891887273727,107.40366259788756,238.969224499641C109.11329877657943,253.05953012654473,110.85210963408856,272.81691196786164,112.56174581278042,283.31369443760406C114.27138199147227,293.81047690734647,115.95184349134688,295.04666000551435,117.66031268288604,298.8372174712486C119.36878187442521,302.62777493698286,121.10525875762896,308.9727067702834,122.84173564083271,305.2697900054565C124.57821252403646,301.5668732406296,126.31468940724021,287.81610787767517,127.96597622829752,279.7358193391754C129.61726304935485,271.6555308006757,131.18335980826575,269.2457190866308,132.83464662932306,268.03406535564613C134.4859334503804,266.8224116246615,136.22241033358415,266.8089158767372,137.93087952512332,238.40283929394852C139.6393487166625,209.9967627111599,141.3198102165371,153.1981052935069,143.02827940807626,124.58547745414421C144.73674859961542,95.97284961478157,146.47322548281917,95.5462513537092,148.18169467435834,87.11760033389756C149.8901638658975,78.6889493140859,151.57062536577212,62.25824553553497,153.27909455731128,61.71781157632989C154.98756374885045,61.17737761712482,156.72404063205417,76.5272134772656,158.46051751525792,101.41811142666945C160.19699439846167,126.30900937607332,161.93347128166542,160.74096941474025,163.64194047320458,191.1726396608632C165.35040966474375,221.60430990698626,167.03087116461836,248.03569036056535,168.7405073433102,264.4732946650556C170.4501435220021,280.91089896954594,172.1889543795112,287.3547271249474,173.89859055820307,291.05193400822196C175.60822673689495,294.7491408914966,177.28868823676953,295.6997265026443,178.9971574283087,300.5860329924421C180.70562661984786,305.47233948223976,182.44210350305158,314.29436685068754,184.17858038625533,314.6030634133138C185.91505726945903,314.9117599759401,187.65153415266278,306.7071257327449,189.30282097372015,300.91735549161587C190.95410779477746,295.1275852504869,192.5202045536884,291.75267901142416,194.17149137474573,275.27228947640657C195.82277819580304,258.791899941389,197.5592550790068,229.20602711041658,199.26772427054593,205.31252804518422C200.97619346208512,181.4190289799519,202.6566549619597,163.21790368045959,204.36512415349887,151.8175585638846C206.07359334503803,140.41721344730965,207.81007022824178,135.81764851365196,209.51853941978095,118.06341926394919C211.22700861132012,100.30919001424643,212.9074701111947,69.40029644849854,214.6159393027339,74.59699816452425C216.32440849427306,79.79369988054997,218.0608853774768,121.09599687834925,219.79736226068056,147.820982071723C221.53383914388428,174.54596726509672,223.27031602708803,186.69364065404488,224.9787852186272,202.1084479861163C226.68725441016636,217.5232553181877,228.36771591004097,236.2051965933824,230.07735208873282,250.71609165635064C231.7869882674247,265.226986719319,233.5257991249338,275.56683557006096,235.23543530362568,282.60292692931483C236.9450714823175,289.6390182885686,238.6255329821921,293.37135215633435,240.33400217373128,297.75368460632427C242.04247136527044,302.1360170563143,243.7789482484742,307.1683480885285,245.51542513167792,307.9272638565216C247.2519020148817,308.68617962451475,248.98837889808544,305.1716801282868,250.6396657191428,306.52878298170106C252.29095254020012,307.8858858351153,253.85704929911103,314.11459103817174,255.50833612016837,299.64674496126395C257.1596229412257,285.1788988843562,258.8960998244294,250.0145015274842,260.6045690159686,215.91451686244227C262.31303820750776,181.81453219740033,263.99349970738234,148.77896022418838,265.7019688989215,132.21967587963758C267.4104380904607,115.66039153508677,269.1469149736644,115.57739481919707,270.8553841652036,108.92371861693857C272.56385335674275,102.27004241468008,274.24431485661734,89.0456867260528,275.9527840481565,84.62738698757602C277.66125323969567,80.20908724909923,279.3977301228994,84.59684346077292,281.13420700610317,104.95017780056975C282.8706838893069,125.30351214036659,284.60716077251067,161.62242460828654,286.31562996404983,194.32246794585458C288.024099155589,227.02251128342266,289.70456065546364,256.10368549063884,291.41419683415546,270.7721908476358C293.12383301284734,285.4406962046328,294.8626438703564,285.69653271141055,296.5722800490483,291.45654115158766C298.2819162277401,297.2165495917647,299.96237772761475,308.480729965341,301.6708469191539,309.69990652528526C303.3793161106931,310.91908308522943,305.11579299389683,302.0932558315415,306.8522698771006,294.0815326521144C308.58874676030433,286.06980947268715,310.3252236435081,278.8721903675208,312.00451815622995,272.82605282570916C313.6838126689519,266.77991528389765,315.3059248111919,261.8852593054409,316.9852193239138,241.83222833682757C318.6645138366357,221.77919736821423,320.40099071983946,186.56779140944425,322.1094599113786,171.6439538716911C323.8179291029178,156.7201163339379,325.4983906027924,162.08384721720157,327.2068597943316,159.13344889197433C328.91532898587076,156.18305056674706,330.6518058690745,144.9185230330289,332.3602750606137,144.21736952164562C334.06874425215284,143.51621601026238,335.7492057520274,153.37843652121404,337.4576749435666,161.17135114686153C339.16614413510575,168.96426577250904,340.9026210183095,174.68787451285235,342.63909790151325,180.14100200511646C344.375574784717,185.59412949738058,346.11205166792075,190.7767757415655,347.8205208594599,207.5677102823049C349.5289900509991,224.35864482304427,351.20945155087367,252.75786766033806,352.9190877295655,268.14911693498465C354.62872390825737,283.54036620963126,356.36753476576655,285.9236419216307,358.0771709444584,290.00347816709456C359.78680712315025,294.0833144125584,361.46726862302484,299.85971119148684,363.175737814564,301.51651942658503C364.88420700610317,303.17332766168323,366.6206838893069,300.71054735295115,368.35716077251067,298.06489325831006C370.0936376557144,295.4192391636691,371.83011453891817,292.5907112831191,373.48140135997545,288.83338065407844C375.1326881810328,285.0760500250378,376.6987849399438,280.3899166475065,378.35007176100106,272.9057041242748C380.0013585820584,265.42149160104304,381.7378354652621,255.1391999321108,383.44630465680126,239.44589014712315C385.1547738483405,223.75258036213552,386.83523534821506,202.64825246109248,388.5437045397542,179.88197540029796C390.2521737312934,157.1156983395035,391.98865061449715,132.68747211895754,393.69711980603626,130.60173234552178C395.4055889975754,128.51599257208605,397.08605049745006,148.77273924576045,398.7945196889893,159.1371683476781C400.5029888805284,169.5015974495958,402.23946576373214,169.97370897975676,403.9759426469359,176.21017091399605C405.71241953013964,182.44663284823534,407.4488964133434,194.44744518655298,409.1573656048825,204.9874765877212C410.86583479642167,215.52750798888948,412.5462962962963,224.60675845290834,414.25593247498813,241.71089281525C415.96556865368,258.8150271775917,417.7043795111892,283.9440454382562,419.41401568988096,295.37540024466176C421.12365186857284,306.8067550510672,422.8041133684474,304.5404464032137,424.51258255998664,298.11989662280894C426.22105175152575,291.69934684240417,427.9575286347295,281.12455592944815,429.69400551793325,281.2498775603934C431.430482401137,281.3751991913386,433.16695928434075,292.200633366185,434.81824610539815,296.4480104912944C436.46953292645543,300.6953876164038,438.0356296853663,298.3647076917761,439.68691650642364,295.1990798245503C441.3382033274809,292.0334519573246,443.0746802106847,288.0328761475007,444.7831494022239,264.31342988187896C446.4916185937631,240.59398361625722,448.1720800936377,197.15566689483762,449.8805492851768,167.3704108845456C451.58901847671603,137.5851548742536,453.3254953599198,121.45295957508911,455.0339645514589,116.40197484057404C456.7424337429981,111.35099010605897,458.4228952428727,117.38121593619333,460.1313644344118,117.69747143899959C461.83983362595103,118.01372694180587,463.5763105091548,112.61601211728407,465.31278739235853,128.72582338404234C467.0492642755623,144.8356346508006,468.78574115876603,182.45297200883897,470.49421035030514,207.53582325396C472.20267954184436,232.61867449908104,473.88314104171894,245.16703963128475,475.5927772204108,258.37310539712144C477.3024133991027,271.5791711629581,479.04122425661177,285.44293756242774,480.7508604353036,295.9865527970458C482.4604966139955,306.530168031664,484.14095811387006,313.75363210143047,485.84942730540934,313.5258008719793C487.55789649694844,313.297969642528,489.29437338015214,305.6188431138591,491.0308502633559,303.48066497540316C492.76732714655964,301.3424868369472,494.50380402976344,304.7452570887044,496.1550908508207,300.4941163947526C497.806377671878,296.2429757008008,499.37247443078894,284.33792406114003,501.0237612518463,268.14057442569714C502.67504807290356,251.94322479025428,504.4115249561073,231.45357715902932,506.1199941476466,212.74695222325497C507.8284633391857,194.04032728748064,509.5089248390603,177.11672504715693,511.21739403059945,169.07223175590354C512.9258632221386,161.02773846465016,514.6623401053423,161.8623541224671,516.3708092968815,156.42028158791044C518.0792784884206,150.97820905335377,519.7597399882953,139.25944832642344,521.4682091798345,136.15109624021872C523.1766783713737,133.04274415401403,524.9131552545774,138.5448007085349,526.6496321377812,145.7585931265492C528.3861090209849,152.97238554456348,530.1225859041887,161.8979138260712,531.8310550957278,181.27462595443907C533.539524287267,200.65133808280697,535.2199857871416,230.479234058035,536.9296219658335,247.5242479663946C538.6392581445253,264.5692618747542,540.3780690020344,268.83139371624543,542.0877051807263,274.78848427132704C543.7973413594182,280.7455748264086,545.4778028592928,288.3976240950805,547.1862720508319,294.19010508857565C548.894741242371,299.9825860820709,550.6312181255747,303.91549880038934,552.3676950087785,302.7279507452802C554.1041718919822,301.54040269017105,555.840648775186,295.2323938616342,557.519943287908,288.83846325705895C559.1992378006299,282.4445326524837,560.8213499428699,275.96468027187,562.5006444555919,268.23457495883025C564.1799389683138,260.50446964579044,565.9164158515174,251.5241114003246,567.6248850430567,236.45833132430474C569.3333542345957,221.39255124828483,571.0138157344703,200.24134934171093,572.7222849260095,181.24036543406078C574.4307541175486,162.23938152641065,576.1672310007524,145.38861561768434,577.8757001922916,136.08581864362404C579.5841693838307,126.78302166956375,581.2646308837053,125.0281936301695,582.9731000752445,124.96462146803026C584.6815692667836,124.90104930589102,586.4180461499874,126.52873302100676,588.1545230331911,134.48683185881228C589.8909999163949,142.4449306966178,591.6274767995986,156.7334446571131,593.3359459911379,179.21786051113716C595.044415182677,201.7022763651612,596.7248766825516,232.38259411271403,598.4345128612434,251.8476511107874C600.1441490399353,271.3127081088608,601.8829598974445,279.5625043574549,603.5925960761363,286.3340440951651C605.3022322548281,293.1055838328753,606.9826937547028,298.3988670597018,608.691162946242,301.9597555221135C610.3996321377812,305.5206439845252,612.1361090209848,307.3491376825222,613.8725859041886,310.7031373715554C615.6090627873923,314.0571370605885,617.3455396705962,318.9366427406578,618.9968264916535,319.08269490508025C620.6481133127108,319.2287470695026,622.2142100716218,314.6413457182782,623.8654968926791,301.77506971209556C625.5167837137363,288.9087937059128,627.2532605969401,267.76364304477175,628.9617297884793,237.19414373361383C630.6701989800184,206.62464442245584,632.350660479893,166.6307964612809,634.0591296714322,148.94860827561655C635.7675988629713,131.26642008995216,637.5040757461751,135.89589167979835,639.2125449377143,139.07601645801702C640.9210141292534,142.25614123623572,642.601475629128,143.98691920282684,644.3099448206672,140.9969856569106C646.0184140122063,138.00705211099435,647.7548908954101,130.29640705257066,649.4913677786138,146.161020670514C651.2278446618176,162.02563428845735,652.9643215450213,201.46550658276772,654.6727907365605,221.13235431164074C656.3812599280997,240.79920204051373,658.0617214279742,240.69302520394945,659.7713576066661,252.55246244130444C661.480993785358,264.41189967865944,663.2198046428671,288.23695098993375,664.929440821559,298.7759094159474C666.6390770002508,309.3148678419611,668.3195385001254,306.56773338271404,669.1597692500627,305.1941661530905L670,303.82059892346706"></path><path class="line" stroke="#84aec8" d="M0,312.92979112900787L0.8682384416018727,311.4746623159759C1.7364768832037454,310.0195335029439,3.4729537664074908,307.10927587687996,5.124240587464816,300.7187513708414C6.775527408522141,294.3282268648029,8.341624167433045,284.4574354787898,9.99291098849037,273.0842947296043C11.644197809547697,261.71115398041877,13.380674692751443,248.8356638680608,15.089143884290612,240.7529008902524C16.797613075829783,232.670137912444,18.478074575704373,229.3801020691852,20.186543767243542,230.948640529502C21.89501295878271,232.51717898981886,23.631489841986454,238.94429175371138,25.339959033525627,247.10446651888697C27.048428225064793,255.2646412840625,28.728889724939382,265.15787805052105,30.43735891647856,268.60988174519133C32.145828108017724,272.06188543986167,33.88230499122147,269.07265606274365,35.61878187442522,271.9551462120746C37.35525875762897,274.8376363614056,39.0917356408327,283.59184603718546,40.80020483237188,288.3083992195545C42.50867402391105,293.0249524019235,44.18913552378564,293.70384909088153,45.8987717024775,290.45210037425585C47.60840788116936,287.2003516576301,49.347218738678485,280.0179575354206,51.056854917370345,280.58596466837145C52.7664910960622,281.15397180132237,54.446952595936786,289.47238018943364,56.155421787475966,293.47832836400534C57.86389097901513,297.48427653857703,59.60036786221887,297.17776449960905,61.33684474542262,293.67038219664306C63.07332162862637,290.16299989367707,64.80979851183011,283.454747326713,66.48909302455202,273.4122325199841C68.16838753727392,263.3697177132553,69.79049967951399,249.99294066676157,71.46979419223588,241.01677911960587C73.14908870495778,232.04061757245017,74.88556558816153,227.46507152463244,76.5940347797007,230.224648312619C78.30250397123986,232.98422510060558,79.98296547111447,243.07892472439642,81.69143466265363,245.04694684350383C83.3999038541928,247.0149689626112,85.13638073739655,240.85631357703514,86.84484992893572,235.5140795391486C88.55331912047488,230.17184550126214,90.23378062034946,225.64603281106523,91.94224981188863,233.03395927893607C93.65071900342781,240.42188574680688,95.38719588663155,259.7235513727455,97.1236727698353,263.9621091529756C98.86014965303904,268.20066693320575,100.5966265362428,257.3761168677275,102.30509572778196,259.68496694407605C104.01356491932113,261.9938170204246,105.69402641919571,277.4360672386,107.40366259788756,284.83656020600137C109.11329877657943,292.2370531734028,110.85210963408856,291.5957888900302,112.56174581278042,289.346898622714C114.27138199147227,287.0980083553978,115.95184349134688,283.241492104138,117.66031268288604,281.80249341411354C119.36878187442521,280.3634947240891,121.10525875762896,281.3420135953,122.84173564083271,285.3588199624632C124.57821252403646,289.3756263296264,126.31468940724021,296.430720192742,127.96597622829752,285.90985605287864C129.61726304935485,275.38899191301533,131.18335980826575,247.29216977017305,132.83464662932306,242.27321343122378C134.4859334503804,237.2542570922745,136.22241033358415,255.3131665572183,137.93087952512332,249.8119618992156C139.6393487166625,244.31075724121283,141.3198102165371,215.2494384602636,143.02827940807626,205.85585623663562C144.73674859961542,196.4622740130076,146.47322548281917,206.73642834670082,148.18169467435834,215.5644358153219C149.8901638658975,224.39244328394304,151.57062536577212,231.774303887492,153.27909455731128,240.3563643994744C154.98756374885045,248.9384249114568,156.72404063205417,258.7206853318726,158.46051751525792,266.9949777089129C160.19699439846167,275.2692700859533,161.93347128166542,282.0355944196182,163.64194047320458,282.65566552014906C165.35040966474375,283.27573662068,167.03087116461836,277.74955448807697,168.7405073433102,277.3415974134847C170.4501435220021,276.9336403388924,172.1889543795112,281.6439083223109,173.89859055820307,283.2773755776616C175.60822673689495,284.9108428330123,177.28868823676953,283.4675093602951,178.9971574283087,286.4458396119324C180.70562661984786,289.4241698635697,182.44210350305158,296.8241638395616,184.17858038625533,297.8467392204006C185.91505726945903,298.86931460123964,187.65153415266278,293.51447138692566,189.30282097372015,284.5518791437882C190.95410779477746,275.5892869006506,192.5202045536884,263.01894562868944,194.17149137474573,255.67094709102977C195.82277819580304,248.32294855337008,197.5592550790068,246.19729275001188,199.26772427054593,250.4112981831912C200.97619346208512,254.6253036163706,202.6566549619597,265.17897028608746,204.36512415349887,263.5818317391939C206.07359334503803,261.98469319230037,207.81007022824178,248.23674942879634,209.51853941978095,245.81136803378138C211.22700861132012,243.3859866387664,212.9074701111947,252.2831676122404,214.6159393027339,256.8099651539034C216.32440849427306,261.33676269556645,218.0608853774768,261.4931768054185,219.79736226068056,262.3077088797122C221.53383914388428,263.1222409540059,223.27031602708803,264.59489099274134,224.9787852186272,267.3679647597165C226.68725441016636,270.1410385266917,228.36771591004097,274.21453602190667,230.07735208873282,279.552417631845C231.7869882674247,284.89029924178334,233.5257991249338,291.49256496644506,235.23543530362568,290.98057146580817C236.9450714823175,290.4685779651713,238.6255329821921,282.8423252392358,240.33400217373128,279.38544878675935C242.04247136527044,275.92857233428293,243.7789482484742,276.6410721552657,245.51542513167792,280.51844427774C247.2519020148817,284.39581640021436,248.98837889808544,291.4380608241803,250.6396657191428,289.34305154667436C252.29095254020012,287.24804226916837,253.85704929911103,276.01577929019055,255.50833612016837,266.54899018460105C257.1596229412257,257.08220107901155,258.8960998244294,249.38088584681046,260.6045690159686,240.97941262391646C262.31303820750776,232.5779394010224,263.99349970738234,223.4763081874355,265.7019688989215,218.54685822738963C267.4104380904607,213.6174082673438,269.1469149736644,212.8601395608391,270.8553841652036,215.8388745248758C272.56385335674275,218.8176094889125,274.24431485661734,225.5323481234907,275.9527840481565,230.39159458819196C277.66125323969567,235.2508410528932,279.3977301228994,238.25459534771758,281.13420700610317,244.96966513860124C282.8706838893069,251.68473492948488,284.60716077251067,262.11112021642776,286.31562996404983,264.43056688419716C288.024099155589,266.75001355196656,289.70456065546364,260.9625216005625,291.41419683415546,261.2633629468594C293.12383301284734,261.56420429315625,294.8626438703564,267.95337893715396,296.5722800490483,269.5941816945082C298.2819162277401,271.2349844518626,299.96237772761475,268.12741532257354,301.6708469191539,269.95016938829684C303.3793161106931,271.7729234540202,305.11579299389683,278.526000714756,306.8522698771006,284.76688381136864C308.58874676030433,291.0077669079813,310.3252236435081,296.7364558404708,312.00451815622995,296.3523013947508C313.6838126689519,295.96814694903065,315.3059248111919,289.471149125101,316.9852193239138,282.95570995746795C318.6645138366357,276.44027078983487,320.40099071983946,269.9063902784983,322.1094599113786,259.198285767538C323.8179291029178,248.4901812565777,325.4983906027924,233.60785274599365,327.2068597943316,228.51349925645766C328.91532898587076,223.4191457669217,330.6518058690745,228.1127672984338,332.3602750606137,231.92627549652207C334.06874425215284,235.73978369461028,335.7492057520274,238.67317855927467,337.4576749435666,245.28363045139386C339.16614413510575,251.89408234351308,340.9026210183095,262.1815912630871,342.63909790151325,268.74204511875394C344.375574784717,275.30249897442076,346.11205166792075,278.1358977661804,347.8205208594599,279.9883582349607C349.5289900509991,281.840818703741,351.20945155087367,282.71234084954193,352.9190877295655,284.61813697535786C354.62872390825737,286.5239331011738,356.36753476576655,289.4640032070046,358.0771709444584,291.1751196399612C359.78680712315025,292.8862360729179,361.46726862302484,293.36839883300024,363.175737814564,297.034439219625C364.88420700610317,300.7004796062498,366.6206838893069,307.550397619417,368.35716077251067,306.5570979742959C370.0936376557144,305.56379832917486,371.83011453891817,296.7272810257655,373.48140135997545,286.0604332250804C375.1326881810328,275.3935854243953,376.6987849399438,262.8964071264345,378.35007176100106,258.68099951098026C380.0013585820584,254.465591895526,381.7378354652621,258.53195496257825,383.44630465680126,257.3265673490469C385.1547738483405,256.12117973551557,386.83523534821506,249.64404144140067,388.5437045397542,249.02479474361792C390.2521737312934,248.40554804583516,391.98865061449715,253.6441929443845,393.69711980603626,245.5841053508744C395.4055889975754,237.5240177573643,397.08605049745006,216.16519767179474,398.7945196889893,212.19170938083744C400.5029888805284,208.2182210898801,402.23946576373214,221.63006459353508,403.9759426469359,232.65923971026152C405.71241953013964,243.68841482698795,407.4488964133434,252.33492155678582,409.1573656048825,258.5456148524136C410.86583479642167,264.75630814804134,412.5462962962963,268.531188009499,414.25593247498813,278.404490664162C415.96556865368,288.27779331882505,417.7043795111892,304.2495187666935,419.41401568988096,309.25191000657105C421.12365186857284,314.25430124644856,422.8041133684474,308.2873582783352,424.51258255998664,302.63602440166477C426.22105175152575,296.9846905249944,427.9575286347295,291.6489657397669,429.69400551793325,296.35472382159134C431.430482401137,301.06048190341585,433.16695928434075,315.80772285229233,434.81824610539815,312.0287394430591C436.46953292645543,308.24975603382586,438.0356296853663,285.94454826648285,439.68691650642364,274.3437762332115C441.3382033274809,262.74300419994006,443.0746802106847,261.8466679007402,444.7831494022239,260.3082683574159C446.4916185937631,258.7698688140916,448.1720800936377,256.58940602664273,449.8805492851768,259.2558958851142C451.58901847671603,261.9223857435858,453.3254953599198,269.43582824797767,455.0339645514589,268.1695382404899C456.7424337429981,266.90324823300216,458.4228952428727,256.8572257136347,460.1313644344118,252.79516603713458C461.83983362595103,248.73310636063445,463.5763105091548,250.65500952700168,465.31278739235853,261.85592401698585C467.0492642755623,273.05683850697005,468.78574115876603,293.53676432057125,470.49421035030514,296.7961019332758C472.20267954184436,300.0554395459803,473.88314104171894,286.09418895778805,475.5927772204108,285.47652453673317C477.3024133991027,284.8588601156783,479.04122425661177,297.5847818617608,480.7508604353036,300.6843203480531C482.4604966139955,303.7838588343454,484.14095811387006,297.2570140608475,485.84942730540934,295.22589630408635C487.55789649694844,293.1947785473252,489.29437338015214,295.65938780730085,491.0308502633559,287.16135687418324C492.76732714655964,278.6633259410656,494.50380402976344,259.2026548148547,496.1550908508207,253.02576182672217C497.806377671878,246.8488688385897,499.37247443078894,253.95575398853558,501.0237612518463,258.6518048203309C502.67504807290356,263.3478556521262,504.4115249561073,265.63307216577095,506.1199941476466,259.9068002229212C507.8284633391857,254.18052828007148,509.5089248390603,240.4427678807273,511.21739403059945,233.49115030938492C512.9258632221386,226.53953273804257,514.6623401053423,226.37405799470207,516.3708092968815,227.80375045390372C518.0792784884206,229.23344291310534,519.7597399882953,232.25830257484913,521.4682091798345,238.86809379577645C523.1766783713737,245.4778850167038,524.9131552545774,255.67260779681473,526.6496321377812,266.0667160131966C528.3861090209849,276.4608242295784,530.1225859041887,287.0543178822312,531.8310550957278,292.9995816022688C533.539524287267,298.9448453223063,535.2199857871416,300.2418791097287,536.9296219658335,301.3326745360949C538.6392581445253,302.4234699624612,540.3780690020344,303.30802702777123,542.0877051807263,301.976622129358C543.7973413594182,300.64521723094487,545.4778028592928,297.0978503688084,547.1862720508319,293.5110709820615C548.894741242371,289.9242915953145,550.6312181255747,286.2980996839571,552.3676950087785,278.5622346312595C554.1041718919822,270.826369578562,555.840648775186,258.9808313845243,557.519943287908,253.82263366763164C559.1992378006299,248.66443595073886,560.8213499428699,250.1935787109911,562.5006444555919,248.94248332020672C564.1799389683138,247.69138792942235,565.9164158515174,243.66005438760143,567.6248850430567,238.2096705273801C569.3333542345957,232.7592866671588,571.0138157344703,225.88985248853712,572.7222849260095,227.7132893846103C574.4307541175486,229.53672628068344,576.1672310007524,240.05303425145152,577.8757001922916,248.0615862091577C579.5841693838307,256.0701381668639,581.2646308837053,261.57093411150817,582.9731000752445,263.2974928102765C584.6815692667836,265.02405150904474,586.4180461499874,262.976372961937,588.1545230331911,262.8540273264274C589.8909999163949,262.7316816909177,591.6274767995986,264.53466896700616,593.3359459911379,270.0946665902313C595.044415182677,275.65466421345644,596.7248766825516,284.9716721838183,598.4345128612434,290.8991900089117C600.1441490399353,296.8267078340051,601.8829598974445,299.36473551383006,603.5925960761363,299.27661613407474C605.3022322548281,299.18849675431943,606.9826937547028,296.4742303149838,608.691162946242,298.0184336598102C610.3996321377812,299.56263700463666,612.1361090209848,305.3653101336251,613.8725859041886,309.348311166447C615.6090627873923,313.33131219926895,617.3455396705962,315.4946411359244,618.9968264916535,306.63941868198395C620.6481133127108,297.78419622804347,622.2142100716218,277.91042238350707,623.8654968926791,271.8362488903493C625.5167837137363,265.7620753971915,627.2532605969401,273.4875022554124,628.9617297884793,271.8663645197082C630.6701989800184,270.24522678400405,632.350660479893,259.27752445437477,634.0591296714322,260.1241688417863C635.7675988629713,260.9708132291978,637.5040757461751,273.6318043336501,639.2125449377143,275.1004140192457C640.9210141292534,276.56902370484136,642.601475629128,266.84525197158035,644.3099448206672,260.9958399463715C646.0184140122063,255.14642792116283,647.7548908954101,253.17137560400633,649.4913677786138,257.3627146806925C651.2278446618176,261.55405375737865,652.9643215450213,271.91178422790745,654.6727907365605,279.58196666384487C656.3812599280997,287.2521490997822,658.0617214279742,292.2347835011281,659.7713576066661,292.6822298366743C661.480993785358,293.1296761722205,663.2198046428671,289.04193444196693,664.929440821559,292.6221556412477C666.6390770002508,296.20237684052836,668.3195385001254,307.45056096934337,669.1597692500627,313.07465303375085L670,318.6987450981583"></path><path class="line" stroke="#dc4404" d="M0,297.693941977558L0.8682384416018727,298.45679048315054C1.7364768832037454,299.21963898874304,3.4729537664074908,300.74533599992816,5.124240587464816,301.55223660383496C6.775527408522141,302.35913720774175,8.341624167433045,302.4472414043703,9.99291098849037,297.4525524210788C11.644197809547697,292.45786343778735,13.380674692751443,282.3803812745759,15.089143884290612,281.49187382641094C16.797613075829783,280.603366378246,18.478074575704373,288.9038336451277,20.186543767243542,283.22869067649737C21.89501295878271,277.5535477078669,23.631489841986454,257.90279450372446,25.339959033525627,248.5058348550998C27.048428225064793,239.10887520647512,28.728889724939382,239.96570911336815,30.43735891647856,244.37513534013502C32.145828108017724,248.78456156690189,33.88230499122147,256.7465801135426,35.61878187442522,260.6295589133427C37.35525875762897,264.51253771314276,39.0917356408327,264.31647676610226,40.80020483237188,271.84727853429644C42.50867402391105,279.37808030249056,44.18913552378564,294.6357447859193,45.8987717024775,302.3542499721061C47.60840788116936,310.0727551582929,49.347218738678485,310.2521010472377,51.056854917370345,312.17647113829173C52.7664910960622,314.1008412293458,54.446952595936786,317.77023552250904,56.155421787475966,320.3303819532001C57.86389097901513,322.8905283838912,59.60036786221887,324.34142695211,61.33684474542262,322.1826451054503C63.07332162862637,320.02386325879064,64.80979851183011,314.25540099725237,66.48909302455202,311.1109177884159C68.16838753727392,307.9664345795794,69.79049967951399,307.4459304234447,71.46979419223588,307.7541346372794C73.14908870495778,308.06233885111413,74.88556558816153,309.1992514349183,76.5940347797007,308.8236079524622C78.30250397123986,308.44796447000607,79.98296547111447,306.5597649212896,81.69143466265363,299.3151897139897C83.3999038541928,292.07061450668976,85.13638073739655,279.46966364080623,86.84484992893572,266.7287380929919C88.55331912047488,253.98781254517746,90.23378062034946,241.1069123154322,91.94224981188863,235.01717437332775C93.65071900342781,228.9274364312233,95.38719588663155,229.6288607767597,97.1236727698353,236.93297843663606C98.86014965303904,244.23709609651246,100.5966265362428,258.1439070707288,102.30509572778196,262.99611430957583C104.01356491932113,267.84832154842286,105.69402641919571,263.6459250519006,107.40366259788756,269.1899874706375C109.11329877657943,274.7340498893744,110.85210963408856,290.0245712233705,112.56174581278042,294.77742582560404C114.27138199147227,299.5302804278375,115.95184349134688,293.74546829830837,117.66031268288604,301.8028813019671C119.36878187442521,309.8602943056258,121.10525875762896,331.75993244247235,122.84173564083271,337.1213361012038C124.57821252403646,342.48273975993516,126.31468940724021,331.30590894055143,127.96597622829752,319.3480796237638C129.61726304935485,307.39025030697616,131.18335980826575,294.65142249278466,132.83464662932306,295.35747040818853C134.4859334503804,296.0635183235924,136.22241033358415,310.2144419685917,137.93087952512332,308.0730728600912C139.6393487166625,305.93170375159065,141.3198102165371,287.4980418895903,143.02827940807626,280.168905309281C144.73674859961542,272.8397687289717,146.47322548281917,276.6151574303535,148.18169467435834,278.9753490446962C149.8901638658975,281.3355406590388,151.57062536577212,282.2805351863423,153.27909455731128,276.41231578096864C154.98756374885045,270.54409637559485,156.72404063205417,257.8626630375438,158.46051751525792,259.0125776611806C160.19699439846167,260.16249228481735,161.93347128166542,275.1437548701419,163.64194047320458,284.9683925258474C165.35040966474375,294.79303018155287,167.03087116461836,299.4610429076394,168.7405073433102,302.8607853181996C170.4501435220021,306.26052772875977,172.1889543795112,308.3919998237937,173.89859055820307,307.93761787697457C175.60822673689495,307.4832359301555,177.28868823676953,304.44299994148344,178.9971574283087,306.19477159437645C180.70562661984786,307.9465432472695,182.44210350305158,314.49032254172766,184.17858038625533,312.4367409385561C185.91505726945903,310.3831593353845,187.65153415266278,299.73221683458314,189.30282097372015,298.2922045682581C190.95410779477746,296.85219230193314,192.5202045536884,304.62311027008445,194.17149137474573,308.0554153453072C195.82277819580304,311.48772042052997,197.5592550790068,310.5814126028242,199.26772427054593,303.67991166046494C200.97619346208512,296.7784107181057,202.6566549619597,283.881716651093,204.36512415349887,273.40424706730727C206.07359334503803,262.92677748352145,207.81007022824178,254.86853238296263,209.51853941978095,251.89746859113754C211.22700861132012,248.9264047993125,212.9074701111947,251.04252231622124,214.6159393027339,252.6595335242823C216.32440849427306,254.27654473234335,218.0608853774768,255.39444963155674,219.79736226068056,258.09240672543575C221.53383914388428,260.79036381931473,223.27031602708803,265.06837310785926,224.9787852186272,269.24116743143804C226.68725441016636,273.4139617550168,228.36771591004097,277.4815411136299,230.07735208873282,280.74620472099224C231.7869882674247,284.01086832835455,233.5257991249338,286.4726161844663,235.23543530362568,287.5250571860159C236.9450714823175,288.5774981875656,238.6255329821921,288.2206323345531,240.33400217373128,289.54209659365733C242.04247136527044,290.86356085276157,243.7789482484742,293.8633552239825,245.51542513167792,295.6101041985162C247.2519020148817,297.35685317304984,248.98837889808544,297.85055675089626,250.6396657191428,301.9196916618823C252.29095254020012,305.98882657286833,253.85704929911103,313.63339281699405,255.50833612016837,313.15588819916917C257.1596229412257,312.67838358134424,258.8960998244294,304.07880810156877,260.6045690159686,298.9595552074289C262.31303820750776,293.84030231328893,263.99349970738234,292.2013720047846,265.7019688989215,292.2667365965922C267.4104380904607,292.3321011883998,269.1469149736644,294.10176068051925,270.8553841652036,295.2326758779551C272.56385335674275,296.36359107539096,274.24431485661734,296.8557619781431,275.9527840481565,294.68735602959106C277.66125323969567,292.5189500810389,279.3977301228994,287.68996728118253,281.13420700610317,283.26481215579184C282.8706838893069,278.83965703040116,284.60716077251067,274.81832957947614,286.31562996404983,279.799747330201C288.024099155589,284.7811650809258,289.70456065546364,298.7653280333004,291.41419683415546,305.4868878735218C293.12383301284734,312.2084477137432,294.8626438703564,311.6674044418114,296.5722800490483,304.1248767602014C298.2819162277401,296.58234907859145,299.96237772761475,282.03833698730324,301.6708469191539,277.67961308761113C303.3793161106931,273.32088918791897,305.11579299389683,279.1474534798229,306.8522698771006,292.2514028696192C308.58874676030433,305.3553522594155,310.3252236435081,325.73668674710416,312.00451815622995,329.16079524211693C313.6838126689519,332.5849037371297,315.3059248111919,319.0517862394666,316.9852193239138,315.82642436092476C318.6645138366357,312.601062482383,320.40099071983946,319.68345622296255,322.1094599113786,314.5499094408559C323.8179291029178,309.41636265874934,325.4983906027924,292.0668753539566,327.2068597943316,283.9794265349433C328.91532898587076,275.89197771592995,330.6518058690745,277.066567382696,332.3602750606137,277.52558244013113C334.06874425215284,277.98459749756626,335.7492057520274,277.72803794567045,337.4576749435666,273.5530605346751C339.16614413510575,269.37808312367974,340.9026210183095,261.2846878535849,342.63909790151325,268.32398131375663C344.375574784717,275.3632747739284,346.11205166792075,297.5352569643669,347.8205208594599,307.2714263906677C349.5289900509991,317.00759581696855,351.20945155087367,314.3079524791317,352.9190877295655,307.3706666509842C354.62872390825737,300.4333808228368,356.36753476576655,289.2584525043787,358.0771709444584,291.6566174746267C359.78680712315025,294.0547824448748,361.46726862302484,310.026040703829,363.175737814564,315.518858530888C364.88420700610317,321.011676357947,366.6206838893069,316.02605375311094,368.35716077251067,318.7412982730589C370.0936376557144,321.45654279300675,371.83011453891817,331.8726544377387,373.48140135997545,334.2312169436144C375.1326881810328,336.5897794494902,376.6987849399438,330.8907928165099,378.35007176100106,323.3500204787552C380.0013585820584,315.8092481410006,381.7378354652621,306.4266900984716,383.44630465680126,299.1191968601951C385.1547738483405,291.8117036219185,386.83523534821506,286.5792751878943,388.5437045397542,286.75020375140593C390.2521737312934,286.92113231491754,391.98865061449715,292.4954178759651,393.69711980603626,296.76076279536466C395.4055889975754,301.02610771476424,397.08605049745006,303.9825119925158,398.7945196889893,294.95539874440465C400.5029888805284,285.9282854962935,402.23946576373214,264.91765472231964,403.9759426469359,257.6708229997451C405.71241953013964,250.42399127717053,407.4488964133434,256.9409586059953,409.1573656048825,262.4329356161152C410.86583479642167,267.924912626235,412.5462962962963,272.3918993176499,414.25593247498813,275.8291597858721C415.96556865368,279.26642025409427,417.7043795111892,281.6739544991237,419.41401568988096,291.0363928469089C421.12365186857284,300.39883119469414,422.8041133684474,316.7161736452352,424.51258255998664,320.5019653018773C426.22105175152575,324.2877569585193,427.9575286347295,315.5419978212623,429.69400551793325,312.0102357382531C431.430482401137,308.4784736552438,433.16695928434075,310.1607086264823,434.81824610539815,308.22027645437225C436.46953292645543,306.2798442822622,438.0356296853663,300.71674496680373,439.68691650642364,297.15556821733713C441.3382033274809,293.5943914678706,443.0746802106847,292.03513728439594,444.7831494022239,283.06426664656476C446.4916185937631,274.0933960087336,448.1720800936377,257.71090891654575,449.8805492851768,253.34715845935924C451.58901847671603,248.9834080021727,453.3254953599198,256.6383941799875,455.0339645514589,264.34387697530946C456.7424337429981,272.0493597706314,458.4228952428727,279.8053391834605,460.1313644344118,277.28675226639973C461.83983362595103,274.768165349339,463.5763105091548,261.97501210238835,465.31278739235853,256.231271356658C467.0492642755623,250.48753061092768,468.78574115876603,251.79320236641763,470.49421035030514,255.0571486736288C472.20267954184436,258.32109498084,473.88314104171894,263.54331583977233,475.5927772204108,268.4389730838863C477.3024133991027,273.33463032800023,479.04122425661177,277.90372395729565,480.7508604353036,279.92115402268536C482.4604966139955,281.93858408807495,484.14095811387006,281.40435058955876,485.84942730540934,283.641511686268C487.55789649694844,285.8786727829773,489.29437338015214,290.887228474912,491.0308502633559,291.6146040669359C492.76732714655964,292.3419796589599,494.50380402976344,288.7881751510731,496.1550908508207,289.7707861827145C497.806377671878,290.75339721435586,499.37247443078894,296.2724237855253,501.0237612518463,295.2892674949733C502.67504807290356,294.30611120442126,504.4115249561073,286.82077205214773,506.1199941476466,285.1309791922634C507.8284633391857,283.4411863323791,509.5089248390603,287.546939764884,511.21739403059945,284.4047001707938C512.9258632221386,281.26246057670363,514.6623401053423,270.87222795601843,516.3708092968815,266.43736034857517C518.0792784884206,262.0024927411319,519.7597399882953,263.52299014693057,521.4682091798345,267.351656440147C523.1766783713737,271.1803227333634,524.9131552545774,277.3171579139976,526.6496321377812,280.0316198873847C528.3861090209849,282.74608186077177,530.1225859041887,282.0381706269117,531.8310550957278,284.1168992837955C533.539524287267,286.1956279406793,535.2199857871416,291.0609964883069,536.9296219658335,290.15433730432284C538.6392581445253,289.24767812033866,540.3780690020344,282.5689912047428,542.0877051807263,284.490700529772C543.7973413594182,286.4124098548012,545.4778028592928,296.9345154204554,547.1862720508319,304.306288169919C548.894741242371,311.67806091938263,550.6312181255747,315.89950085265565,552.3676950087785,318.3272495330881C554.1041718919822,320.75499821352054,555.840648775186,321.3890556411123,557.519943287908,318.43817432831185C559.1992378006299,315.4872930155114,560.8213499428699,308.95147296231875,562.5006444555919,299.29070381876573C564.1799389683138,289.62993467521267,565.9164158515174,276.84421644129924,567.6248850430567,275.7812667668398C569.3333542345957,274.71831709238046,571.0138157344703,285.37813597737505,572.7222849260095,290.715665913269C574.4307541175486,296.05319584916293,576.1672310007524,296.0684368359562,577.8757001922916,296.09632475181644C579.5841693838307,296.12421266767666,581.2646308837053,296.16474751260375,582.9731000752445,292.7752422867972C584.6815692667836,289.3857370609907,586.4180461499874,282.5661917644505,588.1545230331911,275.9192615895577C589.8909999163949,269.27233141466496,591.6274767995986,262.79801636141957,593.3359459911379,265.93253656661176C595.044415182677,269.0670567718039,596.7248766825516,281.81041223543355,598.4345128612434,292.36243861451595C600.1441490399353,302.9144649935983,601.8829598974445,311.27516228813334,603.5925960761363,314.3865943177682C605.3022322548281,317.498026347403,606.9826937547028,315.36019311213767,608.691162946242,314.4812130247263C610.3996321377812,313.602232937315,612.1361090209848,313.98210599775774,613.8725859041886,311.0154932985577C615.6090627873923,308.04888059935763,617.3455396705962,301.73578214051474,618.9968264916535,298.46441338738146C620.6481133127108,295.1930446342481,622.2142100716218,294.96340558682436,623.8654968926791,294.8801195708165C625.5167837137363,294.79683355480864,627.2532605969401,294.8599005702167,628.9617297884793,289.4552037643321C630.6701989800184,284.05050695844756,632.350660479893,273.17804633127037,634.0591296714322,271.5748632585034C635.7675988629713,269.9716801857365,637.5040757461751,277.6377746673798,639.2125449377143,278.9216303214757C640.9210141292534,280.2054859755715,642.601475629128,275.10710280211987,644.3099448206672,279.0694238520437C646.0184140122063,283.0317449019676,647.7548908954101,296.05477017526704,649.4913677786138,301.8137771446095C651.2278446618176,307.5727841139519,652.9643215450213,306.0677727793374,654.6727907365605,304.41070566166894C656.3812599280997,302.7536385440005,658.0617214279742,300.9445156432781,659.7713576066661,298.246580093025C661.480993785358,295.54864454277185,663.2198046428671,291.961896342988,664.929440821559,292.33183538109256C666.6390770002508,292.7017744191972,668.3195385001254,297.0284006951902,669.1597692500627,299.1917138331867L670,301.3550269711833"></path><path class="line" stroke="#5581BA" d="M0,282.5173279486032L0.8682384416018727,277.7752033030933C1.7364768832037454,273.0330786575834,3.4729537664074908,263.54882936656355,5.124240587464816,246.70195526254756C6.775527408522141,229.8550811585316,8.341624167433045,205.6455822415195,9.99291098849037,185.83857701766217C11.644197809547697,166.03157179380486,13.380674692751443,150.62706026310232,15.089143884290612,146.95199345631866C16.797613075829783,143.276926649535,18.478074575704373,151.33130456667018,20.186543767243542,159.00932806169712C21.89501295878271,166.68735155672402,23.631489841986454,173.98902062964262,25.339959033525627,178.01882436885282C27.048428225064793,182.04862810806299,28.728889724939382,182.8065665135647,30.43735891647856,191.51832211512283C32.145828108017724,200.230077716681,33.88230499122147,216.89565051429562,35.61878187442522,227.7002926280954C37.35525875762897,238.5049347418952,39.0917356408327,243.4486461718802,40.80020483237188,246.61872710656334C42.50867402391105,249.78880804124648,44.18913552378564,251.18525848062777,45.8987717024775,257.8427009190347C47.60840788116936,264.5001433574416,49.347218738678485,276.4185777948741,51.056854917370345,278.3675496037881C52.7664910960622,280.3165214127022,54.446952595936786,272.2960305930977,56.155421787475966,272.7726664898585C57.86389097901513,273.2493023866194,59.60036786221887,282.2230649997454,61.33684474542262,278.2812216278142C63.07332162862637,274.33937825588305,64.80979851183011,257.4819288988946,66.48909302455202,243.15952886675555C68.16838753727392,228.83712883461655,69.79049967951399,217.04977812732696,71.46979419223588,208.10711917527541C73.14908870495778,199.16446022322387,74.88556558816153,193.0664930264103,76.5940347797007,194.04944372921884C78.30250397123986,195.03239443202733,79.98296547111447,203.0962630344579,81.69143466265363,207.5810074185168C83.3999038541928,212.06575180257573,85.13638073739655,212.97137196826296,86.84484992893572,213.8372435287769C88.55331912047488,214.70311508929083,90.23378062034946,215.52923804463148,91.94224981188863,215.3610139242813C93.65071900342781,215.1927898039311,95.38719588663155,214.03021860789013,97.1236727698353,221.35866415075407C98.86014965303904,228.68710969361794,100.5966265362428,244.50657197538672,102.30509572778196,250.4536902938415C104.01356491932113,256.40080861229626,105.69402641919571,252.47558296743705,107.40366259788756,253.98790528535713C109.11329877657943,255.5002276032773,110.85210963408856,262.4500978839768,112.56174581278042,267.25812796889113C114.27138199147227,272.06615805380545,115.95184349134688,274.7323479429346,117.66031268288604,281.318969943236C119.36878187442521,287.9055919435375,121.10525875762896,298.4126460550113,122.84173564083271,292.4525925332584C124.57821252403646,286.4925390115054,126.31468940724021,264.0653778565258,127.96597622829752,242.65181457138632C129.61726304935485,221.23825128624685,131.18335980826575,200.8382858709475,132.83464662932306,187.1914051027699C134.4859334503804,173.5445243345923,136.22241033358415,166.65072821353647,137.93087952512332,166.59232323875625C139.6393487166625,166.53391826397603,141.3198102165371,173.31090443547146,143.02827940807626,184.20010999970168C144.73674859961542,195.0893155639319,146.47322548281917,210.09074052089693,148.18169467435834,211.05743296741855C149.8901638658975,212.0241254139402,151.57062536577212,198.95608535001847,153.27909455731128,197.51951534474497C154.98756374885045,196.0829453394715,156.72404063205417,206.27784539284633,158.46051751525792,211.69363388319093C160.19699439846167,217.10942237353547,161.93347128166542,217.74609930084975,163.64194047320458,228.9229516638593C165.35040966474375,240.09980402686884,167.03087116461836,261.8168318255736,168.7405073433102,272.91376349210606C170.4501435220021,284.0106951586385,172.1889543795112,284.4875306929985,173.89859055820307,282.0049634872475C175.60822673689495,279.52239628149636,177.28868823676953,274.08042633563406,178.9971574283087,271.5108278058203C180.70562661984786,268.9412292760066,182.44210350305158,269.2440021622413,184.17858038625533,265.8118703080291C185.91505726945903,262.3797384538168,187.65153415266278,255.2127018591575,189.30282097372015,241.43449853435644C190.95410779477746,227.65629520955534,192.5202045536884,207.2669251546125,194.17149137474573,192.5589547475935C195.82277819580304,177.85098434057446,197.5592550790068,168.82441358147932,199.26772427054593,160.07971059483108C200.97619346208512,151.33500760818282,202.6566549619597,142.8721723939815,204.36512415349887,146.10475856838215C206.07359334503803,149.33734474278285,207.81007022824178,164.26535230578554,209.51853941978095,173.8016772594965C211.22700861132012,183.33800221320743,212.9074701111947,187.48264455762663,214.6159393027339,192.91166781025697C216.32440849427306,198.34069106288734,218.0608853774768,205.05409522372884,219.79736226068056,213.140168123173C221.53383914388428,221.2262410226172,223.27031602708803,230.68498266066408,224.9787852186272,239.46776000499324C226.68725441016636,248.25053734932237,228.36771591004097,256.35735039993386,230.07735208873282,258.81277715105205C231.7869882674247,261.2682039021703,233.5257991249338,258.07224435379527,235.23543530362568,258.28379619368866C236.9450714823175,258.49534803358205,238.6255329821921,262.1144112617438,240.33400217373128,261.90856171183935C242.04247136527044,261.7027121619349,243.7789482484742,257.67194983396433,245.51542513167792,256.0577553010964C247.2519020148817,254.44356076822848,248.98837889808544,255.24593403046325,250.6396657191428,248.653372785936C252.29095254020012,242.06081154140875,253.85704929911103,228.07331579011952,255.50833612016837,211.63196987076742C257.1596229412257,195.1906239514154,258.8960998244294,176.29542786400052,260.6045690159686,168.172070950177C262.31303820750776,160.04871403635352,263.99349970738234,162.6971962961214,265.7019688989215,162.42522628090913C267.4104380904607,162.15325626569688,269.1469149736644,158.96083397550447,270.8553841652036,163.58671085749918C272.56385335674275,168.21258773949393,274.24431485661734,180.65676379367582,275.9527840481565,190.4939099862995C277.66125323969567,200.3310561789232,279.3977301228994,207.56117250998872,281.13420700610317,213.47777602647474C282.8706838893069,219.3943795429607,284.60716077251067,223.99747024486723,286.31562996404983,228.24596435568117C288.024099155589,232.4944584664951,289.70456065546364,236.38835598621645,291.41419683415546,242.865703561268C293.12383301284734,249.3430511363196,294.8626438703564,258.40384876670134,296.5722800490483,270.01619757507416C298.2819162277401,281.628546383447,299.96237772761475,295.7924463698109,301.6708469191539,296.58456938005696C303.3793161106931,297.37669239030305,305.11579299389683,284.7970384244314,306.8522698771006,279.2076554494684C308.58874676030433,273.61827247450543,310.3252236435081,275.0191604904512,312.00451815622995,273.48904724115005C313.6838126689519,271.9589339918489,315.3059248111919,267.4978194773008,316.9852193239138,249.8617502443766C318.6645138366357,232.22568101145237,320.40099071983946,201.41465706015197,322.1094599113786,190.4915405978139C323.8179291029178,179.56842413547585,325.4983906027924,188.53321516210016,327.2068597943316,196.48457433303906C328.91532898587076,204.43593350397796,330.6518058690745,211.37386081923148,332.3602750606137,216.21242458243432C334.06874425215284,221.05098834563714,335.7492057520274,223.79018855678927,337.4576749435666,220.05744556531033C339.16614413510575,216.3247025738314,340.9026210183095,206.1200163797214,342.63909790151325,214.46883780181648C344.375574784717,222.81765922391162,346.11205166792075,249.7199882622119,347.8205208594599,257.6784777577656C349.5289900509991,265.63696725331937,351.20945155087367,254.6516172061266,352.9190877295655,254.12139697733494C354.62872390825737,253.5911767485433,356.36753476576655,263.51608633815283,358.0771709444584,268.1197486642645C359.78680712315025,272.72341099037607,361.46726862302484,272.0058260529898,363.175737814564,272.53444343602035C364.88420700610317,273.0630608190509,366.6206838893069,274.8378805224982,368.35716077251067,270.9364402716106C370.0936376557144,267.035000020723,371.83011453891817,257.4572998155004,373.48140135997545,243.91296096126754C375.1326881810328,230.36862210703467,376.6987849399438,212.8576446037916,378.35007176100106,203.54720518235408C380.0013585820584,194.23676576091657,381.7378354652621,193.1268644212846,383.44630465680126,194.49008597219833C385.1547738483405,195.85330752311202,386.83523534821506,199.68965196457137,388.5437045397542,191.8063263329133C390.2521737312934,183.9230007012553,391.98865061449715,164.32000499647984,393.69711980603626,163.7948641391248C395.4055889975754,163.26972328176979,397.08605049745006,181.82243727183518,398.7945196889893,202.0959518624301C400.5029888805284,222.3694664530251,402.23946576373214,244.36378164414955,403.9759426469359,254.33908772470045C405.71241953013964,264.31439380525137,407.4488964133434,262.2706907752287,409.1573656048825,264.510391968011C410.86583479642167,266.75009316079337,412.5462962962963,273.2731985763808,414.25593247498813,274.62909283238645C415.96556865368,275.9849870883922,417.7043795111892,272.1736701848161,419.41401568988096,276.2548283881959C421.12365186857284,280.33598659157565,422.8041133684474,292.3096199019113,424.51258255998664,295.7840954449102C426.22105175152575,299.258570987909,427.9575286347295,294.2338887635711,429.69400551793325,285.9538265931809C431.430482401137,277.67376442279067,433.16695928434075,266.13832230634813,434.81824610539815,246.82378303032806C436.46953292645543,227.50924375430796,438.0356296853663,200.41560731871036,439.68691650642364,184.70140514093293C441.3382033274809,168.9872029631555,443.0746802106847,164.6524350431983,444.7831494022239,171.03576951800184C446.4916185937631,177.4191039928054,448.1720800936377,194.5205408623697,449.8805492851768,200.2164900492866C451.58901847671603,205.91243923620348,453.3254953599198,200.20290074047298,455.0339645514589,204.48490113958405C456.7424337429981,208.76690153869512,458.4228952428727,223.04044083264773,460.1313644344118,233.5543999326691C461.83983362595103,244.06835903269044,463.5763105091548,250.82273793878053,465.31278739235853,255.5529171567157C467.0492642755623,260.2830963746508,468.78574115876603,262.9890759044311,470.49421035030514,265.40025861378786C472.20267954184436,267.81144132314466,473.88314104171894,269.927827212078,475.5927772204108,270.443884456077C477.3024133991027,270.95994170007606,479.04122425661177,269.8756702991408,480.7508604353036,271.4239774482145C482.4604966139955,272.9722845972882,484.14095811387006,277.1531702963709,485.84942730540934,277.18081179418715C487.55789649694844,277.20845329200347,489.29437338015214,273.08285058855336,491.0308502633559,263.1257219935839C492.76732714655964,253.16859339861446,494.50380402976344,237.37993891212568,496.1550908508207,222.69794806607385C497.806377671878,208.015957220022,499.37247443078894,194.44063001440705,501.0237612518463,192.48299807826746C502.67504807290356,190.52536614212787,504.4115249561073,200.18542947546362,506.1199941476466,208.10059207218376C507.8284633391857,216.01575466890392,509.5089248390603,222.18601652900847,511.21739403059945,220.83466407968083C512.9258632221386,219.48331163035314,514.6623401053423,210.6103448715933,516.3708092968815,212.26510215351325C518.0792784884206,213.91985943543318,519.7597399882953,226.1023407580329,521.4682091798345,231.91379742844626C523.1766783713737,237.7252540988596,524.9131552545774,237.1656861170865,526.6496321377812,238.82500490271377C528.3861090209849,240.48432368834105,530.1225859041887,244.3625292413686,531.8310550957278,255.8676738386971C533.539524287267,267.3728184360256,535.2199857871416,286.504902077655,536.9296219658335,293.5751626533491C538.6392581445253,300.64542322904316,540.3780690020344,295.65386073880194,542.0877051807263,294.8304929054378C543.7973413594182,294.0071250720737,545.4778028592928,297.3519518955867,547.1862720508319,295.12450923107434C548.894741242371,292.89706656656205,550.6312181255747,285.0973544140243,552.3676950087785,275.95705649563513C554.1041718919822,266.81675857724593,555.840648775186,256.3358748930052,557.519943287908,236.1339947048641C559.1992378006299,215.93211451672298,560.8213499428699,186.00923782468146,562.5006444555919,178.1011743656131C564.1799389683138,170.1931109065447,565.9164158515174,184.29986068044946,567.6248850430567,193.77663330742212C569.3333542345957,203.2534059343948,571.0138157344703,208.10020141443542,572.7222849260095,210.58122937941587C574.4307541175486,213.0622573443964,576.1672310007524,213.17751779431674,577.8757001922916,215.95683100568476C579.5841693838307,218.73614421705273,581.2646308837053,224.17951018986835,582.9731000752445,225.67357746515412C584.6815692667836,227.16764474043987,586.4180461499874,224.71241331819576,588.1545230331911,231.55615641525893C589.8909999163949,238.39989951232212,591.6274767995986,254.54261712869257,593.3359459911379,261.3155079595079C595.044415182677,268.0883987903233,596.7248766825516,265.4914628355835,598.4345128612434,262.6135319330086C600.1441490399353,259.73560103043366,601.8829598974445,256.57667518002364,603.5925960761363,255.61621520186353C605.3022322548281,254.6557552237034,606.9826937547028,255.89376111779328,608.691162946242,254.5311411469835C610.3996321377812,253.16852117617364,612.1361090209848,249.20527534046417,613.8725859041886,244.81238230768508C615.6090627873923,240.41948927490603,617.3455396705962,235.5969490450573,618.9968264916535,227.20310595889725C620.6481133127108,218.80926287273715,622.2142100716218,206.84411693026573,623.8654968926791,192.7230941964879C625.5167837137363,178.60207146271011,627.2532605969401,162.32517193762598,628.9617297884793,154.7229393285948C630.6701989800184,147.12070671956363,632.350660479893,148.19314102658544,634.0591296714322,159.38398689786445C635.7675988629713,170.57483276914346,637.5040757461751,191.88409020467967,639.2125449377143,202.10797115386472C640.9210141292534,212.33185210304975,642.601475629128,211.47035656588363,644.3099448206672,214.0484646227196C646.0184140122063,216.6265726795555,647.7548908954101,222.64428433039356,649.4913677786138,230.13314986644798C651.2278446618176,237.62201540250246,652.9643215450213,246.58203482377326,654.6727907365605,252.87866543762667C656.3812599280997,259.1752960514801,658.0617214279742,262.80853785791606,659.7713576066661,272.6452654886668C661.480993785358,282.4819931194174,663.2198046428671,298.5222065744827,664.929440821559,301.3065055963979C666.6390770002508,304.0908046183132,668.3195385001254,293.6191892070784,669.1597692500627,288.383381501461L670,283.14757379584364"></path><g class="legend" x="605" y="25" height="100" width="100"><g><rect x="605" y="0" width="10" height="10" style="fill: rgb(243, 187, 59);"></rect><text x="620" y="8" height="30" width="100">Kansas Field Station</text></g><g><rect x="605" y="25" width="10" height="10" style="fill: rgb(220, 219, 219);"></rect><text x="620" y="33" height="30" width="100">Konza Prairie LTER ()</text></g><g><rect x="605" y="50" width="10" height="10" style="fill: rgb(132, 174, 200);"></rect><text x="620" y="58" height="30" width="100">S. Calif. Grassland</text></g><g><rect x="605" y="75" width="10" height="10" style="fill: rgb(220, 68, 4);"></rect><text x="620" y="83" height="30" width="100">Sevilleta grassland</text></g><g><rect x="605" y="100" width="10" height="10" style="fill: rgb(85, 129, 186);"></rect><text x="620" y="108" height="30" width="100">Vaira Ranch</text></g></g><g class="mouse-over-effects"><path class="mouse-line" d="M607,360 607,0" style="stroke: black; stroke-width: 1px; opacity: 0;"></path><g class="mouse-per-line" transform="translate(607,288.20355224609375)"><circle r="7" style="stroke: rgb(243, 187, 59); fill: none; stroke-width: 1px; opacity: 0;"></circle><text transform="translate(10,3)" style="opacity: 0;">0.07</text></g><g class="mouse-per-line" transform="translate(607,297.34332275390625)"><circle r="7" style="stroke: rgb(220, 219, 219); fill: none; stroke-width: 1px; opacity: 0;"></circle><text transform="translate(10,3)" style="opacity: 0;">0.04</text></g><g class="mouse-per-line" transform="translate(607,297.6841735839844)"><circle r="7" style="stroke: rgb(132, 174, 200); fill: none; stroke-width: 1px; opacity: 0;"></circle><text transform="translate(10,3)" style="opacity: 0;">0.04</text></g><g class="mouse-per-line" transform="translate(607,315.64166259765625)"><circle r="7" style="stroke: rgb(220, 68, 4); fill: none; stroke-width: 1px; opacity: 0;"></circle><text transform="translate(10,3)" style="opacity: 0;">-0.01</text></g><g class="mouse-per-line" transform="translate(607,255.2171630859375)"><circle r="7" style="stroke: rgb(85, 129, 186); fill: none; stroke-width: 1px; opacity: 0;"></circle><text transform="translate(10,3)" style="opacity: 0;">0.17</text></g><rect width="670" height="360" fill="none" pointer-events="all"></rect></g></g></svg>