<?xml version="1.0" standalone="no"?><!-- Generator: Gravit.io --><svg xmlns="http://www.w3.org/2000/svg" xmlns:xlink="http://www.w3.org/1999/xlink" style="isolation:isolate" viewBox="0 0 400 300" width="400" height="300"><defs><clipPath id="_clipPath_XfttFDfw8qUSrozcIlS60TyEzx1wNufg"><rect width="400" height="300"/></clipPath></defs><g clip-path="url(#_clipPath_XfttFDfw8qUSrozcIlS60TyEzx1wNufg)"><clipPath id="_clipPath_IwRG6WTh8p0C63npErq0DxGEMVcItcN5"><rect x="0" y="0" width="400" height="300" transform="matrix(1,0,0,1,0,0)" fill="rgb(255,255,255)"/></clipPath><g clip-path="url(#_clipPath_IwRG6WTh8p0C63npErq0DxGEMVcItcN5)"><g id="Group"><g opacity="0"><rect x="0" y="0" width="400" height="300" transform="matrix(1,0,0,1,0,0)" fill="rgb(248,248,248)"/></g><path d=" M 66.637 150 C 66.637 104.819 103.319 68.137 148.5 68.137 C 193.681 68.137 230.363 104.819 230.363 150 C 230.363 195.181 193.681 231.863 148.5 231.863 C 103.319 231.863 66.637 195.181 66.637 150 Z " fill="rgb(244,186,56)" fill-opacity="0.5" vector-effect="non-scaling-stroke" stroke-width="3" stroke="rgb(244,186,56)" stroke-opacity="100" stroke-linejoin="round" stroke-linecap="butt" stroke-miterlimit="1.414"/><path d=" M 169.637 150 C 169.637 104.819 206.319 68.137 251.5 68.137 C 296.681 68.137 333.363 104.819 333.363 150 C 333.363 195.181 296.681 231.863 251.5 231.863 C 206.319 231.863 169.637 195.181 169.637 150 Z " fill="rgb(220,68,5)" fill-opacity="0.5" vector-effect="non-scaling-stroke" stroke-width="3" stroke="rgb(220,68,5)" stroke-opacity="100" stroke-linejoin="round" stroke-linecap="butt" stroke-miterlimit="1.414"/><g id="Group"><g transform="matrix(1,0,0,1,121.5,125.487)"><text transform="matrix(1,0,0,1,0,38.479)" style="font-family:&quot;Open Sans&quot;;font-weight:700;font-size:36px;font-style:normal;fill:#DC4405;stroke:none;">A</text></g></g><g id="Group"><g transform="matrix(1,0,0,1,251.5,125.487)"><text transform="matrix(1,0,0,1,0,38.479)" style="font-family:&quot;Open Sans&quot;;font-weight:700;font-size:36px;font-style:normal;fill:#DC4405;stroke:none;">B</text></g></g><g id="Group"><g transform="matrix(1,0,0,1,190.637,122.487)"><text transform="matrix(1,0,0,1,0,38.479)" style="font-family:&quot;Open Sans&quot;;font-weight:700;font-size:36px;font-style:normal;fill:#DC4405;stroke:none;">x</text></g></g></g></g></g></svg>