<?xml version="1.0" standalone="no"?><!-- Generator: Gravit.io --><svg xmlns="http://www.w3.org/2000/svg" xmlns:xlink="http://www.w3.org/1999/xlink" style="isolation:isolate" viewBox="0 0 400 300" width="400" height="300"><defs><clipPath id="_clipPath_mASQO9U5a2kyot82M525LD27ydBhHuyb"><rect width="400" height="300"/></clipPath></defs><g clip-path="url(#_clipPath_mASQO9U5a2kyot82M525LD27ydBhHuyb)"><rect width="400" height="300" style="fill:rgb(248,248,248)"/><path d=" M 489 -56 L 541 -28.902 L 541 -28.902 L 541 -28.902" fill="none" vector-effect="non-scaling-stroke" stroke-width="2" stroke="rgb(255,117,58)" stroke-linejoin="miter" stroke-linecap="square" stroke-miterlimit="3"/><path d=" M 758 15 L 667 -56 L 625.902 28.196" fill="none" vector-effect="non-scaling-stroke" stroke-width="2" stroke="rgb(255,117,58)" stroke-linejoin="miter" stroke-linecap="square" stroke-miterlimit="3"/><path d=" M 746 -51 L 667 -56 L 667 -54 L 667 -54" fill="none" vector-effect="non-scaling-stroke" stroke-width="2" stroke="rgb(255,117,58)" stroke-linejoin="miter" stroke-linecap="square" stroke-miterlimit="3"/><path d=" M 496.098 -17.902 Q 530.098 -12.902 545 -28.902 Q 589.509 17.468 627 28.196 Q 636.174 30.821 627 28.196 L 642.098 125.098" fill="none" vector-effect="non-scaling-stroke" stroke-width="2" stroke="rgb(255,117,58)" stroke-linejoin="miter" stroke-linecap="square" stroke-miterlimit="3"/><path d=" M 543.902 99 L 625.902 28.098 L 625.902 28.098" fill="rgb(255,117,58)" vector-effect="non-scaling-stroke" stroke-width="2" stroke="rgb(255,117,58)" stroke-linejoin="miter" stroke-linecap="square" stroke-miterlimit="3"/><path d=" M 481 -56.902 C 481 -61.923 485.077 -66 490.098 -66 C 495.119 -66 499.196 -61.923 499.196 -56.902 C 499.196 -51.881 495.119 -47.804 490.098 -47.804 C 485.077 -47.804 481 -51.881 481 -56.902 Z " fill="rgb(255,199,80)"/><path d=" M 532 -28.902 C 532 -33.923 536.077 -38 541.098 -38 C 546.119 -38 550.196 -33.923 550.196 -28.902 C 550.196 -23.881 546.119 -19.804 541.098 -19.804 C 536.077 -19.804 532 -23.881 532 -28.902 Z " fill="rgb(255,117,58)"/><path d=" M 659 -56.902 C 659 -61.923 663.077 -66 668.098 -66 C 673.119 -66 677.196 -61.923 677.196 -56.902 C 677.196 -51.881 673.119 -47.804 668.098 -47.804 C 663.077 -47.804 659 -51.881 659 -56.902 Z " fill="rgb(234,160,0)"/><path d=" M 534.804 98.098 C 534.804 93.077 538.881 89 543.902 89 C 548.923 89 553 93.077 553 98.098 C 553 103.119 548.923 107.196 543.902 107.196 C 538.881 107.196 534.804 103.119 534.804 98.098 Z " fill="rgb(234,160,0)"/><path d=" M 746.098 14.902 C 746.098 9.881 750.175 5.804 755.196 5.804 C 760.217 5.804 764.294 9.881 764.294 14.902 C 764.294 19.923 760.217 24 755.196 24 C 750.175 24 746.098 19.923 746.098 14.902 Z " fill="rgb(244,186,56)"/><path d=" M 615 28.098 C 615 23.077 619.077 19 624.098 19 C 629.119 19 633.196 23.077 633.196 28.098 C 633.196 33.119 629.119 37.196 624.098 37.196 C 619.077 37.196 615 33.119 615 28.098 Z " fill="rgb(220,68,5)"/><path d=" M 487 -16.902 C 487 -21.923 491.077 -26 496.098 -26 C 501.119 -26 505.196 -21.923 505.196 -16.902 C 505.196 -11.881 501.119 -7.804 496.098 -7.804 C 491.077 -7.804 487 -11.881 487 -16.902 Z " fill="rgb(255,199,80)"/><path d=" M 629 126.098 C 629 121.077 633.077 117 638.098 117 C 643.119 117 647.196 121.077 647.196 126.098 C 647.196 131.119 643.119 135.196 638.098 135.196 C 633.077 135.196 629 131.119 629 126.098 Z " fill="rgb(220,68,5)"/><path d=" M 737 -52 C 737 -57.021 741.077 -61.098 746.098 -61.098 C 751.119 -61.098 755.196 -57.021 755.196 -52 C 755.196 -46.979 751.119 -42.902 746.098 -42.902 C 741.077 -42.902 737 -46.979 737 -52 Z " fill="rgb(234,160,0)"/><path d=" M 43 101 L 55 139 L 43 172 L 177 172 Q 200.427 178.975 200 195 Q 199.971 196.084 200 246 L 206 250 L 213 246 L 213 216 Q 224.76 241.089 242 237 Q 242.086 236.98 273 237 L 279 231 L 273 224 Q 242.416 224.057 242 224 C 231.163 222.519 222.971 209.672 226 200 Q 233.084 177.375 197 150 L 339 150 L 347 139 L 339 130 Q 278.669 130.061 279 130 Q 303.522 125.507 310 98 L 310 84 L 302 79 L 296 84 Q 296.057 97.672 296 98 Q 294.237 108.218 277 118 L 169 118 Q 200.747 101.814 206 81 Q 206.245 80.031 206 51 L 197 44 L 186 51 L 186 79 Q 172.252 100.213 159 101 Q 158.287 101.042 43 101 Z " fill="rgb(220,68,5)" vector-effect="non-scaling-stroke" stroke-width="1" stroke="rgb(255,117,58)" stroke-linejoin="miter" stroke-linecap="square" stroke-miterlimit="3"/><g transform="matrix(1,0,0,1,13,125.248)"><text transform="matrix(1,0,0,1,0,23.16)" style="font-family:&quot;Maven Pro&quot;;font-weight:400;font-size:24px;font-style:normal;fill:#dc4405;stroke:none;">A</text></g><g transform="matrix(1,0,0,1,186,10)"><text transform="matrix(1,0,0,1,0,23.16)" style="font-family:&quot;Maven Pro&quot;;font-weight:400;font-size:24px;font-style:normal;fill:#dc4405;stroke:none;">B</text></g><g transform="matrix(1,0,0,1,296,38.2)"><text transform="matrix(1,0,0,1,0,23.16)" style="font-family:&quot;Maven Pro&quot;;font-weight:400;font-size:24px;font-style:normal;fill:#dc4405;stroke:none;">C</text></g><g transform="matrix(1,0,0,1,360,124.9)"><text transform="matrix(1,0,0,1,0,23.16)" style="font-family:&quot;Maven Pro&quot;;font-weight:400;font-size:24px;font-style:normal;fill:#dc4405;stroke:none;">D</text></g><g transform="matrix(1,0,0,1,299,216.9)"><text transform="matrix(1,0,0,1,0,23.16)" style="font-family:&quot;Maven Pro&quot;;font-weight:400;font-size:24px;font-style:normal;fill:#dc4405;stroke:none;">E</text></g><g transform="matrix(1,0,0,1,197,256)"><text transform="matrix(1,0,0,1,0,23.16)" style="font-family:&quot;Maven Pro&quot;;font-weight:400;font-size:24px;font-style:normal;fill:#dc4405;stroke:none;">F</text></g></g></svg>